<svg width="728" height="500" viewBox="0 0 728 500" fill="none" xmlns="http://www.w3.org/2000/svg">
<path d="M439.768 532.477C486.087 516.353 542.278 478.613 595.254 395.263C596.975 392.488 596.62 388.898 594.258 386.52C592.282 384.519 589.409 383.983 586.899 384.857C586.443 385.015 585.872 385.214 585.456 385.487C580.72 388.416 575.898 390.734 570.879 392.482C545.665 401.259 517.245 396.045 487.485 390.658C462.205 386.015 436.122 381.268 410.573 385.04C409.011 385.328 407.597 385.308 406.451 385.323C408.99 383.799 412.824 381.952 418.643 379.927C418.985 379.808 419.213 379.728 419.555 379.609C435.528 374.049 457.819 375.251 481.484 376.359C509.739 377.79 540.594 379.34 567.632 369.927C578.128 366.274 588.142 360.867 597.133 353.257C625.007 329.343 628.018 300.513 629.938 281.409C630.51 275.705 631.019 270.919 632.01 267.885C633.074 264.698 631.728 261.198 628.84 259.515C626.954 258.507 624.85 258.343 622.911 259.018C621.77 259.415 620.823 260.001 619.995 260.93C608.625 273.465 595.358 281.284 580.983 286.288C561.931 292.92 541.055 294.682 520.675 296.399C501.06 298.107 482.436 299.725 465.432 305.26C454.514 308.804 446.655 306.803 444.425 302.97C442.702 299.858 444.858 295.394 449.847 291.353C452.758 289.06 456.592 287.213 461.155 285.624C473.705 281.256 491.747 279.072 510.554 276.878C532.68 274.297 555.262 271.557 574.2 264.965C581.045 262.582 587.464 259.707 593.108 256.078C610.382 245.072 631.483 220.443 634.319 187.066C636.019 165.862 630.619 133.815 594.996 101.662C593.14 100.004 590.495 99.3885 588.173 100.069C588.059 100.108 587.945 100.148 587.831 100.188C585.549 100.982 583.893 102.839 583.274 105.103C577.358 128.158 541.394 147.207 519.923 158.65C514.725 161.355 510.326 163.783 507.142 165.659C494.976 172.967 486.67 180.339 480.025 186.237C473.871 191.708 470.395 194.583 467.543 195.575C466.288 196.012 465.181 196.141 464.07 195.888C464.231 190.839 473.391 176 482.788 167.352C491.318 159.518 502.799 152.448 514.885 144.912C541.295 128.55 571.152 109.963 579.465 77.6231C586.797 49.0815 571.378 30.5082 556.5 12.3868C542.982 -4.03171 529.037 -20.9417 528.835 -47.2445C528.873 -50.0744 527.08 -52.6511 524.391 -53.7633C522.778 -54.3541 520.982 -54.369 519.385 -53.813C518.358 -53.4556 517.411 -52.8698 516.657 -52.0953C508.481 -43.6159 499.151 -38.448 489.112 -34.9531C479.072 -31.4583 468.55 -29.716 458.296 -27.9389C448.995 -26.3653 439.58 -24.7521 431.023 -21.7735C419.272 -17.683 409.085 -10.9363 403.263 2.10078C397.777 14.6364 398.142 38.8342 398.756 64.4817C399.22 87.4929 400.055 129.578 390.973 133.252C382.038 122.28 372.943 45.8138 385.51 8.79266C386.392 6.18128 385.666 3.36132 383.73 1.4747C381.794 -0.411927 378.922 -0.948188 376.412 -0.074473L376.298 -0.034763C375.613 0.203522 374.929 0.441807 374.244 0.680092C362.721 4.69122 350.825 6.52782 339.197 8.39918C328.636 10.0273 317.846 11.7349 308.035 15.1503C294.344 19.916 282.571 27.9832 275.415 44.1728C263.958 70.0533 272.788 95.7854 281.185 120.644C288.544 142.151 295.392 162.556 290.511 183.075C289.65 158.921 277.72 135.677 266.974 115.093C254.811 91.5451 244.298 71.2641 253.583 57.1498C255.491 54.181 254.904 50.2887 252.313 47.99C250.303 46.2573 247.584 45.7955 245.302 46.5898C244.503 46.8678 243.744 47.26 243.065 47.8805C234.868 54.8308 223.737 59.6016 212.037 64.5709C187.762 74.9414 160.258 86.692 152.557 121.891C147.41 145.319 164.512 175.341 182.592 207.071C198.483 235.082 215.034 263.887 211.541 282.515C211.288 283.627 211.11 284.585 210.739 285.354C210.455 284.173 210.092 282.763 209.799 280.817C205.127 246.084 183.615 217.725 164.516 192.623C148.724 171.875 135.225 154.042 137.286 139.754C137.815 136.497 135.784 133.235 132.713 132.128C131.1 131.537 129.458 131.597 127.975 132.113C126.492 132.629 125.168 133.602 124.27 135.067C61.1531 237.054 64.6629 307.398 78.7445 348.586C91.4696 385.508 118.459 414.905 151.105 427.481C174.84 436.503 195.463 435.853 213.26 429.657C230.83 423.541 245.693 412.222 258.476 399.707C285.224 365.943 298.303 341.418 298.601 340.802C299.419 339.109 300.931 337.943 302.528 337.387C304.354 336.751 306.303 336.841 308.189 337.848C311.613 339.601 312.97 343.866 311.221 347.291C310.809 347.947 292.962 381.557 256.177 424.704C244.622 451.771 242.261 480.63 268.374 504.571C286.789 521.461 310.331 533.238 336.316 539.171C356.476 543.804 378.117 544.976 399.781 542.172C411.717 540.449 425.279 537.52 439.768 532.477ZM414.637 366.214C414.294 366.334 413.838 366.492 413.496 366.612C401.254 371.129 385.268 378.486 388.171 389.766C390.105 397.159 399.667 400.743 412.595 398.932C435.856 395.571 460.714 400.105 484.883 404.494C513.417 409.668 542.681 415.1 569.974 407.52C523.15 474.005 474.974 505.371 435.043 519.271C421.581 523.957 409.085 526.642 397.834 528.127C352.293 533.994 307.417 521.193 277.899 494.086C245.015 463.924 268.248 424.471 299.395 379.829C311.239 362.776 319.899 350.543 320.683 340.669C320.88 338.296 319.857 336.091 318.08 334.661C317.926 334.587 317.346 334.021 317.192 333.946L316.343 333.346C315.301 332.556 314.036 332.229 312.736 332.169L309.868 332.015C308.3 331.921 306.35 331.831 304.326 331.896C303.562 331.906 302.952 331.99 302.268 332.228C301.811 332.387 301.355 332.546 300.824 332.859C292.601 337.898 284.068 348.293 274.142 360.198C257.226 380.682 236.362 405.996 208.639 415.647C193.351 420.969 176.012 421.499 156.079 413.843C127.313 402.861 103.461 376.597 92.1273 343.671C79.7202 307.662 76.3792 246.989 126.272 158.823C131.493 171.984 141.879 185.652 153.239 200.646C171.211 224.348 191.516 251.078 195.68 282.147C197.891 298.788 205.493 301.519 209.889 301.653C211.303 301.673 212.637 301.465 214.006 300.988C219.483 299.082 223.796 293.1 225.364 284.744C229.782 261.058 212.759 231.264 194.872 199.723C178.868 171.752 162.352 142.679 166.385 124.503C172.537 96.2443 194.496 86.9362 217.669 77.077C223.785 74.436 229.94 71.9091 235.897 68.8113C235.886 84.9465 244.989 102.646 254.445 120.99C265.703 142.676 277.354 165.122 276.284 187.771C275.853 198.291 281.001 203.156 286.171 204.045C288.24 204.477 290.338 204.259 292.392 203.544C296.613 202.074 300.307 198.356 302.11 193.247C311.83 166.051 303.04 140.433 294.682 115.689C286.687 92.3552 279.244 70.2374 288.476 49.3563C293.629 37.7043 302.03 31.7073 312.754 27.9741C321.083 25.075 330.806 23.6107 341.482 21.9429C350.441 20.4885 359.554 19.1085 368.845 16.7704C360.725 57.7485 367.518 125.03 379.929 141.577C383.663 146.423 387.726 147.441 390.475 147.252C392.499 147.188 394.29 146.82 395.887 146.264C414.483 139.791 413.794 102.904 412.925 64.0303C412.462 41.019 411.988 17.2432 416.289 7.55234C420.109 -0.947065 426.428 -5.57892 435.555 -8.75606C442.4 -11.1389 450.823 -12.6628 460.849 -14.3605C471.599 -16.1822 482.959 -18.0883 494.139 -21.9803C501.669 -24.6014 509.149 -28.1013 516.226 -33.1254C520.361 -9.85589 533.839 6.44845 545.803 20.9754C560.175 38.3769 571.518 52.2237 565.963 73.7453C559.106 100.713 532.885 116.882 507.536 132.62C494.805 140.508 482.793 147.89 473.322 156.692C468.869 160.803 446.804 184.871 450.558 199.696C451.651 204.308 455.176 207.818 460.083 209.054C464.494 210.335 468.389 210.132 472.154 208.821C478.314 206.677 483.789 201.826 489.754 196.549C496.022 191.039 503.724 184.133 514.828 177.451C517.898 175.614 522.109 173.38 526.965 170.793C547.602 159.897 580.303 142.496 593.09 118.969C612.777 139.513 622.141 162.371 620.238 185.566C617.906 213.775 600.116 234.691 585.57 243.979C580.873 247.022 575.442 249.425 569.624 251.451C552.168 257.527 530.311 260.143 508.949 262.714C489.532 264.992 470.879 267.26 456.619 272.225C450.572 274.329 445.334 276.921 441.139 280.302C430.516 288.736 426.965 300.215 432.175 309.667C437.111 318.703 450.797 324.949 470.083 318.62C485.45 313.526 503.235 312.072 521.973 310.415C542.695 308.578 564.945 306.722 585.822 299.454C596.09 295.88 606.149 290.97 615.418 284.159C613.552 301.58 609.689 323.921 587.934 342.632C580.342 349.116 571.92 353.584 562.907 356.721C538.721 365.141 510.198 363.675 482.211 362.279C456.938 360.963 433.233 359.741 414.637 366.214Z" fill="white" fill-opacity="0.08"/>
<path d="M115.238 544.18C177.322 507.204 223.939 462.171 256.098 424.475C292.996 381.289 310.844 347.679 311.141 347.063C312.891 343.637 311.534 339.373 308.11 337.62C306.378 336.687 304.274 336.523 302.449 337.158C300.852 337.714 299.339 338.881 298.521 340.574C298.224 341.189 285.144 365.714 258.396 399.478C227.667 438.341 178.801 489.406 110.507 530.591L115.238 544.18Z" fill="white" fill-opacity="0.08"/>
</svg>
