<svg width="343" height="373" viewBox="0 0 343 373" fill="none" xmlns="http://www.w3.org/2000/svg">
<path d="M220.611 433.713C254.801 421.811 296.277 393.954 335.381 332.429C336.651 330.381 336.39 327.731 334.646 325.976C333.187 324.499 331.067 324.103 329.214 324.748C328.877 324.865 328.456 325.012 328.149 325.213C324.653 327.375 321.094 329.087 317.389 330.377C298.778 336.855 277.8 333.007 255.832 329.03C237.172 325.603 217.919 322.099 199.061 324.884C197.908 325.096 196.864 325.082 196.018 325.093C197.892 323.968 200.722 322.604 205.017 321.109C205.27 321.021 205.438 320.963 205.691 320.875C217.481 316.771 233.935 317.658 251.403 318.476C272.259 319.532 295.034 320.676 314.992 313.728C322.74 311.031 330.131 307.041 336.768 301.423C357.343 283.771 359.566 262.491 360.983 248.389C361.405 244.179 361.781 240.646 362.512 238.407C363.298 236.054 362.304 233.471 360.172 232.228C358.78 231.484 357.228 231.363 355.796 231.862C354.954 232.155 354.255 232.587 353.643 233.273C345.251 242.525 335.458 248.297 324.847 251.991C310.784 256.886 295.375 258.187 280.332 259.454C265.853 260.714 252.106 261.909 239.554 265.994C231.496 268.611 225.694 267.134 224.048 264.305C222.776 262.007 224.368 258.712 228.05 255.73C230.199 254.037 233.029 252.673 236.397 251.501C245.661 248.276 258.979 246.664 272.861 245.045C289.193 243.14 305.861 241.117 319.84 236.251C324.893 234.492 329.631 232.37 333.797 229.692C346.547 221.568 362.124 203.388 364.216 178.751C365.472 163.099 361.486 139.444 335.191 115.711C333.82 114.487 331.868 114.033 330.155 114.535C330.071 114.564 329.986 114.593 329.902 114.622C328.218 115.209 326.995 116.579 326.539 118.25C322.171 135.269 295.625 149.329 279.777 157.776C275.94 159.773 272.692 161.565 270.342 162.95C261.362 168.344 255.231 173.786 250.326 178.139C245.783 182.177 243.217 184.299 241.112 185.032C240.186 185.355 239.369 185.45 238.549 185.263C238.668 181.536 245.429 170.583 252.366 164.199C258.661 158.416 267.136 153.198 276.058 147.636C295.552 135.558 317.59 121.838 323.726 97.9666C329.139 76.8989 317.757 63.1892 306.775 49.813C296.797 37.6939 286.504 25.2119 286.354 5.79673C286.382 3.7079 285.059 1.80593 283.074 0.984998C281.884 0.548876 280.558 0.537846 279.379 0.948252C278.621 1.21208 277.922 1.64449 277.366 2.21615C271.33 8.47516 264.444 12.2898 257.033 14.8695C249.623 17.4492 241.856 18.7353 234.287 20.047C227.422 21.2085 220.472 22.3993 214.156 24.5979C205.482 27.6173 197.963 32.5973 193.665 42.2205C189.616 51.4736 189.885 69.3349 190.338 88.2664C190.68 105.252 191.297 136.317 184.593 139.029C177.997 130.93 171.284 74.4869 180.561 47.1601C181.212 45.2325 180.676 43.151 179.247 41.7584C177.818 40.3658 175.697 39.97 173.845 40.6149L173.761 40.6442C173.255 40.8201 172.75 40.996 172.245 41.1719C163.739 44.1326 154.958 45.4883 146.375 46.8696C138.579 48.0714 130.615 49.3318 123.373 51.8529C113.267 55.3706 104.577 61.3254 99.295 73.2756C90.8384 92.379 97.3558 111.373 103.554 129.722C108.986 145.597 114.04 160.659 110.438 175.805C109.802 157.976 100.997 140.818 93.0641 125.625C84.0866 108.243 76.3261 93.2728 83.1797 82.8545C84.5884 80.6631 84.1548 77.79 82.2423 76.0932C80.7585 74.8142 78.7515 74.4734 77.0673 75.0597C76.4778 75.2649 75.9176 75.5544 75.4162 76.0124C69.3655 81.1427 61.1497 84.6642 52.5128 88.3322C34.5947 95.9871 14.2931 104.661 8.6086 130.643C4.80916 147.936 17.4329 170.096 30.7788 193.517C42.5082 214.193 54.7251 235.456 52.1469 249.205C51.9606 250.026 51.8291 250.734 51.5547 251.302C51.3456 250.429 51.0777 249.389 50.8608 247.952C47.4124 222.314 31.5337 201.382 17.436 182.853C5.77892 167.538 -4.18515 154.374 -2.66361 143.828C-2.27302 141.424 -3.77209 139.016 -6.03933 138.199C-7.22971 137.763 -8.44185 137.807 -9.53659 138.188C-10.6314 138.569 -11.6088 139.287 -12.271 140.368C-58.8605 215.649 -56.2697 267.573 -45.8755 297.975C-36.4826 325.229 -16.5606 346.928 7.53698 356.211C25.0561 362.87 40.2791 362.391 53.4161 357.817C66.3848 353.303 77.3556 344.948 86.7915 335.71C106.535 310.787 116.19 292.684 116.409 292.23C117.013 290.98 118.129 290.119 119.308 289.709C120.656 289.24 122.095 289.306 123.487 290.05C126.014 291.343 127.016 294.491 125.725 297.02C125.421 297.503 112.247 322.313 85.0947 354.161C76.5653 374.14 74.8223 395.443 94.0977 413.114C107.691 425.581 125.068 434.274 144.248 438.654C159.129 442.074 175.104 442.939 191.095 440.869C199.905 439.597 209.916 437.436 220.611 433.713ZM202.06 310.988C201.808 311.076 201.471 311.193 201.218 311.281C192.182 314.615 180.382 320.046 182.525 328.372C183.952 333.829 191.011 336.475 200.553 335.137C217.723 332.657 236.072 336.003 253.912 339.243C274.974 343.062 296.575 347.072 316.721 341.477C282.158 390.552 246.597 413.704 217.123 423.965C207.186 427.424 197.962 429.406 189.657 430.502C156.042 434.832 122.917 425.384 101.128 405.375C76.8556 383.111 94.0044 353.989 116.996 321.037C125.738 308.45 132.131 299.42 132.709 292.131C132.855 290.38 132.099 288.752 130.788 287.697C130.674 287.642 130.246 287.224 130.132 287.169L129.506 286.726C128.736 286.143 127.802 285.901 126.843 285.857L124.726 285.744C123.569 285.674 122.13 285.608 120.636 285.656C120.072 285.663 119.621 285.725 119.116 285.901C118.779 286.018 118.442 286.136 118.051 286.366C111.981 290.086 105.682 297.759 98.3556 306.547C85.8686 321.667 70.4685 340.352 50.005 347.476C38.7206 351.404 25.9219 351.796 11.2084 346.144C-10.0248 338.038 -27.6312 318.651 -35.9972 294.347C-45.1553 267.768 -47.6214 222.982 -10.7933 157.903C-6.93939 167.618 0.726938 177.707 9.11156 188.775C22.3774 206.27 37.3656 226.001 40.4392 248.934C42.0716 261.218 47.6829 263.233 50.9275 263.332C51.9712 263.347 52.9562 263.193 53.9668 262.841C58.009 261.434 61.1926 257.019 62.3503 250.851C65.6113 233.367 53.0462 211.376 39.8432 188.094C28.0295 167.447 15.8383 145.987 18.8158 132.571C23.3568 111.712 39.5651 104.841 56.6704 97.5635C61.1847 95.6141 65.7284 93.7489 70.1253 91.4623C70.1169 103.372 76.8363 116.437 83.816 129.978C92.1263 145.985 100.726 162.553 99.9367 179.271C99.6185 187.036 103.418 190.628 107.234 191.284C108.761 191.603 110.31 191.442 111.826 190.914C114.942 189.829 117.669 187.085 119 183.314C126.174 163.239 119.686 144.329 113.517 126.065C107.616 108.841 102.121 92.5149 108.936 77.1017C112.74 68.501 118.941 64.0743 126.857 61.3187C133.004 59.1787 140.181 58.0979 148.061 56.8668C154.675 55.7932 161.401 54.7746 168.259 53.0488C162.266 83.2964 167.28 132.959 176.441 145.174C179.197 148.751 182.197 149.502 184.225 149.363C185.719 149.315 187.041 149.044 188.22 148.634C201.947 143.855 201.438 116.627 200.797 87.9332C200.455 70.9477 200.105 53.3978 203.28 46.2445C206.1 39.9708 210.764 36.5518 217.5 34.2066C222.553 32.4478 228.771 31.3229 236.171 30.0698C244.106 28.7251 252.492 27.3181 260.744 24.4453C266.302 22.5105 271.823 19.9271 277.047 16.2187C280.099 33.3948 290.048 45.4297 298.879 56.1526C309.488 68.9974 317.861 79.2183 313.76 95.1043C308.699 115.01 289.344 126.945 270.633 138.562C261.236 144.385 252.369 149.834 245.378 156.331C242.091 159.365 225.804 177.131 228.575 188.073C229.382 191.478 231.984 194.069 235.606 194.981C238.862 195.927 241.737 195.777 244.516 194.809C249.063 193.226 253.104 189.646 257.508 185.751C262.134 181.683 267.819 176.586 276.016 171.653C278.282 170.298 281.39 168.649 284.974 166.739C300.208 158.696 324.345 145.852 333.784 128.486C348.316 143.65 355.227 160.523 353.823 177.644C352.102 198.466 338.97 213.905 328.233 220.761C324.766 223.007 320.757 224.781 316.462 226.276C303.578 230.761 287.444 232.692 271.676 234.59C257.344 236.271 243.575 237.946 233.049 241.61C228.586 243.164 224.719 245.076 221.623 247.572C213.782 253.798 211.16 262.27 215.006 269.248C218.649 275.918 228.752 280.528 242.987 275.856C254.33 272.096 267.458 271.023 281.289 269.799C296.585 268.444 313.009 267.074 328.419 261.709C335.998 259.071 343.423 255.447 350.265 250.419C348.887 263.278 346.036 279.769 329.978 293.581C324.374 298.366 318.157 301.664 311.505 303.98C293.652 310.195 272.598 309.113 251.94 308.083C233.285 307.111 215.787 306.209 202.06 310.988Z" fill="white" fill-opacity="0.08"/>
</svg>
