<svg width="456" height="425" viewBox="0 0 456 425" fill="none" xmlns="http://www.w3.org/2000/svg">
<g clip-path="url(#clip0_2001_997)">
<path d="M173.412 363.178C145.496 353.46 111.63 330.714 79.7008 280.479C78.6642 278.807 78.8776 276.644 80.3016 275.21C81.4923 274.004 83.2238 273.681 84.7365 274.208C85.0115 274.303 85.3553 274.423 85.6064 274.588C88.461 276.353 91.3667 277.75 94.3921 278.803C109.588 284.093 126.717 280.951 144.653 277.704C159.889 274.906 175.61 272.045 191.008 274.318C191.949 274.492 192.802 274.48 193.492 274.489C191.962 273.57 189.651 272.457 186.144 271.237C185.938 271.165 185.8 271.117 185.594 271.045C175.968 267.694 162.533 268.419 148.27 269.086C131.241 269.949 112.645 270.883 96.3488 265.21C90.0229 263.008 83.9876 259.749 78.5689 255.163C61.7692 240.75 59.9543 223.374 58.7972 211.86C58.4522 208.422 58.1457 205.538 57.5487 203.709C56.9068 201.789 57.7182 199.679 59.459 198.665C60.5956 198.057 61.8634 197.958 63.0323 198.365C63.7199 198.605 64.2908 198.958 64.7899 199.517C71.6422 207.072 79.6383 211.785 88.302 214.801C99.7849 218.798 112.367 219.86 124.649 220.895C136.472 221.924 147.696 222.899 157.944 226.235C164.524 228.371 169.261 227.165 170.605 224.855C171.644 222.979 170.344 220.289 167.338 217.854C165.583 216.471 163.272 215.358 160.522 214.401C152.959 211.768 142.084 210.452 130.749 209.129C117.414 207.574 103.804 205.922 92.3902 201.949C88.2647 200.513 84.3964 198.781 80.9948 196.593C70.5838 189.96 57.8657 175.116 56.157 155C55.1321 142.22 58.3865 122.905 79.8566 103.527C80.9755 102.528 82.5694 102.157 83.9685 102.567C84.0373 102.591 84.106 102.615 84.1748 102.639C85.55 103.117 86.5481 104.236 86.9211 105.601C90.487 119.496 112.162 130.977 125.103 137.873C128.235 139.504 130.887 140.967 132.806 142.098C140.138 146.503 145.144 150.946 149.149 154.5C152.858 157.798 154.953 159.53 156.672 160.129C157.429 160.392 158.096 160.47 158.765 160.317C158.668 157.274 153.147 148.33 147.484 143.118C142.343 138.397 135.424 134.136 128.139 129.594C112.222 119.732 94.2274 108.53 89.2173 89.0389C84.798 71.837 94.0911 60.6429 103.058 49.7212C111.205 39.8258 119.61 29.6342 119.732 13.7816C119.709 12.076 120.789 10.523 122.41 9.85273C123.382 9.49664 124.465 9.48763 125.427 9.82273C126.046 10.0382 126.617 10.3912 127.071 10.858C131.999 15.9685 137.622 19.0832 143.673 21.1896C149.724 23.2959 156.065 24.346 162.245 25.417C167.851 26.3654 173.526 27.3377 178.683 29.1329C185.765 31.5982 191.904 35.6644 195.414 43.5218C198.72 51.077 198.5 65.661 198.13 81.1186C197.85 94.9874 197.347 120.352 202.82 122.566C208.206 115.953 213.687 69.8676 206.113 47.555C205.582 45.9811 206.019 44.2816 207.186 43.1445C208.353 42.0074 210.084 41.6842 211.597 42.2108L211.666 42.2348C212.078 42.3784 212.491 42.522 212.903 42.6656C219.848 45.0831 227.018 46.19 234.026 47.3179C240.391 48.2991 246.894 49.3283 252.807 51.3867C261.059 54.259 268.155 59.1211 272.467 68.8785C279.372 84.4766 274.051 99.9853 268.989 114.967C264.554 127.93 260.427 140.228 263.369 152.594C263.888 138.037 271.078 124.028 277.555 111.622C284.885 97.4297 291.221 85.2064 285.625 76.6998C284.475 74.9105 284.829 72.5646 286.391 71.1792C287.602 70.1348 289.241 69.8565 290.616 70.3352C291.098 70.5028 291.555 70.7392 291.964 71.1132C296.905 75.3021 303.613 78.1774 310.665 81.1724C325.295 87.4227 341.872 94.5047 346.513 115.719C349.616 129.839 339.308 147.933 328.411 167.057C318.834 183.939 308.859 201.3 310.964 212.527C311.116 213.197 311.223 213.774 311.447 214.238C311.618 213.526 311.837 212.676 312.014 211.503C314.83 190.57 327.795 173.478 339.306 158.349C348.824 145.845 356.96 135.096 355.717 126.485C355.398 124.522 356.622 122.556 358.473 121.889C359.445 121.533 360.435 121.569 361.329 121.88C362.223 122.191 363.021 122.777 363.562 123.66C401.602 185.128 399.487 227.524 391 252.347C383.331 274.6 367.064 292.318 347.388 299.897C333.084 305.335 320.654 304.943 309.928 301.209C299.339 297.523 290.381 290.701 282.676 283.158C266.555 262.808 258.672 248.027 258.493 247.656C258 246.636 257.089 245.933 256.126 245.598C255.026 245.215 253.851 245.269 252.714 245.876C250.651 246.932 249.833 249.503 250.887 251.567C251.135 251.962 261.892 272.219 284.062 298.224C291.026 314.537 292.449 331.93 276.711 346.359C265.612 356.539 251.423 363.637 235.762 367.213C223.612 370.005 210.569 370.711 197.512 369.021C190.318 367.983 182.144 366.218 173.412 363.178ZM188.559 262.972C188.765 263.044 189.04 263.14 189.246 263.212C196.624 265.934 206.259 270.368 204.509 277.167C203.344 281.622 197.581 283.783 189.789 282.691C175.77 280.665 160.788 283.398 146.222 286.043C129.024 289.161 111.387 292.435 94.9375 287.867C123.158 327.937 152.194 346.841 176.26 355.219C184.373 358.043 191.905 359.662 198.686 360.556C226.133 364.092 253.179 356.378 270.97 340.04C290.789 321.862 276.787 298.083 258.014 271.178C250.876 260.9 245.657 253.527 245.184 247.576C245.065 246.146 245.682 244.817 246.753 243.955C246.846 243.91 247.196 243.569 247.288 243.524L247.8 243.162C248.428 242.686 249.191 242.489 249.974 242.453L251.702 242.36C252.647 242.303 253.822 242.249 255.042 242.288C255.503 242.294 255.871 242.345 256.283 242.489C256.558 242.585 256.833 242.68 257.153 242.869C262.109 245.906 267.252 252.171 273.234 259.346C283.43 271.692 296.004 286.949 312.713 292.765C321.927 295.972 332.377 296.292 344.391 291.678C361.728 285.059 376.103 269.23 382.934 249.385C390.412 227.683 392.426 191.115 362.355 137.978C359.208 145.91 352.949 154.148 346.103 163.184C335.271 177.469 323.033 193.58 320.523 212.305C319.191 222.335 314.609 223.981 311.96 224.061C311.107 224.073 310.303 223.948 309.478 223.66C306.178 222.512 303.578 218.906 302.633 213.87C299.97 199.595 310.23 181.638 321.01 162.628C330.656 145.77 340.61 128.248 338.179 117.293C334.471 100.262 321.237 94.6519 307.27 88.7098C303.585 87.1181 299.875 85.5951 296.284 83.7281C296.291 93.4527 290.805 104.12 285.106 115.176C278.321 128.246 271.299 141.774 271.943 155.425C272.203 161.765 269.101 164.698 265.985 165.233C264.738 165.494 263.473 165.362 262.235 164.931C259.691 164.045 257.465 161.804 256.378 158.725C250.52 142.334 255.818 126.895 260.855 111.981C265.673 97.9179 270.16 84.5876 264.596 72.0026C261.49 64.98 256.426 61.3656 249.963 59.1156C244.943 57.3683 239.083 56.4858 232.649 55.4806C227.249 54.604 221.757 53.7724 216.157 52.3632C221.051 77.0606 216.957 117.611 209.477 127.584C207.227 130.504 204.777 131.118 203.121 131.004C201.901 130.965 200.822 130.744 199.859 130.409C188.651 126.507 189.067 104.275 189.59 80.8466C189.87 66.9778 190.155 52.6482 187.563 46.8075C185.26 41.6849 181.452 38.8933 175.952 36.9785C171.826 35.5423 166.749 34.6239 160.707 33.6007C154.228 32.5027 147.381 31.3539 140.643 29.0082C136.105 27.4285 131.597 25.3191 127.331 22.2911C124.839 36.3156 116.716 46.1422 109.505 54.8975C100.843 65.3854 94.0065 73.7308 97.3546 86.7018C101.487 102.955 117.291 112.7 132.568 122.185C140.241 126.94 147.481 131.389 153.189 136.694C155.873 139.171 169.171 153.677 166.909 162.612C166.25 165.392 164.126 167.507 161.168 168.252C158.51 169.024 156.163 168.902 153.893 168.112C150.18 166.819 146.881 163.896 143.285 160.715C139.508 157.394 134.866 153.232 128.174 149.205C126.323 148.098 123.785 146.751 120.859 145.192C108.421 138.625 88.7123 128.138 81.0053 113.958C69.1401 126.34 63.4965 140.116 64.6433 154.096C66.0487 171.097 76.7706 183.703 85.5376 189.301C88.3683 191.135 91.6416 192.584 95.1484 193.804C105.669 197.466 118.842 199.043 131.717 200.593C143.419 201.966 154.661 203.333 163.256 206.325C166.901 207.593 170.057 209.155 172.586 211.193C178.988 216.276 181.128 223.194 177.989 228.891C175.014 234.337 166.765 238.102 155.141 234.287C145.88 231.217 135.161 230.341 123.868 229.342C111.379 228.235 97.9685 227.116 85.3855 222.736C79.1971 220.582 73.1347 217.623 67.5484 213.518C68.6731 224.017 71.0013 237.482 84.113 248.759C88.6887 252.667 93.7645 255.36 99.1965 257.251C113.774 262.325 130.964 261.442 147.832 260.6C163.064 259.807 177.351 259.071 188.559 262.972Z" fill="#FDF9EF"/>
<path d="M369.006 370.231C331.587 347.947 303.492 320.805 284.11 298.086C261.871 272.058 251.114 251.801 250.935 251.43C249.881 249.365 250.698 246.795 252.762 245.739C253.806 245.176 255.074 245.077 256.174 245.46C257.137 245.795 258.048 246.498 258.541 247.519C258.72 247.89 266.603 262.671 282.724 283.02C301.245 306.443 330.696 337.22 371.857 362.042L369.006 370.231Z" fill="#FDF9EF"/>
</g>
<defs>
<clipPath id="clip0_2001_997">
<rect width="370.659" height="320.635" fill="white" transform="translate(105.411) rotate(19.1933)"/>
</clipPath>
</defs>
</svg>
