<svg width="756" height="705" viewBox="0 0 756 705" fill="none" xmlns="http://www.w3.org/2000/svg">
<g clip-path="url(#clip0_321_3081)">
<path d="M287.727 602.588C241.407 586.464 185.217 548.724 132.24 465.374C130.52 462.599 130.874 459.009 133.237 456.631C135.213 454.63 138.086 454.094 140.595 454.968C141.052 455.127 141.622 455.325 142.039 455.598C146.775 458.527 151.596 460.846 156.616 462.593C181.829 471.37 210.25 466.156 240.01 460.769C265.29 456.126 291.373 451.379 316.921 455.152C318.484 455.439 319.898 455.42 321.044 455.434C318.505 453.91 314.67 452.064 308.852 450.038C308.51 449.919 308.282 449.84 307.939 449.72C291.967 444.16 269.676 445.362 246.01 446.47C217.756 447.901 186.901 449.451 159.863 440.038C149.367 436.385 139.353 430.978 130.362 423.368C102.488 399.454 99.4767 370.624 97.5569 351.52C96.9844 345.816 96.4759 341.03 95.4852 337.996C94.4203 334.809 95.7666 331.309 98.6549 329.626C100.541 328.618 102.644 328.454 104.584 329.129C105.725 329.527 106.672 330.112 107.5 331.041C118.869 343.576 132.136 351.395 146.511 356.399C165.564 363.031 186.44 364.793 206.819 366.51C226.435 368.218 245.059 369.836 262.063 375.371C272.98 378.915 280.84 376.914 283.069 373.082C284.793 369.969 282.637 365.506 277.648 361.464C274.737 359.171 270.903 357.324 266.34 355.736C253.79 351.367 235.747 349.183 216.941 346.989C194.815 344.408 172.233 341.668 153.295 335.076C146.449 332.693 140.031 329.818 134.387 326.189C117.113 315.183 96.0113 290.554 93.1761 257.177C91.4756 235.973 96.8754 203.926 132.499 171.774C134.355 170.115 137 169.5 139.321 170.18C139.435 170.219 139.549 170.259 139.664 170.299C141.945 171.093 143.601 172.95 144.22 175.214C150.137 198.269 186.1 217.318 207.571 228.761C212.769 231.466 217.169 233.894 220.353 235.771C232.519 243.078 240.825 250.451 247.47 256.348C253.624 261.819 257.1 264.694 259.952 265.687C261.207 266.123 262.313 266.253 263.425 265.999C263.264 260.95 254.103 246.111 244.706 237.463C236.177 229.629 224.696 222.56 212.609 215.024C186.2 198.661 156.343 180.074 148.03 147.734C140.698 119.193 156.117 100.619 170.995 82.4979C184.513 66.0794 198.458 49.1694 198.66 22.8666C198.622 20.0368 200.414 17.46 203.104 16.3479C204.717 15.757 206.513 15.7421 208.11 16.2981C209.137 16.6555 210.084 17.2413 210.838 18.0158C219.014 26.4952 228.343 31.6632 238.383 35.158C248.423 38.6529 258.944 40.3952 269.198 42.1723C278.5 43.7458 287.915 45.3591 296.472 48.3376C308.223 52.4282 318.409 59.1749 324.232 72.2119C329.717 84.7475 329.352 108.945 328.739 134.593C328.275 157.604 327.439 199.69 336.521 203.363C345.457 192.391 354.552 115.925 341.985 78.9038C341.103 76.2924 341.829 73.4725 343.764 71.5858C345.7 69.6992 348.573 69.163 351.083 70.0367L351.197 70.0764C351.882 70.3147 352.566 70.553 353.251 70.7912C364.773 74.8024 376.669 76.639 388.297 78.5103C398.859 80.1384 409.649 81.846 419.46 85.2614C433.151 90.0271 444.924 98.0944 452.08 114.284C463.536 140.164 454.707 165.897 446.309 190.755C438.95 212.262 432.103 232.667 436.984 253.186C437.845 229.033 449.774 205.788 460.521 185.204C472.683 161.656 483.197 141.375 473.912 127.261C472.004 124.292 472.591 120.4 475.182 118.101C477.192 116.368 479.911 115.907 482.193 116.701C482.991 116.979 483.75 117.371 484.43 117.992C492.627 124.942 503.757 129.713 515.458 134.682C539.733 145.053 567.236 156.803 574.938 192.002C580.085 215.43 562.983 245.452 544.902 277.182C529.012 305.193 512.461 333.998 515.954 352.626C516.206 353.738 516.384 354.696 516.756 355.466C517.039 354.284 517.402 352.874 517.696 350.928C522.368 316.195 543.88 287.836 562.979 262.734C578.771 241.987 592.27 224.153 590.209 209.865C589.68 206.608 591.71 203.346 594.782 202.239C596.395 201.648 598.037 201.708 599.52 202.224C601.003 202.74 602.327 203.713 603.224 205.178C666.342 307.165 662.832 377.51 648.75 418.697C636.025 455.619 609.036 485.016 576.389 497.592C552.655 506.614 532.032 505.964 514.234 499.769C496.665 493.653 481.802 482.333 469.019 469.818C442.271 436.054 429.191 411.529 428.894 410.913C428.076 409.22 426.564 408.054 424.966 407.498C423.141 406.862 421.191 406.952 419.305 407.96C415.881 409.712 414.525 413.977 416.274 417.402C416.686 418.058 434.533 451.668 471.318 494.815C482.873 521.882 485.234 550.742 459.121 574.682C440.706 591.572 417.164 603.349 391.179 609.282C371.019 613.915 349.378 615.087 327.714 612.283C315.778 610.56 302.216 607.632 287.727 602.588ZM312.858 436.326C313.2 436.445 313.657 436.604 313.999 436.723C326.241 441.24 342.227 448.597 339.324 459.877C337.39 467.27 327.828 470.854 314.9 469.043C291.638 465.682 266.78 470.216 242.612 474.605C214.078 479.779 184.814 485.211 157.521 477.631C204.345 544.116 252.521 575.482 292.452 589.382C305.914 594.068 318.41 596.754 329.661 598.238C375.201 604.105 420.077 591.305 449.596 564.197C482.48 534.035 459.247 494.582 428.099 449.941C416.256 432.887 407.595 420.655 406.812 410.78C406.614 408.407 407.638 406.202 409.415 404.773C409.568 404.698 410.149 404.132 410.303 404.058L411.152 403.457C412.194 402.667 413.459 402.34 414.759 402.28L417.627 402.126C419.194 402.032 421.144 401.942 423.168 402.007C423.932 402.017 424.543 402.101 425.227 402.339C425.683 402.498 426.14 402.657 426.671 402.97C434.894 408.009 443.426 418.405 453.352 430.31C470.269 450.793 491.133 476.108 518.856 485.758C534.143 491.08 551.482 491.611 571.415 483.954C600.181 472.972 624.034 446.708 635.367 413.782C647.775 377.773 651.116 317.1 601.222 228.934C596.001 242.095 585.615 255.763 574.256 270.757C556.284 294.459 535.979 321.189 531.815 352.258C529.603 368.9 522.002 371.63 517.606 371.764C516.192 371.784 514.857 371.576 513.488 371.099C508.012 369.193 503.699 363.211 502.131 354.855C497.713 331.169 514.736 301.376 532.622 269.835C548.627 241.863 565.143 212.79 561.109 194.614C554.957 166.355 532.999 157.047 509.826 147.188C503.71 144.547 497.554 142.02 491.598 138.922C491.609 155.058 482.506 172.757 473.05 191.102C461.792 212.788 450.141 235.233 451.21 257.882C451.641 268.402 446.494 273.268 441.324 274.156C439.255 274.588 437.157 274.37 435.103 273.655C430.882 272.186 427.188 268.467 425.385 263.359C415.665 236.162 424.455 210.545 432.813 185.8C440.807 162.466 448.251 140.349 439.019 119.467C433.866 107.815 425.464 101.818 414.74 98.0853C406.412 95.1861 396.689 93.7218 386.013 92.054C377.054 90.5996 367.941 89.2197 358.65 86.8816C366.77 127.86 359.977 195.141 347.566 211.689C343.832 216.534 339.768 217.552 337.02 217.363C334.996 217.299 333.205 216.932 331.608 216.376C313.012 209.902 313.701 173.015 314.57 134.141C315.033 111.13 315.507 87.3544 311.206 77.6635C307.385 69.1641 301.067 64.5322 291.94 61.3551C285.095 58.9722 276.672 57.4483 266.646 55.7507C255.896 53.9289 244.536 52.0228 233.355 48.1308C225.826 45.5097 218.346 42.0098 211.269 36.9858C207.134 60.2553 193.656 76.5596 181.692 91.0865C167.32 108.488 155.976 122.335 161.532 143.856C168.389 170.824 194.61 186.994 219.958 202.731C232.69 210.619 244.702 218.001 254.173 226.804C258.626 230.914 280.691 254.982 276.937 269.807C275.843 274.419 272.319 277.929 267.412 279.165C263.001 280.446 259.106 280.243 255.341 278.932C249.181 276.788 243.706 271.938 237.74 266.66C231.472 261.15 223.771 254.244 212.667 247.562C209.597 245.725 205.386 243.491 200.53 240.905C179.892 230.008 147.192 212.608 134.405 189.08C114.718 209.625 105.354 232.482 107.257 255.677C109.589 283.886 127.378 304.802 141.925 314.09C146.621 317.134 152.053 319.536 157.871 321.562C175.326 327.638 197.184 330.254 218.545 332.825C237.962 335.103 256.615 337.371 270.876 342.336C276.923 344.441 282.16 347.032 286.356 350.413C296.978 358.848 300.529 370.326 295.32 379.779C290.384 388.814 276.698 395.06 257.412 388.731C242.045 383.638 224.26 382.183 205.522 380.526C184.8 378.689 162.55 376.833 141.672 369.566C131.404 365.991 121.346 361.081 112.077 354.27C113.943 371.691 117.806 394.032 139.561 412.743C147.153 419.227 155.575 423.695 164.588 426.832C188.774 435.252 217.297 433.786 245.284 432.39C270.557 431.074 294.262 429.852 312.858 436.326Z" fill="#F9F2E1" fill-opacity="0.5"/>
<path d="M612.257 614.291C550.172 577.316 503.556 532.282 471.397 494.587C434.499 451.4 416.651 417.79 416.354 417.174C414.604 413.749 415.961 409.484 419.385 407.731C421.117 406.798 423.221 406.634 425.046 407.269C426.643 407.825 428.156 408.992 428.974 410.685C429.271 411.301 442.351 435.826 469.099 469.59C499.828 508.452 548.693 559.517 616.987 600.702L612.257 614.291Z" fill="#F9F2E1" fill-opacity="0.5"/>
</g>
<defs>
<clipPath id="clip0_321_3081">
<rect width="615" height="532" fill="white" transform="translate(174.898) rotate(19.1933)"/>
</clipPath>
</defs>
</svg>
