<svg width="20" height="20" viewBox="0 0 20 20" fill="none" xmlns="http://www.w3.org/2000/svg">
<path d="M3.33333 6.66675H16.6667M3.33333 6.66675V14.0002C3.33333 14.9337 3.33333 15.4001 3.51498 15.7567C3.67477 16.0703 3.92956 16.3255 4.24316 16.4853C4.59933 16.6667 5.06582 16.6667 5.99742 16.6667H14.0026C14.9342 16.6667 15.4 16.6667 15.7562 16.4853C16.0698 16.3255 16.3254 16.0703 16.4852 15.7567C16.6667 15.4005 16.6667 14.9347 16.6667 14.0031V6.66675M3.33333 6.66675V6.00024C3.33333 5.06682 3.33333 4.59976 3.51498 4.24325C3.67477 3.92964 3.92956 3.67486 4.24316 3.51507C4.59968 3.33341 5.06674 3.33341 6.00016 3.33341H6.66666M16.6667 6.66675V5.99751C16.6667 5.06591 16.6667 4.59942 16.4852 4.24325C16.3254 3.92964 16.0698 3.67486 15.7562 3.51507C15.3996 3.33341 14.9336 3.33341 14.0002 3.33341H13.3333M6.66666 3.33341H13.3333M6.66666 3.33341V1.66675M13.3333 3.33341V1.66675M12.5 10.0001L9.16666 13.3334L7.49999 11.6667" stroke="white" stroke-width="2" stroke-linecap="round" stroke-linejoin="round"/>
</svg>
