<svg width="6" height="375" viewBox="0 0 6 375" fill="none" xmlns="http://www.w3.org/2000/svg">
<rect y="357" width="6" height="18" rx="2" fill="#f9f2e1"/>
<rect y="336" width="6" height="18" rx="2" fill="#f9f2e1"/>
<rect y="315" width="6" height="18" rx="2" fill="#f9f2e1"/>
<rect y="294" width="6" height="18" rx="2" fill="#f9f2e1"/>
<rect y="273" width="6" height="18" rx="2" fill="#f9f2e1"/>
<rect y="252" width="6" height="18" rx="2" fill="#f9f2e1"/>
<rect y="231" width="6" height="18" rx="2" fill="#f9f2e1"/>
<rect y="210" width="6" height="18" rx="2" fill="#f9f2e1"/>
<rect y="189" width="6" height="18" rx="2" fill="#f9f2e1"/>
<rect y="168" width="6" height="18" rx="2" fill="#f9f2e1"/>
<rect y="147" width="6" height="18" rx="2" fill="#f9f2e1"/>
<rect y="126" width="6" height="18" rx="2" fill="#f9f2e1"/>
<rect y="105" width="6" height="18" rx="2" fill="#f9f2e1"/>
<rect y="84" width="6" height="18" rx="2" fill="#f9f2e1"/>
<rect y="63" width="6" height="18" rx="2" fill="#f9f2e1"/>
<rect y="42" width="6" height="18" rx="2" fill="#f9f2e1"/>
<rect y="21" width="6" height="18" rx="2" fill="#f9f2e1"/>
<rect width="6" height="18" rx="2" fill="#f9f2e1"/>
</svg>
