<svg width="289" height="8" viewBox="0 0 289 8" fill="none" xmlns="http://www.w3.org/2000/svg">
<rect x="13.872" y="0.666229" width="6.66768" height="13.872" rx="2" transform="rotate(90 13.872 0.666229)" fill="#f9f2e1"/>
<rect x="30.0561" y="0.666229" width="6.66768" height="13.872" rx="2" transform="rotate(90 30.0561 0.666229)" fill="#f9f2e1"/>
<rect x="46.2399" y="0.666229" width="6.66768" height="13.872" rx="2" transform="rotate(90 46.2399 0.666229)" fill="#f9f2e1"/>
<rect x="62.424" y="0.666229" width="6.66768" height="13.872" rx="2" transform="rotate(90 62.424 0.666229)" fill="#f9f2e1"/>
<rect x="78.6081" y="0.666229" width="6.66768" height="13.872" rx="2" transform="rotate(90 78.6081 0.666229)" fill="#f9f2e1"/>
<rect x="94.7919" y="0.666229" width="6.66768" height="13.872" rx="2" transform="rotate(90 94.7919 0.666229)" fill="#f9f2e1"/>
<rect x="110.976" y="0.666229" width="6.66768" height="13.872" rx="2" transform="rotate(90 110.976 0.666229)" fill="#f9f2e1"/>
<rect x="127.16" y="0.666229" width="6.66768" height="13.872" rx="2" transform="rotate(90 127.16 0.666229)" fill="#f9f2e1"/>
<rect x="143.344" y="0.666229" width="6.66768" height="13.872" rx="2" transform="rotate(90 143.344 0.666229)" fill="#f9f2e1"/>
<rect x="159.528" y="0.666229" width="6.66768" height="13.872" rx="2" transform="rotate(90 159.528 0.666229)" fill="#f9f2e1"/>
<rect x="175.712" y="0.666229" width="6.66768" height="13.872" rx="2" transform="rotate(90 175.712 0.666229)" fill="#f9f2e1"/>
<rect x="191.896" y="0.666229" width="6.66768" height="13.872" rx="2" transform="rotate(90 191.896 0.666229)" fill="#f9f2e1"/>
<rect x="208.08" y="0.666229" width="6.66768" height="13.872" rx="2" transform="rotate(90 208.08 0.666229)" fill="#f9f2e1"/>
<rect x="224.264" y="0.666245" width="6.66768" height="13.872" rx="2" transform="rotate(90 224.264 0.666245)" fill="#f9f2e1"/>
<rect x="240.448" y="0.666245" width="6.66768" height="13.872" rx="2" transform="rotate(90 240.448 0.666245)" fill="#f9f2e1"/>
<rect x="256.632" y="0.666245" width="6.66768" height="13.872" rx="2" transform="rotate(90 256.632 0.666245)" fill="#f9f2e1"/>
<rect x="272.816" y="0.666245" width="6.66768" height="13.872" rx="2" transform="rotate(90 272.816 0.666245)" fill="#f9f2e1"/>
<rect x="289" y="0.666245" width="6.66768" height="13.872" rx="2" transform="rotate(90 289 0.666245)" fill="#f9f2e1"/>
</svg>
