<svg width="25" height="24" viewBox="0 0 25 24" fill="none" xmlns="http://www.w3.org/2000/svg">
<g clip-path="url(#clip0_2005_3353)">
<path d="M12.4999 21C4.9999 21 0.799902 12.8 0.599902 12.4C0.499902 12.1 0.499902 11.8 0.599902 11.5C0.799902 11.2 4.9999 3 12.4999 3C19.9999 3 24.1999 11.2 24.3999 11.6C24.4999 11.9 24.4999 12.2 24.3999 12.5C24.1999 12.8 19.9999 21 12.4999 21ZM2.5999 12C3.4999 13.6 7.0999 19 12.4999 19C17.8999 19 21.3999 13.6 22.3999 12C21.4999 10.4 17.8999 5 12.4999 5C7.0999 5 3.5999 10.4 2.5999 12Z" fill="white"/>
<path d="M12.5 16C10.3 16 8.5 14.2 8.5 12C8.5 9.8 10.3 8 12.5 8C14.7 8 16.5 9.8 16.5 12C16.5 14.2 14.7 16 12.5 16ZM12.5 10C11.4 10 10.5 10.9 10.5 12C10.5 13.1 11.4 14 12.5 14C13.6 14 14.5 13.1 14.5 12C14.5 10.9 13.6 10 12.5 10Z" fill="white"/>
</g>
<defs>
<clipPath id="clip0_2005_3353">
<rect width="24" height="24" fill="white" transform="translate(0.5)"/>
</clipPath>
</defs>
</svg>
