<svg width="37" height="36" viewBox="0 0 37 36" fill="none" xmlns="http://www.w3.org/2000/svg">
<path d="M27.0089 0H9.17673C6.66339 0 4.61926 2.03365 4.61926 4.5341V31.4665C4.61926 33.967 6.66339 36 9.17673 36H27.0083C29.5216 36 31.5658 33.967 31.5664 31.4665V4.5341C31.5663 2.03365 29.5222 0 27.0089 0ZM29.2506 31.4665C29.2506 32.6959 28.2452 33.6968 27.0089 33.6968H9.17673C7.94049 33.6968 6.93436 32.6959 6.935 31.4659V4.53347C6.935 3.3042 7.94042 2.30323 9.17673 2.30323V2.30386H27.0089C28.2445 2.30386 29.2507 3.30413 29.2507 4.5341V31.4665H29.2506Z" fill="white"/>
<path d="M27.1613 26.8787H9.02432C8.38457 26.8787 7.86646 27.3941 7.86646 28.0306C7.86646 28.6671 8.38457 29.1825 9.02432 29.1825H27.1613C27.8011 29.1825 28.3192 28.6671 28.3192 28.0306C28.3192 27.3941 27.8011 26.8787 27.1613 26.8787Z" fill="white"/>
<path d="M27.1613 5.29041H9.02432C8.38457 5.29041 7.86646 5.80587 7.86646 6.44234C7.86646 7.0788 8.38457 7.59426 9.02432 7.59426H27.1613C27.8011 7.59426 28.3192 7.0788 28.3192 6.44234C28.3192 5.80587 27.8011 5.29041 27.1613 5.29041Z" fill="white"/>
<path d="M19.4364 30.3933H16.7487C16.1089 30.3933 15.5908 30.9088 15.5908 31.5452C15.5908 32.1817 16.1089 32.6972 16.7487 32.6972H19.4364C20.0761 32.6972 20.5943 32.1817 20.5943 31.5452C20.5943 30.9088 20.0761 30.3933 19.4364 30.3933Z" fill="white"/>
<path d="M19.6114 16.8808C19.1046 17.2683 19.0099 17.9915 19.4 18.4964C19.7901 19.0012 20.5171 19.0942 21.0239 18.7067C23.0335 17.1684 23.8634 14.4128 23.0398 12.0067C22.3148 9.88442 20.4995 8.61768 18.1851 8.61768C16.1635 8.61768 14.9593 9.53933 14.305 10.3119C13.0876 11.7502 12.8982 13.6603 13.107 14.8622C13.536 17.294 15.0903 19.2759 17.8564 20.9207C18.0427 21.0312 18.2472 21.0842 18.4492 21.0842C18.8437 21.0842 19.2276 20.8839 19.4452 20.522C19.7726 19.9754 19.5938 19.2683 19.045 18.942C16.8604 17.6434 15.6988 16.2207 15.3889 14.466C15.2597 13.7234 15.4203 12.5709 16.077 11.7952C16.5675 11.2155 17.2775 10.921 18.1851 10.921C19.9582 10.921 20.6143 12.066 20.8477 12.7487C21.276 14.0035 20.9894 15.8262 19.6114 16.8808Z" fill="white"/>
<path d="M9.52923 24.2461C9.30844 24.8433 9.61644 25.5054 10.216 25.725C10.3484 25.773 10.4833 25.7962 10.6162 25.7962C11.0879 25.7962 11.5307 25.5073 11.7026 25.0423C11.9566 24.3547 13.0618 23.5884 14.0866 23.0673C15.0425 24.3865 16.5228 25.1709 18.1567 25.1702C18.1574 25.1702 18.158 25.1702 18.158 25.1702C19.7599 25.1702 21.2145 24.4008 22.1666 23.1035C23.2021 23.6744 24.3368 24.472 24.5902 25.0835C24.8342 25.6713 25.5116 25.9521 26.1024 25.7093C26.6933 25.4665 26.9755 24.7927 26.7315 24.2049C25.9286 22.2685 22.8 20.8096 22.1816 20.5369C21.9 20.4128 21.5807 20.4046 21.2941 20.5157C21.0074 20.6262 20.7766 20.8464 20.653 21.126C20.17 22.2156 19.238 22.8664 18.1573 22.867C17.0716 22.867 16.1012 22.2 15.6252 21.1254C15.3749 20.5625 14.7257 20.2954 14.1512 20.5145C13.7649 20.6612 10.3528 22.0178 9.52923 24.2461Z" fill="white"/>
</svg>
