<svg width="36" height="36" viewBox="0 0 36 36" fill="none" xmlns="http://www.w3.org/2000/svg">
<g clip-path="url(#clip0_2001_1222)">
<path d="M31.6193 3.88266C33.0322 4.78381 33.8758 6.32066 33.8758 7.99379C33.8758 9.61481 33.0725 11.1252 31.7271 12.0342C31.2443 12.3604 31.1174 13.0161 31.4435 13.4987C31.6473 13.8005 31.9799 13.9632 32.3185 13.9632C32.5217 13.9632 32.727 13.9046 32.908 13.7823C34.8349 12.4806 35.9854 10.3166 35.9854 7.99386C35.9854 5.5965 34.7773 3.39471 32.7537 2.10405C32.2626 1.79085 31.6105 1.93507 31.2973 2.42619C30.9839 2.91731 31.1281 3.56939 31.6193 3.88266Z" fill="white"/>
<path d="M29.2959 7.36721C29.5184 7.47972 29.6566 7.70327 29.6566 7.95073C29.6566 8.18222 29.5368 8.39199 29.3363 8.51195C28.8362 8.81088 28.6732 9.45853 28.9722 9.95851C29.1698 10.289 29.5195 10.4723 29.8785 10.4723C30.0627 10.4723 30.2493 10.424 30.4188 10.3226C31.2499 9.82574 31.7663 8.91686 31.7663 7.95073C31.7663 6.9031 31.1844 5.95806 30.2478 5.48453C29.7279 5.22174 29.0935 5.43003 28.8306 5.94991C28.5676 6.46985 28.776 7.10442 29.2959 7.36721Z" fill="white"/>
<path d="M34.9429 33.8904H28.6313C28.0402 33.8904 27.5593 33.4095 27.5593 32.8184V20.4016C27.5593 18.6585 26.1411 17.2402 24.3979 17.2402C22.6547 17.2402 21.2365 18.6584 21.2365 20.4016V32.8184C21.2365 33.4095 20.7556 33.8904 20.1645 33.8904H12.2597C11.4557 33.8904 10.8015 33.2362 10.8015 32.4322C10.8015 32.4262 10.8007 32.4205 10.8006 32.4146C10.8007 32.4087 10.8015 32.4029 10.8015 32.397V31.7808H12.8664C13.1487 31.7808 13.4193 31.6676 13.6175 31.4666C13.8157 31.2656 13.9251 30.9935 13.9211 30.7112C13.8663 26.7909 14.2269 21.3972 16.2559 17.9645C17.2549 16.2745 18.2376 15.771 18.5196 15.655C20.8295 15.5985 23.1964 15.4284 25.6428 15.107C26.1677 15.038 26.5602 14.5907 26.5602 14.0612V1.61594C26.5602 1.0865 26.1677 0.639127 25.6428 0.570143C16.7145 -0.603079 8.85364 0.235559 0.919839 1.27806C0.394898 1.34704 0.00244141 1.79442 0.00244141 2.32386V13.3534C0.00244141 13.8828 0.394898 14.3302 0.919839 14.3992C2.17512 14.5641 3.42851 14.7237 4.6845 14.8712C5.17112 15.5929 5.97881 17.6547 6.0864 23.426C6.15616 27.1671 5.8888 30.6087 5.88613 30.643C5.863 30.9362 5.96341 31.2259 6.16305 31.4419C6.36269 31.6579 6.64348 31.7808 6.9377 31.7808H8.69191V32.3971C8.69191 32.403 8.69268 32.4087 8.69282 32.4146C8.69275 32.4206 8.69191 32.4263 8.69191 32.4322C8.69191 34.3996 10.2924 36.0001 12.2597 36.0001H20.1645C21.9189 36.0001 23.3461 34.5728 23.3461 32.8185V20.4016C23.3461 19.8217 23.8179 19.3499 24.3979 19.3499C24.9779 19.3499 25.4497 19.8217 25.4497 20.4016V32.8184C25.4497 34.5728 26.8769 36 28.6313 36H34.9429C35.5255 36 35.9977 35.5277 35.9977 34.9452C35.9977 34.3627 35.5255 33.8904 34.9429 33.8904ZM24.4506 13.1291C23.7397 13.212 23.0353 13.2813 22.3364 13.3392V2.33799C23.0353 2.39587 23.7397 2.4652 24.4506 2.54804V13.1291ZM2.11205 3.25012C8.02021 2.48735 13.9064 1.87986 20.2268 2.19799V13.4792C13.9064 13.7973 8.02021 13.1899 2.11205 12.4271V3.25012ZM15.2872 15.6618C15.0669 15.9352 14.8444 16.2423 14.624 16.59C14.0916 17.4303 13.6345 18.3959 13.2522 19.4825H12.8607C12.2782 19.4825 11.8059 19.9547 11.8059 20.5373C11.8059 21.046 12.1661 21.4705 12.6454 21.5699C12.3652 22.7537 12.155 24.0487 12.015 25.452H8.20445C8.21043 24.7945 8.20881 24.1056 8.19587 23.4025C8.12759 19.6891 7.77711 16.9558 7.13214 15.1403C9.81063 15.4135 12.5147 15.6096 15.2872 15.6618ZM8.15923 27.5616H11.8609C11.8284 28.2429 11.8103 28.9462 11.8067 29.6712H8.06402C8.09552 29.1213 8.13125 28.3987 8.15923 27.5616Z" fill="white"/>
<path d="M18.0244 10.4049V5.27219C18.0244 4.69247 17.5566 4.22147 16.9769 4.21746C16.7923 4.21612 16.6072 4.21521 16.4207 4.21521C12.1146 4.21521 8.93327 4.57701 5.24969 4.9959L5.15729 5.00638C4.62426 5.067 4.22168 5.51796 4.22168 6.05443V9.62262C4.22168 10.159 4.62433 10.6101 5.15729 10.6707L5.24969 10.6812C8.93327 11.1001 12.1146 11.4618 16.4207 11.4618C16.6071 11.4618 16.7923 11.4609 16.9769 11.4596C17.5566 11.4557 18.0244 10.9846 18.0244 10.4049ZM15.9148 9.35055C12.3008 9.32552 9.46011 9.03404 6.33129 8.68082V6.9963C9.46011 6.64308 12.3008 6.35161 15.9148 6.32657V9.35055Z" fill="white"/>
</g>
<defs>
<clipPath id="clip0_2001_1222">
<rect width="36" height="36" fill="white"/>
</clipPath>
</defs>
</svg>
