<svg width="36" height="36" viewBox="0 0 36 36" fill="none" xmlns="http://www.w3.org/2000/svg">
<g clip-path="url(#clip0_2001_2667)">
<path d="M35.3112 12.2201L31.8707 9.87885C31.3461 9.52194 30.6335 9.65919 30.2796 10.1865C29.9246 10.7131 30.0617 11.4295 30.5857 11.7858L33.3632 13.6759L28.5799 32.9699L20.738 27.6263L21.7927 23.824C21.9628 23.2112 21.6058 22.5754 20.9968 22.405C20.3865 22.2359 19.7552 22.5928 19.5851 23.205L18.5448 26.9574L10.2931 26.8954L14.1922 14.3823C14.3816 13.7757 14.0451 13.1293 13.4411 12.939C12.8407 12.7486 12.1945 13.0862 12.0052 13.694L8.11985 26.1625L2.52183 22.0811L8.1463 6.70203L11.4266 8.10541C12.007 8.35376 12.6818 8.08171 12.9295 7.49636C13.1772 6.91107 12.9059 6.23466 12.3236 5.98568L7.93455 4.10747C7.64648 3.9833 7.31932 3.98393 7.03125 4.11C6.74319 4.23544 6.5185 4.4738 6.41042 4.77017L0.0715267 22.1042C-0.106013 22.5885 0.0585156 23.1313 0.473824 23.434L8.06431 28.9676C8.06564 28.9686 8.06704 28.9694 8.06837 28.9704C8.08453 28.982 8.10125 28.9929 8.1181 29.0038C8.13035 29.0116 8.14259 29.0194 8.15504 29.0268C8.17064 29.036 8.18638 29.045 8.20247 29.0536C8.21898 29.0624 8.23576 29.0703 8.25262 29.0783C8.26619 29.0846 8.27942 29.0914 8.29333 29.0973C8.32335 29.1099 8.35391 29.1213 8.3849 29.1313C8.38819 29.1324 8.3912 29.1338 8.39449 29.1349C8.41428 29.1411 8.43415 29.1461 8.45395 29.1512C8.45807 29.1523 8.46206 29.1535 8.46619 29.1546C8.55671 29.1769 8.64744 29.1879 8.73781 29.1879C8.74173 29.1879 8.74558 29.1875 8.7495 29.1874L19.0574 29.2646L28.6524 35.8023C28.8449 35.9333 29.0696 36.0001 29.2956 36.0001C29.434 36.0001 29.5731 35.9751 29.7053 35.9245C30.0548 35.7904 30.3167 35.4921 30.4074 35.1271L35.7804 13.4524C35.8966 12.9832 35.7097 12.4909 35.3112 12.2201Z" fill="white"/>
<path d="M21.5784 21.6942C21.8435 21.6942 22.1099 21.6019 22.3271 21.4153C22.8064 20.9997 22.8592 20.2715 22.4457 19.7904C18.3478 15.018 13.3777 8.18529 17.5159 3.9658C18.7768 2.67914 20.8304 2.06382 22.7443 2.39521C24.6415 2.7247 26.1531 3.91151 27.0005 5.73924C28.8008 9.62052 25.1009 14.3261 22.8903 17.1384L22.7208 17.3543C22.3284 17.8542 22.4135 18.578 22.9108 18.9724C23.4086 19.3668 24.1281 19.2813 24.5205 18.7814L24.6888 18.5668C27.2272 15.3375 31.4753 9.93433 29.0778 4.76575C27.9043 2.23483 25.793 0.586193 23.1341 0.124446C20.4616 -0.339199 17.6829 0.512575 15.8838 2.34775C9.78262 8.56843 17.722 17.8142 20.7105 21.2948C20.9371 21.5588 21.2562 21.6942 21.5784 21.6942Z" fill="white"/>
<path d="M25.1126 8.22005C25.1126 6.33369 23.5861 4.79932 21.7094 4.79932C19.8328 4.79932 18.3069 6.33376 18.3069 8.22005C18.3069 10.1058 19.8335 11.6402 21.7094 11.6402C23.5861 11.6402 25.1126 10.1058 25.1126 8.22005ZM21.7094 9.33705C21.0967 9.33705 20.5982 8.836 20.5982 8.22012C20.5982 7.60425 21.0967 7.10257 21.7094 7.10257C22.3221 7.10257 22.8212 7.60425 22.8212 8.22012C22.8213 8.836 22.3221 9.33705 21.7094 9.33705Z" fill="white"/>
</g>
<defs>
<clipPath id="clip0_2001_2667">
<rect width="35.8154" height="36" fill="white"/>
</clipPath>
</defs>
</svg>
