<svg width="36" height="36" viewBox="0 0 36 36" fill="none" xmlns="http://www.w3.org/2000/svg">
<g clip-path="url(#clip0_2001_985)">
<path d="M34.848 36.0002H1.1519C0.515525 36.0002 0 35.4847 0 34.8489V12.0506C0 11.6919 0.167264 11.3535 0.452354 11.1352L6.40657 6.58434C6.9122 6.1979 7.63537 6.29403 8.02153 6.80022C8.40769 7.30614 8.31101 8.02877 7.80565 8.41521L2.30379 12.6197V33.697H33.6961V12.6197L27.9023 8.19054C27.3961 7.8041 27.3003 7.08092 27.6864 6.57555C28.0726 6.06936 28.7958 5.97405 29.3014 6.35967L35.5476 11.1346C35.8327 11.353 35.9999 11.6911 35.9999 12.05V34.8483C35.9994 35.4847 35.4839 36.0002 34.848 36.0002Z" fill="white"/>
<path d="M18.0005 26.0834C17.7615 26.0834 17.5226 26.0098 17.3204 25.8617L3.86129 16.0125C3.34769 15.6362 3.23591 14.9155 3.61163 14.4024C3.98791 13.8896 4.7086 13.7773 5.22165 14.1528L18.0005 23.5043L30.7782 14.1528C31.2912 13.7765 32.0119 13.8888 32.3882 14.4024C32.7639 14.9155 32.6521 15.6367 32.1385 16.0125L18.6808 25.8612C18.4778 26.0098 18.2389 26.0834 18.0005 26.0834Z" fill="white"/>
<path d="M31.3432 32.8276C31.0773 32.8276 30.8109 32.7367 30.5936 32.5508L23.0912 26.1134C22.6089 25.6992 22.5526 24.9713 22.9671 24.4885C23.3821 24.0054 24.1082 23.9504 24.5919 24.3643L32.0938 30.8015C32.5761 31.216 32.6321 31.9435 32.2179 32.4266C31.9902 32.6922 31.6675 32.8276 31.3432 32.8276Z" fill="white"/>
<path d="M4.65867 32.8276C4.33376 32.8276 4.01159 32.6917 3.7839 32.4258C3.36973 31.9435 3.42521 31.216 3.90805 30.8015L11.4094 24.3643C11.8917 23.9504 12.6198 24.0054 13.0342 24.4885C13.4479 24.9708 13.3924 25.6983 12.9101 26.1134L5.4082 32.5508C5.19095 32.7373 4.92454 32.8276 4.65867 32.8276Z" fill="white"/>
<path d="M28.6004 18.3257C27.9641 18.3257 27.4485 17.8102 27.4485 17.1738V2.30353H8.25741V16.9579C8.25741 17.5943 7.74188 18.1098 7.10551 18.1098C6.46886 18.1098 5.95361 17.5943 5.95361 16.9579V1.15216C5.95416 0.515778 6.46969 0.000244141 7.10606 0.000244141H28.6004C29.2371 0.000244141 29.7523 0.515778 29.7523 1.15216V17.1743C29.7523 17.8102 29.2371 18.3257 28.6004 18.3257Z" fill="white"/>
<path d="M20.6369 14.9236C20.2252 14.9236 19.8259 14.7553 19.5325 14.4688C19.2455 14.1749 19.0771 13.7698 19.0771 13.3636C19.0771 12.9519 19.2461 12.5462 19.5325 12.2592C20.1129 11.6783 21.1607 11.6783 21.7416 12.2592C22.0286 12.5462 22.1964 12.9513 22.1964 13.3636C22.1964 13.7692 22.028 14.1749 21.7416 14.4619C21.4482 14.7558 21.0489 14.9236 20.6369 14.9236Z" fill="white"/>
<path d="M15.0653 9.35128C14.6536 9.35128 14.2542 9.18209 13.9601 8.89562C13.6731 8.60229 13.5052 8.20348 13.5052 7.79122C13.5052 7.37868 13.6739 6.97301 13.9601 6.686C14.5412 6.10564 15.5888 6.10564 16.1691 6.686C16.4561 6.97301 16.6248 7.37868 16.6248 7.79122C16.6248 8.20348 16.4556 8.60229 16.1691 8.89562C15.8821 9.18264 15.4773 9.35128 15.0653 9.35128Z" fill="white"/>
<path d="M14.5918 14.9898C14.2965 14.9898 14.0021 14.8775 13.7766 14.6528C13.3267 14.2024 13.3267 13.4729 13.7766 13.0235L20.3007 6.50124C20.752 6.05135 21.4806 6.05135 21.93 6.50124C22.3799 6.95195 22.3799 7.68144 21.93 8.13078L15.4061 14.6523C15.1806 14.8775 14.8862 14.9898 14.5918 14.9898Z" fill="white"/>
</g>
<defs>
<clipPath id="clip0_2001_985">
<rect width="36" height="36" fill="white"/>
</clipPath>
</defs>
</svg>
