<svg width="36" height="36" viewBox="0 0 36 36" fill="none" xmlns="http://www.w3.org/2000/svg">
<g clip-path="url(#clip0_2001_104)">
<path d="M16.7196 28.3657C17.7642 28.3657 20.3233 28.2353 21.5326 27.0272L35.6626 12.8941C36.1125 12.4442 36.1125 11.7148 35.6626 11.2648L32.5644 8.16665C32.132 7.73549 31.3675 7.73549 30.9351 8.16665L28.6993 10.4025V1.15218C28.6993 0.515707 28.1838 0.000244141 27.5473 0.000244141H1.15193C0.515463 0.000244141 0 0.515707 0 1.15218V34.8485C0 35.4844 0.515463 35.9998 1.15193 35.9998H27.5473C28.1832 35.9998 28.6987 35.4844 28.6993 34.8485V24.1624C28.6993 23.5259 28.1838 23.0105 27.5473 23.0105C26.9109 23.0105 26.3954 23.5259 26.3954 24.1624V33.6966H2.30324V2.30348H26.3954V12.7065L16.8038 22.2985C15.4604 23.6419 15.4516 26.6472 15.4641 27.2356C15.4772 27.8528 15.9746 28.3501 16.5911 28.3644L16.7196 28.3657ZM18.4338 23.9278L31.75 10.6102L33.2189 12.0791L19.9033 25.3973C19.6244 25.6762 18.8088 25.9046 17.8247 26.0057C17.9177 25.1315 18.1199 24.2416 18.4338 23.9278Z" fill="white"/>
<path d="M4.23083 29.1432C4.23083 29.7796 4.7463 30.2951 5.38277 30.2951C6.25198 30.2951 7.09756 30.0605 7.88126 29.6674C8.55268 30.0773 9.38701 30.2951 10.3486 30.2951C11.2416 30.2951 12.0602 30.0012 12.6961 29.5132C13.2197 30.0099 13.923 30.2951 14.7379 30.2951C15.3744 30.2951 15.8911 29.7803 15.8911 29.1438C15.8911 28.5073 15.3756 27.9919 14.7391 27.9919C14.132 27.9919 14.0047 27.4271 14.0047 26.9535C14.0047 26.317 13.4892 25.8016 12.8527 25.8016C12.2163 25.8016 11.7008 26.317 11.7008 26.9535C11.7008 27.497 11.0568 27.9919 10.3492 27.9919C10.2643 27.9919 10.1838 27.9888 10.1076 27.9843C10.8421 27.2087 11.4268 26.3207 11.7943 25.4527C12.4626 23.8734 12.3634 22.4706 11.5216 21.6026C10.6424 20.6959 9.49234 20.5081 8.44278 21.099C6.70929 22.0769 5.62352 25.1108 6.20887 27.3416C6.25191 27.507 6.30309 27.6655 6.36237 27.8177C6.03787 27.9288 5.70839 27.9912 5.3827 27.9912C4.74623 27.9912 4.23083 28.5067 4.23083 29.1432ZM8.95515 23.8042C9.28646 23.2451 9.60414 23.0653 9.67712 23.0653C9.67839 23.0647 9.67276 23.0061 9.86746 23.207C9.93735 23.2788 10.021 23.7324 9.67213 24.5548C9.3951 25.2113 8.93708 25.8883 8.37732 26.4655C8.25378 25.5982 8.52146 24.5349 8.95515 23.8042Z" fill="white"/>
<path d="M6.14888 7.19071H22.5496C23.1855 7.19071 23.7016 6.67525 23.7016 6.03878C23.7016 5.4023 23.1861 4.88684 22.5496 4.88684H6.14888C5.51241 4.88684 4.99695 5.4023 4.99695 6.03878C4.99702 6.67525 5.51241 7.19071 6.14888 7.19071Z" fill="white"/>
<path d="M6.14888 11.1786H22.5496C23.1855 11.1786 23.7016 10.6632 23.7016 10.0267C23.7016 9.39022 23.1861 8.87476 22.5496 8.87476H6.14888C5.51241 8.87476 4.99695 9.39022 4.99695 10.0267C4.99702 10.6632 5.51241 11.1786 6.14888 11.1786Z" fill="white"/>
<path d="M6.14888 15.1654H20.8374C21.4732 15.1654 21.9893 14.65 21.9893 14.0135C21.9893 13.377 21.4738 12.8616 20.8374 12.8616H6.14888C5.51241 12.8616 4.99695 13.377 4.99695 14.0135C4.99702 14.65 5.51241 15.1654 6.14888 15.1654Z" fill="white"/>
<path d="M6.14888 19.1516H14.8856C15.5221 19.1516 16.0382 18.6368 16.0382 18.0003C16.0382 17.3639 15.5227 16.8484 14.8862 16.8484H6.14888C5.51241 16.8484 4.99695 17.3632 4.99695 17.9997C4.99695 18.6362 5.51241 19.1516 6.14888 19.1516Z" fill="white"/>
</g>
<defs>
<clipPath id="clip0_2001_104">
<rect width="36" height="36" fill="white"/>
</clipPath>
</defs>
</svg>
