<svg width="36" height="36" viewBox="0 0 36 36" fill="none" xmlns="http://www.w3.org/2000/svg">
<g clip-path="url(#clip0_2001_1995)">
<path d="M5.17086 7.17378C5.65945 7.17378 6.67666 7.17378 7.6445 11.2562C8.25769 13.8394 9.55142 19.2848 14.4175 21.1039C14.2274 21.3373 14.0651 21.5843 13.9135 21.8328C13.5753 22.3863 13.4848 22.5354 12.9007 22.576C12.2655 22.6209 11.7875 23.1707 11.8311 23.8053C11.8767 24.4406 12.4389 24.9236 13.0605 24.8749C14.8321 24.7514 15.463 23.7174 15.8805 23.0328C16.2786 22.3806 16.5188 21.9869 17.9984 21.9869C19.4799 21.9869 19.7201 22.3812 20.1189 23.034C20.5369 23.7179 21.1691 24.7513 22.9395 24.8749C22.9664 24.8768 22.9938 24.8775 23.0206 24.8775C23.6203 24.8775 24.1258 24.4125 24.1682 23.8053C24.2119 23.1707 23.7339 22.6203 23.0986 22.576C22.5145 22.5354 22.4234 22.3869 22.0852 21.8322C21.9335 21.5843 21.7713 21.3379 21.5813 21.1049C26.4491 19.2869 27.7428 13.8398 28.3567 11.2555C29.3246 7.17364 30.2675 7.17364 30.8304 7.17364C31.4669 7.17364 31.9824 6.65818 31.9824 6.02165C31.9824 5.38512 31.4668 4.86987 30.8303 4.86987C28.4671 4.86987 27.1005 6.566 26.1151 10.7233C25.0443 15.2331 23.3201 19.4066 18.0009 19.4066C12.681 19.4066 10.9568 15.2338 9.88597 10.7239C9.19951 7.82902 8.10251 4.86987 5.17079 4.86987C4.53425 4.86987 4.0188 5.38533 4.0188 6.02186C4.0188 6.65839 4.53432 7.17378 5.17086 7.17378Z" fill="white"/>
<path d="M35.9504 10.6941C35.7152 9.24818 34.6699 8.16362 33.3488 7.99578C32.3316 7.86472 31.3813 8.15863 30.5881 8.84072C29.7394 9.57147 29.1528 10.7228 29.1298 11.7044C29.1148 12.3409 29.6184 12.8688 30.2543 12.8838C30.2643 12.8838 30.273 12.8838 30.2823 12.8838C30.9057 12.8838 31.4193 12.3858 31.4337 11.7593C31.4387 11.5503 31.6427 10.9736 32.092 10.5873C32.3834 10.3358 32.6973 10.2379 33.0593 10.2809C33.2995 10.3121 33.596 10.5698 33.6765 11.0641C33.8837 12.3377 32.5726 14.5742 28.1944 16.6841C26.0546 17.7144 25.7601 19.2282 26.1588 20.2111C26.3404 20.6585 26.7716 20.9306 27.2271 20.9306C27.3706 20.9306 27.5173 20.9031 27.659 20.8458C28.2218 20.618 28.5064 19.9946 28.3229 19.4255C28.3729 19.3187 28.5932 19.0492 29.1941 18.7596C35.9467 15.5053 36.1688 12.0345 35.9504 10.6941Z" fill="white"/>
<path d="M7.6788 19.4266C7.49535 19.997 7.78117 20.6198 8.34528 20.8469C8.4857 20.9038 8.63173 20.9305 8.77461 20.9305C9.23079 20.9305 9.66257 20.6579 9.84356 20.2085C10.2386 19.2263 9.94277 17.713 7.80669 16.684C3.42789 14.5741 2.11615 12.3376 2.32336 11.064C2.40386 10.5698 2.69967 10.312 2.94112 10.2808C3.29556 10.2378 3.61695 10.3364 3.90959 10.5879C4.35825 10.9742 4.5611 11.5495 4.56609 11.7573C4.58044 12.3938 5.09589 12.8775 5.74361 12.8837C6.38014 12.8694 6.88371 12.3427 6.87 11.7062C6.84813 10.7246 6.26286 9.57392 5.41412 8.84254C4.62164 8.15988 3.66561 7.86535 2.65157 7.99571C1.33048 8.16298 0.284596 9.2481 0.0493325 10.694C-0.169056 12.0344 0.0530586 15.5053 6.80756 18.7596C7.40985 19.0497 7.62951 19.3193 7.6788 19.4266Z" fill="white"/>
<path d="M5.17079 4.31262H30.8296C31.4661 4.31262 31.9816 3.7978 31.9816 3.16127C31.9816 2.52473 31.4661 2.00928 30.8296 2.00928H5.17079C4.53489 2.00928 4.0188 2.5241 4.0188 3.16063C4.0188 3.79717 4.53425 4.31262 5.17079 4.31262Z" fill="white"/>
<path d="M11.2638 25.3699C10.8039 25.3699 10.3877 25.6432 10.2061 26.0657L8.68036 29.6102C8.42885 30.1949 8.69843 30.8725 9.28258 31.1241C9.86856 31.3762 10.545 31.106 10.7965 30.5218L12.0227 27.6738H23.9779L25.206 30.5225C25.3932 30.9574 25.8182 31.2183 26.2643 31.2183C26.4166 31.2183 26.5713 31.1877 26.7192 31.1241C27.3033 30.8714 27.5722 30.1942 27.3208 29.6095L25.7926 26.065C25.6103 25.6432 25.1948 25.3699 24.7349 25.3699H11.2638Z" fill="white"/>
<path d="M27.4911 31.687H8.51063C7.8741 31.687 7.35864 32.2025 7.35864 32.839C7.35864 33.4755 7.8741 33.991 8.51063 33.991H27.4911C28.127 33.991 28.6431 33.4755 28.6431 32.839C28.6431 32.2025 28.1276 31.687 27.4911 31.687Z" fill="white"/>
</g>
<defs>
<clipPath id="clip0_2001_1995">
<rect width="36" height="36" fill="white"/>
</clipPath>
</defs>
</svg>
