<svg width="36" height="36" viewBox="0 0 36 36" fill="none" xmlns="http://www.w3.org/2000/svg">
<g clip-path="url(#clip0_287_3029)">
<path fill-rule="evenodd" clip-rule="evenodd" d="M18.0001 2.67188C14.6141 2.67188 11.4923 3.78732 8.97739 5.67122C8.41796 6.09028 7.62473 5.97649 7.20566 5.41706C6.7866 4.85763 6.90039 4.0644 7.45982 3.64533C10.3976 1.44464 14.0484 0.140625 18.0001 0.140625C27.717 0.140625 35.5945 8.01607 35.5945 17.7315V26.6441C35.5945 31.7338 31.4677 35.8594 26.3775 35.8594H9.62275C4.53257 35.8594 0.405762 31.7338 0.405762 26.6441V17.7315C0.405762 14.0828 1.51822 10.6901 3.42276 7.87857C3.81478 7.29987 4.60171 7.14853 5.18042 7.54055C5.75912 7.93257 5.91046 8.7195 5.51844 9.29821C3.88879 11.7039 2.93701 14.6047 2.93701 17.7315V26.6441C2.93701 30.3353 5.93005 33.3281 9.62275 33.3281H26.3775C30.0702 33.3281 33.0632 30.3354 33.0632 26.6441V17.7315C33.0632 9.41454 26.3195 2.67188 18.0001 2.67188Z" fill="white"/>
<path fill-rule="evenodd" clip-rule="evenodd" d="M6.40944 1.09674C6.87203 1.09674 7.29777 1.34912 7.51978 1.75496L7.63671 1.9687C7.63671 1.9687 7.63671 1.96871 7.63671 1.96871C8.44389 3.4442 9.65731 4.6574 11.1331 5.46442L11.1331 5.46443L11.347 5.58136C11.7529 5.80334 12.0053 6.22913 12.0053 6.69179C12.0053 7.15444 11.7529 7.58023 11.347 7.80222L11.1331 7.91915L11.1331 7.91917C9.65723 8.72619 8.44382 9.93937 7.63673 11.4148L7.63671 11.4149L7.51978 11.6286C7.29777 12.0345 6.87203 12.2868 6.40944 12.2868C5.94684 12.2868 5.5211 12.0345 5.29909 11.6286L5.18216 11.4149L6.1556 10.8824L5.18216 11.4149C4.37498 9.9393 3.16158 8.72613 1.68575 7.91919L1.68567 7.91915L1.47185 7.80222C1.06593 7.58023 0.813476 7.15444 0.813477 6.69179C0.813477 6.22913 1.06593 5.80334 1.47185 5.58136L1.68567 5.46443L1.68571 5.46441C3.16157 4.65739 4.37499 3.4442 5.18216 1.96871C5.18216 1.96871 5.18217 1.9687 5.18217 1.9687L5.29909 1.75496C5.5211 1.34912 5.94684 1.09674 6.40944 1.09674ZM6.40944 4.69777C5.83036 5.44288 5.16036 6.11278 4.41513 6.69177C5.16036 7.27074 5.83036 7.94063 6.40943 8.68576C6.9885 7.94064 7.6585 7.27075 8.40373 6.69177C7.65851 6.11279 6.98851 5.44289 6.40944 4.69777ZM6.53364 10.8114L6.52637 10.8075L6.53364 10.8114ZM6.53364 10.8114L6.53905 10.8144L6.53364 10.8114Z" fill="white"/>
<path fill-rule="evenodd" clip-rule="evenodd" d="M20.2862 21.4754C20.7804 20.9811 21.5817 20.9811 22.076 21.4753C22.1089 21.5081 22.1625 21.5082 22.1955 21.4752C22.6898 20.981 23.4911 20.9811 23.9853 21.4755C24.4795 21.9698 24.4794 22.7711 23.9851 23.2653C22.9637 24.2864 21.3077 24.2865 20.2863 23.2653C19.792 22.771 19.7919 21.9697 20.2862 21.4754Z" fill="white"/>
<path fill-rule="evenodd" clip-rule="evenodd" d="M12.0146 21.4755C12.5088 20.9811 13.3102 20.981 13.8045 21.4752C13.8375 21.5082 13.8911 21.5081 13.9239 21.4753C14.4182 20.9811 15.2196 20.9811 15.7138 21.4754C16.208 21.9697 16.208 22.771 15.7137 23.2653C14.6923 24.2865 13.0363 24.2864 12.0149 23.2653C11.5205 22.7711 11.5204 21.9698 12.0146 21.4755Z" fill="white"/>
<path fill-rule="evenodd" clip-rule="evenodd" d="M15.8247 27.6629C16.3189 27.1686 17.1203 27.1685 17.6146 27.6627C17.8273 27.8754 18.1724 27.8755 18.3853 27.6627C18.8796 27.1685 19.681 27.1686 20.1752 27.663C20.6693 28.1573 20.6692 28.9587 20.1749 29.4528C18.9736 30.6537 17.0261 30.6538 15.8249 29.4528C15.3306 28.9586 15.3305 28.1572 15.8247 27.6629Z" fill="white"/>
<path fill-rule="evenodd" clip-rule="evenodd" d="M28.5705 16.7865C29.2695 16.7865 29.8361 17.3531 29.8361 18.0521V23.6395C29.8361 25.1113 29.6287 26.4288 29.2152 27.6168C28.9854 28.2769 28.264 28.6258 27.6038 28.396C26.9437 28.1662 26.5948 27.4448 26.8246 26.7847C27.1317 25.9025 27.3049 24.8715 27.3049 23.6395V18.0521C27.3049 17.3531 27.8715 16.7865 28.5705 16.7865Z" fill="white"/>
<path fill-rule="evenodd" clip-rule="evenodd" d="M18.0001 6.34625C18.6991 6.34625 19.2657 6.91289 19.2657 7.61188C19.2657 9.60444 20.0883 11.9556 21.4563 13.8032C22.8342 15.6641 24.5832 16.7865 26.3276 16.7865H28.5705C29.2695 16.7865 29.8362 17.3531 29.8362 18.0521C29.8362 18.7511 29.2695 19.3177 28.5705 19.3177H26.3276C23.4729 19.3177 21.0581 17.5191 19.422 15.3094C18.8763 14.5724 18.397 13.7644 18.0001 12.9185C17.6032 13.7644 17.1239 14.5724 16.5782 15.3094C14.9421 17.5191 12.5274 19.3177 9.67266 19.3177H8.69531V23.6395C8.69531 26.2405 9.46373 28.0019 10.7687 29.3894C12.1253 30.832 14.1384 31.954 16.7961 33.0833C17.5644 33.4097 18.4357 33.4097 19.2039 33.0833C20.5047 32.5306 21.6608 31.9764 22.6668 31.377C23.2672 31.0193 24.0441 31.216 24.4018 31.8165C24.7596 32.417 24.5628 33.1938 23.9623 33.5516C22.8207 34.2318 21.5503 34.8366 20.1938 35.413L20.1938 35.413C18.793 36.0081 17.2071 36.0081 15.8063 35.413L15.8063 35.413C13.0807 34.2549 10.658 32.9666 8.92475 31.1236C7.13975 29.2256 6.16406 26.8264 6.16406 23.6395V18.0521C6.16406 17.3531 6.7307 16.7865 7.42969 16.7865H9.67266C11.4171 16.7865 13.166 15.6641 14.5439 13.8032C15.9119 11.9556 16.7345 9.60444 16.7345 7.61188C16.7345 6.91289 17.3011 6.34625 18.0001 6.34625Z" fill="white"/>
</g>
<defs>
<clipPath id="clip0_287_3029">
<rect width="36" height="36" fill="white"/>
</clipPath>
</defs>
</svg>
