<svg width="36" height="36" viewBox="0 0 36 36" fill="none" xmlns="http://www.w3.org/2000/svg">
<path d="M32.6226 26.7827C32.4805 26.0194 31.7505 25.5165 30.9919 25.6596C30.2335 25.8026 29.7338 26.5374 29.8759 27.3007C29.9814 27.8671 29.734 28.2707 29.5772 28.4609C29.4208 28.6505 29.0732 28.9688 28.5028 28.9688H7.29328C6.72286 28.9688 6.37523 28.6506 6.21881 28.4609C6.06204 28.2707 5.81466 27.8671 5.92015 27.3007C6.31647 25.1722 7.11171 23.7722 7.88075 22.4183C8.8148 20.7742 9.78057 19.074 9.78057 16.4531V14.3438C9.78057 9.90935 13.3619 6.25275 17.7659 6.18841H18.0301C22.4191 6.25254 25.9885 9.90914 25.9885 14.3438V16.4531C25.9885 18.6836 26.7135 20.2185 27.393 21.4821C27.6459 21.9523 28.1266 22.2192 28.623 22.2192C28.8476 22.2192 29.0755 22.1646 29.2868 22.0494C29.9655 21.6798 30.2179 20.8264 29.8505 20.1434C29.1745 18.8861 28.783 17.8791 28.783 16.4531V14.3438C28.783 11.4496 27.6692 8.71615 25.6466 6.64692C23.9133 4.8735 21.6877 3.76692 19.2818 3.46148V1.40625C19.2818 0.629578 18.6562 0 17.8845 0C17.1128 0 16.4873 0.629578 16.4873 1.40625V3.46563C11.1458 4.16313 6.9861 8.80179 6.9861 14.3438V16.4531C6.9861 18.3267 6.31033 19.5164 5.4548 21.0225C4.61199 22.5063 3.65663 24.1881 3.17346 26.7827C2.94285 28.0214 3.2691 29.2877 4.0686 30.2572C4.8674 31.2258 6.04276 31.7812 7.29328 31.7812H13.7198C13.7198 34.1075 15.6002 36 17.9115 36C20.2228 36 22.1032 34.1075 22.1032 31.7812H28.5028C29.7533 31.7812 30.9287 31.2258 31.7274 30.2572C32.5269 29.2877 32.8532 28.0214 32.6226 26.7827ZM17.9116 33.1875C17.1411 33.1875 16.5143 32.5567 16.5143 31.7812H19.3088C19.3088 32.5567 18.682 33.1875 17.9116 33.1875Z" fill="white"/>
<path d="M7.57066 3.1709C6.99569 2.65284 6.11236 2.70206 5.59769 3.28073C2.88915 6.32596 1.39746 10.255 1.39746 14.3441C1.39746 15.1208 2.023 15.7504 2.7947 15.7504C3.56639 15.7504 4.19193 15.1208 4.19193 14.3441C4.19193 10.9482 5.43058 7.68531 7.67978 5.15659C8.19445 4.57792 8.14562 3.68889 7.57066 3.1709Z" fill="white"/>
<path d="M30.1717 3.2808C29.657 2.7022 28.7736 2.65298 28.1987 3.17097C27.6238 3.68896 27.5749 4.57799 28.0896 5.15666C30.3388 7.68545 31.5774 10.9482 31.5774 14.3442C31.5774 15.1209 32.203 15.7504 32.9747 15.7504C33.7463 15.7504 34.3719 15.1209 34.3719 14.3442C34.3719 10.2551 32.8802 6.32603 30.1717 3.2808Z" fill="white"/>
</svg>
