<svg width="36" height="36" viewBox="0 0 36 36" fill="none" xmlns="http://www.w3.org/2000/svg">
<g clip-path="url(#clip0_287_3068)">
<path d="M22.6399 0C15.2731 0 9.27982 5.99327 9.27982 13.3601C9.27982 15.9015 9.99332 18.2793 11.2302 20.3041C4.21852 25.8152 3.44385 26.5896 3.18262 26.8508L1.23374 28.7997C-0.411245 30.4447 -0.411245 33.1213 1.23374 34.7663C2.05623 35.5887 3.13664 36 4.21698 36C5.29732 36 6.37773 35.5887 7.20022 34.7663L9.14911 32.8174C9.40886 32.5577 10.1854 31.7809 15.6638 24.7498C17.6956 25.9988 20.085 26.7202 22.6399 26.7202C24.6473 26.7202 26.5778 26.2856 28.3777 25.4284C29.0789 25.0945 29.3767 24.2553 29.0427 23.5541C28.7087 22.8528 27.8695 22.5549 27.1684 22.8891C25.7492 23.5649 24.2256 23.9076 22.6399 23.9076C16.8241 23.9076 12.0925 19.176 12.0925 13.3601C12.0925 7.54424 16.8241 2.81265 22.6399 2.81265C28.4558 2.81265 33.1874 7.54424 33.1874 13.3601C33.1874 15.265 32.6746 17.1312 31.7043 18.7569C31.3062 19.4238 31.5242 20.2872 32.1911 20.6852C32.8582 21.0833 33.7214 20.8653 34.1195 20.1984C35.3498 18.137 36.0001 15.7724 36.0001 13.3601C36 5.99327 30.0067 0 22.6399 0ZM7.16035 30.8285L5.21146 32.7774C4.66313 33.3258 3.77096 33.3258 3.22263 32.7774C2.67431 32.2291 2.67431 31.337 3.22263 30.7886L5.17152 28.8398C5.52001 28.4913 7.00256 27.205 12.9401 22.5377C13.1007 22.7074 13.2656 22.8732 13.4349 23.0344C8.78297 29.0044 7.50574 30.4831 7.16035 30.8285ZM29.7383 10.2835C30.0475 10.996 29.7205 11.8242 29.008 12.1334C28.8257 12.2125 28.6357 12.25 28.4489 12.25C27.9055 12.25 27.3882 11.9332 27.1581 11.4031C26.3765 9.60184 24.603 8.43796 22.6399 8.43796C21.8632 8.43796 21.2336 7.80835 21.2336 7.03163C21.2336 6.25492 21.8632 5.62531 22.6399 5.62531C25.7241 5.62531 28.5104 7.45374 29.7383 10.2835Z" fill="white"/>
</g>
<defs>
<clipPath id="clip0_287_3068">
<rect width="36" height="36" fill="white"/>
</clipPath>
</defs>
</svg>
