<svg width="36" height="36" viewBox="0 0 36 36" fill="none" xmlns="http://www.w3.org/2000/svg">
<g clip-path="url(#clip0_287_3077)">
<path d="M20.234 20.7935C20.0401 20.7935 19.844 20.7449 19.6638 20.6419C16.5 18.8336 12.1777 15.7904 11.1681 10.2623C10.8173 8.33368 11.1082 5.2435 13.0811 2.87924C14.1775 1.56555 16.2204 0 19.7281 0C24.9696 0 27.5638 3.4563 28.2433 6.69122C29.0631 10.5955 27.3479 15.6676 22.4832 17.8066C21.899 18.0629 21.2214 17.7979 20.9643 17.2156C20.7083 16.6328 20.9731 15.9532 21.5551 15.6975C25.2967 14.0526 26.617 10.1602 25.9881 7.16473C25.3487 4.12097 23.0086 2.30383 19.7275 2.30383C17.6272 2.30383 15.9861 2.99405 14.8496 4.35553C13.4807 5.99606 13.1516 8.29688 13.434 9.84924C14.0709 13.3363 16.4129 16.1299 20.8058 18.6416C21.3587 18.9572 21.5496 19.6606 21.2346 20.2126C21.0222 20.5851 20.6336 20.7935 20.234 20.7935Z" fill="white"/>
<path d="M34.8479 36H16.8361C16.1997 36 15.6842 35.4839 15.6842 34.8475C15.6842 34.2109 16.2002 33.6962 16.8361 33.6962H33.691C33.6512 28.8333 33.351 25.6402 32.7967 24.1968C32.0598 22.2712 28.8881 20.537 26.9548 19.6858C25.6045 22.0103 23.5795 23.5684 21.2751 24.0191C18.8315 24.497 16.3381 23.6821 14.2502 21.7235C13.786 21.2885 13.7629 20.5595 14.1977 20.0954C14.6328 19.6312 15.3614 19.6081 15.8259 20.0429C17.3815 21.5019 19.113 22.0946 20.8321 21.7576C22.711 21.3901 24.3647 19.9262 25.3692 17.7415C25.6207 17.195 26.2511 16.9354 26.8139 17.142C27.4997 17.3941 33.5468 19.7128 34.947 23.3715C35.8899 25.8286 35.9984 31.0979 35.9984 34.8475C35.9992 35.4839 35.4837 36 34.8479 36Z" fill="white"/>
<path d="M9.30899 36C4.1759 36 0 31.8235 0 26.6894C0 21.5563 4.1759 17.3804 9.30899 17.3804C14.4418 17.3804 18.6177 21.5563 18.6177 26.6894C18.6177 31.8235 14.4418 36 9.30899 36ZM9.30899 19.6848C5.4462 19.6848 2.30301 22.8274 2.30301 26.6899C2.30301 30.553 5.4462 33.6962 9.30899 33.6962C13.1715 33.6962 16.3147 30.553 16.3147 26.6894C16.3147 22.8274 13.1715 19.6848 9.30899 19.6848Z" fill="white"/>
<path d="M13.2332 27.8388H5.38434C4.74796 27.8388 4.23242 27.3232 4.23242 26.6866C4.23242 26.0502 4.74796 25.5347 5.38434 25.5347H13.2332C13.8696 25.5347 14.3852 26.0502 14.3852 26.6866C14.3852 27.3232 13.8696 27.8388 13.2332 27.8388Z" fill="white"/>
<path d="M9.30768 31.7656C8.67102 31.7656 8.15576 31.25 8.15576 30.6136V22.7672C8.15576 22.1308 8.67102 21.6147 9.30768 21.6147C9.94406 21.6147 10.4596 22.1308 10.4596 22.7672V30.6136C10.4596 31.25 9.94406 31.7656 9.30768 31.7656Z" fill="white"/>
</g>
<defs>
<clipPath id="clip0_287_3077">
<rect width="36" height="36" fill="white"/>
</clipPath>
</defs>
</svg>
