<svg width="28" height="28" viewBox="0 0 28 28" fill="none" xmlns="http://www.w3.org/2000/svg">
<g clip-path="url(#clip0_176_886)">
<path d="M24.5927 3.01983C25.6916 3.72073 26.3477 4.91606 26.3477 6.21738C26.3477 7.47817 25.723 8.65293 24.6765 9.35996C24.3011 9.61363 24.2023 10.1236 24.456 10.499C24.6145 10.7337 24.8731 10.8603 25.1366 10.8603C25.2946 10.8603 25.4543 10.8147 25.595 10.7196C27.0938 9.7071 27.9885 8.02401 27.9885 6.21743C27.9885 4.35282 27.0489 2.64032 25.4751 1.63647C25.0931 1.39287 24.5858 1.50504 24.3422 1.88702C24.0985 2.269 24.2107 2.77617 24.5927 3.01983Z" fill="white"/>
<path d="M22.7856 5.73009C22.9586 5.8176 23.0662 5.99147 23.0662 6.18394C23.0662 6.36399 22.973 6.52714 22.817 6.62045C22.4281 6.85295 22.3013 7.35668 22.5338 7.74555C22.6875 8.00261 22.9596 8.14514 23.2388 8.14514C23.382 8.14514 23.5271 8.10762 23.659 8.02875C24.3054 7.64229 24.707 6.93537 24.707 6.18394C24.707 5.36912 24.2545 4.63409 23.526 4.26578C23.1216 4.06139 22.6282 4.2234 22.4237 4.62775C22.2192 5.03215 22.3812 5.5257 22.7856 5.73009Z" fill="white"/>
<path d="M27.1778 26.3592H22.2687C21.8089 26.3592 21.435 25.9852 21.435 25.5254V15.8679C21.435 14.5121 20.3319 13.409 18.976 13.409C17.6202 13.409 16.5172 14.5121 16.5172 15.8679V25.5254C16.5172 25.9852 16.1432 26.3592 15.6834 26.3592H9.53529C8.90992 26.3592 8.40111 25.8504 8.40111 25.225C8.40111 25.2204 8.40051 25.2159 8.4004 25.2113C8.40045 25.2067 8.40111 25.2023 8.40111 25.1977V24.7184H10.0071C10.2267 24.7184 10.4371 24.6304 10.5913 24.474C10.7455 24.3177 10.8305 24.106 10.8275 23.8865C10.7848 20.8374 11.0653 16.6423 12.6434 13.9724C13.4204 12.658 14.1847 12.2663 14.4041 12.1761C16.2007 12.1322 18.0416 11.9999 19.9443 11.7499C20.3526 11.6962 20.6579 11.3483 20.6579 10.9365V1.25685C20.6579 0.845059 20.3526 0.497099 19.9443 0.443444C13.0001 -0.469062 6.8861 0.183213 0.715362 0.994044C0.307075 1.0477 0.00183105 1.39566 0.00183105 1.80745V10.386C0.00183105 10.7977 0.307075 11.1457 0.715362 11.1994C1.6917 11.3277 2.66655 11.4518 3.64343 11.5665C4.02191 12.1278 4.65012 13.7314 4.7338 18.2202C4.78806 21.13 4.58011 23.8068 4.57804 23.8334C4.56004 24.0615 4.63814 24.2868 4.79342 24.4548C4.94869 24.6228 5.16708 24.7184 5.39592 24.7184H6.76031V25.1977C6.76031 25.2024 6.76091 25.2068 6.76102 25.2114C6.76096 25.216 6.76031 25.2205 6.76031 25.2251C6.76031 26.7552 8.00513 28 9.53529 28H15.6834C17.0479 28 18.158 26.89 18.158 25.5255V15.8679C18.158 15.4169 18.525 15.0499 18.976 15.0499C19.4272 15.0499 19.7941 15.4169 19.7941 15.8679V25.5254C19.7941 26.8899 20.9042 28 22.2687 28H27.1778C27.6308 28 27.9982 27.6327 27.9982 27.1796C27.9982 26.7265 27.6308 26.3592 27.1778 26.3592ZM19.0171 10.2115C18.4641 10.276 17.9162 10.3299 17.3727 10.3749V1.81844C17.9163 1.86345 18.4641 1.91738 19.0171 1.98181V10.2115ZM1.64264 2.52787C6.23787 1.93461 10.816 1.46211 15.7319 1.70954V10.4839C10.816 10.7312 6.23787 10.2588 1.64264 9.66553V2.52787ZM11.89 12.1814C11.7186 12.394 11.5455 12.6329 11.3742 12.9033C10.9601 13.5569 10.6045 14.3079 10.3072 15.153H10.0027C9.54962 15.153 9.1823 15.5204 9.1823 15.9734C9.1823 16.3691 9.46249 16.6993 9.83523 16.7766C9.61727 17.6973 9.45379 18.7045 9.3449 19.796H6.38117C6.38582 19.2846 6.38456 18.7488 6.3745 18.2019C6.32139 15.3138 6.0488 13.1878 5.54715 11.7758C7.63042 11.9883 9.73361 12.1408 11.89 12.1814ZM6.346 21.4368H9.22507C9.1998 21.9667 9.18574 22.5137 9.18295 23.0776H6.27195C6.29645 22.6499 6.32423 22.0878 6.346 21.4368Z" fill="white"/>
<path d="M14.0189 8.09274V4.10066C14.0189 3.64977 13.6551 3.28343 13.2042 3.28031C13.0606 3.27928 12.9166 3.27856 12.7716 3.27856C9.42235 3.27856 6.94802 3.55996 4.08301 3.88577L4.01114 3.89392C3.59657 3.94107 3.28345 4.29182 3.28345 4.70907V7.48433C3.28345 7.90153 3.59662 8.25233 4.01114 8.29948L4.08301 8.30763C6.94802 8.63349 9.42241 8.91484 12.7716 8.91484C12.9166 8.91484 13.0606 8.91413 13.2042 8.91309C13.655 8.91002 14.0189 8.54363 14.0189 8.09274ZM12.3781 7.27272C9.56718 7.25325 7.35778 7.02654 4.92425 6.75182V5.44164C7.35778 5.16691 9.56724 4.94021 12.3781 4.92074V7.27272Z" fill="white"/>
</g>
<defs>
<clipPath id="clip0_176_886">
<rect width="28" height="28" fill="white"/>
</clipPath>
</defs>
</svg>
