<svg width="32" height="32" viewBox="0 0 32 32" fill="none" xmlns="http://www.w3.org/2000/svg">
<path d="M30 25V24C30 22.686 29.15 21.566 27.972 21.161C27.858 19.955 27.367 17.876 25.374 17.072C25.122 16.972 24.84 16.977 24.592 17.087C24.344 17.197 24.152 17.404 24.059 17.66C23.823 18.312 23.383 18.614 22.826 18.996C22.196 19.429 21.376 19.991 21.097 21.139C19.883 21.522 19 22.66 19 24V25C18.448 25 18 25.447 18 26V29C18 30.103 18.897 31 20 31H29C30.103 31 31 30.103 31 29V26C31 25.447 30.552 25 30 25ZM21 24C21 23.448 21.449 23 22 23C22.552 23 23 22.553 23 22C23 21.334 23.23 21.145 23.957 20.646C24.374 20.361 24.89 20.006 25.326 19.453C26.073 20.371 26.003 21.925 26.002 21.941C25.985 22.216 26.083 22.486 26.272 22.686C26.461 22.887 26.725 23 27 23C27.551 23 28 23.448 28 24V25H21V24ZM29 29H20V27H29V29Z" fill="white"/>
<path d="M9.50001 20.743C8.74201 20.743 7.98401 20.398 7.29301 19.707C6.90201 19.316 6.90201 18.684 7.29301 18.293C7.68401 17.902 8.31601 17.902 8.70701 18.293C9.31401 18.9 9.68601 18.9 10.293 18.293C10.684 17.902 11.316 17.902 11.707 18.293C12.098 18.684 12.098 19.316 11.707 19.707C11.016 20.398 10.258 20.743 9.50001 20.743Z" fill="white"/>
<path d="M16.5 20.743C15.742 20.743 14.984 20.398 14.293 19.707C13.902 19.316 13.902 18.684 14.293 18.293C14.684 17.902 15.316 17.902 15.707 18.293C16.314 18.9 16.686 18.9 17.293 18.293C17.684 17.902 18.316 17.902 18.707 18.293C19.098 18.684 19.098 19.316 18.707 19.707C18.016 20.398 17.258 20.743 16.5 20.743Z" fill="white"/>
<path d="M20.789 18.67C20.323 18.67 19.906 18.343 19.81 17.869C19.252 15.118 17.565 14.362 15.612 13.487L15.062 13.238C14.56 13.007 14.341 12.413 14.572 11.912C14.802 11.41 15.397 11.19 15.898 11.422L16.43 11.662C18.47 12.576 21.008 13.713 21.77 17.471C21.88 18.013 21.53 18.54 20.989 18.651C20.922 18.663 20.855 18.67 20.789 18.67Z" fill="white"/>
<path d="M16.864 28.577C17.142 29.054 16.98 29.666 16.503 29.944C15.317 30.635 14.105 31 13 31C9.794 31 5.909 28.031 4.548 23.893C3.888 23.608 1 22.015 1 16C1 9.626 5.626 5 12 5C12.552 5 13 5.448 13 6C13 6.552 12.552 7 12 7C6.701 7 3 10.701 3 16C3 18.405 3.501 19.874 4.039 20.767C3.891 14.42 8.176 11.718 11.35 9.73C13.61 8.315 14.995 7.377 15 5.996C15.003 5.131 14.721 4.389 14.185 3.85C13.638 3.302 12.863 3 12 3C11.026 3 10.103 3.684 9.895 4.154C9.671 4.659 9.082 4.886 8.576 4.664C8.071 4.441 7.843 3.851 8.066 3.345C8.646 2.03 10.375 1 12 1C13.398 1 14.677 1.511 15.602 2.438C16.509 3.35 17.005 4.616 17 6.004C16.99 8.558 14.766 9.95 12.412 11.425C9.214 13.428 5.589 15.698 6.066 21.457C6.43 25.833 10.46 29 13 29C13.742 29 14.628 28.722 15.497 28.216C15.975 27.938 16.585 28.1 16.864 28.577Z" fill="white"/>
<path d="M23.889 15.37C23.399 15.37 22.971 15.009 22.9 14.51C22.485 11.57 20.891 9.15304 18.526 7.88104C18.04 7.61904 17.858 7.01304 18.119 6.52704C18.381 6.04104 18.986 5.85704 19.473 6.12004C22.405 7.69704 24.375 10.654 24.88 14.231C24.957 14.778 24.576 15.284 24.029 15.361C23.982 15.367 23.936 15.37 23.889 15.37Z" fill="white"/>
</svg>
