<svg width="28" height="28" viewBox="0 0 28 28" fill="none" xmlns="http://www.w3.org/2000/svg">
<g clip-path="url(#clip0_2027_1276)">
<path d="M9.7572 21.6791C9.52764 21.6791 9.29856 21.5918 9.12335 21.4171C8.77343 21.0667 8.77343 20.4993 9.12335 20.1499L18.7573 10.5164L16.1632 7.9223L6.52923 17.5567C6.17931 17.9066 5.61195 17.9066 5.26251 17.5567C4.91258 17.2063 4.91258 16.6394 5.26251 16.2895L15.5308 6.02221C15.8807 5.67228 16.448 5.67228 16.7975 6.02221L20.6583 9.88306C20.8263 10.0515 20.9209 10.2791 20.9209 10.5169C20.9209 10.7547 20.8263 10.9823 20.6583 11.1508L10.3911 21.4171C10.2158 21.5923 9.98677 21.6791 9.7572 21.6791Z" fill="white"/>
<path d="M10.9152 22.8382C10.6856 22.8382 10.4566 22.7509 10.2814 22.5761L4.104 16.3973C3.75407 16.0469 3.75407 15.4796 4.104 15.1301C4.45393 14.7797 5.02128 14.7807 5.37121 15.1301L11.5491 21.3084C11.899 21.6589 11.899 22.2262 11.5491 22.5757C11.3738 22.7509 11.1443 22.8382 10.9152 22.8382Z" fill="white"/>
<path d="M11.8568 15.1121C11.6277 15.1121 11.3981 15.0248 11.2234 14.85L9.59606 13.2232C9.24614 12.8733 9.24614 12.3059 9.59606 11.9565C9.94599 11.6061 10.5133 11.6061 10.8633 11.956L12.4906 13.5828C12.8405 13.9328 12.8405 14.5001 12.4906 14.8496C12.3154 15.0248 12.0863 15.1121 11.8568 15.1121Z" fill="white"/>
<path d="M13.734 13.2348C13.505 13.2348 13.2754 13.1474 13.1007 12.9727L11.4734 11.3459C11.1234 10.996 11.1234 10.4286 11.4734 10.0787C11.8233 9.72923 12.3906 9.72874 12.7406 10.0787L14.3679 11.7055C14.7178 12.0554 14.7178 12.6228 14.3679 12.9727C14.1927 13.1474 13.9636 13.2348 13.734 13.2348Z" fill="white"/>
<path d="M15.6113 11.3575C15.3817 11.3575 15.1527 11.2701 14.9775 11.0954L13.3506 9.46856C13.0007 9.11864 13.0007 8.55128 13.3506 8.20135C13.7005 7.85191 14.2679 7.85142 14.6173 8.20135L16.2447 9.8282C16.5951 10.1781 16.5951 10.7455 16.2452 11.0954C16.0699 11.2701 15.8409 11.3575 15.6113 11.3575Z" fill="white"/>
<path d="M9.97947 16.9894C9.75039 16.9894 9.52083 16.902 9.34611 16.7273L7.71877 15.1005C7.36885 14.7505 7.36885 14.1832 7.71877 13.8332C8.0687 13.4838 8.63606 13.4838 8.98599 13.8332L10.6133 15.4601C10.9632 15.81 10.9632 16.3774 10.6133 16.7273C10.4381 16.9025 10.209 16.9894 9.97947 16.9894Z" fill="white"/>
<path d="M3.41337 26.6787C3.1838 26.6787 2.95472 26.5913 2.77952 26.4166L0.262079 23.8987C-0.087848 23.5483 -0.087848 22.9809 0.262079 22.6315C0.612006 22.2815 1.17888 22.2815 1.52929 22.6315L4.04673 25.1494C4.39666 25.4998 4.39666 26.0672 4.04673 26.4166C3.87201 26.5913 3.64244 26.6787 3.41337 26.6787Z" fill="white"/>
<path d="M2.15441 25.4211C1.92485 25.4211 1.69577 25.3338 1.52105 25.1591C1.17112 24.8086 1.17112 24.2418 1.52105 23.8918L7.19317 18.2197C7.5431 17.8698 8.11046 17.8698 8.4599 18.2197C8.80983 18.5701 8.80983 19.137 8.4599 19.4869L2.78826 25.1591C2.61306 25.3343 2.38398 25.4211 2.15441 25.4211Z" fill="white"/>
<path d="M18.0943 9.48172C17.8647 9.48172 17.6356 9.39437 17.4604 9.21964C17.1105 8.86972 17.1105 8.30236 17.4604 7.95243L23.829 1.58337C24.1794 1.23344 24.7468 1.23344 25.0962 1.58337C25.4457 1.9333 25.4462 2.50065 25.0962 2.85058L18.7281 9.21964C18.5529 9.39485 18.3239 9.48172 18.0943 9.48172Z" fill="white"/>
<path d="M24.8909 12.7257C23.119 12.7257 21.7823 11.4662 21.7823 9.79669C21.7823 8.29215 22.4953 7.24722 23.1243 6.3246C23.5014 5.77083 23.8586 5.24764 24.0338 4.66912C24.1484 4.29201 24.4968 4.03381 24.8914 4.03381C25.286 4.03381 25.634 4.29153 25.749 4.66912C25.9247 5.24764 26.2814 5.77132 26.659 6.3246C27.288 7.24722 28.001 8.29264 28.001 9.79669C28 11.4662 26.6634 12.7257 24.8909 12.7257ZM24.8909 6.90894C24.7963 7.0526 24.6997 7.19384 24.6046 7.3341C24.0513 8.14509 23.5742 8.84543 23.5742 9.79669C23.5742 10.3626 23.9814 10.9343 24.8909 10.9343C25.8009 10.9343 26.2081 10.3626 26.2081 9.79669C26.2081 8.84543 25.7306 8.14509 25.1778 7.3341C25.0821 7.19384 24.9856 7.0526 24.8909 6.90894Z" fill="white"/>
</g>
<defs>
<clipPath id="clip0_2027_1276">
<rect width="28" height="28" fill="white"/>
</clipPath>
</defs>
</svg>
