<svg width="28" height="28" viewBox="0 0 28 28" fill="none" xmlns="http://www.w3.org/2000/svg">
<path d="M24.9375 4.15625H23.8438V3.0625C23.8438 2.45842 23.3541 1.96875 22.75 1.96875C22.1459 1.96875 21.6562 2.45842 21.6562 3.0625V4.15625H20.5625C19.9584 4.15625 19.4688 4.64592 19.4688 5.25C19.4688 5.85408 19.9584 6.34375 20.5625 6.34375H21.6562V7.4375C21.6562 8.04158 22.1459 8.53125 22.75 8.53125C23.3541 8.53125 23.8438 8.04158 23.8438 7.4375V6.34375H24.9375C25.5416 6.34375 26.0312 5.85408 26.0312 5.25C26.0312 4.64592 25.5416 4.15625 24.9375 4.15625Z" fill="white"/>
<path d="M14 12.9062C11.5876 12.9062 9.625 10.9436 9.625 8.53125C9.625 6.11888 11.5876 4.15625 14 4.15625C16.4124 4.15625 18.375 6.11888 18.375 8.53125C18.375 10.9436 16.4124 12.9062 14 12.9062ZM14 6.34375C12.7938 6.34375 11.8125 7.32506 11.8125 8.53125C11.8125 9.73744 12.7938 10.7188 14 10.7188C15.2062 10.7188 16.1875 9.73744 16.1875 8.53125C16.1875 7.32506 15.2062 6.34375 14 6.34375Z" fill="white"/>
<path d="M14 28L3.0625 27.9999C2.64824 27.9999 2.26948 27.7658 2.0842 27.3953C1.89891 27.0247 1.93895 26.5813 2.1875 26.2499L3.97556 23.8657C1.37041 21.2775 0 17.888 0 14C0 6.14956 6.1495 0 14 0C15.744 0 17.4477 0.312375 19.0637 0.928484C19.6282 1.14368 19.9113 1.77565 19.6961 2.34008C19.4809 2.90451 18.849 3.18768 18.2845 2.97248C16.9182 2.45159 15.4767 2.1875 14 2.1875C7.37619 2.1875 2.1875 7.37614 2.1875 14C2.1875 17.5906 3.55972 20.6696 6.15579 22.9041C6.59203 23.2795 6.66263 23.9288 6.31728 24.3893L5.25 25.8124L14.0447 25.8124C20.6471 25.789 25.8125 20.6089 25.8125 14C25.8125 12.6236 25.5823 11.2742 25.1282 9.98949C24.9268 9.41992 25.2254 8.79506 25.7949 8.59381C26.3645 8.39251 26.9893 8.69105 27.1906 9.26056C27.7276 10.7801 27.9999 12.3746 27.9999 14.0001C28 21.8504 21.8505 28 14 28Z" fill="white"/>
<path d="M18.375 21.6562H9.625C7.81572 21.6562 6.34375 20.1843 6.34375 18.375C6.34375 17.4986 6.68505 16.6745 7.30477 16.0548L9.49227 13.8673C10.112 13.2476 10.936 12.9062 11.8125 12.9062H16.1875C17.064 12.9062 17.888 13.2476 18.5077 13.8673L20.6952 16.0548C21.3149 16.6745 21.6562 17.4986 21.6562 18.375C21.6562 20.1843 20.1843 21.6562 18.375 21.6562ZM11.8125 15.0938C11.5203 15.0938 11.2457 15.2075 11.0391 15.4141L8.85161 17.6016C8.645 17.8082 8.53125 18.0829 8.53125 18.375C8.53125 18.9781 9.02191 19.4688 9.625 19.4688H18.375C18.9781 19.4688 19.4688 18.9781 19.4688 18.375C19.4688 18.0829 19.355 17.8082 19.1484 17.6016L16.9609 15.4141C16.7543 15.2075 16.4797 15.0938 16.1875 15.0938H11.8125Z" fill="white"/>
</svg>
