<svg width="24" height="20" viewBox="0 0 24 20" fill="none" xmlns="http://www.w3.org/2000/svg">
<g clip-path="url(#clip0_314_2602)">
<path d="M22.2565 0.222527L0.940026 8.28704C0.940026 8.28704 -0.0712549 8.6173 0.00837346 9.23174C0.0880019 9.84618 0.908174 10.1304 0.908174 10.1304L6.26716 11.8738L6.27513 11.8815V11.8738L19.1431 3.98597C19.1431 3.98597 19.8836 3.54818 19.8597 3.98597C19.8597 3.98597 19.9951 4.06277 19.597 4.42376C19.1988 4.78474 9.48415 13.2026 9.48415 13.2026L9.46823 13.3638L18.2114 19.8308C19.6686 20.4453 20.2021 19.1626 20.2021 19.1626L24.0004 0.706397C24.0004 -0.522481 22.2486 0.222527 22.2565 0.222527Z" fill="#1393E2"/>
<path d="M12.8124 15.8372L9.34856 18.8863C9.34856 18.8863 9.07783 19.086 8.7832 18.9631L9.44412 13.3026" fill="#1393E2"/>
</g>
<defs>
<clipPath id="clip0_314_2602">
<rect width="24" height="20" fill="white"/>
</clipPath>
</defs>
</svg>
