<svg width="28" height="16" viewBox="0 0 28 16" fill="none" xmlns="http://www.w3.org/2000/svg">
<g clip-path="url(#clip0_314_2600)">
<path d="M0.268835 2.4202C0.0333757 1.80856 -0.267489 1.17091 0.445429 0.826052C1.89089 0.806531 3.33634 0.787011 4.78834 0.767491C5.41623 0.787011 5.70401 1.24899 6.03758 1.89315C7.01212 3.76058 8.0259 5.6215 9.24898 7.33276C9.64795 7.89234 10.3216 8.10706 10.8514 7.21564C10.9103 6.0119 10.9691 4.80816 11.028 3.60442C10.8318 2.20547 10.3412 1.37912 9.48444 1.29453C8.9939 0.819545 9.34709 0.429142 10.4459 0.220928C12.1922 -0.149955 13.7162 0.0192195 15.057 0.188394C16.1885 0.259968 16.352 1.02125 16.3324 1.89315C16.2931 3.4873 16.2604 5.08795 16.2604 6.68209C16.594 8.30226 17.4835 7.65159 18.0722 6.94887C19.1252 5.45883 20.0409 4.00783 20.8061 2.37465C21.5975 0.695917 21.8133 0.819545 22.3693 0.813038C23.697 0.806531 25.1621 0.741464 26.2216 0.780505C28.4323 0.65037 28.1773 1.62638 27.5559 2.66094C26.4833 4.4633 25.1032 6.08998 23.8736 7.80775C23.128 8.81629 23.1411 9.44744 23.9325 9.99401C25.1032 11.2758 26.3721 12.4731 27.4382 13.8395C28.5959 15.3295 27.7456 15.7394 26.6664 15.85C25.3779 15.85 24.0894 15.85 22.801 15.85C21.7021 15.8696 20.708 15.5963 20.0081 14.4316C18.3926 12.3039 17.1892 11.7183 16.7052 12.9155C16.4959 13.4426 16.3193 14.1518 16.3258 14.8415C16.3324 15.8045 15.7503 15.8826 14.9589 15.9086C14.1086 15.9086 13.2256 16.1168 12.4015 15.9086C9.48444 15.1733 6.68509 13.82 3.95769 9.16765C2.72807 7.15708 1.49845 4.95781 0.268835 2.4202Z" fill="#416794"/>
</g>
<defs>
<clipPath id="clip0_314_2600">
<rect width="28" height="16" fill="white"/>
</clipPath>
</defs>
</svg>
