<svg width="216" height="98" viewBox="0 0 216 98" fill="none" xmlns="http://www.w3.org/2000/svg">
<g clip-path="url(#clip0_321_3090)">
<mask id="mask0_321_3090" style="mask-type:luminance" maskUnits="userSpaceOnUse" x="0" y="0" width="216" height="98">
<path d="M216 0H0V98H216V0Z" fill="white"/>
</mask>
<g mask="url(#mask0_321_3090)">
<path d="M6.54073 49.8873C6.42373 49.8873 6.35688 49.8433 6.21759 48.968L6.10059 48.2193L6.20644 48.423C6.1953 48.2579 6.18973 48.0982 6.18973 47.944C6.18416 47.6082 6.18973 47.3 6.21759 47.0247L6.28445 46.3145L6.46273 47.0081C6.50174 47.1568 6.50731 47.3935 6.50731 47.6026C6.50731 47.7238 6.50731 47.834 6.51845 47.8835L6.68559 48.8633L6.47387 48.3899C6.47387 48.4395 6.47387 48.4946 6.47944 48.5551C6.5463 48.8138 6.57417 48.979 6.60202 49.1441C6.6243 49.2817 6.6466 49.425 6.7023 49.6451V49.6672V49.6892C6.69116 49.7442 6.66888 49.8873 6.54073 49.8873Z" fill="#231F20"/>
<path d="M6.50679 43.8207L6.59036 43.4463C6.55693 43.7711 6.55693 44.1014 6.55135 44.4317C6.60707 43.8757 6.59593 43.5234 6.59593 43.1215C6.63493 43.0279 6.66279 42.8682 6.69622 42.637L6.67393 41.481C6.73522 41.3488 6.70736 41.9984 6.81879 41.2388C6.83551 40.6993 6.65165 41.7397 6.73522 40.8534C6.85779 40.3029 6.88007 40.4735 6.91908 39.8129C6.95807 39.7248 6.95808 39.868 6.94136 40.1267C6.96365 39.835 6.99708 39.4496 7.0528 39.1027C7.1085 38.756 7.15308 38.4421 7.15308 38.288C7.23665 38.0073 7.32022 37.5173 7.39265 37.1155C7.47623 36.708 7.56538 36.3888 7.60995 36.4273C7.62666 36.2457 7.76038 35.4034 7.87738 34.8803C7.83281 35.3759 7.93309 34.8803 8.11139 34.3133C8.27853 33.7463 8.46797 33.0912 8.50139 33.2343C8.52925 33.0526 8.56825 32.7995 8.65739 32.5131C8.74097 32.2269 8.8524 31.8966 8.96383 31.5552C9.08082 31.214 9.19783 30.8506 9.32041 30.4983C9.45413 30.1514 9.57669 29.8156 9.68255 29.5128C9.66584 29.5844 9.62684 29.722 9.58227 29.8267C9.86084 29.155 9.97227 28.9733 10.1617 28.5495C10.1116 28.4284 10.5628 27.3934 10.7634 26.8099C11.2203 26.0391 10.6409 27.3494 10.8359 27.1292C10.7913 27.1292 10.9306 26.7713 11.0699 26.4465C11.2147 26.1273 11.3484 25.8299 11.2537 25.951C11.6159 25.3731 11.549 25.4446 11.783 25.1693C11.7329 25.0097 12.0449 24.5913 12.2733 24.0738C12.8194 23.2535 12.5017 23.9087 13.0087 22.9562C13.2985 22.5324 12.8527 23.3801 12.8527 23.3801C13.4099 22.4333 13.0366 22.8903 13.109 22.659C13.8 21.5415 13.4991 22.18 13.7776 21.8333C13.9893 21.481 14.1677 21.1671 14.3292 20.8698C14.5019 20.5836 14.669 20.3193 14.8529 20.0716C14.892 20.0441 14.9643 19.9505 14.8975 20.0716C15.0089 19.8844 15.1594 19.6588 15.3265 19.4165C15.4101 19.2954 15.5049 19.1688 15.5939 19.0366C15.6942 18.9101 15.7945 18.7834 15.8948 18.6513C16.3071 18.1338 16.7194 17.5889 17.0092 17.1705C17.0649 17.1208 17.0982 17.0933 17.115 17.0878C16.9701 17.1814 16.92 17.1705 16.9144 17.1264C17.2431 16.7521 17.4771 16.3943 17.6498 16.2951C17.4492 16.5208 17.4492 16.5593 17.3713 16.6749L17.6944 16.2676C18.0677 15.9703 17.2486 16.8236 17.2988 16.8621C17.6164 16.4713 17.9674 16.0418 18.2962 15.64C18.636 15.2492 18.9759 14.8913 19.2489 14.6216C19.4215 14.561 18.0064 15.9482 18.7809 15.2547L18.3519 15.6785L17.9451 16.119C18.6471 15.5134 17.4603 16.6585 18.1178 16.119C18.2516 15.9703 18.3686 15.8437 18.4744 15.7226C18.5858 15.607 18.6861 15.5079 18.7753 15.4087C18.9535 15.2161 19.104 15.0564 19.2544 14.8913C19.5553 14.572 19.8338 14.2307 20.4245 13.7077C20.6529 13.4324 20.2907 13.7407 20.5192 13.4654C20.9147 13.0636 21.1989 12.7994 21.4217 12.6067C21.6502 12.4195 21.8285 12.3094 21.9789 12.2103C22.2909 12.0066 22.5417 11.8525 23.1322 11.2744C23.4275 10.9607 23.4943 10.7845 24.4582 10.1074L24.202 10.4267C24.8093 9.95873 24.9597 9.79908 25.1324 9.65045C25.2995 9.4963 25.4834 9.34767 26.1576 8.90726C25.9459 9.09993 25.1881 9.62292 25.3887 9.5018C26.2801 8.9623 25.957 9.03386 26.6145 8.57695C26.6757 8.56594 26.737 8.56044 26.7982 8.55492C27.1382 8.32922 27.4892 8.10351 27.8458 7.87229C28.2022 7.64108 28.5588 7.38784 28.9433 7.17315C29.7011 6.72723 30.4643 6.24279 31.2778 5.84641C31.1998 5.91248 30.9323 6.07763 31.3279 5.90697C31.5787 5.77485 31.835 5.64273 32.0968 5.5051C32.2305 5.43904 32.3587 5.37297 32.4924 5.30141C32.6261 5.24085 32.7654 5.18029 32.899 5.11974C33.4451 4.87752 34.0023 4.62978 34.5538 4.39306C35.1221 4.18387 35.6848 3.97468 36.2364 3.76548C36.3758 3.71593 36.5094 3.66639 36.6487 3.61685C36.7881 3.5728 36.9273 3.52876 37.061 3.49023C37.334 3.40765 37.6015 3.32508 37.8634 3.2425L38.6378 2.90669C38.8216 2.84613 38.9944 2.83513 38.7938 2.90669C39.6295 2.703 38.8216 2.85163 39.2117 2.71401C39.6797 2.57638 39.8468 2.57638 39.5515 2.68098C40.9778 2.15249 43.719 1.53591 45.3125 1.35425L45.0116 1.43131C45.318 1.38177 45.5577 1.34324 45.7638 1.31021C45.97 1.27167 46.1371 1.23313 46.3042 1.2001C46.6385 1.12303 46.9617 1.05697 47.5411 1.01844L47.3238 1.05697C48.6721 0.941364 50.0872 0.820251 51.4355 0.809241C51.7699 0.803737 52.1041 0.792725 52.4273 0.792725C52.7505 0.803737 53.068 0.814746 53.3745 0.825756C53.6809 0.842272 53.9762 0.853282 54.2603 0.869797C54.5445 0.886313 54.8175 0.902828 55.0738 0.941364C55.2744 0.902828 55.9374 0.968889 56.5781 1.01844C56.7396 1.02945 56.8956 1.04596 57.0461 1.05697C57.1965 1.07349 57.3358 1.09 57.4528 1.10101C57.698 1.12303 57.8707 1.12854 57.9208 1.10101C58.6841 1.23313 58.9515 1.28818 59.3026 1.35425C59.6481 1.43131 60.0715 1.53041 61.1355 1.7396C61.7038 1.83869 61.9992 1.82218 62.7012 1.96531V2.04238L63.6706 2.18552C63.8323 2.25157 63.9883 2.32865 64.1498 2.40022L64.8016 2.56537C64.5453 2.48829 64.2612 2.37819 64.3058 2.36719C64.8129 2.49381 65.4313 2.68098 65.916 2.84063C66.4006 3.01129 66.7517 3.17093 66.7572 3.19295L67.944 3.55629C68.3396 3.6774 68.724 3.83155 69.114 3.96917C69.0694 3.97468 68.8354 3.89761 68.5903 3.81502C69.4651 4.1123 68.6292 3.92514 69.699 4.27196C69.5541 4.19488 69.7993 4.26094 69.8328 4.26094C70.1057 4.38756 70.5571 4.59675 71.0529 4.82246C71.3036 4.93256 71.5654 5.04818 71.8217 5.16378C72.078 5.27388 72.3343 5.38398 72.5628 5.4996L72.3678 5.45554C72.7801 5.66475 73.198 5.87945 73.6269 6.09414C73.8386 6.20424 74.0616 6.30885 74.2788 6.42445C74.4905 6.54556 74.7078 6.66667 74.9251 6.78779C75.3597 7.03552 75.8054 7.27224 76.24 7.53097C76.669 7.80072 77.1036 8.07598 77.5437 8.35123C76.9308 7.93285 77.1259 7.94937 77.644 8.26866L77.8056 8.46134C78.1622 8.632 77.2874 8.098 78.0006 8.47785C78.6302 8.92377 78.3739 8.8467 78.0006 8.61548L78.7806 9.12745C78.8141 9.17701 78.6246 9.06139 78.5578 9.05589C78.8976 9.23755 79.8393 10.0358 80.3128 10.3221L80.3406 10.3716C80.7473 10.6854 81.0984 10.9552 81.4159 11.2029C81.7335 11.4561 82.0009 11.6928 82.274 11.913C82.5414 12.1388 82.8033 12.3535 83.0707 12.5847C83.3436 12.8159 83.6055 13.0746 83.9119 13.3609C83.9844 13.3334 84.4469 13.7957 84.8536 14.0985C85.2715 14.55 85.7116 15.0289 86.1684 15.5298C86.6253 16.0363 87.0711 16.5924 87.5669 17.143C88.2634 17.9192 87.8065 17.3411 88.1352 17.6769C88.1352 17.7759 89.0601 18.9321 88.5475 18.3595C88.8206 18.7063 89.0601 18.9816 89.2551 19.2513C89.4501 19.5156 89.6283 19.7578 89.8123 20.0111C90.0016 20.2587 90.1966 20.5231 90.4307 20.8368C90.648 21.1616 90.9043 21.536 91.2218 21.9983C91.1104 21.7782 90.9711 21.5415 91.0658 21.6516C91.2999 21.9874 91.5505 22.4442 91.4892 22.4113L91.4224 22.3233C92.13 23.3692 92.8209 24.6574 93.4058 25.9126C93.7235 26.5346 93.9686 27.1622 94.2304 27.7347C94.3586 28.021 94.4867 28.2962 94.6094 28.5549C94.7208 28.8193 94.8322 29.0669 94.938 29.2927L94.8879 29.1936L95.3057 30.1459L95.5119 30.6249L95.6958 31.1093C95.9967 32.0177 95.4673 30.5809 95.6568 31.2635C95.8629 31.7864 96.0356 32.2544 96.1916 32.6948C96.3254 33.1407 96.4423 33.5536 96.5537 33.9555C96.6094 34.1591 96.6652 34.3574 96.7209 34.5555L96.8045 34.8528C96.8268 34.9519 96.8491 35.0565 96.8769 35.1556C96.9716 35.5575 97.0719 35.9759 97.1945 36.4218C97.2112 36.598 97.2447 36.8127 97.2893 37.0494C97.3171 37.2861 97.3561 37.5503 97.4062 37.8311C97.4564 38.1118 97.5065 38.4146 97.5622 38.7229C97.6235 39.0312 97.6848 39.356 97.7238 39.6863C97.813 40.3414 97.9133 41.013 97.9857 41.6461C98.0358 42.2792 98.0693 42.8628 98.0748 43.3471L98.1082 43.2316C98.1862 43.7271 98.1361 43.8316 98.1305 44.2005C98.1639 44.1455 98.1583 43.661 98.1862 43.9693C98.214 45.0208 98.2865 46.0943 98.2308 47.1733C98.2085 47.7128 98.2085 48.2577 98.1639 48.7972C98.1528 48.9458 98.1361 49.0945 98.125 49.2377C98.2531 49.2211 98.3813 49.2156 98.5094 49.2102C98.5205 49.0394 98.5317 48.8743 98.5484 48.6927C98.6487 48.8083 98.682 48.0101 98.71 47.0686C98.7657 46.1327 98.7044 45.0537 98.7712 44.6078L98.7323 43.7932C98.71 43.5234 98.6877 43.2537 98.6654 42.9784C98.6208 42.4334 98.593 41.8828 98.5428 41.3268C98.4816 40.7707 98.4146 40.1983 98.3478 39.6147C98.3311 39.4661 98.3143 39.3175 98.2921 39.1744C98.2642 39.0257 98.242 38.8771 98.2142 38.7285C98.1583 38.4257 98.1026 38.1229 98.0469 37.809C98.0636 38.7174 97.9133 37.0824 97.7906 37.2641C97.6792 36.686 97.6068 36.4713 97.6124 36.4163C97.5065 35.8327 97.4062 35.2437 97.2893 34.6602C97.2503 34.451 97.3004 34.5831 97.3561 34.7592C97.4062 34.9409 97.4619 35.1667 97.4731 35.1336C97.4062 34.8198 97.3617 34.6272 97.3282 34.506C97.3004 34.3849 97.2948 34.3299 97.2948 34.2913C97.2948 34.2088 97.306 34.1757 97.2057 33.7629C97.2057 33.9444 97.0051 33.3499 96.8213 32.6342L97.0385 33.6527C96.8937 33.2234 96.8045 32.915 96.7377 32.6618C96.6707 32.4086 96.6151 32.2214 96.5705 32.0342C96.4758 31.6544 96.3755 31.269 96.0411 30.4212L96.2752 30.9496C95.9632 30.0689 95.0161 27.7292 94.5035 26.953C94.4478 26.7933 94.3977 26.5786 94.5759 26.953C93.6399 24.9161 92.1689 22.5875 91.2441 21.1231L91.3667 21.2443C91.1271 20.9029 90.9265 20.6662 90.6424 20.2258C90.6702 20.2367 90.7705 20.3414 90.6591 20.1817C90.5198 20.0111 89.957 19.3174 89.6507 18.8549L89.9627 19.2128C89.6618 18.7559 89.3498 18.3815 89.0712 18.0403C88.7871 17.6934 88.5197 17.3851 88.2634 17.0824C87.7173 16.5043 87.1992 15.9593 86.5696 15.2931C86.6142 15.2601 86.3411 14.9244 85.9846 14.5225C85.6281 14.1205 85.1934 13.6416 84.8758 13.3443L84.9093 13.3554C84.4469 12.915 84.0178 12.5076 83.5944 12.1332C83.1598 11.7754 82.742 11.4341 82.3297 11.0983C81.923 10.757 81.4883 10.4597 81.0538 10.1349C80.6137 9.82111 80.179 9.47427 79.6833 9.15498C79.399 8.91826 79.009 8.62098 78.5467 8.28518C78.0842 7.95487 77.527 7.61356 76.9587 7.24471C76.8139 7.15112 76.669 7.06305 76.5241 6.96946C76.3793 6.88137 76.2233 6.7988 76.0729 6.71071C75.772 6.54005 75.4711 6.36389 75.1758 6.19323C74.5908 5.84091 73.9946 5.54363 73.4765 5.26287C73.7885 5.44454 73.3874 5.31242 73.0029 5.13075C72.5238 4.84449 71.5822 4.55271 71.7048 4.49766L71.883 4.58024C71.5377 4.327 70.4958 3.85907 69.66 3.55079L69.4762 3.61685C68.9525 3.36361 68.334 3.08836 67.6654 2.87366C67.3311 2.76355 66.9913 2.64795 66.6514 2.53785C66.4787 2.48279 66.3116 2.42775 66.1444 2.37819C65.9717 2.33416 65.8046 2.29012 65.6318 2.24057C64.9576 2.06441 64.3169 1.88274 63.7653 1.74511C63.2081 1.61849 62.7514 1.49738 62.4505 1.38177C62.1718 1.33774 61.8654 1.26066 61.5534 1.22212C61.2414 1.17808 60.9294 1.12854 60.6509 1.09551L60.6955 1.03495C60.311 0.963384 59.9767 0.902828 59.6592 0.842272C59.3416 0.781715 59.0407 0.75419 58.7232 0.710149C58.4112 0.671614 58.0824 0.627573 57.7202 0.583532C57.5364 0.561512 57.3414 0.539491 57.1353 0.511965C56.9235 0.500955 56.7063 0.48444 56.4611 0.467924L56.8566 0.445905C56.3107 0.401864 55.9652 0.423883 55.631 0.451409C55.4637 0.462419 55.2966 0.478934 55.1128 0.48444C54.9289 0.48444 54.7228 0.48444 54.472 0.48444L54.1768 0.374338C53.7031 0.357823 53.224 0.341307 52.7505 0.324792L52.3939 0.313782H52.0373L51.3241 0.324792C50.8505 0.335802 50.3714 0.335802 49.8979 0.363327C49.4243 0.401864 48.9562 0.451409 48.4882 0.50646C48.5161 0.489946 48.5718 0.456914 48.8782 0.429389C47.9813 0.451409 45.4294 0.737674 45.7694 0.831262C45.7303 0.715655 43.836 1.13404 42.8387 1.37077L42.978 1.27167C42.1534 1.54693 42.1311 1.57996 40.9611 1.86622C40.7606 1.90475 40.7215 1.88824 40.8496 1.85521C40.1867 2.01485 40.2702 2.08643 39.2563 2.32865L39.6573 2.169C38.7158 2.43325 38.7883 2.41673 38.2979 2.63694C37.7241 2.85714 36.5318 3.20396 36.3758 3.19845C36.2644 3.28104 35.7851 3.52326 35.2392 3.71593C35.1611 3.72145 35.3506 3.63336 35.4453 3.58932C35.0608 3.72695 34.7266 3.85356 34.4257 3.97468C34.1304 4.1013 33.8741 4.23342 33.629 4.34902C33.1387 4.59125 32.7041 4.78943 32.1804 4.99863C32.1525 4.98762 32.0801 5.00963 31.991 5.04818C32.2806 4.89403 32.5648 4.77843 32.8211 4.66281C33.0774 4.54721 33.3058 4.44812 33.4953 4.36553C33.8741 4.20039 34.0915 4.1068 34.0469 4.12883C34.0245 4.07377 33.055 4.49215 33.785 4.06827C33.4116 4.26094 32.899 4.52519 32.3698 4.79494C31.8461 5.07569 31.3113 5.37848 30.8433 5.59318C30.7931 5.60969 30.7485 5.6262 30.7095 5.63722L30.7987 5.58217C30.587 5.68676 30.3975 5.78035 30.2248 5.88495C29.935 6.0391 29.7511 6.13268 29.4782 6.28682C29.4113 6.29233 29.1439 6.43546 28.8375 6.61162C28.531 6.78228 28.1856 6.98597 27.9683 7.12911C28.0407 7.16214 27.4557 7.51997 28.0296 7.22819C27.9572 7.26674 28.1076 7.16764 28.4028 6.98046C28.4698 6.94193 28.5477 6.89239 28.5923 6.86486L28.5644 6.88687C28.8653 6.71621 29.2498 6.49602 29.6899 6.24279C29.3501 6.47951 28.9879 6.71622 28.4642 6.96946C28.2524 7.14012 28.0351 7.3438 27.9015 7.4484C27.5727 7.59703 27.1102 7.85028 26.7092 8.06497C26.3025 8.27967 25.9737 8.49988 25.8734 8.52189C25.5502 8.75861 25.1992 9.01185 24.8426 9.2761C24.4805 9.52933 24.1407 9.82661 23.8008 10.0964C23.4665 10.3716 23.1433 10.6303 22.8648 10.8726C22.5974 11.1258 22.3633 11.3515 22.1962 11.5387C21.8619 11.847 21.7783 11.847 21.6334 11.9461C21.8229 11.7644 22.0625 11.5662 22.1572 11.4616C21.99 11.6103 21.7783 11.7974 21.5555 11.9956C21.4441 12.0947 21.327 12.1938 21.2156 12.2929C21.1042 12.3975 20.9983 12.5021 20.8925 12.6067C20.4746 13.014 20.1236 13.3664 20.079 13.4765C19.65 13.8508 19.7503 13.7298 19.8227 13.6471C19.8562 13.6031 19.884 13.5756 19.8283 13.6196C19.7726 13.6692 19.6389 13.7848 19.3714 14.0766L19.4996 13.9059C18.9369 14.4344 18.4466 14.9353 17.9953 15.4253C17.5662 15.9373 17.1651 16.4327 16.7584 16.9338C16.3628 17.4456 15.984 17.9797 15.5438 18.5357C15.3209 18.811 15.1092 19.1082 14.8807 19.4165C14.6468 19.7247 14.4016 20.0441 14.1342 20.3744C14.2791 20.1872 14.357 20.0936 14.3961 20.0661C14.2512 20.2587 14.1007 20.4515 13.9615 20.6551C13.8278 20.8588 13.6884 21.0626 13.5548 21.2662C13.2874 21.6791 13.0143 22.0864 12.7469 22.5103C12.5017 22.9398 12.251 23.3692 12.0003 23.8041C11.8777 24.0188 11.7496 24.2335 11.6326 24.4536L11.2927 25.1198C11.0699 25.5657 10.8359 26.0062 10.6186 26.4521C10.4124 26.9035 10.2063 27.3548 10.0001 27.8008C9.89984 28.0265 9.78841 28.2467 9.6937 28.4669C9.59898 28.6926 9.50426 28.9183 9.41512 29.1441C9.22568 29.59 9.03626 30.0359 8.84682 30.4762C8.46797 31.4947 8.48468 31.6268 8.31195 32.2655L8.16709 32.4636C8.07795 32.8325 8.01109 33.2068 7.92752 33.5757C7.83281 33.9665 7.72695 34.3244 7.60995 34.6767C7.50966 35.029 7.40938 35.3759 7.30351 35.7391C7.19766 36.097 7.09179 36.4713 6.99151 36.8842C6.90236 37.297 6.83551 37.7485 6.77422 38.2549L6.86893 38.0073C6.80207 38.3651 6.69622 38.9321 6.62936 39.4C6.56807 39.868 6.51793 40.2312 6.49565 40.1653C6.49565 40.2423 6.51793 40.4075 6.45664 40.6882L6.41765 40.7048C6.39535 41.0021 6.36193 41.2993 6.33963 41.5966L6.30621 42.4939C6.23935 43.1876 6.20593 43.127 6.16692 43.149C6.14464 43.1601 6.12791 43.1931 6.10563 43.3471C6.08335 43.5013 6.03877 43.7821 6.0332 44.2886C6.0332 45.0483 6.08892 46.4411 6.12792 46.1548C6.13907 45.8521 6.17249 45.3786 6.2115 45.3565V46.0447C6.32292 46.1713 6.42879 46.6943 6.55135 45.0208L6.51236 43.8482L6.50679 43.8207ZM32.5593 5.11974C32.459 5.18029 32.9325 4.98762 33.239 4.872C32.9938 4.98212 32.6929 5.10873 32.3753 5.25737C32.2974 5.27388 32.3587 5.20782 32.5593 5.11974Z" fill="#231F20"/>
<path d="M58.2727 91.1591C57.9552 91.2032 57.6487 91.2472 57.3591 91.2913C56.9635 91.3629 56.5734 91.3849 56.1835 91.4344C55.7934 91.4785 55.3922 91.5169 54.9744 91.5555C54.5509 91.594 54.1052 91.5885 53.6094 91.594C54.1888 91.4729 52.9408 91.5775 52.8349 91.4894C52.6566 91.4949 52.4839 91.5115 52.3057 91.5115H51.7763L52.1998 91.5665C51.7374 91.5555 51.2972 91.561 50.8793 91.5665C50.4615 91.5665 50.0547 91.5775 49.6591 91.5224H50.0046H50.3501C50.0603 91.5224 49.7707 91.5004 49.4809 91.484L48.6117 91.4288L49.5923 91.539C48.6507 91.5169 49.687 91.6601 48.4557 91.539C48.7064 91.5444 47.5253 91.484 47.0573 91.3463C46.6004 91.3188 46.1268 91.2913 45.4471 91.1812C45.2743 91.1316 45.6031 91.0985 45.4917 91.0655C45.2632 91.0765 44.7284 90.9774 44.1768 90.8893C43.6251 90.7958 43.057 90.7132 42.7728 90.6801C42.9622 90.7023 42.9845 90.6581 42.9232 90.6362L42.5387 90.6142C42.1264 90.4985 42.0651 90.4765 42.1432 90.4545C40.884 90.1572 42.5165 90.6581 41.0344 90.2673C41.1515 90.2893 41.1014 90.2673 41.3464 90.3114C39.8589 89.9205 38.4603 89.5736 37.1344 89.0782C36.7723 88.858 38.3156 89.4471 37.8865 89.2268C35.9366 88.6378 33.8918 87.8561 32.12 86.9918L32.4432 87.168C32.1423 87.1569 31.1561 86.4577 30.2479 86.0449C30.4653 86.1605 30.5656 86.1385 30.4987 86.122C29.9192 85.7806 29.3175 85.4448 28.6322 85.0759C28.298 84.8833 27.947 84.6686 27.5681 84.4429C27.3787 84.3274 27.1836 84.2116 26.983 84.0905C26.7769 83.9694 26.5707 83.8429 26.359 83.6942L26.5819 83.8098C26.2643 83.5676 25.8409 83.2648 25.4064 82.9565C25.189 82.8023 24.9662 82.6537 24.7656 82.4941C24.565 82.3344 24.3756 82.1858 24.2084 82.0536C23.9856 81.9216 23.6012 81.6188 23.8073 81.839C23.5622 81.6188 23.3114 81.4096 23.0662 81.1949C22.8267 80.9747 22.5871 80.7654 22.3475 80.5618C21.8684 80.1489 21.3837 79.7636 20.9324 79.3452C20.4811 78.9323 20.0186 78.547 19.6063 78.1175C19.1885 77.6881 18.7873 77.2588 18.414 76.8074C18.6091 77.011 18.8988 77.2697 18.7428 77.1102C18.2636 76.6477 17.8402 76.1357 17.3888 75.6512C17.4502 75.8054 17.5337 75.8715 17.7789 76.2128C17.5894 76.0476 17.1939 75.6347 16.8707 75.2659C17.4947 75.9154 16.9264 75.2108 16.7147 74.8805C16.7426 74.9411 16.6423 74.853 16.6534 74.8861C16.0851 74.0052 16.4528 74.82 15.6227 73.6639L15.6952 73.7024C15.6116 73.6034 15.5224 73.5043 15.4389 73.4051C15.3608 73.3061 15.2772 73.2015 15.1993 73.0969C15.0377 72.8931 14.8762 72.6785 14.7089 72.4417C14.6254 72.2105 15.0655 72.8822 15.1325 72.8822C14.6645 72.2271 14.0849 71.671 13.7563 71.0104C13.9568 71.2912 14.2243 71.7041 14.4471 71.9683C14.2466 71.6271 14.1351 71.4343 14.0348 71.2637C13.9289 71.0985 13.8399 70.9554 13.6839 70.7022L13.7117 70.7517C13.4777 70.3608 13.2326 69.981 13.004 69.5902C13.0542 69.6947 13.1099 69.7938 13.1713 69.893C12.8258 69.513 12.5751 69.0671 12.2909 68.5882C12.1517 68.3459 12.0068 68.0983 11.8508 67.8339C11.7059 67.5642 11.5499 67.289 11.3661 66.9972C12.0681 68.1203 11.5221 67.1624 11.6335 67.2174C11.4942 66.8982 11.2714 66.4246 11.3605 66.5458C11.1878 66.276 11.0708 66.0338 10.9482 65.764C10.8312 65.4889 10.6975 65.1861 10.4691 64.7897C10.4691 64.7456 10.1849 64.1676 10.3019 64.2722C9.93976 63.5235 10.3465 64.4649 10.2908 64.4154C9.68347 63.2758 9.22661 61.6022 8.54131 59.8846C8.27945 59.1359 8.13459 58.6845 7.97302 58.2551C7.89502 58.0404 7.82259 57.8258 7.73345 57.578C7.65545 57.3302 7.57743 57.044 7.48829 56.6862C7.41029 56.1907 7.66659 57.0605 7.66659 57.0605C7.59416 56.6641 7.52173 56.3228 7.43814 55.9815C7.36014 55.6456 7.26543 55.3153 7.193 54.9466C7.23758 55.0952 7.23201 54.9355 7.21529 54.7043C7.09829 54.1098 7.05371 54.319 6.94786 53.5262C6.998 53.6584 7.07043 53.8235 7.14843 54.1043C7.07043 53.7574 6.99243 53.4106 6.91443 53.0583C6.85314 52.706 6.79185 52.3481 6.73056 51.9848C6.74729 51.7866 6.84757 52.4197 6.90886 52.673C6.78628 51.8527 6.5857 50.5425 6.52441 50.2892L6.53557 50.6856C6.54114 50.592 6.59127 50.7131 6.61914 50.8837C6.764 51.5829 6.72499 51.9077 6.70828 51.9518L6.62471 51.4288C6.59127 51.704 6.6637 52.2325 6.764 52.8216C6.86428 53.4106 7.04257 54.0492 7.12614 54.5722L6.94786 54.1538L7.22643 55.2108C7.23201 55.3264 7.23758 55.4255 7.21529 55.431C7.19857 55.4364 7.154 55.3539 7.10386 55.0952C7.20414 55.8548 7.28772 55.7503 7.37687 56.3999C7.38244 56.4715 7.37687 56.444 7.35457 56.3779L7.55515 57.0991C7.49943 56.9614 7.51616 57.2366 7.42143 56.7852C7.48829 57.1155 7.54401 57.4128 7.62201 57.6771C7.70001 57.9414 7.77801 58.1725 7.84487 58.3817C7.98416 58.7946 8.08445 59.1084 8.11787 59.3671L8.07888 59.2626C8.21259 59.7085 8.30174 59.9397 8.35187 60.0497C8.40202 60.1653 8.41316 60.1709 8.4243 60.1599C8.4466 60.1378 8.45217 60.0608 8.71961 60.7104L8.84774 61.6573L8.97589 61.8059C9.04275 61.9876 9.17646 62.3399 9.12632 62.2849C9.43833 62.9289 9.10961 62.1582 9.31018 62.5271C9.45504 62.9675 9.68347 63.562 9.90633 64.063C10.1348 64.5585 10.3242 64.9769 10.3131 65.098C10.5025 65.3787 9.98434 64.2777 10.4301 65.1585C10.4301 65.3127 10.5526 65.5714 10.7142 65.8907C10.8869 66.2045 11.1042 66.5679 11.2714 66.9587C11.0931 66.7605 10.7532 66.0284 11.0931 66.8101C11.2602 67.0138 11.4441 67.3771 11.6279 67.7789C11.8174 68.1753 12.0347 68.5826 12.2241 68.8854C12.2742 68.8799 12.4748 69.2102 12.7422 69.6672C13.0208 70.1241 13.3941 70.6911 13.7283 71.1866C13.6448 71.1535 14.9597 73.0803 15.6338 73.9721L15.6005 73.9557C15.7008 74.0107 15.9291 74.2694 16.1966 74.5943C16.3303 74.7594 16.4752 74.9356 16.62 75.1117C16.7648 75.2934 16.9208 75.4531 17.0602 75.6128C16.9989 75.6237 16.8763 75.5246 16.5643 75.1944C16.7315 75.398 16.9097 75.5906 17.0824 75.7889C17.2273 75.91 17.4001 76.0862 17.7454 76.466L17.5616 76.3615C17.7343 76.5596 17.9127 76.7522 18.0965 76.9505C18.2915 77.1377 18.4865 77.3303 18.687 77.5285C18.8876 77.7267 19.0993 77.9359 19.3111 78.1561C19.417 78.2662 19.5228 78.3818 19.6342 78.4974C19.7512 78.6129 19.8682 78.7287 19.9853 78.8442C20.0856 78.8497 19.3278 77.9854 20.3976 78.9323C20.4142 78.9929 20.4087 79.0699 20.13 78.8221C20.2248 78.9048 20.4699 79.1029 20.6371 79.2791L20.1802 78.9268C20.6093 79.3672 20.4477 79.114 20.8043 79.4552C20.7653 79.4828 21.0438 79.7305 20.9659 79.7085C20.8711 79.6259 20.665 79.4002 20.5145 79.2846C20.7151 79.4774 20.9324 79.6919 21.1163 79.8847C21.3001 80.0773 21.4616 80.2259 21.5342 80.3141C21.5174 80.259 21.5787 80.2645 21.8907 80.5287C22.693 81.2115 22.1247 80.804 22.576 81.2224C22.7877 81.371 23.2947 81.8115 23.356 81.7619C23.6012 81.9491 23.6234 82.0096 23.707 82.0977C23.9354 82.2519 24.4313 82.6483 24.8381 82.929C25.2448 83.2042 25.54 83.3914 25.3061 83.1878L25.1947 83.1051L25.267 83.1547C25.6459 83.397 26.0192 83.6501 26.3925 83.9144C26.7713 84.1732 27.167 84.4154 27.5513 84.6741C28.3147 85.197 29.117 85.6595 29.897 86.0834L29.8802 86.1054C30.3427 86.3642 30.8776 86.6119 31.3734 86.8596C31.8693 87.1019 32.3262 87.3331 32.6883 87.4542C32.9724 87.5808 33.3457 87.7955 33.212 87.768C33.5853 87.9221 33.797 88.0103 34.0422 88.1148C34.2874 88.2249 34.5826 88.3405 35.1175 88.5718C34.3431 88.3129 35.3683 88.7093 34.3263 88.2965C35.3013 88.6984 35.5075 88.8304 36.5939 89.1663C36.2095 89.1002 37.3238 89.4911 37.803 89.6342L37.1176 89.359C37.6525 89.5296 38.1206 89.6892 38.5941 89.8544L38.31 89.8434C38.8169 90.0361 39.3184 90.1627 39.792 90.2893C40.2712 90.4104 40.7224 90.537 41.1737 90.6087C41.6195 90.6912 42.054 90.7793 42.4719 90.8729C42.678 90.9224 42.8842 90.972 43.0903 91.0215C43.2965 91.0655 43.4971 91.1151 43.6976 91.1701C44.2715 91.2142 42.5499 90.9279 43.0625 90.9499C44.0374 91.1316 45.0404 91.4288 45.3468 91.4785C46.021 91.583 46.3441 91.5941 46.6672 91.605C46.8289 91.605 46.996 91.616 47.2077 91.6326C47.4194 91.6546 47.6813 91.6766 48.0379 91.7096C47.8596 91.6655 47.6979 91.5775 48.7566 91.6326C49.7427 91.7152 49.9656 91.8472 49.336 91.8197C49.0964 91.8032 48.985 91.7867 48.9962 91.7757C48.673 91.7647 48.2551 91.7427 48.6452 91.8032L48.7788 91.7867C49.024 91.8197 49.4864 91.8638 49.8541 91.8968C50.2163 91.9299 50.4781 91.9353 50.3166 91.9574C51.0688 91.9463 50.6397 91.9188 50.0827 91.8913C50.7178 91.9299 51.2192 91.9408 51.7206 91.9519C51.9713 91.9519 52.2276 91.9683 52.5006 91.9629C52.7737 91.9629 53.0633 91.9574 53.3921 91.9519C53.1804 91.9408 52.9909 91.9133 53.1971 91.9078C54.161 91.9024 54.3727 91.8803 54.5064 91.8583C54.6401 91.8363 54.6958 91.8142 55.3478 91.7537C56.0887 91.7427 55.0915 91.8803 56.3952 91.7427C57.1974 91.7096 56.5734 91.8032 56.2558 91.8527C56.5567 91.8143 56.8465 91.7922 57.1195 91.7702C57.3924 91.7372 57.6598 91.7096 57.905 91.6876C58.0721 91.6711 58.2281 91.6601 58.3786 91.6491C58.3229 91.484 58.2838 91.3132 58.256 91.1426" fill="#231F20"/>
<path d="M6.52378 50.5811L6.47363 50.1407L6.71322 50.0966C6.74107 50.2013 6.75221 50.3719 6.76892 50.5261V50.5591L6.52935 50.5811H6.52378Z" fill="#231F20"/>
<path d="M59.5477 28.0814C58.7899 29.1659 58.1715 30.256 57.4862 31.4781C57.4862 32.7718 54.667 35.6234 54.667 36.0969V36.5042C54.667 36.9777 54.4608 37.3905 54.3215 37.5227C52.8785 37.9961 52.6 42.3452 50.5385 43.7049C49.8532 44.1784 50.0594 44.9271 49.8532 45.5381C49.5746 46.419 48.8893 46.964 48.5438 47.7786C48.4046 48.2522 48.5438 48.9348 47.9254 49.2045V49.3421C47.9254 49.9532 45.3124 54.9794 42.9724 60.3469C43.5239 60.3469 44.4153 59.8019 44.9669 59.5982C44.694 60.2753 44.0032 60.3469 43.4571 60.5506H43.5239C43.2509 60.6881 42.9724 60.7542 42.7663 60.8919C42.9055 60.9579 43.0392 60.9579 43.1786 60.9579C43.2454 60.9579 43.3847 60.9579 43.5239 60.7542C43.7301 60.7542 43.797 60.8203 43.797 60.8919C43.797 61.0956 43.0392 61.7727 42.4208 61.7727C38.3647 70.812 33.7571 82.7031 31.9685 89.7002C31.9685 89.7002 31.8293 89.8377 31.6956 89.8377C31.5619 89.8377 31.4894 89.7717 31.4894 89.2927C31.3501 89.4964 31.4894 89.7002 31.144 89.7002C31.2109 88.6817 31.8293 87.2503 32.1747 86.3035C32.0355 86.3035 31.9685 86.2374 31.9685 86.0998C31.9685 85.9621 32.0355 85.83 32.2472 85.7584C32.4533 84.4647 32.5202 83.584 34.654 77.4678C34.5872 77.3302 34.5872 77.198 34.5872 77.1264C34.5872 76.9227 34.654 76.7191 34.9327 76.5815V76.6474C35.1388 76.2401 35.2781 75.7612 35.4843 75.2878C35.4118 75.1501 35.345 75.0125 35.345 74.9464C35.345 74.7427 35.4843 74.6766 35.7573 74.6051L35.6904 74.6711C36.1696 73.5151 36.6542 72.293 37.2003 70.9332H37.061C36.9941 71.0709 36.9941 71.3406 36.8548 71.3406C36.7155 71.3406 36.5819 71.269 36.5819 71.1368C36.5819 71.2029 36.8548 70.3881 37.061 70.3881H37.2003C37.2003 69.8432 37.2671 68.8248 37.8187 68.3512V68.2137C37.8187 67.8723 38.0249 67.6025 38.0249 67.2613C38.0249 67.1236 37.9524 67.0576 37.9524 66.9199C38.231 67.1236 38.2979 67.2613 38.2979 67.465C38.2979 67.6686 38.231 67.8723 38.231 68.01V68.1476C38.504 68.1476 40.1587 63.7325 40.6379 62.6425C40.571 62.6425 40.4987 62.5709 40.4317 62.5709C40.2925 62.7086 40.1532 62.9122 40.0194 63.1159C40.0194 63.2536 40.0919 63.3196 40.0919 63.3912C40.0919 63.7325 39.8858 63.9362 39.6127 64.1399C39.4735 64.0738 39.4735 63.9362 39.4735 63.8701C39.4735 63.6665 39.6127 63.4628 39.6127 63.3251V63.1875C38.7213 63.3251 37.8911 63.6609 36.9272 63.6609C36.5819 63.6609 36.1027 64.338 35.4843 64.4757C33.4228 65.0207 31.3558 65.8354 29.2274 66.1768C28.5421 66.2429 27.9905 66.7218 27.2328 66.7218C26.1353 66.7218 25.0989 67.063 24.0013 67.3328C19.3269 68.4889 14.2344 68.8248 9.35379 68.8248C7.77148 68.8248 6.32845 68.6871 4.67928 68.6871H3.50926C2.54538 68.6871 1.58152 68.3458 0.550781 68.0761C0.823786 67.8063 1.02993 67.7347 1.30851 67.7347C4.33385 67.7347 7.42605 67.9384 10.5907 67.9384H11.003C11.2091 67.9384 11.3484 67.9384 11.4821 68.0045C11.549 68.0045 11.3428 68.2081 11.4153 68.2742C12.7914 68.2081 14.0951 67.4594 15.4713 67.4594C15.6775 67.4594 15.8836 67.5255 16.0898 67.5255C16.2291 67.5255 16.3627 67.4594 16.5021 67.4594C16.5689 67.4594 17.1873 67.7292 17.6721 67.7292C18.7697 67.7292 21.6613 67.4594 21.6613 66.9144C21.3883 66.9144 21.249 66.8484 21.249 66.7768C21.249 66.3695 22.8982 66.3695 23.6558 66.2318C23.6558 66.7768 23.1043 66.3695 23.1043 66.7107C23.3105 66.7768 23.5166 66.8484 23.7228 66.8484C24.4804 66.8484 25.1658 66.3749 25.9235 66.3749C25.8566 66.3749 35.8296 64.4041 36.4481 63.3196C37.7518 63.0498 39.0612 62.6425 40.3704 61.9599C40.3036 61.9599 40.1643 61.8938 40.0975 61.8938C39.8188 61.8938 39.6852 62.0975 39.3397 62.0975H39.2004C39.8858 61.3488 40.9889 61.2167 41.0557 59.9891C41.1227 60.1266 41.195 60.2588 41.195 60.3303C41.195 60.534 41.0557 60.7378 41.0557 60.8753C41.0557 60.9414 41.0557 61.0129 41.1227 61.079C41.1895 61.0075 41.2619 61.0075 41.3288 61.0075C42.6381 57.6108 44.4266 53.8729 46.2819 49.3862C45.5965 51.0157 44.3541 54.1426 43.602 54.5499C45.1842 51.0157 46.7666 47.6191 48.4826 44.1509C48.4826 44.1949 48.5049 44.2407 48.5495 44.2885C48.6163 44.0848 48.6887 43.8811 48.7557 43.6773C50.8895 39.5321 52.951 35.5244 55.3578 31.5826C55.4971 31.6487 55.564 31.6487 55.7033 31.7203C53.5026 35.7997 51.235 39.8074 49.0342 43.815L48.4826 46.1932C50.9563 41.0295 53.7756 36.3392 56.4611 31.3129C56.3885 31.4506 59.2802 27.3713 59.2802 26.3528C58.5225 26.6226 58.0433 30.0247 55.6365 31.3845C56.461 29.4137 57.6979 27.6466 58.8679 25.7417C60.1048 23.837 62.7178 20.578 62.7178 19.4218C62.7178 18.3374 64.6456 16.0913 65.9494 16.0913C66.5678 16.0913 67.3923 16.7023 67.3923 17.6547C67.3923 17.8585 66.0162 20.033 65.0523 20.9192C64.9855 20.8533 64.9855 20.7156 64.9855 20.6441C64.9855 20.3027 65.264 20.033 65.264 19.6916V19.4879C62.5785 22.0038 61.5478 25.1968 59.5533 28.0484M97.785 12.9258C97.5789 18.0236 95.445 22.78 92.3528 26.7877C90.9098 28.6209 88.2243 32.4305 87.539 32.4305C87.3997 32.4305 87.1936 32.3644 87.1936 32.2268C87.1936 32.1607 87.3329 32.0231 87.3329 31.8854C87.3329 31.8193 87.2659 31.8193 87.1936 31.8193C87.1212 31.8193 86.9874 31.8854 86.8481 31.8854C86.7813 31.8854 86.5027 31.7479 86.5027 31.4781C86.5027 31.3404 87.2604 30.1899 87.5335 30.1899C87.6727 30.1899 87.812 30.256 87.9458 30.4597C88.0126 30.322 88.1519 30.256 88.2187 30.256C88.3581 30.256 88.4973 30.322 88.5642 30.322C88.9096 30.322 89.8735 29.3696 89.9403 28.8301C89.528 29.0998 89.1157 29.4412 88.9765 30.0522C88.631 29.711 88.4249 29.5073 88.4249 29.3035C88.4249 28.8962 88.9764 29.3035 89.3887 28.4889C89.3887 28.3512 89.3219 28.2136 89.3219 28.0814C89.3219 28.2191 90.0796 27.063 90.3526 27.063C90.5587 27.063 90.7649 27.2666 90.7649 27.5364C90.7649 27.8061 90.1464 27.9438 90.1464 28.4228C90.6981 28.4228 90.8374 28.0153 90.971 27.608C91.6563 27.3382 93.9296 23.8039 94.2026 22.3782V22.4443C94.2026 22.2405 94.2026 22.0368 94.2694 21.8992C93.9239 22.5763 92.0686 26.8593 91.1048 26.8593C90.9655 26.8593 90.6925 26.7217 90.6925 26.5179C90.6925 25.7692 91.7901 25.4335 91.7901 24.6848C91.7901 24.2114 91.3109 24.6848 91.3109 24.2774C91.3109 24.0737 91.4501 24.0737 91.5839 24.0737H91.7901V23.6664C91.7901 23.5287 91.8569 23.325 92.063 23.325C92.13 23.325 92.2023 23.3911 92.2023 23.4626C92.2023 23.5342 92.1355 23.6003 92.1355 23.7379C92.1355 23.782 92.1578 23.8278 92.2023 23.8756C94.6093 20.3413 96.2585 15.8546 96.2585 11.6432C96.2585 6.072 92.8876 2.87905 86.9038 2.87905C85.7338 2.87905 84.497 3.08274 83.2601 3.08274H81.8839C80.9869 3.75987 79.8893 3.55618 78.9254 4.03512C76.7916 5.05357 74.524 5.1912 72.3955 6.14358C69.0916 7.56939 65.9326 9.19891 62.8348 10.9C60.428 12.2597 57.8817 13.4158 55.6141 15.1113C55.2688 15.3866 54.7895 15.5188 54.3772 15.6564V15.86C54.3772 16.4051 52.4495 17.0823 51.7643 17.6272C47.2958 21.0239 42.0698 23.9471 38.5597 27.9548C37.0499 28.0208 36.7712 29.3146 35.7406 29.9916C31.4059 32.7772 28.1076 37.6713 23.9791 41.2056C21.7783 43.1103 20.6082 45.6208 18.6137 47.5916C16.5522 50.5147 14.3514 53.4325 13.109 56.9007C12.9698 57.308 12.9028 57.5778 12.9028 57.853C12.9028 59.2788 14.9643 58.5357 14.9643 59.7578C14.8975 60.1652 14.7581 60.2313 14.552 60.2313C14.0004 60.2313 10.6352 59.1412 10.6352 58.0567C10.6352 57.9906 10.6352 57.9191 10.7021 57.7814C14.7581 48.9457 20.9481 41.8112 27.8289 35.1555C36.632 26.5951 47.4296 17.5557 58.6395 11.3734C64.8295 7.91071 75.9 1.51929 85.7338 1.51929C89.5169 1.51929 92.7484 2.26798 95.1552 5.25726C96.1191 6.47938 96.4646 7.70152 97.0831 8.99522C97.6346 10.2889 97.7683 11.6432 97.7683 12.9369M18.8365 67.3549H18.491C18.3518 67.3549 18.2125 67.3549 18.0787 67.421C18.3518 67.2172 18.6972 67.0135 19.0427 67.0135C19.2488 67.0135 19.3881 67.0135 19.5943 67.0796C19.3156 67.2833 19.1152 67.3494 18.8365 67.3494M26.4695 65.6483C25.9904 66.1217 25.3664 66.2593 24.748 66.2593C25.1603 65.7143 25.8511 65.7859 26.4695 65.6483ZM26.8818 36.8401C26.6088 37.0437 26.2634 37.2474 26.124 37.5888C26.6757 37.5888 26.8818 37.3851 26.8818 36.8401ZM27.8457 65.1749C27.9125 65.1749 28.0519 65.2409 28.1911 65.3125C27.9849 65.4501 27.8457 65.4501 27.712 65.4501H27.439C27.5782 65.3125 27.712 65.1803 27.8513 65.1803M29.779 34.126C29.2999 34.3957 28.6089 34.8087 28.5421 35.2105C28.9544 35.2105 29.1605 35.0069 29.1605 34.5995C29.506 34.5334 29.779 34.5995 29.779 34.126ZM31.0159 64.6354C31.2944 64.3601 31.6343 64.1565 31.9798 64.1565C32.119 64.1565 32.2583 64.1565 32.3921 64.228C32.0466 64.773 31.4282 64.4316 31.0159 64.6354ZM32.0466 32.0176C31.9798 32.0176 31.8405 31.9515 31.8405 31.9515C31.5675 31.9515 31.6343 32.2929 31.5675 32.4249C31.8405 32.4249 31.9798 32.2874 32.0466 32.0176ZM33.8351 63.617C33.9019 63.617 33.9743 63.6829 34.1081 63.6829C33.7626 64.0904 33.3503 63.9527 33.005 64.0243C33.2111 63.8206 33.4841 63.617 33.8296 63.617M34.7933 63.7545C34.5872 63.7545 34.3811 63.6884 34.3811 63.617C34.3811 63.2756 36.0302 62.8683 36.7212 62.8683H37.0665C36.788 62.9342 36.515 63.0719 36.2419 63.2095C35.7628 63.4132 35.2112 63.4132 34.7989 63.7545M36.9997 27.8061V27.6025C36.7267 27.8061 36.3144 27.8061 36.3144 28.1475C36.3144 28.2851 36.3144 28.3512 36.3813 28.4889C36.5874 28.2851 36.9997 28.1475 36.9997 27.8061ZM37.6181 62.8022C37.5513 62.8022 37.4788 62.7361 37.4788 62.5324C37.4788 62.5324 38.0973 62.125 38.5821 62.125C38.7213 62.125 38.9274 62.125 39.2004 62.1911C38.5151 62.3947 38.2366 62.5985 38.0304 62.5985C37.8911 62.5985 37.7518 62.8022 37.6181 62.8022ZM38.2366 26.8538C38.0973 26.7877 38.0304 26.7162 37.8911 26.7162C37.8243 26.7162 37.6126 26.9198 37.6126 27.0574C37.6126 27.1235 37.6794 27.1951 37.8187 27.1951C37.9579 27.129 38.0917 26.9915 38.231 26.8538M38.7101 66.3309C38.5708 66.3309 38.4316 66.2648 38.4316 66.1932C38.4316 65.9896 38.5708 65.9896 38.7101 65.7859C38.777 65.852 38.777 65.9236 38.8495 65.9896C38.8495 66.1273 38.8495 66.2593 38.7101 66.3309ZM39.2618 64.9052C39.1948 64.9052 39.1224 64.7675 39.1224 64.7014C39.1224 64.5638 39.1893 64.4316 39.3954 64.3601C39.4624 64.4262 39.6016 64.4977 39.6016 64.4977C39.4624 64.6354 39.5292 64.9052 39.2562 64.9052M40.6323 24.883C40.0139 24.883 39.8747 25.2243 39.323 25.428C39.4624 25.4941 39.6016 25.5656 39.6685 25.5656C39.9415 25.5656 40.0808 25.2958 40.22 25.2958C40.3593 25.1582 40.4931 25.0261 40.6323 24.8885M42.6269 23.0553C41.936 23.3966 41.2507 23.8039 40.8384 24.4151H41.0446C41.5238 24.4151 41.8692 24.1453 42.0753 23.6664C42.4876 23.6664 42.6269 23.4627 42.6269 23.0553ZM45.6522 60.0221C45.7192 60.0221 45.9253 60.0881 45.9253 60.1597C45.9253 60.3634 44.7552 60.7047 44.1368 60.9084C44.2761 60.5011 44.6159 60.3634 45.0338 60.3634H45.2399C45.3792 60.2973 45.513 60.0221 45.6522 60.0221ZM51.636 57.3686C51.4968 57.776 51.2907 57.842 51.0845 57.842H50.7391C50.7391 57.776 47.7806 60.0827 46.4044 60.0827C46.3376 60.0827 46.1983 60.0166 46.1983 59.8789C46.1983 59.8789 46.6106 59.4055 46.6774 59.4055H46.4712L46.5382 59.3394C46.332 59.3394 46.1259 59.5432 45.9866 59.5432C45.9197 59.5432 45.8472 59.4771 45.7804 59.2734C45.7804 59.0696 45.9866 59.0037 46.2595 59.0037H46.5326C46.8112 59.0037 47.0841 58.6623 47.4296 58.6623C47.5689 58.6623 47.6357 58.7339 47.7751 58.7999C47.9143 58.5962 47.8419 58.1228 48.048 58.1228C48.1149 58.1228 48.3935 58.6678 48.6665 58.6678C48.8058 58.6678 49.012 58.5301 49.4241 58.1944C49.2849 58.1283 49.012 58.1283 49.012 57.9906C49.012 57.6494 49.4911 57.3796 49.7028 57.3796C49.9757 57.3796 50.1819 57.5172 50.1819 57.5833C50.1819 57.7209 49.9757 57.853 49.9757 57.9906C50.2488 57.853 50.5274 57.7209 50.7335 57.6494C51.012 57.5833 51.2851 57.5117 51.6305 57.3741M48.7444 18.8439C48.6776 18.7062 48.6776 18.5741 48.6776 18.5025C48.4046 18.6402 48.0592 18.7062 47.9198 19.0476C48.1929 18.9815 48.4715 18.91 48.7444 18.8439ZM56.8622 54.5885C57.0014 54.5885 57.1352 54.6546 57.1352 54.8583C56.9291 54.8583 56.7897 54.8583 56.6561 54.7922C56.0376 55.8106 55.0737 56.0804 54.043 56.152C54.4553 55.8106 52.9399 57.308 52.3938 57.308C52.327 57.308 51.7754 56.9007 51.7754 56.763C51.7754 56.5593 52.1208 56.4932 52.1877 56.3557C52.1877 56.2896 52.26 56.2896 52.26 56.2896C52.327 56.2896 52.4662 56.4273 52.6055 56.4273C52.5387 56.5648 52.4662 56.6309 52.3994 56.7685C52.6055 56.7685 52.8117 56.5648 53.0178 56.5648C53.0846 56.5648 53.1571 56.6309 53.224 56.6309C53.3633 56.2896 53.5694 55.7501 53.9092 55.7501C53.9762 55.7501 54.0485 55.7501 54.1823 55.8162C55.1461 55.4748 55.8315 55.0675 56.7285 54.594H56.8678L56.8622 54.5885ZM58.3776 53.7022C58.333 54.0215 57.9895 54.3169 57.3469 54.5885C57.5531 53.9774 58.0322 53.9774 58.3776 53.7022ZM61.0576 52.6122C61.0576 52.8158 60.9907 52.9536 60.8514 52.9536C60.6453 52.9536 60.0936 52.5461 60.0936 52.2763C60.0936 52.2103 60.1605 52.0727 60.3666 52.0727C60.5059 52.3424 61.0576 52.1388 61.0576 52.6177M60.6453 24.4206C60.6453 24.3545 60.6453 24.2168 60.5784 24.1508C60.5115 24.3545 60.233 24.4206 60.233 24.6957C60.233 24.7618 60.2998 24.7618 60.2998 24.8335C60.5728 24.7674 60.6453 24.5582 60.6453 24.426M62.0213 51.5387C62.0883 51.5387 62.2275 51.5387 62.4336 51.6048C62.1607 51.8085 61.9545 51.8745 61.8153 51.8745H61.6092C61.676 51.6048 61.8152 51.5332 62.0213 51.5332M63.6037 50.6469C63.743 50.6469 63.9492 50.7129 64.0884 50.9221C64.0884 51.1259 63.8154 51.1259 63.6762 51.1259C63.4701 51.1259 63.3307 51.0598 63.3307 50.7184C63.3976 50.6523 63.5369 50.6524 63.6037 50.6524M72.8191 44.2665C72.8191 45.6922 71.649 46.0997 70.6183 46.6446C70.6183 47.1182 68.5568 48.1366 68.5568 48.1366C68.4175 48.1366 68.3507 48.0705 68.3507 47.7952C67.6654 47.9989 67.8715 49.1549 67.0469 49.1549C66.2892 49.1549 66.2892 50.0413 65.4646 50.0413C65.2584 50.0413 64.9855 49.9752 64.7068 49.9752C65.2584 49.7055 65.5314 49.0229 66.2224 48.9568C67.5261 48.142 68.9746 47.1236 70.1392 46.1712C70.8968 45.2905 72.1337 45.1527 72.8191 44.2665ZM70.7576 45.2849C70.6183 45.2849 70.4121 45.2849 70.1392 45.2188C70.3453 44.6077 71.5152 44.1288 72.3398 43.4517C72.3398 44.3326 71.5152 44.2004 70.9637 44.8775C70.9637 45.2188 70.9637 45.2849 70.7576 45.2849ZM73.5767 42.9067C73.5099 42.9067 73.4375 42.8352 73.4375 42.6314L73.5767 42.4938C73.6437 42.6314 73.716 42.6975 73.7829 42.7636C73.7829 42.9011 73.6437 42.9011 73.5767 42.9011M86.4358 32.8433C86.5751 32.8433 86.7144 32.7057 86.7813 32.7057C86.9206 32.7057 86.9874 32.8433 86.9874 32.9094C86.9206 32.8433 85.1989 35.0839 84.3743 35.7611C83.4105 36.5759 82.2405 37.1208 81.5552 38.1392C79.9728 38.1392 78.8753 41.1286 76.6021 42.081C76.6021 42.626 74.7468 43.782 74.1283 43.782C73.989 43.782 73.7829 43.782 73.6492 43.7159C73.8554 43.2425 74.4738 43.1049 74.68 42.626C74.8861 41.9488 75.5714 42.2846 75.9837 41.8773C75.9168 41.8112 75.9168 41.6735 75.9168 41.6075C76.396 40.8588 77.1537 40.4514 77.8445 40.0441C80.803 37.6658 84.0345 35.0179 86.369 32.0231C86.5083 32.1607 86.5083 32.2268 86.5083 32.3644C86.5083 32.5021 86.4413 32.7057 86.369 32.8378H86.4358V32.8433ZM74.1283 42.4222H73.989C73.9222 42.4222 73.8498 42.4222 73.8498 42.3562C73.8498 42.1524 74.2621 41.8827 74.5351 41.6075C74.5351 41.6735 74.6019 41.7451 74.6019 41.8112C74.6019 42.081 74.2564 42.2185 74.1896 42.4222H74.1228H74.1283ZM74.7468 41.6075C74.9529 41.0625 76.2622 40.2477 76.4683 40.2477C76.5612 40.2477 76.6077 40.2936 76.6077 40.3853C76.6077 40.7267 76.1954 40.6606 75.9892 40.7928C75.5101 41.134 75.7162 41.4037 74.7523 41.6075M77.3654 39.7027C77.1593 39.7027 77.02 40.0441 76.8138 40.0441C76.7692 40.0441 76.7229 40.0219 76.6745 39.978C76.8138 39.7743 77.2261 39.2293 77.4991 39.2293C77.6384 39.2293 77.6384 39.3669 77.6384 39.4329C77.6384 39.499 77.5716 39.6366 77.5716 39.7743C77.5046 39.7082 77.4323 39.7082 77.3654 39.7082M80.6693 36.4437C80.6693 36.7851 80.7362 37.1924 80.4632 37.1924H80.1845C80.1177 37.1924 80.0453 37.1924 80.0453 37.0548C80.0453 36.9171 80.1845 36.7851 80.2515 36.7134C80.3907 36.5759 80.53 36.5098 80.6638 36.4382M80.6638 36.4382C80.803 36.2345 80.8699 35.9647 81.2153 35.8931C81.2153 35.8931 81.2822 36.0308 81.2822 36.0969C81.2153 36.5042 80.8699 36.3006 80.6638 36.4382ZM82.3853 35.0124C82.3185 35.4197 82.1124 35.5574 81.5608 35.6895C81.8337 35.3482 81.973 35.0785 82.3853 35.0124ZM83.9008 33.7187C83.9008 34.126 83.4216 34.1921 82.87 34.1921C83.2155 33.7187 83.6946 33.7187 83.8339 33.3773C83.8339 33.515 83.9008 33.5811 83.9008 33.7187ZM86.1016 31.2744C86.1016 31.7479 85.6224 31.6818 85.6224 31.9515C85.5555 31.8854 85.5555 31.7479 85.5555 31.6818C85.5555 31.412 85.901 31.3404 86.1071 31.0706V31.2744H86.1016ZM87.1323 30.0522C87.3384 29.4412 87.6114 29.2375 87.9569 28.9623C87.9569 29.5073 87.6114 29.6393 87.1323 30.0522ZM89.1938 27.4043C89.1938 27.2007 89.4723 27.129 89.7453 27.129C89.6061 27.2666 89.4723 27.4704 89.2662 27.6741C89.1938 27.608 89.1938 27.4704 89.1938 27.4043ZM89.8122 26.8593C89.8122 26.7932 89.7453 26.7217 89.7453 26.7217C89.7453 26.3803 90.0907 26.3143 90.2969 26.1106C90.2969 26.452 90.0907 26.6556 89.8122 26.8593ZM95.3837 19.9944C94.9045 20.1982 95.0383 20.5394 94.9714 20.8092C95.2444 20.6055 95.3837 20.4018 95.3837 19.9944ZM95.796 19.1081C95.796 19.042 95.796 18.9705 95.7291 18.9044C95.4506 18.9759 95.3837 19.1081 95.3837 19.3118C95.3837 19.4495 95.4506 19.5815 95.5229 19.7192C95.5229 19.5154 95.796 19.3118 95.796 19.1081Z" fill="#231F20"/>
<path d="M98.9169 42.9288C98.8945 42.6921 98.8834 42.4554 98.8667 42.2186C98.8444 41.9049 98.8222 41.5911 98.7942 41.2663L98.5992 39.5487L98.2985 37.7265H98.2259C98.1591 37.3742 98.1201 37.1539 98.0198 37.0383C97.9696 36.8016 97.9307 36.6364 97.9084 36.5208C97.8917 36.4438 97.8806 36.3997 97.8749 36.3997V36.3667L97.7635 35.7501C97.7357 35.6015 97.7078 35.4529 97.6856 35.3042L97.7468 35.1115L97.7301 35.04C97.6632 34.7206 97.6186 34.528 97.5853 34.4069C97.5629 34.3133 97.5574 34.2693 97.5574 34.2142C97.5574 34.1152 97.5462 34.016 97.4626 33.6582L96.9501 31.4947L96.9333 32.3315V32.3205C96.8888 32.1773 96.8554 32.0508 96.8275 31.9241C96.7551 31.6324 96.6771 31.3351 96.4933 30.8285L96.5211 30.8176C96.237 30.0139 95.3065 27.6907 94.7549 26.8208L94.8106 26.7933C94.571 26.2758 94.2814 25.7034 93.9303 25.0537C96.5099 21.1341 97.9028 17.0548 98.0699 12.9259C98.0699 11.2965 97.8471 10.0138 97.3568 8.86872C97.1841 8.50538 97.0281 8.14756 96.8776 7.79523C96.4988 6.9034 96.1088 5.98404 95.3956 5.08121C92.6712 1.69558 88.9939 1.23865 85.7569 1.23865C81.7565 1.23865 77.2714 2.25159 72.0621 4.33802L72.0342 4.31601C71.6442 4.02973 70.5634 3.55079 69.7388 3.25351L69.6441 3.22048L69.4713 3.28104C69.0033 3.05534 68.3961 2.78559 67.7331 2.57639L66.5463 2.18553C66.4292 2.14699 66.3178 2.10846 66.1953 2.07543L65.6827 1.9378C65.3929 1.86073 65.1088 1.78365 64.8359 1.71208C64.4737 1.61299 64.1283 1.51941 63.8107 1.44233C63.2089 1.30471 62.7911 1.1891 62.5292 1.09001L62.4735 1.0735C62.351 1.05698 62.2228 1.02945 62.0947 1.00193C61.9219 0.968898 61.7492 0.935867 61.5709 0.908342C61.4149 0.886322 61.2644 0.864301 61.1141 0.842281L61.1419 0.79824L59.6933 0.52849C59.4705 0.484449 59.2588 0.456924 59.0471 0.434904L58.1946 0.324801L56.8629 0.176164V0.132123C56.278 0.0880816 55.8992 0.115607 55.5481 0.143133C55.3977 0.154143 55.2528 0.165153 55.0912 0.170658C54.9297 0.170658 54.7513 0.170658 54.5063 0.170658L54.2555 0.0770715L52.3723 0L50.9962 0.0165153C50.6173 0.0220205 50.2384 0.0275256 49.8541 0.0495459C49.5197 0.0770715 49.1855 0.110102 48.8511 0.148638V0.115607C48.8233 0.115607 46.5389 0.181668 45.7256 0.50647C45.4859 0.489955 45.0235 0.556016 44.0875 0.759705L44.6001 0.390863L42.5107 1.09552C42.0093 1.26617 41.8365 1.32673 40.8894 1.56345C40.8393 1.57446 40.8003 1.57996 40.778 1.57996L40.7669 1.55245C40.4492 1.62951 40.2932 1.68456 40.1261 1.74512C39.9925 1.79467 39.8476 1.84971 39.5857 1.92128L39.5689 1.87174C38.7332 2.10846 38.6831 2.12497 38.2987 2.29562L38.1816 2.35068C37.6245 2.56538 36.5213 2.88468 36.3709 2.89569H36.2706L36.1926 2.95074C36.1258 3.00028 35.7859 3.17644 35.3569 3.3471L35.3401 3.30306C34.9502 3.44069 34.6158 3.57282 34.3038 3.69942C34.2035 3.74347 34.1089 3.78751 34.0197 3.82605C33.925 3.82605 33.8136 3.86458 33.7022 3.89761L33.6465 3.79852L31.9026 4.70686C31.4958 4.92707 31.078 5.15828 30.7381 5.31243C30.7214 5.31793 30.6992 5.32343 30.6824 5.33444L30.6712 5.31243C30.4484 5.41703 30.2534 5.52162 30.0918 5.62071L30.0361 5.64824C29.7854 5.78037 29.6126 5.86844 29.3731 6.00607C29.2839 6.0336 29.1224 6.11066 28.7045 6.34738C28.3646 6.53456 28.0248 6.73825 27.8131 6.87588L27.4119 7.14012L27.5233 7.19517C27.5067 7.2282 27.4899 7.27224 27.4899 7.31077C27.2113 7.45392 26.8827 7.62457 26.5818 7.78972C26.3812 7.89433 26.2028 7.99892 26.0581 8.08149C25.9354 8.15306 25.8464 8.20811 25.8018 8.22462L24.6819 9.01736C24.4311 9.19353 24.1915 9.3862 23.9576 9.57888C23.8461 9.66697 23.7403 9.76055 23.6232 9.84863L23.5675 9.89267C23.2499 10.1514 22.9491 10.3991 22.6761 10.6359C22.392 10.9056 22.1746 11.1203 22.0354 11.2745L21.9741 11.2139L20.7038 12.37C20.1466 12.915 19.946 13.1297 19.8681 13.2563C19.857 13.2673 19.8457 13.2728 19.8402 13.2838C19.7789 13.2893 19.7121 13.3168 19.634 13.3884C19.5839 13.4324 19.4891 13.5205 19.3331 13.6802L19.3165 13.6637C18.7482 14.2032 18.2523 14.7041 17.7955 15.2051C17.411 15.662 17.0488 16.1079 16.6867 16.5538L16.5531 16.7245C16.3747 16.9558 16.202 17.1925 16.0237 17.4292C15.8064 17.7209 15.5836 18.0182 15.3495 18.321C15.1991 18.5082 15.0543 18.7008 14.9039 18.9046L14.6754 19.2128C14.486 19.4661 14.291 19.7192 14.0793 19.989C14.0403 20.0331 13.9957 20.0936 13.9344 20.1707L13.9511 20.1872C13.8843 20.2808 13.8117 20.3744 13.7449 20.4735L13.2101 21.2827C12.9816 21.6296 12.7532 21.9819 12.5192 22.3453L11.6445 23.8646C11.5609 24.0077 11.4829 24.1508 11.3993 24.2995L10.8032 25.4666C10.6583 25.7418 10.519 26.0226 10.3797 26.3034L9.64431 27.9109C9.57745 28.0485 9.51616 28.1862 9.45488 28.3293L8.60243 30.3442C8.32386 31.1038 8.257 31.3791 8.16786 31.7314C8.13999 31.8416 8.11214 31.9627 8.07313 32.1113L7.95614 32.2709L7.91156 32.37C7.85584 32.6067 7.80571 32.849 7.75556 33.0857L7.67199 33.4765C7.58842 33.8179 7.48813 34.1647 7.35441 34.572L7.04798 35.6235C6.94211 35.9869 6.83626 36.3667 6.7304 36.785C6.64683 37.1759 6.5744 37.6219 6.50754 38.1779L6.4184 38.9211L6.23453 38.3485V40.1762C6.23453 40.2368 6.2401 40.3249 6.22339 40.4515L6.16767 40.4735L6.12311 40.958C6.1064 41.1507 6.0841 41.3433 6.07296 41.547L6.03954 42.4278C6.01167 42.7196 5.98939 42.8573 5.97825 42.9178C5.88911 43.0004 5.86124 43.127 5.83896 43.2701C5.81668 43.4298 5.7721 43.7216 5.76096 44.25C5.74982 46.0502 5.82225 46.353 5.98939 46.4135L5.93924 46.9916C5.93367 47.0797 5.92253 47.1678 5.92253 47.2614L5.56038 46.5732L5.94481 49.001C6.01724 49.4523 6.07296 49.7551 6.17883 49.9368L6.25126 50.5534V50.6965H6.31254C6.31254 50.724 6.32368 50.7516 6.32368 50.7791H6.30139C6.30139 50.7791 6.32368 50.8507 6.33483 50.9388C6.35154 51.0103 6.36268 51.0763 6.37382 51.1369L6.35711 51.2635L6.3404 51.214L6.35154 51.3075L6.3404 51.3957C6.30139 51.6984 6.36825 52.1994 6.47968 52.8655C6.52983 53.1573 6.59669 53.4655 6.66354 53.7683C6.69697 53.9116 6.7304 54.0547 6.75826 54.1922L6.66354 54.2253L6.89755 55.1226L6.81398 55.1337C6.86968 55.552 6.91983 55.7227 6.96998 55.8879C7.00897 56.0199 7.04798 56.1466 7.08697 56.4383H7.10927L7.07026 56.4494L7.17613 56.8292H7.13155C7.19284 57.1484 7.25413 57.4678 7.3377 57.754C7.4157 58.0183 7.4937 58.255 7.57727 58.5083C7.6887 58.8441 7.77784 59.1194 7.81685 59.3286H7.80014C7.90599 59.6918 8.0007 59.9726 8.08429 60.1543C8.08429 60.1543 8.08429 60.1598 8.08429 60.1653L8.45201 61.2278L8.13442 60.9085L8.85873 62.4059C8.9423 62.571 9.00359 62.7032 9.08159 62.7748C9.22645 63.1876 9.42702 63.7105 9.63317 64.1786C9.74459 64.4153 10.0009 64.9712 10.012 65.0759L10.0009 65.1749L10.0566 65.2576C10.09 65.3071 10.1235 65.3401 10.1569 65.3676C10.207 65.5438 10.3073 65.753 10.4466 66.0227L10.5636 66.2264C10.5915 66.276 10.6193 66.331 10.6528 66.3861C10.636 66.5017 10.7085 66.6614 10.8199 66.9201L10.8589 66.9861C10.9815 67.1348 11.1263 67.41 11.2656 67.6963C11.1765 67.6907 11.0873 67.6907 10.987 67.6907H10.5748C8.98129 67.6907 7.38227 67.6357 5.83896 67.5862C4.34022 67.5366 2.79134 67.4871 1.29259 67.4871C0.913731 67.4871 0.646297 67.6027 0.339863 67.9054L0 68.2413L0.468008 68.3624C0.674155 68.4174 0.874729 68.4725 1.08088 68.533C1.91103 68.7642 2.69104 68.9845 3.49892 68.9845H4.66893C5.49909 68.9845 6.28468 69.0175 7.04241 69.0505C8.56343 69.1166 10.1179 69.1331 12.0066 69.0781L12.0679 69.1827H12.1069C12.1849 69.2872 12.3131 69.4964 12.4914 69.8048C12.7811 70.2837 13.1766 70.8782 13.4886 71.3352L13.511 71.3241C13.6446 71.6655 14.096 72.4087 15.4052 74.1372L15.5445 74.0327L15.4554 74.1923C15.4833 74.2144 15.6003 74.3079 15.9791 74.7648L16.4026 75.2823C16.4026 75.2823 16.4137 75.2988 16.4193 75.3043L16.3691 75.3429L16.2243 75.2603L17.3553 76.5375C17.5336 76.7356 17.7119 76.9339 17.9013 77.1431L18.4919 77.721C18.6925 77.9193 18.8986 78.123 19.1103 78.3432L19.8681 79.1084L19.9906 79.1194C20.1968 79.334 20.2859 79.4056 20.3639 79.4551L20.3361 79.4882C20.5311 79.6809 20.7484 79.8956 20.9266 80.0827C21.0102 80.1763 21.0937 80.2534 21.1662 80.3249C21.2386 80.3966 21.2999 80.4516 21.3333 80.4957L22.353 81.7893L22.1078 81.0902C22.1078 81.0902 22.1245 81.1067 22.1301 81.1122C22.1635 81.2003 22.2304 81.2774 22.4309 81.4645C22.4866 81.5031 22.5702 81.5692 22.6594 81.6407C22.9324 81.8554 23.1163 81.9985 23.2611 82.0481C23.3726 82.1417 23.4115 82.1857 23.4561 82.2353L23.5675 82.3509C23.6733 82.417 23.8293 82.538 24.0077 82.6757C24.225 82.8408 24.4701 83.028 24.693 83.1766C25.0775 83.4354 25.2724 83.5675 25.4061 83.5785C25.6847 83.7657 25.9689 83.9583 26.253 84.1565C26.4704 84.3051 26.6932 84.4484 26.916 84.5915C27.0831 84.7015 27.2504 84.8062 27.4119 84.9162C28.1195 85.4007 28.8549 85.8301 29.5124 86.1934L29.5012 86.21L29.763 86.3586C30.0863 86.5403 30.4429 86.7164 30.7938 86.887C30.9553 86.9642 31.1115 87.0412 31.273 87.1237L31.5404 87.2504C31.2229 88.1037 30.9275 88.9736 30.8774 89.6946L30.8552 89.9865H31.1504C31.2284 89.9865 31.2952 89.9754 31.3509 89.9644C31.4235 90.058 31.5349 90.1241 31.702 90.1241C31.9416 90.1241 32.1365 89.9424 32.1755 89.9093L32.2312 89.8543L32.248 89.7828C32.3928 89.2157 32.5712 88.5661 32.7884 87.8174C32.9222 87.889 33.0336 87.9496 33.0614 87.9716L33.1785 87.8615L33.1227 88.0377L33.9472 88.3789C34.042 88.423 34.1423 88.467 34.2649 88.5166L34.2426 88.5661C34.4989 88.6708 34.705 88.7588 34.8834 88.8359C35.3457 89.0341 35.6634 89.1662 36.3431 89.3864C36.4824 89.4965 36.8111 89.6342 37.5409 89.8543L38.2318 90.1185C38.6664 90.2837 39.0898 90.3993 39.5021 90.5094L39.9868 90.636C40.388 90.7407 40.7669 90.8342 41.1457 90.9003C41.5914 90.9828 42.0205 91.0655 42.4272 91.1591L43.0512 91.3077C43.2518 91.3517 43.4467 91.4012 43.6417 91.4564L43.6974 91.4673C43.7476 91.4673 43.859 91.4783 43.9537 91.4398C44.2045 91.5003 44.4441 91.5609 44.6447 91.6105C44.9567 91.6875 45.2017 91.7536 45.3299 91.7701C46.0319 91.8803 46.3662 91.8912 46.7117 91.9023C46.8621 91.9023 47.0182 91.9132 47.2131 91.9242L48.0376 92.0013V91.9132C48.0656 91.9132 48.1268 91.9023 48.255 91.9023C48.3219 92.0398 48.5113 92.0729 48.6227 92.0893H48.6616L48.7954 92.0784C48.9736 92.1004 49.2467 92.1279 49.5141 92.1554L50.0824 92.2051C50.1883 92.2105 50.2719 92.216 50.3108 92.227L50.3221 92.194H50.3332V92.249C50.5504 92.249 50.712 92.249 50.8234 92.216C51.1467 92.227 51.4419 92.2381 51.7427 92.2435H52.0213C52.1384 92.2545 52.2609 92.2546 52.3834 92.2546C52.4336 92.2546 52.4781 92.2546 52.5283 92.2546L53.4198 92.2435V92.1995C54.2611 92.194 54.4449 92.172 54.5787 92.1499L54.651 92.139C54.7513 92.1224 54.8795 92.1004 55.3753 92.0509C55.4423 92.0509 55.4924 92.0509 55.5258 92.0509C55.615 92.1224 55.7264 92.1114 56.3002 92.0509L56.3115 92.1445C56.6067 92.1059 56.8909 92.0839 57.1749 92.0618C57.448 92.0289 57.7099 92.0013 57.9494 91.9793L58.774 91.9132L58.6626 91.5829C58.6124 91.4342 58.5734 91.2747 58.5512 91.1205L58.5066 90.8563L58.2392 90.8947C57.9216 90.9388 57.6152 90.9828 57.3143 91.0324C57.0691 91.0764 56.8239 91.0985 56.5789 91.126C56.4395 91.1425 56.2947 91.1536 56.161 91.17C55.771 91.2086 55.3753 91.2526 54.9519 91.2856C54.6344 91.3131 54.2889 91.3186 53.9267 91.3186C53.8209 91.2581 53.6482 91.2581 53.4198 91.2581C53.2916 91.2581 53.0688 91.2581 52.9741 91.2472L52.935 91.2141L52.6342 91.2306C52.5227 91.2361 52.4169 91.2416 52.311 91.2416H51.7818V91.2911C51.5366 91.2911 51.297 91.2911 51.0686 91.2911H50.6228C50.5282 91.2911 50.439 91.2911 50.3499 91.2911V91.2472C50.088 91.2472 49.8206 91.2306 49.503 91.2086L48.6339 91.1536L48.6227 91.2802C48.5893 91.2802 48.5502 91.2747 48.5056 91.2691C48.4612 91.2636 48.4221 91.2581 48.3942 91.2526C48.1324 91.2306 47.4416 91.17 47.1296 91.0819L47.0571 91.3352V91.0709C46.6727 91.0489 46.2771 91.0214 45.7757 90.9553L45.7645 90.8618L45.5305 90.7902H45.4804C45.3133 90.8011 44.901 90.7296 44.4942 90.6636L44.2268 90.6196C43.8814 90.559 43.5303 90.5039 43.2462 90.4654L43.1961 90.4433L43.2462 90.4268L42.2098 90.1791C41.831 90.091 41.6304 90.0415 41.5023 90.0965C41.4744 90.091 41.4466 90.0801 41.4131 90.0746V90.0415L40.8393 89.8874C39.9255 89.6451 39.0452 89.4195 38.2095 89.1552C38.1705 89.0891 38.0981 89.0231 37.9699 88.9625C36.2763 88.4505 34.5657 87.8065 33.0057 87.0962C34.978 80.5177 38.7277 70.7405 42.6221 62.0536C43.1013 61.9764 43.6417 61.6186 43.9147 61.2828L44.5388 61.0791C45.6697 60.7158 46.0933 60.5451 46.1936 60.3029C46.2659 60.347 46.3439 60.3745 46.4275 60.3745C47.4693 60.3745 49.1855 59.2734 50.5671 58.3101C50.6842 58.2274 50.7733 58.1669 50.829 58.1284H51.1021C51.4976 58.1284 51.765 57.9082 51.9154 57.4623L51.9544 57.3467C52.1328 57.4843 52.3166 57.5834 52.4058 57.5834C52.9518 57.5834 53.9267 56.6916 54.2109 56.4163C55.0633 56.3447 56.0885 56.1135 56.7906 55.1171C56.902 55.1337 57.0189 55.1337 57.1527 55.1337H57.4312V54.8584L57.4703 54.8418C58.4509 54.4289 58.5789 54.3739 58.6681 53.7408L58.7684 53.0527L58.2168 53.4876C58.1333 53.5536 58.0275 53.6032 57.916 53.6583C57.6542 53.7849 57.3309 53.9445 57.1416 54.3794C57.0635 54.3409 56.9744 54.3134 56.8741 54.3134H56.6679L56.1721 54.5776C55.5091 54.9354 54.9352 55.2437 54.1998 55.5135C54.0827 55.4694 53.9992 55.4695 53.9156 55.4695C53.4811 55.4695 53.2415 55.8933 53.0688 56.2897C53.0464 56.2897 53.0242 56.2897 52.9963 56.2897L53.0688 56.1521H52.6175C52.6175 56.1521 52.5507 56.1191 52.5227 56.1025C52.4504 56.0585 52.3723 56.0144 52.2664 56.0144C52.1328 56.0144 51.999 56.0916 51.9433 56.2236C51.9211 56.2347 51.8932 56.2566 51.8765 56.2677C51.7372 56.3502 51.5088 56.4878 51.5088 56.7631C51.5088 56.8567 51.5701 56.9614 51.6648 57.0714L51.5477 57.1155C51.2246 57.242 50.9683 57.3081 50.6674 57.3797C50.6061 57.4017 50.5338 57.4292 50.4613 57.4568C50.3722 57.2365 50.0379 57.0934 49.7259 57.0934C49.3859 57.0934 48.7564 57.4568 48.7564 57.9798C48.7564 58.1119 48.8176 58.2055 48.8957 58.266C48.7787 58.3541 48.723 58.3816 48.7062 58.3871C48.6339 58.3652 48.4834 58.1669 48.4277 58.0899C48.3219 57.9523 48.2382 57.8421 48.0767 57.8421C47.7201 57.8421 47.6588 58.2055 47.6254 58.4091C47.5752 58.3982 47.5195 58.3871 47.4582 58.3871C47.2019 58.3871 46.9902 58.5083 46.8176 58.6074C46.7228 58.6624 46.617 58.723 46.5613 58.723H46.2882C45.6029 58.723 45.5305 59.1028 45.5305 59.268L45.5472 59.3561C45.5807 59.4551 45.6754 59.7084 45.8982 59.7854C45.8091 59.7524 45.7199 59.7414 45.6754 59.7414C45.4693 59.7414 45.3355 59.8901 45.2296 60.0112C45.213 60.0332 45.1906 60.0551 45.1684 60.0773H45.057C45.057 60.0773 45.0346 60.0773 45.0291 60.0773C45.1127 59.9726 45.1906 59.8515 45.2519 59.7029L45.4859 59.1248L44.8953 59.345C44.7171 59.4111 44.4998 59.5156 44.2713 59.6203C44.0207 59.7414 43.7309 59.879 43.4691 59.9671C44.4608 57.7155 45.4859 55.5355 46.3272 53.7629C47.6142 51.0324 48.2049 49.7772 48.2271 49.3642C48.6729 49.078 48.7286 48.5935 48.7732 48.2247C48.7899 48.0926 48.801 47.966 48.8233 47.8779C48.9681 47.5365 49.1742 47.2448 49.3972 46.9365C49.6813 46.5457 49.971 46.1383 50.1381 45.6153C50.2105 45.3951 50.2384 45.1693 50.2662 44.9492C50.3164 44.5142 50.3554 44.173 50.7176 43.9197C51.8765 43.1545 52.4837 41.5691 53.0242 40.1653C53.4643 39.0257 53.8766 37.9523 54.4338 37.765L54.495 37.7429L54.5396 37.699C54.7513 37.4898 54.963 37.0053 54.963 36.4824V36.0969C54.9965 35.9429 55.4478 35.3648 55.81 34.8969C56.6624 33.7958 57.721 32.4306 57.7823 31.5277C58.5066 30.2395 59.0804 29.2377 59.7992 28.2137C60.529 27.1677 61.1363 26.0666 61.7269 25.0042C62.6295 23.3746 63.4876 21.8222 64.7523 20.4295C64.7356 20.501 64.7245 20.5726 64.7245 20.6551C64.7245 20.7487 64.7243 20.9745 64.8748 21.1231L65.0643 21.3102L65.2593 21.1285C66.1396 20.3248 67.6885 18.0457 67.6885 17.6659C67.6885 16.6144 66.7803 15.8271 65.9669 15.8271C64.5182 15.8271 62.4568 18.1559 62.4568 19.433C62.4568 20.1928 61.0249 22.2076 59.8772 23.8316C59.4203 24.4757 58.9857 25.0867 58.6459 25.6098C58.384 26.0337 58.1222 26.4466 57.8659 26.8594C56.9299 28.3403 56.0495 29.7331 55.3977 31.2855V31.2965L55.275 31.236L55.1414 31.4507C52.8181 35.2547 50.8513 39.0477 48.7843 43.0774V42.9729L48.255 44.0408C46.6503 47.2723 45.1014 50.5809 43.3688 54.4511L43.0401 55.1942L43.6528 54.8639C42.8506 56.6916 42.0873 58.4312 41.4298 60.0773C41.402 60.0167 41.3741 59.9506 41.3352 59.879L40.8671 58.9486L40.8114 59.9837C40.7725 60.6607 40.3657 60.9305 39.8476 61.2719C39.5913 61.4425 39.3239 61.6242 39.0898 61.8664C38.8837 61.8333 38.7221 61.8333 38.6163 61.8333C38.0646 61.8333 37.4295 62.2407 37.3627 62.2848L37.24 62.3673V62.5159C37.24 62.5159 37.24 62.5601 37.2456 62.582H36.7609C36.4266 62.582 34.588 62.8187 34.2148 63.3968H34.1478C34.1478 63.3968 34.1089 63.3913 34.0699 63.3748C34.0197 63.3527 33.9585 63.3307 33.8749 63.3307C33.5183 63.3307 33.184 63.4904 32.8497 63.8207L32.6435 64.0189L32.5544 63.9748C32.3595 63.8758 32.17 63.8758 32.014 63.8758C31.6296 63.8758 31.2173 64.0739 30.8552 64.4317L30.075 65.2024C29.5067 65.3346 28.8883 65.4777 28.2141 65.6263C28.2699 65.6043 28.3257 65.5768 28.3814 65.5327L28.7824 65.2685L28.3535 65.0538C28.1473 64.9492 28.0137 64.8887 27.8855 64.8887C27.6682 64.8887 27.4954 65.0263 27.3451 65.1695L26.448 65.3676C26.3031 65.4007 26.1527 65.4171 26.0024 65.4392C25.5064 65.5052 24.9437 65.5824 24.5649 66.0833L24.2361 66.5127C24.1191 66.5402 24.0077 66.5677 23.8907 66.5787C23.9409 66.4906 23.9631 66.3805 23.9631 66.2484V65.9182L23.6344 65.9786C23.4283 66.0172 23.1496 66.0447 22.86 66.0722C21.8626 66.1714 20.9991 66.2539 20.9991 66.7934C20.9991 66.843 21.0102 66.9476 21.1105 67.0412C20.7985 67.1458 20.3026 67.2393 19.7567 67.3164C19.7678 67.3054 19.7845 67.2999 19.7956 67.2889L20.2247 66.9751L19.7176 66.81C19.4669 66.7274 19.2942 66.7274 19.0768 66.7274C18.7371 66.7274 18.3638 66.8815 17.9459 67.1898L18.1186 67.4651C17.9737 67.4706 17.8344 67.4761 17.7008 67.4761C17.3999 67.4761 16.9987 67.344 16.787 67.2669C16.6533 67.2228 16.5975 67.2009 16.5307 67.2009C16.4248 67.2009 16.3357 67.2228 16.2577 67.2448C16.0683 67.2945 15.9791 67.2614 15.8565 67.2448C15.7396 67.2228 15.6226 67.2064 15.5 67.2064C14.7366 67.2064 14.0068 67.421 13.2936 67.6248C12.9483 67.7238 12.5916 67.8284 12.2462 67.8999L12.1626 67.7568L12.2239 67.7843L11.8395 66.9201C11.7503 66.7219 11.6556 66.5127 11.6333 66.4466L11.455 66.4852L11.6166 66.3805C11.455 66.1328 11.3492 65.9071 11.2266 65.6374C11.1876 65.5493 11.1486 65.4612 11.1096 65.3621L11.2266 65.4722L10.5803 64.1345C10.4745 63.9142 10.3965 63.7602 10.2906 63.705C10.0343 63.116 9.78917 62.4279 9.53845 61.7122C9.31559 61.0847 9.09273 60.4351 8.83086 59.7854C8.72501 59.4881 8.64144 59.235 8.56343 59.0147C8.44643 58.6789 8.35728 58.4146 8.26257 58.156L8.023 57.4898C7.97842 57.3467 7.93384 57.1925 7.88928 57.0219L7.96171 57.0053C7.88371 56.6035 7.81128 56.2566 7.73328 55.9154C7.70542 55.7888 7.67199 55.6566 7.63856 55.5299C7.59956 55.3648 7.55499 55.1996 7.51599 55.0235C7.52713 54.9245 7.51599 54.7978 7.51599 54.6437C7.46584 54.3739 7.42684 54.2583 7.38784 54.1483C7.3767 54.1207 7.37112 54.0931 7.35998 54.0602L7.44913 54.0381L7.22069 53.0032L7.15942 52.6343L7.22069 52.6234C7.13712 52.0728 7.02013 51.313 6.93654 50.7846L7.11484 50.7351L7.09256 50.4653C7.09256 50.4268 7.08697 50.3937 7.0814 50.3552L7.3767 51.0213L6.83626 47.8229C6.83069 47.7788 6.83069 47.6852 6.82512 47.5806C6.82512 47.355 6.81955 47.1017 6.7694 46.92L6.62454 46.353C6.75826 46.2099 6.80841 45.8575 6.87526 44.9601L6.85854 44.4372H6.88084C6.93097 43.9583 6.93097 43.6224 6.9254 43.2976V43.149C6.96441 43.0334 6.99226 42.8682 7.0257 42.615L7.00897 41.7783C7.08697 41.6736 7.10927 41.4919 7.14826 41.2332C7.14826 41.1341 7.15941 40.969 7.06469 40.8699C7.09813 40.7157 7.12598 40.6277 7.14826 40.5506C7.18727 40.4129 7.20955 40.3249 7.22626 40.1267H7.27084C7.29312 39.868 7.32656 39.4772 7.3767 39.1247C7.43798 38.7285 7.47699 38.4696 7.47699 38.3046C7.54942 38.0403 7.62184 37.6549 7.6887 37.2861L7.71099 37.1484C7.73328 37.0439 7.75556 36.9558 7.77227 36.8842L7.88371 36.9888L7.93384 36.4328C7.945 36.3007 8.03414 35.7391 8.12885 35.2492C8.19571 35.1611 8.23472 35.018 8.29043 34.8308C8.32943 34.7042 8.374 34.5445 8.42414 34.3739C8.44086 34.3244 8.45757 34.2638 8.47429 34.2033L8.60243 34.8087L8.81972 33.2563C8.84758 33.0692 8.88658 32.8379 8.97015 32.5737C9.05372 32.2875 9.15959 31.9627 9.27659 31.6213L9.39359 31.2635C9.47159 31.0323 9.54959 30.7956 9.6276 30.5754C9.71674 30.3496 9.80031 30.1239 9.87274 29.9147H9.87831C9.87831 29.9147 9.90059 29.8706 9.91175 29.8431C10.0789 29.4469 10.1792 29.2321 10.285 29.0174C10.3408 28.9018 10.3965 28.7862 10.4633 28.6376L10.5135 28.5274L10.4912 28.4724C10.5246 28.3182 10.6973 27.8723 10.8143 27.5751C10.8366 27.52 10.8589 27.465 10.8756 27.41C10.9425 27.41 11.0149 27.3769 11.0929 27.2943L11.5832 26.7548L11.2712 26.7878C11.299 26.7163 11.3381 26.6282 11.377 26.5236C11.4941 26.2593 11.5776 26.0887 11.6055 25.9676C11.6779 25.852 11.7281 25.7693 11.7671 25.7088C11.8841 25.5162 11.8896 25.5051 12.0401 25.329L12.1459 25.2629L12.1014 25.1198C12.1125 25.0592 12.2128 24.8666 12.2908 24.7234C12.3799 24.5583 12.4858 24.3656 12.5526 24.206C12.7755 23.8646 12.8424 23.7985 12.8813 23.7546C12.9427 23.6885 12.976 23.6499 13.0819 23.4682L13.1433 23.5013C13.444 22.9838 13.5332 22.8076 13.4775 22.6535C13.6502 22.3837 13.7338 22.2572 13.7784 22.2022C13.8898 22.1691 13.979 22.0755 14.068 21.9599C14.2686 21.6296 14.4359 21.3268 14.5919 21.0405L14.6197 20.991C14.7923 20.6992 14.954 20.457 15.11 20.2367C15.1211 20.2258 15.1323 20.2203 15.1434 20.2092L15.0932 20.1431L15.1935 20.1982C15.3049 20.0166 15.4498 19.7964 15.6114 19.5597L16.1741 18.8054C16.6088 18.2549 17.0043 17.7375 17.2829 17.3356C17.294 17.3245 17.3051 17.3191 17.3051 17.3136C17.3107 17.3136 17.3218 17.3025 17.3275 17.297L17.2661 17.1925C17.2661 17.1925 17.2885 17.1649 17.2996 17.1539L17.3943 17.231L17.9737 16.5208C18.1019 16.5099 18.2411 16.3997 18.386 16.2731L19.5115 15.0564C19.5839 14.9794 19.6564 14.9023 19.7343 14.8197C19.9684 14.5666 20.2302 14.2802 20.6982 13.8563C20.7539 13.7902 20.8376 13.6857 20.8376 13.5646C21.1607 13.2398 21.4281 12.9865 21.6565 12.7939C21.8515 12.6342 22.0019 12.5351 22.1357 12.447L22.2304 12.3865C22.5368 12.1883 22.8043 12.0176 23.3948 11.4341C23.4227 11.4066 23.445 11.3791 23.4729 11.3515L24.4311 10.6138C24.8991 10.256 25.0997 10.0688 25.2501 9.93671L25.3616 9.83763L25.5844 9.7055C26.1304 9.3807 26.2474 9.25959 26.3867 9.12747C26.4704 9.04488 26.5539 8.96782 26.7711 8.80816C26.8046 8.80816 26.8381 8.79716 26.8714 8.79716H26.9439L28.3646 7.8613C28.6153 7.69614 28.8661 7.53098 29.1335 7.37684L29.6516 7.06855C30.1307 6.78229 30.6267 6.48501 31.1281 6.22076C31.2451 6.23178 31.3789 6.17122 31.5014 6.11617L32.2703 5.7143L33.0558 5.33444C33.6019 5.09222 34.1534 4.84449 34.6939 4.61327L36.3764 3.9912L38.02 3.4572L38.7723 3.13241C38.828 3.11588 38.8726 3.10488 38.9003 3.09938L38.9116 3.13791C39.2403 3.05534 39.4185 3.01129 39.4854 2.90119C39.5745 2.87916 39.6359 2.86266 39.6748 2.85715L39.6916 2.90669C39.6916 2.90669 39.7194 2.89569 39.7362 2.89018C41.0231 2.42225 43.4691 1.84971 45.0903 1.62951V1.66805L45.8536 1.54693C46.0263 1.5139 46.1712 1.48638 46.3161 1.45335L46.4108 1.43133C46.7062 1.36527 46.9736 1.31021 47.3859 1.27168V1.2937C48.6616 1.1836 50.1102 1.05698 51.4809 1.04597H51.7984C52.0213 1.03496 52.2442 1.02945 52.4559 1.02395L54.2833 1.10102C54.5396 1.11203 54.8183 1.13405 55.0689 1.16708H55.1135H55.1581C55.303 1.13956 55.9436 1.19461 56.4173 1.23314L57.4592 1.32673C57.7266 1.35426 57.8715 1.35426 57.9717 1.33223C58.4955 1.42582 58.7795 1.47536 59.0247 1.52492L59.4592 1.61299C59.7825 1.68456 60.2281 1.78365 61.1141 1.95981C61.3647 2.00386 61.5597 2.02587 61.7603 2.0479C61.9665 2.06992 62.1726 2.09194 62.4512 2.14149V2.22956L63.6268 2.40022C63.7606 2.45528 63.8942 2.52134 64.0559 2.59841L64.7634 2.78008L64.7802 2.71952C65.1144 2.81311 65.4877 2.92872 65.8498 3.04432C66.1897 3.16544 66.4405 3.27003 66.5574 3.32509L67.8891 3.75998C68.1063 3.82605 68.3236 3.90311 68.5353 3.98019L68.5242 4.01323C68.8251 4.11232 68.8863 4.15085 68.8919 4.15085C68.9811 4.23893 69.059 4.28298 69.6385 4.47014L70.1567 4.6353L70.6915 4.88303C66.2232 6.78779 62.1448 9.07792 59.1361 10.768L58.5567 11.0928C48.7899 16.4823 38.4045 24.4977 27.6904 34.9189C22.0299 40.402 14.9596 47.9329 10.5135 57.622C10.4243 57.8037 10.4188 57.9082 10.4188 58.0183C10.4188 59.4111 14.1294 60.4681 14.6141 60.4681C15.0988 60.4681 15.2437 60.0882 15.3049 59.7194C15.3049 58.9211 14.6252 58.7339 14.1294 58.5963C13.5443 58.4366 13.2379 58.3266 13.2379 57.8146C13.2379 57.5999 13.288 57.3742 13.4274 56.9558C14.5362 53.8455 16.4583 51.1424 18.3192 48.5221L18.8651 47.7512C19.7845 46.843 20.5367 45.8135 21.2665 44.8115C22.1357 43.6224 23.0327 42.3948 24.2139 41.3764C25.9243 39.912 27.5067 38.1999 29.0387 36.5429C31.2952 34.1096 33.4235 31.8085 35.9475 30.1845C36.3542 29.9203 36.6384 29.5789 36.9169 29.2486C37.3794 28.7036 37.775 28.2302 38.6218 28.1916H38.7388L38.8168 28.0981C41.2292 25.34 44.5388 23.0498 47.7368 20.8368C49.152 19.8569 50.6117 18.8494 51.9824 17.8035C52.2163 17.6164 52.6397 17.4017 53.0464 17.1869C53.9323 16.73 54.6956 16.3282 54.6956 15.8217C55.0746 15.6951 55.498 15.552 55.8211 15.2931C57.4201 14.093 59.1974 13.1517 60.908 12.2434C61.6155 11.869 62.3175 11.4947 63.0083 11.1038C66.6522 9.10544 69.6774 7.59705 72.5468 6.35839C72.7474 6.27032 72.9536 6.18773 73.1542 6.11066L73.7502 6.41345C73.884 6.47951 74.0176 6.54557 74.1459 6.61714L75.2658 7.24471C75.5443 7.39886 75.8228 7.55301 76.0959 7.71265L77.3996 8.53291L77.4664 8.43382L77.6169 8.61549L77.16 8.56044L78.4304 9.24857C78.5808 9.33116 78.9095 9.57888 79.2215 9.82111C79.539 10.0633 79.8623 10.3111 80.1073 10.4652L81.2495 11.368C81.4445 11.5222 81.6173 11.6708 81.7844 11.8139L82.8931 12.7443C83.0715 12.8984 83.2497 13.0637 83.4336 13.2398L83.857 13.6307L83.9016 13.6141C83.9795 13.6746 84.091 13.7738 84.1857 13.8508C84.3417 13.9885 84.5256 14.1427 84.6537 14.2363L85.9686 15.6676C86.1915 15.9152 86.4143 16.1795 86.6428 16.4438C86.8767 16.719 87.1163 16.9997 87.3671 17.2805C87.6791 17.6273 87.7961 17.7595 87.9131 17.7981C87.9633 17.8971 88.0691 18.0457 88.2864 18.3376C88.3142 18.3815 88.3477 18.4201 88.3699 18.4531L88.3365 18.4807C88.4368 18.6073 88.5315 18.7284 88.6262 18.8385C88.7822 19.0257 88.916 19.1963 89.0385 19.3669L90.2085 20.9469L90.9997 22.1085L91.0498 22.081C91.139 22.2297 91.2114 22.3562 91.2337 22.4167L91.2058 22.4389C91.3731 22.6865 91.5402 22.9508 91.7017 23.226C91.6014 23.3416 91.5457 23.5013 91.5457 23.6554V23.7876C91.1501 23.8151 91.0666 24.0574 91.0666 24.2666C91.0666 24.4152 91.1111 24.5363 91.2003 24.6189C91.3117 24.7234 91.451 24.7289 91.5457 24.7234C91.5234 24.9601 91.3172 25.1639 91.0777 25.3951C90.8994 25.5712 90.7156 25.7639 90.5929 25.9951V25.4336L90.1194 25.9071C90.0748 25.951 90.0135 25.9896 89.9467 26.0337C89.7628 26.1493 89.4898 26.331 89.4898 26.7108V26.8264L89.5233 26.8594C88.9883 26.9364 88.9382 27.2778 88.9382 27.3879C88.9382 27.4815 88.9382 27.7072 89.0886 27.8559L89.2837 28.0485L89.3116 28.021L89.3449 28.0706H89.072C89.072 28.0706 89.072 28.0926 89.072 28.1035V28.2798L89.0999 28.2907C89.0999 28.3073 89.111 28.3293 89.111 28.3457C89.1166 28.3733 89.1277 28.4008 89.1277 28.4284C88.9606 28.7146 88.7934 28.7587 88.6374 28.7972C88.5259 28.8247 88.3365 28.8743 88.2363 29.0449C88.2363 29.0119 88.2474 28.9899 88.2474 28.9569L88.2195 28.4063L87.7683 28.7641C87.4283 29.0339 87.1052 29.2872 86.8824 29.9587L86.6093 30.7626C86.5258 30.8837 86.4533 31.0048 86.392 31.1093V30.234L85.8906 30.9002C85.8349 30.9772 85.7514 31.0377 85.6622 31.0983C85.5006 31.214 85.2834 31.3736 85.2834 31.6764C85.2834 31.77 85.2834 31.9956 85.4337 32.1442L85.7012 32.4086C84.3195 34.0711 82.6758 35.6346 80.9041 37.1595C80.9654 37.0108 80.9654 36.8292 80.9598 36.6475C81.127 36.6364 81.4891 36.6089 81.5727 36.141V36.0969C81.5727 36.0585 81.5615 36.0199 81.5504 35.9759L81.6395 35.9538C82.2358 35.8052 82.5755 35.618 82.6703 35.051L82.7315 34.6711L82.3472 34.7317C81.8958 34.8033 81.6897 35.0731 81.4724 35.3537L81.2774 35.596L81.166 35.618C80.7704 35.6951 80.6144 35.9759 80.5085 36.1575C80.4974 36.1796 80.4807 36.2016 80.4695 36.2236C80.3414 36.2896 80.2021 36.3667 80.0627 36.5044C79.9681 36.598 79.7731 36.785 79.7731 37.0383C79.7731 37.0769 79.7731 37.143 79.8064 37.2145L79.6617 37.4237L79.851 37.297C79.9067 37.3797 80.0126 37.4457 80.191 37.4457H80.4695C80.5085 37.4457 80.542 37.4347 80.5753 37.4237C79.695 38.1724 78.7925 38.9101 77.8787 39.6478C77.8787 39.6312 77.8787 39.6147 77.8899 39.5983C77.9067 39.5322 77.9289 39.4716 77.9289 39.4055C77.9289 38.9486 77.5834 38.9266 77.511 38.9266C77.0821 38.9266 76.6307 39.5377 76.4525 39.7964L76.3299 39.9781C75.9677 40.0937 75.2658 40.5506 74.8311 41.0075V40.914L74.3576 41.3874C74.2795 41.4644 74.196 41.536 74.1068 41.6131C73.9342 41.7617 73.7837 41.8994 73.689 42.0425L73.6667 41.9984L73.1764 42.4829V42.5985C73.1764 43.1324 73.5496 43.149 73.5942 43.149C73.6555 43.149 73.7057 43.1435 73.7502 43.1324C73.611 43.2536 73.4884 43.3913 73.4049 43.5839L73.299 43.8261L73.5385 43.9417C73.7336 44.0353 73.9787 44.0353 74.1403 44.0353C74.7476 44.0353 76.575 43.039 76.8591 42.2572C77.9624 41.7508 78.7814 40.8093 79.5112 39.9781C80.2522 39.1303 80.8873 38.3982 81.5727 38.3982H81.7232L81.8067 38.277C82.2358 37.6439 82.8653 37.2036 83.5339 36.7355C83.8792 36.4933 84.2414 36.2401 84.5758 35.9593C85.0772 35.5465 85.8795 34.5941 86.4701 33.9005C86.6595 33.6747 86.8656 33.4324 87.0049 33.2729L87.289 33.5536V32.8875C87.289 32.7774 87.2389 32.6618 87.1609 32.5737C87.2723 32.6453 87.4172 32.6893 87.5621 32.6893C88.1415 32.6893 89.2 31.4177 91.4956 28.3843C91.9023 27.8503 92.2811 27.3494 92.5987 26.942C92.8104 26.6667 93.0221 26.386 93.2227 26.0997C93.4066 26.4685 93.5682 26.843 93.7242 27.2062C93.8134 27.41 93.8969 27.6136 93.986 27.8062C94.1142 28.0981 94.2423 28.3733 94.3593 28.621C94.454 28.8522 94.5488 29.0669 94.6435 29.2706L95.0558 30.212L95.3567 30.9443C95.3288 31.0543 95.3678 31.1974 95.4013 31.3241C95.6074 31.8416 95.7801 32.3095 95.9305 32.7334C96.0586 33.1573 96.17 33.5536 96.2871 33.9885L96.6047 35.1776C96.6994 35.5851 96.8053 36.0034 96.9167 36.4052C96.9333 36.5869 96.9668 36.8072 97.0114 37.0383C97.0448 37.2806 97.0838 37.5448 97.1284 37.8311L97.3011 38.8055C97.3512 39.0863 97.4069 39.3725 97.4459 39.6753L97.5296 40.2754C97.5908 40.7323 97.6576 41.1891 97.7078 41.6186C97.7635 42.3233 97.7914 42.8737 97.797 43.3032L97.8248 45.0373L97.8471 44.9712V45.1584L97.953 44.9822C97.9809 45.6813 97.9976 46.397 97.9585 47.1072C97.953 47.2889 97.9474 47.476 97.9419 47.6576C97.9307 48.0101 97.9251 48.3679 97.8917 48.7202L97.8248 49.4964L98.1647 49.4578C98.2816 49.4469 98.3987 49.4358 98.5157 49.4358H98.772L98.7998 49.0285C98.7998 48.9569 98.811 48.8799 98.8166 48.8083C98.9224 48.6541 98.9502 48.2577 98.9893 47.0356C99.0115 46.5952 99.0172 46.1218 99.0172 45.7034C99.0172 45.252 99.0172 44.8226 99.0505 44.6023V44.5748L98.9447 42.9123L98.9169 42.9288ZM87.0773 32.5406C86.9994 32.4746 86.8991 32.4251 86.7821 32.4251C86.7821 32.4031 86.7821 32.3811 86.7821 32.359C86.7821 32.282 86.7766 32.2159 86.7598 32.1442C86.7932 32.1498 86.821 32.1553 86.8489 32.1553C86.8712 32.1553 86.8991 32.1553 86.9213 32.1553C86.9213 32.1773 86.9157 32.1994 86.9157 32.2214C86.9157 32.3534 86.9827 32.4581 87.0773 32.5351V32.5406ZM75.639 41.536V41.6021C75.639 41.6406 75.639 41.7011 75.6502 41.7727C75.5554 41.8113 75.4496 41.8333 75.3326 41.8553C75.1877 41.8828 75.0206 41.9158 74.8646 41.9875C74.8757 41.9489 74.8813 41.8994 74.8868 41.8553C75.2658 41.7672 75.4886 41.6627 75.6446 41.536H75.639ZM76.8759 40.3139C76.8759 40.3139 76.8759 40.3084 76.8759 40.3029C76.8815 40.3029 76.887 40.3029 76.8926 40.3029C76.887 40.3029 76.8815 40.3084 76.8759 40.3139ZM77.3216 40.0331C77.3216 40.0331 77.3717 39.989 77.3941 39.9836H77.3996C77.3996 39.9836 77.3495 40.0221 77.3216 40.0331ZM74.2016 42.6976L74.3074 42.6865C74.235 42.7692 74.1403 42.8462 74.0344 42.9232C74.0622 42.8517 74.0678 42.7857 74.0678 42.7637V42.6976H74.2016ZM90.5206 26.8099C90.4704 26.7988 90.4203 26.7878 90.3645 26.7878C90.3423 26.7878 90.32 26.7878 90.2922 26.7989C90.3479 26.7383 90.398 26.6667 90.4426 26.5952C90.4537 26.6722 90.476 26.7493 90.5206 26.8099ZM91.0108 27.2667C90.9886 27.2062 90.9608 27.1511 90.9273 27.1016C91.0052 27.1292 91.0833 27.1347 91.1557 27.1347C91.1055 27.1897 91.0554 27.2337 91.0165 27.2667H91.0108ZM89.2726 17.8256C88.9883 17.4787 88.7209 17.1649 88.448 16.8566L86.8155 15.1336C86.7709 15.0125 86.6204 14.8087 86.1748 14.3077C86.0355 14.1536 85.9074 14.0105 85.7903 13.8784L85.9185 13.9169L85.0715 13.1132C84.6091 12.6783 84.1801 12.2709 83.7512 11.891L82.492 10.8616C82.1967 10.6083 81.8792 10.3826 81.5727 10.1569L81.1993 9.88717C81.0657 9.79358 80.9319 9.69449 80.7983 9.59539C80.4863 9.36419 80.1687 9.12747 79.8399 8.91827C79.5781 8.70357 79.2104 8.42281 78.6867 8.03746C78.3579 7.80074 77.9846 7.56402 77.5891 7.31077L76.6474 6.70522C76.5471 6.64466 76.4468 6.58961 76.3467 6.52905L75.2991 5.9235C75.1264 5.8189 74.9538 5.71981 74.781 5.62622C75.0596 5.54915 75.3382 5.47758 75.6222 5.40602C76.7589 5.11424 77.9344 4.81696 79.071 4.27196C79.4555 4.08479 79.8623 4.01323 80.2968 3.93614C80.8651 3.83706 81.4556 3.73246 81.9961 3.3526H83.2776C83.9183 3.3526 84.5591 3.29756 85.1775 3.24801C85.7847 3.19847 86.3586 3.14892 86.9269 3.14892C92.7771 3.14892 96.0029 6.16572 96.0029 11.6378C96.0029 15.2106 94.766 19.2403 92.6043 22.7636C92.2254 22.1416 91.8577 21.5635 91.5513 21.068L91.5792 21.046C91.4956 20.9249 91.412 20.8148 91.334 20.7102C91.2169 20.556 91.1055 20.402 90.9719 20.2037C90.9551 20.1047 90.8938 20.0166 90.8549 19.9561C90.5707 19.6036 90.3311 19.3008 90.1473 19.0532L90.1806 19.0257C89.8743 18.5632 89.5622 18.1834 89.2726 17.8256ZM41.0343 1.78365C41.0343 1.78365 41.0343 1.79467 41.0343 1.80017C41.0008 1.80568 40.9786 1.81118 40.9451 1.82218C40.9061 1.8332 40.8783 1.8332 40.8504 1.83871V1.82218L41.0343 1.78365ZM49.2856 43.9583V43.9417C49.308 43.9088 49.3247 43.8757 49.347 43.8427C49.3247 43.8811 49.308 43.9197 49.2856 43.9583ZM55.927 31.5552C55.9771 31.5222 56.0272 31.4892 56.0774 31.4561C56.0552 31.5002 56.0272 31.5497 56.005 31.5938L55.927 31.5552ZM56.3281 31.2746C56.3281 31.2746 56.3448 31.2635 56.3504 31.258L56.434 31.3296L56.3281 31.2746ZM24.6985 67.4595C25.5621 67.2339 26.3756 67.0192 27.228 67.0192C27.696 67.0192 28.0749 66.865 28.4427 66.7164C28.7156 66.6063 28.9775 66.5017 29.2672 66.4742C30.6657 66.2485 32.0419 65.8246 33.3734 65.4116C34.0866 65.1915 34.8275 64.9603 35.5407 64.7731C35.9308 64.685 36.2595 64.4317 36.5213 64.2281C36.6551 64.1234 36.8501 63.9694 36.9225 63.9638C37.5632 63.9638 38.1371 63.8261 38.6942 63.6886C38.8837 63.6445 39.0731 63.595 39.2569 63.5564C39.2236 63.6555 39.1901 63.7656 39.1901 63.8922C39.1901 63.9858 39.2068 64.0684 39.2403 64.14C38.9951 64.2501 38.8502 64.4537 38.8502 64.707C38.8502 64.8997 39.0119 65.186 39.268 65.186C39.2904 65.186 39.3071 65.1749 39.3294 65.1749C39.2458 65.3841 39.1566 65.5988 39.0731 65.808L39.0397 65.775C39.0174 65.731 38.984 65.6649 38.9171 65.5988L38.6775 65.3621L38.488 65.6374C38.4547 65.6869 38.4212 65.7199 38.3822 65.7585C38.2987 65.8355 38.1705 65.9566 38.1705 66.1989C38.1705 66.4411 38.4547 66.6117 38.7221 66.6117H38.7388C38.6608 66.7989 38.5828 66.9751 38.5104 67.1348C38.4379 66.9917 38.3154 66.865 38.1315 66.7274L37.6858 66.3971V66.9476C37.6858 67.0632 37.7136 67.1458 37.736 67.2064C37.7526 67.2504 37.7582 67.2669 37.7582 67.2889C37.7582 67.4156 37.7192 67.5367 37.6691 67.6798C37.6133 67.8449 37.552 68.0266 37.552 68.2413V68.2633C37.1008 68.7313 36.9615 69.5075 36.9392 70.1681C36.7108 70.2616 36.5548 70.5754 36.3932 70.9499L36.3597 71.0324L36.5938 71.1645H36.3207V71.3958L36.3932 71.4122C36.4545 71.5058 36.5437 71.5719 36.6606 71.6159L36.4155 72.2215C36.109 72.9921 35.8138 73.7189 35.524 74.4236C35.3346 74.4895 35.0838 74.6328 35.0838 74.974C35.0838 75.0787 35.1229 75.1832 35.1954 75.3263C35.1284 75.4915 35.0616 75.6566 35.0059 75.8218C34.9335 76.02 34.861 76.2072 34.7831 76.3833C34.5657 76.5044 34.3317 76.7301 34.3317 77.1485C34.3317 77.2146 34.3317 77.3467 34.3819 77.4954C32.3928 83.2097 32.2146 84.3328 32.0307 85.5218L32.0195 85.5879C31.8301 85.7035 31.7187 85.8906 31.7187 86.1164C31.7187 86.2595 31.7688 86.3806 31.8524 86.4631C31.8413 86.4962 31.8301 86.5292 31.819 86.5567C31.7521 86.5183 31.6797 86.4797 31.6072 86.4356C31.3509 86.287 31.0724 86.1274 30.7827 85.9788L30.7549 85.8852L30.6211 85.8521C30.0472 85.5163 29.451 85.186 28.7881 84.8282C28.582 84.7126 28.3758 84.5859 28.1584 84.4539L27.139 83.8428C27.0107 83.7711 26.8827 83.6886 26.7544 83.6061L26.7711 83.5841C26.4536 83.3418 26.0246 83.0335 25.5901 82.7307L25.3449 82.5546C25.2111 82.461 25.083 82.3674 24.9604 82.2738L24.3699 81.8114C24.2975 81.7673 24.2083 81.7067 24.1302 81.6517C24.0412 81.5911 23.9576 81.5306 23.8739 81.4976C23.7459 81.3875 23.6232 81.2774 23.4951 81.1728L23.2779 80.9856C23.0382 80.7654 22.7987 80.5507 22.5536 80.347C22.392 80.2094 22.2304 80.0718 22.0688 79.9396C21.7512 79.6754 21.4392 79.4111 21.1439 79.1359C21.0047 79.0038 20.8598 78.8772 20.7205 78.7505C20.4029 78.4697 20.1076 78.2055 19.8291 77.9193C19.5505 77.6329 19.3053 77.3743 19.0881 77.1265C19.0768 77.0275 19.01 76.9559 18.9599 76.9008C18.6423 76.598 18.3414 76.2622 18.0518 75.9374C17.9069 75.7777 17.762 75.6126 17.6171 75.453L17.0488 74.8364C17.0211 74.7979 16.9931 74.7538 16.9709 74.7208H16.9597L16.7146 74.44C16.6421 74.3354 16.5864 74.2748 16.5363 74.2308L15.9289 73.5207L15.6114 73.1408H15.6839L15.383 72.7224C15.2103 72.4857 15.0264 72.2545 14.8425 72.0343C14.7923 71.9737 14.7366 71.9076 14.6865 71.8471L14.7088 71.8306L13.94 70.559L13.7171 70.201C13.5667 69.9534 13.4107 69.7056 13.2658 69.4525L13.2101 69.48C13.1098 69.3478 13.0151 69.2102 12.9203 69.0616C17.1937 68.8964 20.8542 68.4285 24.0913 67.6302C24.3086 67.5751 24.5203 67.5201 24.732 67.4651L24.6985 67.4595ZM16.7313 74.8198L16.7535 74.8034V74.8143L16.7368 74.8254V74.8143L16.7313 74.8198ZM36.5548 89.447L36.6105 89.2267C36.6495 89.2433 36.7052 89.2653 36.772 89.2928C36.7163 89.4029 36.6105 89.4525 36.5603 89.4525L36.5548 89.447ZM42.7781 90.548L42.767 90.6141H42.6667C42.6667 90.6141 42.6667 90.5865 42.6723 90.5755L42.7725 90.548H42.7781ZM33.0503 64.2997C33.1283 64.2831 33.2118 64.2831 33.301 64.2776C33.574 64.2666 33.9472 64.25 34.2705 63.9088C34.3373 63.9528 34.4152 63.9803 34.5044 64.0024C33.9807 64.1786 33.2955 64.3822 32.3984 64.6245C32.4764 64.5639 32.5488 64.4868 32.6102 64.3877L33.0558 64.2997H33.0503ZM31.1281 64.8887C31.2229 64.8392 31.3733 64.8392 31.5349 64.8446C31.546 64.8446 31.5515 64.8446 31.5627 64.8446C31.3454 64.8997 31.117 64.9548 30.8774 65.0153L31.1281 64.8887ZM26.7879 65.731H27.7072C27.7072 65.731 27.7461 65.731 27.7685 65.731C27.3562 65.8191 26.9216 65.9127 26.4704 66.0063C26.5372 65.9566 26.604 65.9127 26.6653 65.8521L26.7879 65.731ZM14.759 20.2423C14.759 20.2423 14.7534 20.2312 14.7479 20.2312C14.7812 20.1817 14.8147 20.1322 14.8482 20.0826L14.8648 20.0992L14.759 20.2423ZM14.8704 20.0936L14.8537 20.0826C14.8537 20.0826 14.8593 20.0771 14.8648 20.0717L14.8815 20.0826L14.8704 20.0936ZM88.5873 30.0523C88.5873 30.0523 88.5538 30.0414 88.5315 30.0359C88.3978 29.9973 88.1861 29.9312 87.9576 30.0634C87.8797 30.0028 87.7905 29.9643 87.7013 29.9423C87.9019 29.7772 88.0747 29.612 88.1582 29.3642C88.1805 29.5955 88.331 29.7936 88.5816 30.0523H88.5873ZM85.8906 31.9956C85.8906 31.9956 85.9296 31.9681 85.9463 31.9572C86.0355 31.9021 86.1637 31.8141 86.2583 31.6653C86.2583 31.6764 86.264 31.6874 86.2695 31.6983L86.1469 31.8525C86.0634 31.9572 85.9742 32.0617 85.8906 32.1664V31.9956Z" fill="#231F20"/>
<path d="M83.5676 33.2784C83.5399 33.35 83.4507 33.405 83.2947 33.4931C83.0941 33.6032 82.8489 33.7463 82.6372 34.0381L82.3252 34.473H82.8657C83.2223 34.473 84.175 34.473 84.175 33.7243C84.175 33.6142 84.1472 33.5316 84.1248 33.471C84.1137 33.427 84.1026 33.4106 84.1026 33.3885V31.9572L83.5676 33.2839V33.2784Z" fill="#231F20"/>
<path d="M60.7574 51.9737C60.7128 51.9626 60.6459 51.9462 60.6181 51.9351L60.5456 51.792H60.3729C60.0274 51.792 59.8213 52.0342 59.8213 52.2709C59.8213 52.7113 60.5067 53.2233 60.8576 53.2233C61.0805 53.2233 61.3424 53.0636 61.3424 52.6067C61.3424 52.1112 60.9468 52.0176 60.7574 51.9737Z" fill="#231F20"/>
<path d="M71.3546 44.9766C71.3156 44.9932 71.2822 45.0152 71.2432 45.0372C71.2432 45.0152 71.2432 44.9932 71.2432 44.9712C71.4158 44.7895 71.6164 44.6793 71.817 44.5693C72.1958 44.3656 72.6194 44.1344 72.6194 43.4408V42.8516L72.1625 43.226C71.8783 43.4627 71.5441 43.6719 71.2265 43.8756C70.5913 44.2831 70.0398 44.6353 69.8782 45.1143L69.7835 45.3951L70.0731 45.4666C70.2013 45.4996 70.3183 45.5161 70.4241 45.5272C70.257 45.6538 70.0955 45.7858 69.9506 45.9511C68.8418 46.8539 67.4546 47.8393 66.1285 48.6706C65.655 48.7422 65.3541 49.0394 65.0867 49.3037C64.9251 49.4688 64.7691 49.6175 64.5852 49.711L63.5322 50.234H64.7134C64.847 50.234 64.9808 50.2505 65.1089 50.2671C65.2427 50.2835 65.3652 50.3001 65.471 50.3001C66.0171 50.3001 66.2901 49.9973 66.5073 49.7496C66.7024 49.5293 66.8193 49.4137 67.0478 49.4137C67.6774 49.4137 67.8891 48.9239 68.0396 48.566C68.0953 48.4339 68.1454 48.3238 68.2011 48.2411C68.2958 48.3622 68.4352 48.3953 68.5577 48.3953H68.6245L68.6858 48.3678C69.5829 47.9274 70.6303 47.3218 70.8588 46.8153C70.9423 46.7714 71.0204 46.7328 71.1039 46.6942C72.0399 46.2208 73.1041 45.6868 73.1041 44.25V43.4408L72.6026 44.0793C72.2906 44.4812 71.8337 44.7179 71.3546 44.9657V44.9766Z" fill="#231F20"/>
<path d="M62.0274 51.2468C61.6652 51.2468 61.4368 51.4285 61.3421 51.7919L61.2529 52.1332H61.8157C62.0442 52.1332 62.3116 52.023 62.6014 51.8084L63.0248 51.4946L62.5233 51.3295C62.2725 51.2468 62.1054 51.2468 62.0218 51.2468H62.0274Z" fill="#231F20"/>
<path d="M63.605 50.3662C63.5103 50.3662 63.2818 50.3662 63.1313 50.5148L63.0479 50.5974V50.713C63.0479 51.2746 63.3876 51.3957 63.6719 51.3957C64.2457 51.3957 64.3627 51.1369 64.3627 50.9168V50.8341L64.3181 50.7626C64.1232 50.4709 63.8223 50.3662 63.605 50.3662Z" fill="#231F20"/>
<path d="M127.722 86.5159C127.538 87.0329 127.493 87.3431 127.44 87.6211L126.917 90.4452C127.172 90.232 127.466 90.0252 127.754 89.8572C128.068 89.6762 128.376 89.5534 128.728 89.5534C129.082 89.5534 129.506 89.6634 129.86 90.1222C130.226 90.594 130.311 91.1562 130.311 91.6474C130.311 92.7396 129.919 93.6702 129.337 94.3422C128.448 95.3634 127.388 95.4733 126.904 95.4733C126.38 95.4733 125.72 95.344 125.099 94.9433L126.524 87.3626L125.465 87.1816V86.8714L127.316 86.5095H127.715L127.722 86.5159ZM126.139 94.5038C126.433 94.8076 126.832 94.9951 127.199 94.9951C127.407 94.9951 127.977 94.9369 128.526 94.2001C129.023 93.5409 129.292 92.5909 129.292 91.7314C129.292 91.3694 129.245 90.9622 128.997 90.6456C128.755 90.3418 128.448 90.2966 128.29 90.2966C128.094 90.2966 127.826 90.3677 127.61 90.4647C127.551 90.5034 127.401 90.5616 126.832 90.9106L126.139 94.4974V94.5038Z" fill="#231F20"/>
<path d="M132.235 89.5405C132.28 89.5275 132.346 89.5275 132.391 89.5275C132.66 89.5275 132.928 89.6503 133.111 90.0316C133.222 90.2707 133.327 90.7038 133.608 92.1126L134.007 94.1484C134.628 92.5844 135.237 91.1302 135.917 89.5792H136.145L137.108 89.8894V90.1414L136.486 90.5034C135.917 91.2272 135.636 91.7894 135.099 92.9334C134.223 94.7622 132.784 98.0001 130.802 98.0001C130.22 98.0001 129.854 97.6511 129.854 97.2052C129.854 96.8303 130.168 96.5912 130.502 96.546L131.22 97.2568C132.183 97.0889 132.718 96.281 133.313 95.1888L132.535 91.531C132.379 90.7877 132.222 90.484 132.072 90.2772L131.037 90.2061V89.8959L132.228 89.5469L132.235 89.5405Z" fill="#231F20"/>
<path d="M144.178 87.2978C144.898 87.2978 146.141 87.3689 147.031 88.1186C147.724 88.7067 147.965 89.5017 147.965 90.3935C147.965 92.0867 147.089 93.8703 145.565 94.7234C144.518 95.3115 143.322 95.3761 142.622 95.3761H140.052V94.9173L140.83 94.8591L141.026 94.6782L142.314 88.0023L142.19 87.8213L141.386 87.7632V87.3043H144.172L144.178 87.2978ZM142.073 94.8139H142.766C143.884 94.8139 144.859 94.452 145.454 93.8898C146.272 93.1207 146.794 91.5826 146.794 90.2448C146.794 89.7278 146.71 88.9717 146.148 88.4547C145.514 87.8795 144.526 87.8536 144.074 87.8536H143.407L142.066 94.8204L142.073 94.8139Z" fill="#231F20"/>
<path d="M151.131 89.573L150.738 91.2209C151.046 90.775 151.334 90.4648 151.701 90.1352C152.007 89.8703 152.38 89.5601 152.903 89.5601C153.329 89.5601 153.584 89.8121 153.584 90.2192C153.584 90.7232 153.191 90.9754 152.746 90.9754H152.687L152.374 90.3291C152.059 90.4583 151.557 90.7168 151.255 91.04C150.83 91.4859 150.68 92.074 150.602 92.5458L150.11 95.3699H149.091L150.091 90.4519L149.091 90.2709V89.9607L150.888 89.573H151.131Z" fill="#231F20"/>
<path d="M155.617 94.7233C155.617 95.1175 155.29 95.4341 154.885 95.4341C154.479 95.4341 154.166 95.1239 154.166 94.7233C154.166 94.3226 154.479 93.9995 154.899 93.9995C155.317 93.9995 155.617 94.3226 155.617 94.7233Z" fill="#231F20"/>
<path d="M164.238 87.2978C165.004 87.2978 165.749 87.3366 166.272 87.6016C166.763 87.8536 167.247 88.3448 167.247 89.2883C167.247 90.1673 166.854 90.9234 166.247 91.4534C165.749 91.8734 164.872 92.3452 163.434 92.3452C163.225 92.3452 162.937 92.3322 162.773 92.3193L162.322 94.6782L162.466 94.8591L163.244 94.9173V95.3761H160.274V94.9173L161.053 94.8591L161.25 94.6782L162.538 88.0023L162.413 87.8213L161.635 87.7632V87.3043H164.232L164.238 87.2978ZM162.884 91.7377C162.995 91.7506 163.153 91.7636 163.349 91.7636C164.349 91.7636 165.127 91.4534 165.553 90.9686C165.88 90.6067 166.103 90.0444 166.103 89.3917C166.103 89.0299 166.031 88.5258 165.58 88.1768C165.167 87.8666 164.559 87.8277 164.205 87.8277C164.022 87.8277 163.781 87.8407 163.643 87.8536L162.89 91.7377H162.884Z" fill="#231F20"/>
<path d="M170.406 86.5159L169.032 93.347C168.895 93.9868 168.895 94.2131 168.895 94.2841C168.895 94.478 168.92 94.8722 169.556 94.8722C169.712 94.8722 169.968 94.8335 170.431 94.6654V95.0274C170.019 95.1953 169.431 95.4733 168.836 95.4733C168.058 95.4733 167.92 94.9304 167.92 94.5685C167.92 94.1743 168.045 93.6766 168.116 93.2825L169.307 87.3044L168.221 87.1816V86.8714L170.085 86.5095H170.399L170.406 86.5159Z" fill="#231F20"/>
<path d="M176.875 89.5726C176.632 90.1737 176.548 90.6584 176.41 91.2918L175.972 93.418C175.9 93.8057 175.848 93.9932 175.848 94.2259C175.848 94.3616 175.86 94.536 176.004 94.6847C176.136 94.8139 176.319 94.8268 176.43 94.8268C176.568 94.8268 176.77 94.8009 177.182 94.6718V95.0336C176.875 95.1758 176.521 95.3115 176.253 95.3827C175.946 95.4667 175.763 95.4795 175.677 95.4795C175.383 95.4795 175.181 95.3956 175.043 95.1047C174.959 94.9109 174.919 94.6588 174.932 94.465C174.677 94.7429 174.434 94.9368 174.265 95.0531C173.886 95.3309 173.545 95.4731 173.081 95.4731C172.433 95.4731 172.022 95.1693 171.753 94.7364C171.485 94.3034 171.427 93.7864 171.427 93.3662C171.427 92.3322 171.793 91.2271 172.617 90.4451C173.199 89.8894 173.944 89.5533 174.88 89.5533C175.095 89.5533 175.488 89.5792 175.978 89.8312L176.22 89.5662H176.855L176.875 89.5726ZM175.109 90.051C174.364 89.9669 173.663 90.3546 173.244 90.8459C172.767 91.4145 172.466 92.384 172.466 93.2758C172.466 93.8446 172.59 94.1159 172.637 94.2C172.845 94.6071 173.232 94.7299 173.512 94.7299C173.794 94.7299 174.148 94.5877 174.35 94.452C174.566 94.3098 174.841 94.0643 174.959 93.948L175.593 90.7748L175.103 90.051H175.109Z" fill="#231F20"/>
<path d="M180.544 88.4097L180.289 89.7798H182.041V90.3097H180.19L179.556 93.5088C179.497 93.819 179.484 93.9806 179.484 94.0645C179.484 94.4006 179.596 94.7883 180.23 94.7883C180.557 94.7883 181.047 94.6785 181.387 94.5622V94.9242C180.864 95.1633 180.184 95.4928 179.478 95.4928C178.896 95.4928 178.49 95.0728 178.49 94.3877C178.49 94.0388 178.548 93.735 178.588 93.567L179.223 90.3097L178.49 90.3679V90.0059L179.38 89.6182L179.987 88.4162H180.55L180.544 88.4097Z" fill="#231F20"/>
<path d="M187.111 90.1546C187.424 90.4907 187.719 91.0659 187.719 91.8995C187.719 92.7913 187.379 93.8253 186.699 94.5491C185.881 95.4152 184.973 95.4863 184.592 95.4863C183.802 95.4863 183.337 95.1243 183.096 94.8593C182.801 94.5363 182.532 93.9805 182.532 93.1726C182.532 92.2938 182.847 91.305 183.462 90.6005C184.115 89.8444 184.946 89.5665 185.64 89.5665C186.405 89.5665 186.869 89.8896 187.111 90.1546ZM184.057 91.0593C183.691 91.6991 183.559 92.5135 183.559 93.1662C183.559 94.6332 184.298 95.0081 184.743 95.0081C185.136 95.0081 185.659 94.8013 186.072 94.2002C186.549 93.5281 186.706 92.5974 186.706 91.8801C186.706 90.161 185.94 90.0512 185.515 90.0512C185.09 90.0512 184.501 90.2773 184.063 91.0593H184.057Z" fill="#231F20"/>
<path d="M191.127 89.573L190.897 90.7298C191.605 90.1417 192.337 89.5601 193.246 89.5601C194.038 89.5601 194.279 89.9671 194.279 90.607C194.279 90.8848 194.155 91.4277 194.11 91.6539L193.698 93.4246C193.659 93.5798 193.56 94.0257 193.56 94.2325C193.56 94.5686 193.789 94.8336 194.143 94.8336C194.279 94.8336 194.482 94.8077 194.894 94.6784V95.0404C194.371 95.2924 193.861 95.4863 193.371 95.4863C192.605 95.4863 192.507 95.0145 192.507 94.7302C192.507 94.6461 192.521 94.4523 192.605 94.0775L193.128 91.8543C193.155 91.7444 193.239 91.3502 193.239 91.0593C193.239 90.6716 193.044 90.3162 192.618 90.3162C191.866 90.3162 191.245 90.9043 190.78 91.3179L190.028 95.3829H189.008L190.008 90.4648L189.008 90.2839V89.9737L190.807 89.5858H191.12L191.127 89.573Z" fill="#231F20"/>
<path d="M200.487 90.1546C200.8 90.4907 201.095 91.0659 201.095 91.8995C201.095 92.7913 200.755 93.8253 200.075 94.5491C199.257 95.4152 198.349 95.4863 197.968 95.4863C197.178 95.4863 196.713 95.1243 196.472 94.8593C196.177 94.5363 195.908 93.9805 195.908 93.1726C195.908 92.2938 196.223 91.305 196.838 90.6005C197.491 89.8444 198.322 89.5665 199.016 89.5665C199.781 89.5665 200.245 89.8896 200.487 90.1546ZM197.433 91.0593C197.067 91.6991 196.935 92.5135 196.935 93.1662C196.935 94.6332 197.682 95.0081 198.119 95.0081C198.512 95.0081 199.035 94.8013 199.448 94.2002C199.925 93.5281 200.082 92.5974 200.082 91.8801C200.082 90.161 199.316 90.0512 198.884 90.0512C198.453 90.0512 197.877 90.2773 197.439 91.0593H197.433Z" fill="#231F20"/>
<path d="M203.149 89.5407H203.194C203.731 89.5407 203.986 89.7346 204.098 90.8979L204.411 94.2068C205.144 93.3148 205.863 92.268 206.275 91.234L206.047 89.7669C206.23 89.6118 206.446 89.5407 206.668 89.5407C207.047 89.5407 207.302 89.7798 207.302 90.1934C207.302 91.1111 205.857 93.1534 205.183 93.9482L203.966 95.383H203.384C203.495 95.1309 203.554 94.8788 203.554 94.5558C203.554 94.4329 203.542 94.3036 203.528 94.1615L203.221 91.3374C203.182 90.9754 203.149 90.6136 202.855 90.3162L201.92 90.2709V89.9607L203.149 89.5666V89.5407Z" fill="#231F20"/>
<path d="M213.476 89.5726C213.235 90.1737 213.149 90.6584 213.013 91.2918L212.574 93.418C212.502 93.8057 212.449 93.9932 212.449 94.2259C212.449 94.3616 212.463 94.536 212.607 94.6847C212.737 94.8139 212.921 94.8268 213.032 94.8268C213.169 94.8268 213.371 94.8009 213.785 94.6718V95.0336C213.476 95.1758 213.124 95.3115 212.855 95.3827C212.548 95.4667 212.365 95.4795 212.28 95.4795C211.986 95.4795 211.782 95.3956 211.645 95.1047C211.56 94.9109 211.521 94.6588 211.534 94.465C211.278 94.7429 211.037 94.9368 210.867 95.0531C210.488 95.3309 210.148 95.4731 209.683 95.4731C209.035 95.4731 208.623 95.1693 208.355 94.7364C208.088 94.3034 208.028 93.7864 208.028 93.3662C208.028 92.3322 208.395 91.2271 209.218 90.4451C209.801 89.8894 210.546 89.5533 211.482 89.5533C211.698 89.5533 212.089 89.5792 212.581 89.8312L212.822 89.5662H213.457L213.476 89.5726ZM211.71 90.051C210.965 89.9669 210.265 90.3546 209.846 90.8459C209.369 91.4145 209.068 92.384 209.068 93.2758C209.068 93.8446 209.193 94.1159 209.238 94.2C209.448 94.6071 209.833 94.7299 210.115 94.7299C210.395 94.7299 210.749 94.5877 210.951 94.452C211.167 94.3098 211.443 94.0643 211.56 93.948L212.194 90.7748L211.704 90.051H211.71Z" fill="#231F20"/>
<path d="M66.3176 57.3176V58.8873L64.0663 59.0804L63.6415 59.6177L70.9307 78.9327L77.948 59.6177L77.5572 59.0804L75.1529 58.8873V57.3176H82.8753V58.8873L80.4712 59.307L71.5509 83.2222H68.8747L59.759 59.307L57.2783 58.8873V57.3176H66.3176Z" fill="#231F20"/>
<path d="M90.9116 64.4024V80.8468L91.5742 81.4595L93.6726 81.6526V83.0293H84.9053V81.6526L87.0036 81.4595L87.6663 80.8468V66.9711H84.9137V65.779L89.4504 64.4024H90.9201H90.9116ZM89.5183 55.8907C90.7587 55.8907 91.7697 56.8895 91.7697 58.1152C91.7697 59.3407 90.7587 60.3396 89.5183 60.3396C88.278 60.3396 87.267 59.3407 87.267 58.1152C87.267 56.8895 88.278 55.8907 89.5183 55.8907Z" fill="#231F20"/>
<path d="M109.295 69.3885H107.435L107.087 66.6688C105.846 66.0141 104.759 65.9386 104.258 65.9386C102.703 65.9386 101.004 66.4002 101.004 68.5827C101.004 70.228 102.287 71.2269 104.495 72.1838C107.987 73.7536 109.89 74.7525 109.89 77.6233C109.89 82.3744 105.472 83.3734 102.406 83.3734C100.273 83.3734 98.7186 82.9872 97.5547 82.5675V77.5814H99.4152L99.8824 80.8383C100.545 81.1825 101.667 81.6777 103.06 81.6777C105.693 81.6777 106.857 80.3766 106.857 78.6139C106.857 76.2718 104.258 75.4324 102.474 74.6265C99.9504 73.4765 99.1008 72.6371 98.7865 72.251C98.0474 71.3697 97.8945 70.4462 97.8945 69.6068C97.8945 64.8557 102.822 64.2429 104.759 64.2429C106.891 64.2429 108.284 64.6626 109.295 65.0488V69.3801V69.3885Z" fill="#231F20"/>
<path d="M135.667 82.1477C133.262 82.9871 130.544 83.4908 127.987 83.4908C124.844 83.4908 121.123 82.727 118.098 79.5036C116.892 78.236 114.53 75.1722 114.53 70.0013C114.53 65.2837 116.51 61.9932 118.761 60.0373C120.588 58.4257 123.646 56.856 128.378 56.856C131.674 56.856 134.197 57.6199 135.667 58.1571V64.0582H133.492L132.915 60.5746L132.413 59.8863C131.25 59.3155 129.89 58.8873 128.106 58.8873C120.774 58.8873 118.6 64.7129 118.6 70.0432C118.6 73.6444 119.645 76.3641 121.046 78.0933C122.287 79.6295 124.572 81.4679 128.608 81.4679C130.001 81.4679 131.088 81.2412 132.023 80.9726L132.643 80.3597L133.492 76.1039H135.667V82.1562V82.1477Z" fill="#231F20"/>
<path d="M139.931 81.6523L142.216 81.4594L142.88 80.8465V57.3931H139.89V56.201L144.663 54.8243H146.142V80.8465L146.838 81.4594L149.089 81.6523V83.029H139.94V81.6523H139.931Z" fill="#231F20"/>
<path d="M158.673 64.4024V80.8468L159.336 81.4595L161.435 81.6526V83.0293H152.667V81.6526L154.756 81.4595L155.419 80.8468V66.9711H152.667V65.779L157.203 64.4024H158.682H158.673ZM157.28 55.8907C158.52 55.8907 159.531 56.8895 159.531 58.1152C159.531 59.3407 158.52 60.3396 157.28 60.3396C156.04 60.3396 155.029 59.3407 155.029 58.1152C155.029 56.8895 156.04 55.8907 157.28 55.8907Z" fill="#231F20"/>
<path d="M164.798 81.6521L166.896 81.459L167.559 80.8462V66.9705H164.807V65.7786L169.343 64.4019H170.821V66.5089C171.866 65.9297 174.966 64.2508 177.218 64.2508C178.696 64.2508 182.375 64.7125 182.375 70.0344V80.8378L183.038 81.4507L185.136 81.6437V83.0203H176.606V81.6437L178.466 81.4507L179.13 80.8378V70.6808C179.13 69.0356 178.815 66.7691 175.408 66.7691C174.092 66.7691 172.656 67.0797 170.829 67.9946V80.8295L171.493 81.4423L173.353 81.6352V83.0119H164.823V81.6352L164.798 81.6521Z" fill="#231F20"/>
<path d="M194.549 64.4024V80.8468L195.212 81.4595L197.302 81.6526V83.0293H188.534V81.6526L190.632 81.4595L191.295 80.8468V66.9711H188.543V65.779L193.079 64.4024H194.558H194.549ZM193.156 55.8907C194.396 55.8907 195.407 56.8895 195.407 58.1152C195.407 59.3407 194.396 60.3396 193.156 60.3396C191.916 60.3396 190.905 59.3407 190.905 58.1152C190.905 56.8895 191.916 55.8907 193.156 55.8907Z" fill="#231F20"/>
<path d="M216 81.417C213.051 83.1379 211.038 83.3729 209.713 83.3729C204.632 83.3729 200.945 79.8893 200.945 73.8287C200.945 67.768 204.632 64.2508 210.333 64.2508C214.563 64.2508 215.957 66.3242 215.957 67.8519C215.957 69.1195 215.108 69.9589 213.859 69.9589C213.434 69.9589 212.695 69.8414 212.032 69.4217V66.2823C211.642 66.0556 211.022 65.787 210.096 65.787C209.17 65.787 207.615 66.0556 206.331 67.5497C205.049 69.044 204.505 71.344 204.505 73.4928C204.505 74.7604 204.582 81.0813 211.022 81.0813C213.035 81.0813 214.819 80.1999 215.983 79.436V81.4254L216 81.417Z" fill="#231F20"/>
</g>
</g>
<defs>
<clipPath id="clip0_321_3090">
<rect width="216" height="98" fill="white"/>
</clipPath>
</defs>
</svg>
