<svg width="189" height="86" viewBox="0 0 189 86" fill="none" xmlns="http://www.w3.org/2000/svg">
<g clip-path="url(#clip0_2001_534)">
<mask id="mask0_2001_534" style="mask-type:luminance" maskUnits="userSpaceOnUse" x="0" y="0" width="189" height="86">
<path d="M189 0H0V86H189V0Z" fill="white"/>
</mask>
<g mask="url(#mask0_2001_534)">
<path d="M5.72302 43.7787C5.62064 43.7787 5.56215 43.7401 5.44027 42.9719L5.33789 42.3149L5.43051 42.4936C5.42076 42.3488 5.41589 42.2086 5.41589 42.0733C5.41102 41.7786 5.41589 41.5082 5.44027 41.2666L5.49877 40.6433L5.65477 41.252C5.6889 41.3825 5.69377 41.5902 5.69377 41.7738C5.69377 41.8801 5.69377 41.9768 5.70352 42.0202L5.84977 42.8801L5.66452 42.4646C5.66452 42.5082 5.66452 42.5565 5.66939 42.6096C5.72789 42.8366 5.75228 42.9816 5.77665 43.1265C5.79614 43.2472 5.81565 43.3729 5.86439 43.5661V43.5855V43.6048C5.85465 43.6531 5.83515 43.7787 5.72302 43.7787Z" fill="#231F20"/>
<path d="M5.69368 38.4549L5.76681 38.1264C5.73756 38.4114 5.73756 38.7012 5.73268 38.9911C5.78143 38.5032 5.77168 38.1941 5.77168 37.8413C5.80581 37.7592 5.83018 37.6191 5.85944 37.4162L5.83993 36.4017C5.89356 36.2857 5.86919 36.8558 5.96668 36.1892C5.98132 35.7157 5.82043 36.6287 5.89356 35.851C6.00081 35.3678 6.02031 35.5176 6.05444 34.9378C6.08856 34.8606 6.08856 34.9863 6.07394 35.2133C6.09343 34.9573 6.12269 34.6191 6.17144 34.3147C6.22019 34.0104 6.25919 33.735 6.25919 33.5997C6.33231 33.3534 6.40544 32.9234 6.46881 32.5708C6.54195 32.2132 6.61995 31.933 6.65895 31.9669C6.67358 31.8074 6.79058 31.0683 6.89295 30.6093C6.85395 31.0441 6.9417 30.6093 7.09771 30.1117C7.24396 29.6141 7.40971 29.0392 7.43896 29.1648C7.46334 29.0054 7.49746 28.7832 7.57546 28.532C7.64859 28.2808 7.74609 27.9909 7.8436 27.6914C7.94597 27.3919 8.04835 27.073 8.1556 26.7639C8.2726 26.4595 8.37985 26.1647 8.47248 25.899C8.45786 25.9619 8.42373 26.0826 8.38473 26.1744C8.62848 25.585 8.72598 25.4256 8.89174 25.0537C8.84786 24.9474 9.24274 24.0391 9.41824 23.5271C9.818 22.8507 9.311 24.0005 9.48162 23.8072C9.44262 23.8072 9.5645 23.4932 9.68638 23.2082C9.81313 22.9281 9.93013 22.6671 9.84725 22.7734C10.1641 22.2662 10.1056 22.3289 10.3104 22.0874C10.2665 21.9473 10.5395 21.5802 10.7394 21.126C11.2172 20.4062 10.9393 20.9812 11.3829 20.1453C11.6364 19.7734 11.2464 20.5173 11.2464 20.5173C11.7339 19.6864 11.4073 20.0874 11.4706 19.8844C12.0752 18.9038 11.8119 19.4641 12.0557 19.1598C12.2409 18.8507 12.397 18.5752 12.5383 18.3144C12.6894 18.0632 12.8356 17.8312 12.9966 17.6139C13.0307 17.5898 13.094 17.5076 13.0356 17.6139C13.1331 17.4496 13.2647 17.2516 13.4109 17.039C13.4841 16.9328 13.567 16.8216 13.6449 16.7056C13.7327 16.5946 13.8204 16.4835 13.9082 16.3675C14.2689 15.9133 14.6297 15.4351 14.8832 15.068C14.932 15.0244 14.9612 15.0003 14.9759 14.9954C14.8491 15.0776 14.8052 15.068 14.8004 15.0293C15.0879 14.7008 15.2927 14.3868 15.4438 14.2998C15.2683 14.4979 15.2683 14.5317 15.2001 14.6331L15.4829 14.2757C15.8095 14.0148 15.0928 14.7636 15.1367 14.7974C15.4145 14.4544 15.7217 14.0776 16.0094 13.725C16.3067 13.3819 16.6041 13.0679 16.843 12.8312C16.9941 12.7781 15.7559 13.9954 16.4335 13.3868L16.0581 13.7587L15.7022 14.1453C16.3164 13.6138 15.278 14.6187 15.8533 14.1453C15.9704 14.0148 16.0727 13.9037 16.1654 13.7974C16.2628 13.696 16.3506 13.609 16.4286 13.522C16.5846 13.353 16.7162 13.2128 16.8479 13.0679C17.1111 12.7877 17.3548 12.4882 17.8717 12.0292C18.0715 11.7876 17.7546 12.0582 17.9546 11.8166C18.3006 11.464 18.5493 11.2322 18.7443 11.063C18.9442 10.8988 19.1002 10.8022 19.2318 10.7152C19.5048 10.5365 19.7242 10.4012 20.2409 9.89393C20.4993 9.61857 20.5578 9.46398 21.4012 8.86976L21.1769 9.14996C21.7084 8.73933 21.84 8.59923 21.9911 8.46879C22.1373 8.33352 22.2982 8.20308 22.8881 7.8166C22.7029 7.98568 22.0398 8.44463 22.2153 8.33835C22.9953 7.86491 22.7126 7.92771 23.2879 7.52674C23.3415 7.51708 23.3951 7.51225 23.4487 7.50741C23.7461 7.30935 24.0533 7.11127 24.3653 6.90837C24.6772 6.70547 24.9892 6.48324 25.3257 6.29483C25.9887 5.90352 26.6565 5.47839 27.3683 5.13056C27.3001 5.18853 27.066 5.33346 27.4122 5.1837C27.6316 5.06776 27.8558 4.95181 28.085 4.83104C28.2019 4.77306 28.3141 4.71509 28.4311 4.65229C28.5481 4.59914 28.67 4.546 28.7869 4.49287C29.2647 4.2803 29.7522 4.0629 30.2348 3.85517C30.7321 3.67159 31.2245 3.48801 31.7071 3.30444C31.829 3.26095 31.946 3.21748 32.0679 3.174C32.1898 3.13535 32.3116 3.0967 32.4286 3.06289C32.6675 2.99041 32.9016 2.91795 33.1307 2.84549L33.8083 2.5508C33.9692 2.49766 34.1204 2.488 33.9448 2.5508C34.6761 2.37205 33.9692 2.50249 34.3105 2.38171C34.72 2.26094 34.8662 2.26094 34.6078 2.35273C35.8558 1.88895 38.2544 1.34787 39.6487 1.18845L39.3854 1.25608C39.6535 1.21261 39.8632 1.17879 40.0436 1.14981C40.2239 1.11599 40.3702 1.08217 40.5164 1.05318C40.809 0.985549 41.0917 0.927577 41.5987 0.89376L41.4086 0.927577C42.5883 0.826126 43.8266 0.719843 45.0063 0.710181C45.2989 0.705351 45.5913 0.695688 45.8742 0.695688C46.1569 0.705351 46.4347 0.715013 46.7029 0.724674C46.971 0.739168 47.2294 0.748829 47.478 0.763323C47.7267 0.777816 47.9655 0.792309 48.1898 0.826126C48.3653 0.792309 48.9455 0.850281 49.5061 0.89376C49.6474 0.903422 49.7839 0.917915 49.9156 0.927577C50.0472 0.94207 50.1691 0.956564 50.2715 0.966225C50.486 0.985549 50.6371 0.99038 50.681 0.966225C51.3489 1.08217 51.5828 1.13048 51.89 1.18845C52.1923 1.25608 52.5628 1.34304 53.4938 1.52662C53.9911 1.61358 54.2495 1.59909 54.8638 1.72469V1.79232L55.712 1.91794C55.8535 1.9759 55.99 2.04354 56.1313 2.10635L56.7017 2.25128C56.4774 2.18364 56.2288 2.08702 56.2678 2.07736C56.7115 2.18848 57.2526 2.35273 57.6767 2.49283C58.1008 2.64259 58.408 2.78268 58.4128 2.80201L59.4512 3.12086C59.7974 3.22714 60.1337 3.36241 60.475 3.48318C60.436 3.48801 60.2312 3.42038 60.0168 3.34791C60.7822 3.60879 60.0508 3.44454 60.9869 3.74889C60.8601 3.68125 61.0746 3.73922 61.1039 3.73922C61.3428 3.85034 61.7377 4.03391 62.1715 4.23199C62.3909 4.32861 62.62 4.43007 62.8443 4.53151C63.0685 4.62813 63.2928 4.72475 63.4927 4.82621L63.3221 4.78755C63.6828 4.97114 64.0484 5.15954 64.4238 5.34795C64.609 5.44457 64.8041 5.53637 64.9942 5.63781C65.1795 5.74409 65.3696 5.85038 65.5597 5.95667C65.94 6.17406 66.3299 6.38179 66.7102 6.60884C67.0856 6.84556 67.4659 7.08711 67.851 7.32866C67.3147 6.96151 67.4854 6.97601 67.9387 7.2562L68.0801 7.42529C68.3921 7.57505 67.6267 7.10644 68.2508 7.43978C68.8016 7.83109 68.5774 7.76346 68.2508 7.56055L68.9333 8.00984C68.9626 8.05332 68.7968 7.95187 68.7383 7.94704C69.0356 8.10646 69.8596 8.80696 70.2739 9.05817L70.2983 9.10165C70.6542 9.37702 70.9613 9.61374 71.2392 9.83113C71.517 10.0534 71.751 10.2611 71.99 10.4543C72.224 10.6524 72.4531 10.8408 72.6871 11.0437C72.9259 11.2466 73.155 11.4736 73.4232 11.7249C73.4866 11.7008 73.8913 12.1065 74.2472 12.3722C74.6128 12.7684 74.9978 13.1887 75.3976 13.6283C75.7974 14.0727 76.1874 14.5607 76.6213 15.0438C77.2307 15.725 76.8309 15.2177 77.1185 15.5124C77.1185 15.5993 77.9278 16.6139 77.4793 16.1115C77.7182 16.4158 77.9278 16.6573 78.0984 16.8941C78.2691 17.1259 78.425 17.3385 78.586 17.5608C78.7516 17.7781 78.9223 18.0101 79.1271 18.2854C79.3172 18.5704 79.5415 18.899 79.8193 19.3047C79.7218 19.1115 79.5999 18.9038 79.6828 19.0004C79.8876 19.2951 80.1069 19.696 80.0533 19.6671L79.9949 19.5898C80.614 20.5077 81.2185 21.6382 81.7303 22.7396C82.0083 23.2855 82.2227 23.8362 82.4519 24.3387C82.564 24.5898 82.6761 24.8314 82.7834 25.0584C82.8809 25.2904 82.9784 25.5077 83.071 25.7059L83.0271 25.6189L83.3928 26.4546L83.5731 26.8749L83.7341 27.3001C83.9973 28.0972 83.5341 26.8363 83.6999 27.4353C83.8803 27.8942 84.0314 28.3049 84.1679 28.6914C84.2849 29.0827 84.3873 29.445 84.4848 29.7977C84.5335 29.9764 84.5822 30.1504 84.631 30.3243L84.7042 30.5851C84.7237 30.6721 84.7432 30.7639 84.7675 30.8509C84.8504 31.2036 84.9381 31.5707 85.0455 31.962C85.0601 32.1166 85.0893 32.305 85.1284 32.5128C85.1527 32.7205 85.1868 32.9524 85.2307 33.1988C85.2746 33.4451 85.3185 33.7108 85.3672 33.9814C85.4208 34.2519 85.4744 34.537 85.5086 34.8268C85.5866 35.4017 85.6744 35.991 85.7377 36.5466C85.7816 37.1022 85.8109 37.6143 85.8157 38.0394L85.8449 37.9379C85.9132 38.3728 85.8693 38.4645 85.8645 38.7882C85.8936 38.7399 85.8888 38.3148 85.9132 38.5854C85.9375 39.5081 86.001 40.4501 85.9522 41.397C85.9327 41.8704 85.9327 42.3486 85.8936 42.8221C85.8839 42.9525 85.8693 43.0829 85.8596 43.2086C85.9717 43.1941 86.0839 43.1892 86.1959 43.1845C86.2057 43.0346 86.2155 42.8898 86.2301 42.7303C86.3178 42.8318 86.347 42.1313 86.3714 41.3052C86.4202 40.4839 86.3666 39.537 86.425 39.1457L86.391 38.4308C86.3714 38.1941 86.352 37.9573 86.3324 37.7158C86.2934 37.2375 86.2691 36.7543 86.2252 36.2664C86.1716 35.7784 86.113 35.2761 86.0546 34.764C86.04 34.6335 86.0253 34.5031 86.0058 34.3775C85.9814 34.2471 85.9619 34.1167 85.9376 33.9862C85.8888 33.7205 85.84 33.4548 85.7913 33.1794C85.8059 33.9765 85.6744 32.5418 85.567 32.7012C85.4696 32.1939 85.4062 32.0055 85.4111 31.9572C85.3185 31.445 85.2307 30.9282 85.1284 30.4161C85.0942 30.2325 85.1381 30.3484 85.1868 30.503C85.2307 30.6624 85.2794 30.8606 85.2892 30.8316C85.2307 30.5561 85.1917 30.3871 85.1624 30.2808C85.1381 30.1746 85.1332 30.1263 85.1332 30.0924C85.1332 30.02 85.143 29.991 85.0552 29.6287C85.0552 29.788 84.8797 29.2663 84.7188 28.6382L84.909 29.532C84.7822 29.1552 84.7042 28.8847 84.6457 28.6624C84.5871 28.4402 84.5385 28.2759 84.4995 28.1117C84.4166 27.7783 84.3288 27.4402 84.0362 26.6962L84.2411 27.1599C83.968 26.387 83.1393 24.3338 82.6908 23.6527C82.6421 23.5125 82.5982 23.3241 82.7541 23.6527C81.9351 21.8652 80.6481 19.8217 79.8388 18.5367L79.9461 18.6429C79.7364 18.3434 79.5609 18.1357 79.3124 17.7492C79.3367 17.7588 79.4244 17.8506 79.3269 17.7105C79.205 17.5608 78.7126 16.9521 78.4446 16.5462L78.7176 16.8602C78.4543 16.4593 78.1813 16.1308 77.9375 15.8313C77.6889 15.5269 77.455 15.2563 77.2307 14.9907C76.7529 14.4834 76.2995 14.0051 75.7486 13.4205C75.7877 13.3915 75.5487 13.0969 75.2368 12.7442C74.9248 12.3915 74.5445 11.9712 74.2666 11.7104L74.2959 11.7201C73.8913 11.3336 73.5158 10.9761 73.1453 10.6476C72.7651 10.3336 72.3995 10.034 72.0387 9.73934C71.6828 9.43982 71.3025 9.17894 70.9223 8.89392C70.5372 8.61855 70.1569 8.31419 69.7231 8.034C69.4744 7.82626 69.1331 7.56538 68.7286 7.2707C68.3239 6.98084 67.8364 6.68131 67.3391 6.35764C67.2124 6.27551 67.0856 6.19822 66.9588 6.11609C66.8322 6.03878 66.6957 5.96632 66.564 5.88902C66.3008 5.73926 66.0375 5.58467 65.7791 5.43491C65.2672 5.12573 64.7455 4.86485 64.2922 4.61847C64.5652 4.77789 64.2142 4.66195 63.8778 4.50253C63.4586 4.25132 62.6347 3.99527 62.7419 3.94696L62.8979 4.01943C62.5957 3.79719 61.6841 3.38657 60.9527 3.11603L60.7919 3.174C60.3337 2.95177 59.7925 2.71022 59.2075 2.52181C58.9149 2.42519 58.6176 2.32374 58.3202 2.22712C58.1691 2.17881 58.0229 2.1305 57.8765 2.08702C57.7255 2.04837 57.5792 2.00973 57.428 1.96624C56.8382 1.81165 56.2776 1.65223 55.7949 1.53146C55.3074 1.42034 54.9077 1.31405 54.6444 1.21261C54.4006 1.17396 54.1325 1.10632 53.8595 1.07251C53.5865 1.03386 53.3135 0.99038 53.0698 0.961394L53.1088 0.908252C52.7723 0.845449 52.4799 0.792309 52.202 0.739168C51.9241 0.686026 51.6609 0.661871 51.383 0.623223C51.11 0.589406 50.8223 0.550758 50.5054 0.51211C50.3446 0.492787 50.174 0.473462 49.9936 0.449307C49.8083 0.439645 49.6182 0.425152 49.4037 0.410659L49.7498 0.391335C49.2721 0.352687 48.9698 0.372011 48.6773 0.396165C48.531 0.405827 48.3848 0.42032 48.224 0.425152C48.063 0.425152 47.8826 0.425152 47.6632 0.425152L47.405 0.328532C46.9905 0.314039 46.5713 0.299546 46.1569 0.285052L45.8449 0.275391H45.5329L44.9088 0.285052C44.4945 0.294714 44.0752 0.294714 43.6609 0.318869C43.2465 0.352687 42.8369 0.396165 42.4274 0.444475C42.4518 0.429983 42.5006 0.400997 42.7687 0.376842C41.9839 0.396165 39.751 0.647378 40.0484 0.729506C40.0143 0.628055 38.3567 0.995212 37.4841 1.20295L37.606 1.11599C36.8845 1.35754 36.8649 1.38653 35.8412 1.63773C35.6657 1.67155 35.6316 1.65706 35.7437 1.62808C35.1636 1.76817 35.2367 1.83098 34.3495 2.04354L34.7004 1.90344C33.8765 2.13533 33.94 2.12083 33.5109 2.31408C33.0088 2.50732 31.9655 2.81167 31.829 2.80684C31.7315 2.87931 31.3122 3.09187 30.8345 3.26095C30.7662 3.26579 30.932 3.18849 31.0149 3.14985C30.6785 3.27062 30.386 3.38173 30.1227 3.48801C29.8643 3.59913 29.6401 3.71508 29.4256 3.81652C28.9966 4.02909 28.6164 4.203 28.1581 4.38658C28.1337 4.37692 28.0704 4.39624 27.9923 4.43007C28.2458 4.29479 28.4945 4.19335 28.7187 4.09189C28.943 3.99044 29.1428 3.90348 29.3086 3.83101C29.6401 3.68609 29.8303 3.60396 29.7913 3.62329C29.7717 3.57497 28.9234 3.94213 29.5621 3.57014C29.2354 3.73922 28.7869 3.97111 28.3238 4.20783C27.8656 4.45421 27.3976 4.71992 26.9881 4.90834C26.9442 4.92282 26.9052 4.93731 26.871 4.94698L26.9491 4.89867C26.7638 4.99046 26.598 5.07259 26.447 5.16437C26.1934 5.29965 26.0325 5.38177 25.7936 5.51704C25.7352 5.52187 25.5012 5.64747 25.233 5.80206C24.9649 5.95183 24.6626 6.13057 24.4725 6.25619C24.5358 6.28517 24.024 6.59918 24.5261 6.34314C24.4628 6.37696 24.5944 6.29 24.8527 6.12574C24.9113 6.09193 24.9795 6.04845 25.0185 6.0243L24.9941 6.04361C25.2574 5.89385 25.5938 5.70062 25.9789 5.47839C25.6816 5.68613 25.3647 5.89385 24.9064 6.11609C24.7211 6.26585 24.531 6.44459 24.414 6.53638C24.1263 6.66682 23.7217 6.88905 23.3708 7.07745C23.0149 7.26586 22.7272 7.45911 22.6394 7.47842C22.3567 7.68616 22.0496 7.90839 21.7375 8.14028C21.4207 8.3625 21.1233 8.62338 20.8259 8.8601C20.5335 9.10165 20.2506 9.3287 20.0069 9.54127C19.7729 9.7635 19.5681 9.96156 19.4219 10.1258C19.1294 10.3964 19.0563 10.3964 18.9295 10.4833C19.0953 10.3239 19.305 10.15 19.3877 10.0582C19.2415 10.1886 19.0563 10.3529 18.8613 10.5268C18.7638 10.6138 18.6614 10.7007 18.5639 10.7877C18.4664 10.8795 18.3738 10.9712 18.2812 11.063C17.9155 11.4205 17.6084 11.7298 17.5694 11.8263C17.194 12.1548 17.2818 12.0486 17.3451 11.9761C17.3744 11.9375 17.3987 11.9133 17.35 11.9519C17.3012 11.9955 17.1843 12.0969 16.9502 12.3529L17.0624 12.2032C16.57 12.6669 16.141 13.1065 15.7461 13.5365C15.3707 13.9858 15.0197 14.4206 14.6639 14.8603C14.3177 15.3095 13.9862 15.7782 13.601 16.266C13.4061 16.5076 13.2208 16.7685 13.0209 17.039C12.8162 17.3095 12.6017 17.5898 12.3677 17.8796C12.4944 17.7154 12.5626 17.6332 12.5968 17.6091C12.47 17.7781 12.3384 17.9472 12.2166 18.126C12.0995 18.3047 11.9776 18.4835 11.8607 18.6622C11.6267 19.0245 11.3877 19.382 11.1538 19.754C10.9393 20.1309 10.7199 20.5077 10.5005 20.8893C10.3933 21.0777 10.2811 21.2662 10.1788 21.4593L9.88138 22.0439C9.68638 22.4352 9.48162 22.8218 9.29149 23.2131C9.11111 23.6092 8.93073 24.0053 8.75035 24.3967C8.66261 24.5947 8.5651 24.788 8.48223 24.9811C8.39936 25.1793 8.31647 25.3773 8.23847 25.5754C8.07272 25.9667 7.90697 26.358 7.74121 26.7445C7.40971 27.6382 7.42434 27.7542 7.2732 28.3146L7.14645 28.4885C7.06845 28.8122 7.00995 29.1407 6.93683 29.4644C6.85395 29.8074 6.76132 30.1214 6.65895 30.4306C6.57119 30.7397 6.48345 31.0441 6.39082 31.3629C6.29819 31.677 6.20556 32.0055 6.11782 32.3678C6.03981 32.7301 5.98132 33.1262 5.92769 33.5707L6.01056 33.3534C5.95206 33.6674 5.85944 34.165 5.80094 34.5755C5.74731 34.9863 5.70343 35.305 5.68393 35.2471C5.68393 35.3147 5.70343 35.4597 5.6498 35.706L5.61568 35.7206C5.59618 35.9814 5.56693 36.2423 5.54742 36.5032L5.51818 37.2906C5.45968 37.8993 5.43043 37.8462 5.3963 37.8655C5.3768 37.8752 5.36217 37.9042 5.34267 38.0394C5.32318 38.1746 5.28417 38.4211 5.2793 38.8655C5.2793 39.5322 5.32805 40.7544 5.36217 40.5033C5.37193 40.2375 5.40117 39.8221 5.4353 39.8027V40.4066C5.5328 40.5177 5.62543 40.9767 5.73268 39.5081L5.69856 38.4791L5.69368 38.4549ZM28.4896 4.49287C28.4018 4.546 28.8162 4.37692 29.0843 4.27546C28.8698 4.37209 28.6065 4.4832 28.3287 4.61364C28.2605 4.62813 28.3141 4.57016 28.4896 4.49287Z" fill="#231F20"/>
<path d="M50.9883 79.9968C50.7104 80.0355 50.4423 80.0741 50.1888 80.1128C49.8427 80.1756 49.5014 80.1949 49.1602 80.2383C48.8189 80.277 48.4678 80.3108 48.1022 80.3446C47.7317 80.3785 47.3417 80.3736 46.9079 80.3785C47.4148 80.2722 46.3228 80.3639 46.2302 80.2866C46.0742 80.2915 45.9231 80.306 45.7671 80.306H45.3039L45.6745 80.3543C45.2699 80.3446 44.8847 80.3495 44.519 80.3543C44.1534 80.3543 43.7975 80.3639 43.4514 80.3156H43.7537H44.0559C43.8024 80.3156 43.549 80.2963 43.2954 80.2819L42.5349 80.2335L43.3929 80.3302C42.569 80.3108 43.4758 80.4365 42.3984 80.3302C42.6178 80.3349 41.5842 80.2819 41.1747 80.161C40.775 80.1369 40.3606 80.1128 39.7659 80.0162C39.6147 79.9726 39.9024 79.9436 39.8049 79.9146C39.6049 79.9243 39.137 79.8373 38.6543 79.76C38.1716 79.678 37.6745 79.6055 37.4258 79.5765C37.5916 79.5959 37.611 79.5572 37.5574 79.5379L37.221 79.5186C36.8602 79.417 36.8066 79.3977 36.8749 79.3784C35.7731 79.1176 37.2015 79.5572 35.9047 79.2142C36.0072 79.2335 35.9633 79.2142 36.1777 79.2529C34.8762 78.9099 33.6524 78.6054 32.4922 78.1707C32.1754 77.9774 33.5258 78.4944 33.1503 78.3011C31.4441 77.7843 29.6549 77.0982 28.1047 76.3398L28.3874 76.4944C28.1241 76.4847 27.2612 75.8711 26.4666 75.5088C26.6568 75.6102 26.7445 75.5909 26.686 75.5765C26.179 75.2769 25.6524 74.9822 25.0528 74.6585C24.7604 74.4895 24.4532 74.301 24.1217 74.103C23.956 74.0016 23.7853 73.9 23.6098 73.7937C23.4294 73.6875 23.249 73.5764 23.0638 73.446L23.2588 73.5474C22.9809 73.3349 22.6104 73.0691 22.2302 72.7986C22.04 72.6633 21.845 72.5328 21.6695 72.3928C21.494 72.2527 21.3283 72.1223 21.182 72.0063C20.987 71.8904 20.6507 71.6247 20.831 71.8179C20.6165 71.6247 20.3971 71.4411 20.1826 71.2527C19.973 71.0595 19.7634 70.8758 19.5537 70.6971C19.1345 70.3348 18.7104 69.9966 18.3155 69.6295C17.9206 69.2672 17.5159 68.929 17.1552 68.5522C16.7895 68.1753 16.4385 67.7985 16.1119 67.4024C16.2826 67.5811 16.5361 67.8081 16.3996 67.6681C15.9803 67.2623 15.6098 66.813 15.2149 66.3878C15.2686 66.5231 15.3416 66.5811 15.5562 66.8807C15.3904 66.7357 15.0443 66.3734 14.7615 66.0497C15.3075 66.6197 14.8102 66.0014 14.625 65.7115C14.6494 65.7646 14.5617 65.6874 14.5714 65.7164C14.0741 64.9433 14.3959 65.6584 13.6695 64.6439L13.7329 64.6776C13.6598 64.5907 13.5817 64.5038 13.5087 64.4168C13.4404 64.3299 13.3672 64.238 13.299 64.1463C13.1576 63.9675 13.0163 63.7792 12.8699 63.5713C12.7969 63.3684 13.182 63.9579 13.2405 63.9579C12.831 63.383 12.3239 62.895 12.0364 62.3153C12.2119 62.5617 12.4459 62.924 12.6408 63.1559C12.4654 62.8564 12.3678 62.6873 12.2801 62.5376C12.1874 62.3926 12.1095 62.267 11.973 62.0448L11.9973 62.0883C11.7926 61.7452 11.5781 61.4119 11.3782 61.0689C11.4221 61.1607 11.4708 61.2477 11.5245 61.3347C11.2222 61.0012 11.0028 60.6099 10.7542 60.1896C10.6323 59.9771 10.5056 59.7598 10.3691 59.5278C10.2423 59.2911 10.1058 59.0496 9.94495 58.7935C10.5592 59.779 10.0814 58.9385 10.179 58.9867C10.0571 58.7066 9.86207 58.291 9.94007 58.3973C9.78895 58.1606 9.68657 57.948 9.57931 57.7113C9.47695 57.4698 9.35994 57.2041 9.16007 56.8563C9.16007 56.8176 8.91143 56.3104 9.01381 56.4021C8.69693 55.7451 9.05281 56.5712 9.00406 56.5278C8.47267 55.5278 8.07292 54.0591 7.47328 52.5518C7.24415 51.8948 7.1174 51.4987 6.97602 51.1218C6.90777 50.9334 6.8444 50.7451 6.7664 50.5277C6.69815 50.3102 6.62989 50.0591 6.55189 49.7451C6.48364 49.3102 6.7079 50.0735 6.7079 50.0735C6.64452 49.7256 6.58115 49.4262 6.50801 49.1266C6.43976 48.8319 6.35689 48.542 6.29351 48.2184C6.33252 48.3489 6.32764 48.2087 6.31301 48.0059C6.21064 47.4841 6.17163 47.6677 6.07901 46.972C6.12288 47.088 6.18626 47.2329 6.25451 47.4793C6.18626 47.1749 6.11801 46.8706 6.04976 46.5614C5.99613 46.2522 5.9425 45.9381 5.88887 45.6194C5.90351 45.4454 5.99126 46.001 6.04488 46.2232C5.93763 45.5034 5.76212 44.3536 5.7085 44.1313L5.71826 44.4792C5.72313 44.3971 5.767 44.5034 5.79138 44.6531C5.91813 45.2667 5.884 45.5517 5.86938 45.5904L5.79625 45.1314C5.767 45.3729 5.83037 45.8367 5.91813 46.3537C6.00588 46.8706 6.16189 47.431 6.23501 47.8899L6.07901 47.5227L6.32276 48.4503C6.32764 48.5517 6.33252 48.6387 6.31301 48.6436C6.29839 48.6483 6.25938 48.5759 6.21551 48.3489C6.30326 49.0155 6.37638 48.9238 6.45439 49.4938C6.45927 49.5566 6.45439 49.5325 6.43489 49.4745L6.61039 50.1074C6.56164 49.9865 6.57627 50.2281 6.49339 49.8319C6.55189 50.1218 6.60064 50.3827 6.66889 50.6146C6.73714 50.8465 6.80539 51.0494 6.86389 51.233C6.98577 51.5953 7.07353 51.8707 7.10277 52.0977L7.06865 52.006C7.18565 52.3973 7.26366 52.6001 7.30752 52.6967C7.3514 52.7982 7.36115 52.803 7.3709 52.7934C7.39041 52.774 7.39528 52.7064 7.62929 53.2765L7.74141 54.1075L7.85354 54.2379C7.91204 54.3973 8.02904 54.7065 7.98516 54.6582C8.25817 55.2234 7.97054 54.547 8.14604 54.8708C8.27279 55.2572 8.47267 55.7789 8.66767 56.2185C8.86756 56.6534 9.0333 57.0205 9.02356 57.1268C9.18931 57.3731 8.73593 56.407 9.12594 57.18C9.12594 57.3153 9.23319 57.5423 9.37457 57.8224C9.52569 58.0979 9.71581 58.4167 9.86207 58.7597C9.70607 58.5857 9.40868 57.9433 9.70607 58.6293C9.85233 58.808 10.0132 59.1269 10.1741 59.4795C10.3398 59.8273 10.53 60.1848 10.6957 60.4505C10.7396 60.4457 10.9151 60.7355 11.1491 61.1365C11.3929 61.5375 11.7195 62.0351 12.0119 62.4699C11.9389 62.4409 13.0893 64.1318 13.6792 64.9144L13.65 64.8999C13.7378 64.9482 13.9376 65.1752 14.1716 65.4603C14.2887 65.6052 14.4154 65.7598 14.5421 65.9144C14.6689 66.0738 14.8054 66.2139 14.9273 66.3541C14.8737 66.3637 14.7664 66.2767 14.4934 65.9869C14.6397 66.1656 14.7956 66.3347 14.9467 66.5087C15.0735 66.6149 15.2247 66.7695 15.5269 67.1028L15.3661 67.0111C15.5172 67.185 15.6732 67.354 15.834 67.528C16.0047 67.6923 16.1753 67.8613 16.3508 68.0353C16.5263 68.2091 16.7115 68.3927 16.8969 68.586C16.9895 68.6826 17.0821 68.784 17.1796 68.8855C17.2819 68.9869 17.3843 69.0884 17.4867 69.1899C17.5745 69.1946 16.9115 68.4362 17.8475 69.2672C17.8621 69.3203 17.8572 69.3879 17.6134 69.1705C17.6963 69.243 17.9108 69.4169 18.0571 69.5715L17.6573 69.2623C18.0327 69.6488 17.8914 69.4266 18.2034 69.726C18.1692 69.7502 18.413 69.9676 18.3448 69.9483C18.2619 69.8758 18.0815 69.6778 17.9498 69.5763C18.1254 69.7455 18.3155 69.9338 18.4764 70.1029C18.6372 70.2719 18.7786 70.4024 18.842 70.4798C18.8273 70.4314 18.881 70.4362 19.154 70.6681C19.856 71.2672 19.3587 70.9097 19.7536 71.2768C19.9389 71.4072 20.3825 71.7938 20.4361 71.7502C20.6507 71.9145 20.6701 71.9677 20.7433 72.045C20.9431 72.1802 21.377 72.5281 21.7329 72.7744C22.0888 73.016 22.3471 73.1803 22.1424 73.0015L22.045 72.929L22.1083 72.9726C22.4398 73.1851 22.7665 73.4073 23.0931 73.6392C23.4245 73.8663 23.7707 74.0789 24.107 74.3059C24.775 74.7648 25.477 75.1706 26.1595 75.5426L26.1448 75.5619C26.5495 75.789 27.0175 76.0064 27.4514 76.2238C27.8853 76.4364 28.2851 76.6392 28.6019 76.7455C28.8505 76.8567 29.1771 77.0451 29.0602 77.0209C29.3868 77.1561 29.572 77.2335 29.7866 77.3253C30.0011 77.4218 30.2594 77.5233 30.7275 77.7263C30.0498 77.4991 30.9469 77.847 30.0351 77.4847C30.8883 77.8374 31.0687 77.9533 32.0193 78.248C31.683 78.19 32.6579 78.533 33.0773 78.6586L32.4775 78.4171C32.9456 78.5668 33.3551 78.7069 33.7695 78.8519L33.5209 78.8422C33.9644 79.0113 34.4032 79.1224 34.8176 79.2335C35.2369 79.3397 35.6317 79.4509 36.0266 79.5137C36.4167 79.5862 36.7969 79.6635 37.1625 79.7456C37.3429 79.789 37.5233 79.8326 37.7037 79.876C37.884 79.9146 38.0596 79.9582 38.2351 80.0065C38.7372 80.0452 37.2308 79.7939 37.6793 79.8132C38.5324 79.9726 39.41 80.2335 39.6781 80.277C40.268 80.3688 40.5507 80.3785 40.8334 80.3881C40.9749 80.3881 41.1211 80.3978 41.3064 80.4123C41.4916 80.4316 41.7207 80.4509 42.0328 80.4799C41.8768 80.4412 41.7353 80.3639 42.6617 80.4123C43.5245 80.4848 43.7195 80.6006 43.1686 80.5765C42.959 80.562 42.8615 80.5475 42.8713 80.5379C42.5885 80.5282 42.2229 80.5089 42.5642 80.562L42.6811 80.5475C42.8956 80.5765 43.3003 80.6152 43.622 80.6442C43.9389 80.6732 44.168 80.6779 44.0266 80.6973C44.6848 80.6876 44.3094 80.6635 43.822 80.6393C44.3777 80.6732 44.8165 80.6828 45.2551 80.6925C45.4745 80.6925 45.6988 80.7069 45.9377 80.7022C46.1766 80.7022 46.43 80.6973 46.7177 80.6925C46.5325 80.6828 46.3667 80.6586 46.5471 80.6538C47.3905 80.649 47.5758 80.6296 47.6927 80.6103C47.8097 80.591 47.8585 80.5716 48.4289 80.5186C49.0773 80.5089 48.2047 80.6296 49.3454 80.5089C50.0474 80.4799 49.5014 80.562 49.2235 80.6055C49.4868 80.5718 49.7403 80.5523 49.9792 80.5331C50.218 80.5041 50.452 80.4799 50.6665 80.4606C50.8127 80.4461 50.9492 80.4365 51.0809 80.4268C51.0321 80.2819 50.998 80.132 50.9737 79.9823" fill="#231F20"/>
<path d="M5.70843 44.3876L5.66455 44.0011L5.87419 43.9624C5.89856 44.0542 5.90831 44.204 5.92293 44.3393V44.3683L5.7133 44.3876H5.70843Z" fill="#231F20"/>
<path d="M52.1047 24.6429C51.4417 25.5946 50.9005 26.5512 50.3009 27.6236C50.3009 28.7589 47.8341 31.2613 47.8341 31.6769V32.0343C47.8341 32.4498 47.6537 32.8121 47.5318 32.9281C46.2692 33.3435 46.0254 37.16 44.2217 38.3532C43.6221 38.7688 43.8024 39.4258 43.6221 39.962C43.3782 40.735 42.7786 41.2133 42.4763 41.9282C42.3545 42.3438 42.4763 42.9428 41.9352 43.1795V43.3002C41.9352 43.8365 39.6489 48.2472 37.6014 52.9575C38.0839 52.9575 38.8639 52.4792 39.3466 52.3005C39.1077 52.8946 38.5033 52.9575 38.0254 53.1362H38.0839C37.8451 53.2569 37.6014 53.3149 37.421 53.4358C37.5428 53.4937 37.6598 53.4937 37.7817 53.4937C37.8402 53.4937 37.9621 53.4937 38.0839 53.3149C38.2643 53.3149 38.3229 53.3729 38.3229 53.4358C38.3229 53.6145 37.6598 54.2087 37.1187 54.2087C33.5696 62.1412 29.5379 72.5762 27.973 78.7165C27.973 78.7165 27.8512 78.8372 27.7341 78.8372C27.6172 78.8372 27.5537 78.7792 27.5537 78.3589C27.4318 78.5376 27.5537 78.7165 27.2515 78.7165C27.31 77.8227 27.8512 76.5666 28.1533 75.7357C28.0315 75.7357 27.973 75.6777 27.973 75.557C27.973 75.4361 28.0315 75.3202 28.2168 75.2574C28.3972 74.1221 28.4556 73.3492 30.3228 67.9819C30.2643 67.8612 30.2643 67.7452 30.2643 67.6823C30.2643 67.5036 30.3228 67.3249 30.5666 67.2041V67.262C30.747 66.9046 30.8689 66.4843 31.0492 66.0688C30.9858 65.948 30.9273 65.8273 30.9273 65.7693C30.9273 65.5905 31.0492 65.5326 31.2881 65.4698L31.2296 65.5277C31.6489 64.5132 32.0729 63.4408 32.5507 62.2475H32.4288C32.3704 62.3683 32.3704 62.605 32.2485 62.605C32.1265 62.605 32.0096 62.5422 32.0096 62.4262C32.0096 62.4842 32.2485 61.7692 32.4288 61.7692H32.5507C32.5507 61.291 32.6092 60.3972 33.0919 59.9817V59.861C33.0919 59.5614 33.2723 59.3247 33.2723 59.0252C33.2723 58.9044 33.2088 58.8465 33.2088 58.7257C33.4526 58.9044 33.5111 59.0252 33.5111 59.2039C33.5111 59.3827 33.4526 59.5614 33.4526 59.6822V59.803C33.6915 59.803 35.1394 55.9286 35.5586 54.972C35.5001 54.972 35.4368 54.9091 35.3782 54.9091C35.2564 55.03 35.1345 55.2087 35.0175 55.3874C35.0175 55.5083 35.0809 55.5661 35.0809 55.629C35.0809 55.9286 34.9005 56.1073 34.6616 56.286C34.5398 56.228 34.5398 56.1073 34.5398 56.0493C34.5398 55.8706 34.6616 55.6918 34.6616 55.571V55.4503C33.8816 55.571 33.1552 55.8657 32.3118 55.8657C32.0096 55.8657 31.5904 56.4599 31.0492 56.5807C29.2455 57.059 27.4368 57.7739 25.5744 58.0735C24.9748 58.1315 24.4922 58.5518 23.8292 58.5518C22.8689 58.5518 21.962 58.8512 21.0016 59.088C16.9115 60.1025 12.4556 60.3972 8.18505 60.3972C6.80054 60.3972 5.53788 60.2764 4.09486 60.2764H3.07109C2.2277 60.2764 1.38432 59.9769 0.482422 59.7402C0.721301 59.5035 0.901679 59.4407 1.14543 59.4407C3.79261 59.4407 6.49828 59.6194 9.26733 59.6194H9.62807C9.80845 59.6194 9.93033 59.6194 10.0473 59.6774C10.1058 59.6774 9.92546 59.8561 9.98883 59.9141C11.193 59.8561 12.3337 59.1991 13.5379 59.1991C13.7183 59.1991 13.8987 59.2571 14.079 59.2571C14.2009 59.2571 14.3179 59.1991 14.4398 59.1991C14.4983 59.1991 15.0394 59.4358 15.4636 59.4358C16.424 59.4358 18.9541 59.1991 18.9541 58.7208C18.7153 58.7208 18.5934 58.6629 18.5934 58.6001C18.5934 58.2426 20.0364 58.2426 20.6993 58.1218C20.6993 58.6001 20.2168 58.2426 20.2168 58.5421C20.3972 58.6001 20.5775 58.6629 20.7579 58.6629C21.4209 58.6629 22.0206 58.2474 22.6835 58.2474C22.625 58.2474 31.3514 56.5179 31.8926 55.5661C33.0333 55.3294 34.179 54.972 35.3246 54.3729C35.2662 54.3729 35.1442 54.315 35.0858 54.315C34.842 54.315 34.725 54.4937 34.4227 54.4937H34.3008C34.9005 53.8367 35.8658 53.7208 35.9242 52.6435C35.9828 52.7642 36.0461 52.8802 36.0461 52.9429C36.0461 53.1217 35.9242 53.3005 35.9242 53.4212C35.9242 53.4792 35.9242 53.5419 35.9828 53.5999C36.0413 53.5372 36.1046 53.5372 36.1632 53.5372C37.3088 50.5564 38.8737 47.2762 40.4971 43.3389C39.8974 44.7688 38.8103 47.5129 38.1522 47.8704C39.5367 44.7688 40.9212 41.7882 42.4227 38.7447C42.4227 38.7832 42.4423 38.8235 42.4813 38.8654C42.5398 38.6867 42.6031 38.5079 42.6617 38.3291C44.5288 34.6914 46.3326 31.1744 48.4386 27.7154C48.5605 27.7734 48.6189 27.7734 48.7409 27.8362C46.8153 31.416 44.8311 34.933 42.9054 38.4499L42.4227 40.5369C44.5873 36.0054 47.0541 31.8895 49.4039 27.4787C49.3405 27.5995 51.8706 24.0197 51.8706 23.1259C51.2077 23.3627 50.7884 26.3482 48.6824 27.5415C49.4039 25.812 50.4862 24.2613 51.5099 22.5897C52.5921 20.9182 54.8786 18.0582 54.8786 17.0437C54.8786 16.092 56.5653 14.121 57.7062 14.121C58.2473 14.121 58.9687 14.6572 58.9687 15.4929C58.9687 15.6717 57.7647 17.5799 56.9212 18.3577C56.8628 18.2998 56.8628 18.179 56.8628 18.1162C56.8628 17.8167 57.1065 17.5799 57.1065 17.2804V17.1017C54.7567 19.3094 53.8548 22.1115 52.1096 24.6139M85.5624 11.3431C85.382 15.8166 83.5149 19.9906 80.8092 23.5075C79.5465 25.1163 77.1967 28.4594 76.5971 28.4594C76.4752 28.4594 76.2949 28.4014 76.2949 28.2807C76.2949 28.2227 76.4168 28.1019 76.4168 27.9811C76.4168 27.9231 76.3582 27.9231 76.2949 27.9231C76.2315 27.9231 76.1145 27.9811 75.9926 27.9811C75.9341 27.9811 75.6904 27.8604 75.6904 27.6236C75.6904 27.5028 76.3533 26.4932 76.5923 26.4932C76.7141 26.4932 76.836 26.5512 76.953 26.7299C77.0115 26.6091 77.1334 26.5512 77.1919 26.5512C77.3138 26.5512 77.4356 26.6091 77.4942 26.6091C77.7963 26.6091 78.6398 25.7733 78.6982 25.2999C78.3375 25.5366 77.9767 25.8362 77.8549 26.3723C77.5526 26.0729 77.3723 25.8942 77.3723 25.7153C77.3723 25.3579 77.8548 25.7153 78.2156 25.0004C78.2156 24.8796 78.1571 24.7588 78.1571 24.6429C78.1571 24.7637 78.8202 23.7491 79.059 23.7491C79.2394 23.7491 79.4198 23.9278 79.4198 24.1646C79.4198 24.4013 78.8786 24.5221 78.8786 24.9424C79.3613 24.9424 79.4832 24.5849 79.6001 24.2274C80.1997 23.9907 82.1889 20.8892 82.4277 19.638V19.696C82.4277 19.5171 82.4277 19.3384 82.4862 19.2177C82.1839 19.8119 80.5605 23.5704 79.7172 23.5704C79.5953 23.5704 79.3564 23.4497 79.3564 23.2708C79.3564 22.6138 80.3168 22.3192 80.3168 21.6622C80.3168 21.2467 79.8976 21.6622 79.8976 21.3046C79.8976 21.1259 80.0194 21.1259 80.1364 21.1259H80.3168V20.7684C80.3168 20.6476 80.3753 20.4689 80.5556 20.4689C80.6142 20.4689 80.6775 20.5269 80.6775 20.5896C80.6775 20.6525 80.6191 20.7105 80.6191 20.8312C80.6191 20.8699 80.6385 20.9101 80.6775 20.952C82.7836 17.8505 84.2267 13.9133 84.2267 10.2175C84.2267 5.32849 81.2772 2.52651 76.0413 2.52651C75.0176 2.52651 73.9353 2.70526 72.8531 2.70526H71.6489C70.864 3.29948 69.9037 3.12073 69.0602 3.54103C67.1931 4.43476 65.2089 4.55554 63.3466 5.39131C60.4557 6.64253 57.6915 8.07251 54.981 9.56529C52.875 10.7586 50.647 11.7731 48.6628 13.261C48.3606 13.5026 47.9413 13.6185 47.5806 13.7393V13.918C47.5806 14.3963 45.8938 14.9906 45.2942 15.4688C41.3843 18.4495 36.8115 21.0148 33.7402 24.5317C32.4191 24.5897 32.1753 25.725 31.2735 26.3192C27.4807 28.7637 24.5946 33.0585 20.9822 36.16C19.0565 37.8315 18.0327 40.0345 16.2875 41.764C14.4837 44.3293 12.558 46.8897 11.4708 49.9333C11.349 50.2907 11.2905 50.5274 11.2905 50.769C11.2905 52.0202 13.0942 51.368 13.0942 52.4405C13.0358 52.798 12.9139 52.856 12.7335 52.856C12.2508 52.856 9.30632 51.8995 9.30632 50.9477C9.30632 50.8897 9.30632 50.827 9.36482 50.7062C12.9139 42.9524 18.3301 36.6915 24.3508 30.8507C32.0535 23.3385 41.5014 15.406 51.31 9.98076C56.7263 6.94205 66.413 1.33325 75.0176 1.33325C78.3278 1.33325 81.1553 1.99027 83.2613 4.61351C84.1047 5.68599 84.407 6.75847 84.9482 7.89376C85.4307 9.02905 85.5478 10.2175 85.5478 11.3528M16.4824 59.1074H16.1801C16.0583 59.1074 15.9364 59.1074 15.8194 59.1654C16.0583 58.9865 16.3605 58.8078 16.6628 58.8078C16.8432 58.8078 16.9651 58.8078 17.1455 58.8658C16.9017 59.0445 16.7263 59.1025 16.4824 59.1025M23.1613 57.6097C22.7421 58.0252 22.1961 58.1459 21.655 58.1459C22.0157 57.6676 22.6202 57.7305 23.1613 57.6097ZM23.5221 32.3291C23.2832 32.5078 22.9809 32.6865 22.859 32.9861C23.3417 32.9861 23.5221 32.8073 23.5221 32.3291ZM24.3655 57.1943C24.424 57.1943 24.5459 57.2522 24.6677 57.315C24.4873 57.4358 24.3655 57.4358 24.2484 57.4358H24.0096C24.1314 57.315 24.2484 57.199 24.3704 57.199M26.0571 29.9473C25.6379 30.184 25.0333 30.5464 24.9748 30.899C25.3356 30.899 25.516 30.7203 25.516 30.3629C25.8183 30.3049 26.0571 30.3629 26.0571 29.9473ZM27.1394 56.7209C27.3831 56.4793 27.6805 56.3006 27.9828 56.3006C28.1046 56.3006 28.2265 56.3006 28.3436 56.3633C28.0413 56.8416 27.5001 56.542 27.1394 56.7209ZM28.0413 28.0971C27.9828 28.0971 27.8609 28.0391 27.8609 28.0391C27.622 28.0391 27.6805 28.3387 27.622 28.4545C27.8609 28.4545 27.9828 28.3338 28.0413 28.0971ZM29.6062 55.8271C29.6647 55.8271 29.728 55.885 29.8451 55.885C29.5428 56.2426 29.182 56.1217 28.8798 56.1846C29.0602 56.0058 29.2991 55.8271 29.6014 55.8271M30.4447 55.9479C30.2643 55.9479 30.0839 55.8899 30.0839 55.8271C30.0839 55.5276 31.5269 55.1701 32.1315 55.1701H32.4337C32.19 55.228 31.9511 55.3488 31.7122 55.4696C31.293 55.6483 30.8103 55.6483 30.4495 55.9479M32.3752 24.4013V24.2226C32.1364 24.4013 31.7756 24.4013 31.7756 24.7009C31.7756 24.8216 31.7756 24.8796 31.8341 25.0004C32.0145 24.8216 32.3752 24.7009 32.3752 24.4013ZM32.9164 55.1121C32.8579 55.1121 32.7945 55.0541 32.7945 54.8754C32.7945 54.8754 33.3356 54.5178 33.7598 54.5178C33.8816 54.5178 34.062 54.5178 34.3008 54.5758C33.7012 54.7545 33.4575 54.9334 33.2771 54.9334C33.1552 54.9334 33.0333 55.1121 32.9164 55.1121ZM33.4575 23.5655C33.3356 23.5075 33.2771 23.4448 33.1552 23.4448C33.0967 23.4448 32.9115 23.6235 32.9115 23.7443C32.9115 23.8023 32.97 23.8651 33.0919 23.8651C33.2137 23.8071 33.3307 23.6864 33.4526 23.5655M33.8719 58.2088C33.75 58.2088 33.6282 58.1508 33.6282 58.0879C33.6282 57.9092 33.75 57.9092 33.8719 57.7305C33.9303 57.7885 33.9303 57.8513 33.9938 57.9092C33.9938 58.03 33.9938 58.1459 33.8719 58.2088ZM34.3545 56.9576C34.296 56.9576 34.2326 56.8367 34.2326 56.7787C34.2326 56.658 34.2911 56.542 34.4715 56.4793C34.5301 56.5373 34.6519 56.6 34.6519 56.6C34.5301 56.7209 34.5885 56.9576 34.3497 56.9576M35.5537 21.8361C35.0126 21.8361 34.8908 22.1356 34.4081 22.3144C34.53 22.3723 34.6519 22.4351 34.7104 22.4351C34.9493 22.4351 35.0712 22.1984 35.193 22.1984C35.3149 22.0776 35.4319 21.9616 35.5537 21.8409M37.2991 20.2322C36.6945 20.5317 36.0949 20.8892 35.7341 21.4255H35.9145C36.3338 21.4255 36.636 21.1887 36.8164 20.7684C37.1772 20.7684 37.2991 20.5897 37.2991 20.2322ZM39.9462 52.6725C40.0047 52.6725 40.1851 52.7303 40.1851 52.7932C40.1851 52.9719 39.1613 53.2715 38.6202 53.4502C38.7421 53.0928 39.0394 52.9719 39.405 52.9719H39.5854C39.7073 52.9139 39.8244 52.6725 39.9462 52.6725ZM45.182 50.3438C45.0602 50.7014 44.8798 50.7593 44.6995 50.7593H44.3972C44.3972 50.7014 41.8085 52.7256 40.6044 52.7256C40.5459 52.7256 40.424 52.6676 40.424 52.5468C40.424 52.5468 40.7847 52.1313 40.8432 52.1313H40.6628L40.7214 52.0733C40.541 52.0733 40.3606 52.2522 40.2387 52.2522C40.1803 52.2522 40.1168 52.1942 40.0584 52.0154C40.0584 51.8366 40.2387 51.7787 40.4776 51.7787H40.7165C40.9603 51.7787 41.1991 51.4792 41.5014 51.4792C41.6233 51.4792 41.6818 51.542 41.8037 51.5999C41.9255 51.4212 41.8621 51.0057 42.0425 51.0057C42.101 51.0057 42.3448 51.484 42.5837 51.484C42.7056 51.484 42.886 51.3632 43.2466 51.0686C43.1248 51.0106 42.8859 51.0106 42.8859 50.8897C42.8859 50.5903 43.3052 50.3535 43.4904 50.3535C43.7293 50.3535 43.9096 50.4743 43.9096 50.5323C43.9096 50.653 43.7293 50.769 43.7293 50.8897C43.9682 50.769 44.2119 50.653 44.3923 50.5903C44.636 50.5323 44.875 50.4694 45.1772 50.3487M42.6519 16.5365C42.5934 16.4156 42.5934 16.2998 42.5934 16.2369C42.3545 16.3577 42.0522 16.4156 41.9303 16.7152C42.1693 16.6572 42.413 16.5945 42.6519 16.5365ZM49.7549 47.9042C49.8767 47.9042 49.9938 47.9622 49.9938 48.1409C49.8134 48.1409 49.6915 48.1409 49.5746 48.0829C49.0334 48.9767 48.19 49.2134 47.2881 49.2762C47.6489 48.9767 46.3229 50.2907 45.8451 50.2907C45.7866 50.2907 45.3039 49.9333 45.3039 49.8124C45.3039 49.6337 45.6062 49.5757 45.6647 49.455C45.6647 49.397 45.728 49.397 45.728 49.397C45.7866 49.397 45.9084 49.5178 46.0303 49.5178C45.9718 49.6385 45.9084 49.6965 45.8499 49.8173C46.0303 49.8173 46.2107 49.6385 46.3911 49.6385C46.4495 49.6385 46.513 49.6965 46.5715 49.6965C46.6934 49.397 46.8737 48.9235 47.1711 48.9235C47.2296 48.9235 47.293 48.9235 47.41 48.9815C48.2533 48.682 48.853 48.3245 49.6379 47.9091H49.7598L49.7549 47.9042ZM51.0809 47.1265C51.0419 47.4066 50.7413 47.6658 50.179 47.9042C50.3594 47.3679 50.7786 47.3679 51.0809 47.1265ZM53.4258 46.1699C53.4258 46.3486 53.3674 46.4694 53.2455 46.4694C53.0651 46.4694 52.5824 46.1119 52.5824 45.8752C52.5824 45.8172 52.6409 45.6964 52.8213 45.6964C52.9432 45.9332 53.4258 45.7544 53.4258 46.1747M53.0651 21.4303C53.0651 21.3723 53.0651 21.2515 53.0066 21.1936C52.948 21.3723 52.7043 21.4303 52.7043 21.6718C52.7043 21.7298 52.7628 21.7298 52.7628 21.7926C53.0017 21.7346 53.0651 21.551 53.0651 21.4351M54.2692 45.2278C54.3277 45.2278 54.4495 45.2278 54.6299 45.2858C54.3911 45.4646 54.2107 45.5226 54.0889 45.5226H53.9085C53.967 45.2858 54.0888 45.223 54.2692 45.223M55.6537 44.4452C55.7756 44.4452 55.956 44.5031 56.0778 44.6867C56.0778 44.8655 55.839 44.8655 55.7172 44.8655C55.5368 44.8655 55.4149 44.8075 55.4149 44.508C55.4734 44.45 55.5953 44.4501 55.6537 44.4501M63.7172 38.8461C63.7172 40.0973 62.6934 40.4548 61.7915 40.933C61.7915 41.3486 59.9877 42.2423 59.9877 42.2423C59.8658 42.2423 59.8073 42.1843 59.8073 41.9427C59.2077 42.1215 59.3881 43.1359 58.6666 43.1359C58.0035 43.1359 58.0035 43.9138 57.282 43.9138C57.1016 43.9138 56.8628 43.8558 56.619 43.8558C57.1016 43.6191 57.3405 43.0201 57.945 42.9621C59.0858 42.2471 60.3533 41.3533 61.3722 40.5176C62.0352 39.7447 63.1175 39.6238 63.7172 38.8461ZM61.9134 39.7398C61.7915 39.7398 61.6111 39.7398 61.3722 39.6818C61.5526 39.1455 62.5763 38.7252 63.2978 38.1311C63.2978 38.9041 62.5763 38.7881 62.0938 39.3823C62.0938 39.6818 62.0938 39.7398 61.9134 39.7398ZM64.3801 37.6528C64.3216 37.6528 64.2583 37.59 64.2583 37.4112L64.3801 37.2905C64.4387 37.4112 64.502 37.4692 64.5605 37.5272C64.5605 37.6479 64.4387 37.6479 64.3801 37.6479M75.6318 28.8217C75.7537 28.8217 75.8756 28.701 75.9341 28.701C76.056 28.701 76.1145 28.8217 76.1145 28.8797C76.056 28.8217 74.5495 30.7879 73.828 31.3822C72.9847 32.0972 71.9609 32.5754 71.3613 33.4691C69.9767 33.4691 69.0164 36.0924 67.0273 36.9282C67.0273 37.4065 65.4039 38.4209 64.8628 38.4209C64.7409 38.4209 64.5605 38.4209 64.4436 38.3629C64.6239 37.9475 65.1651 37.8268 65.3455 37.4065C65.5258 36.8122 66.1254 37.1069 66.4862 36.7495C66.4277 36.6915 66.4277 36.5706 66.4277 36.5127C66.8469 35.8557 67.51 35.4981 68.1145 35.1407C70.7031 33.0537 73.5307 30.73 75.5733 28.1019C75.6952 28.2227 75.6952 28.2807 75.6952 28.4014C75.6952 28.5222 75.6367 28.701 75.5733 28.8168H75.6318V28.8217ZM64.8628 37.2276H64.7409C64.6824 37.2276 64.6191 37.2276 64.6191 37.1698C64.6191 36.9909 64.9798 36.7542 65.2187 36.5127C65.2187 36.5706 65.2771 36.6335 65.2771 36.6915C65.2771 36.9282 64.9749 37.0489 64.9164 37.2276H64.8579H64.8628ZM65.4039 36.5127C65.5843 36.0344 66.7299 35.3194 66.9103 35.3194C66.9915 35.3194 67.0322 35.3597 67.0322 35.4402C67.0322 35.7397 66.6714 35.6817 66.4911 35.7977C66.0718 36.0972 66.2522 36.3339 65.4088 36.5127M67.6952 34.8411C67.5149 34.8411 67.3929 35.1407 67.2126 35.1407C67.1736 35.1407 67.133 35.1213 67.0907 35.0827C67.2126 34.904 67.5733 34.4257 67.8122 34.4257C67.9341 34.4257 67.9341 34.5464 67.9341 34.6044C67.9341 34.6624 67.8756 34.7831 67.8756 34.904C67.817 34.846 67.7537 34.846 67.6952 34.846M70.5862 31.9812C70.5862 32.2808 70.6446 32.6382 70.4058 32.6382H70.162C70.1035 32.6382 70.0402 32.6382 70.0402 32.5175C70.0402 32.3966 70.162 32.2808 70.2205 32.2179C70.3423 32.0972 70.4643 32.0392 70.5813 31.9763M70.5813 31.9763C70.7031 31.7976 70.7617 31.5609 71.0639 31.4981C71.0639 31.4981 71.1224 31.6189 71.1224 31.6769C71.0639 32.0343 70.7617 31.8556 70.5813 31.9763ZM72.0877 30.7252C72.0292 31.0826 71.8488 31.2034 71.3661 31.3193C71.605 31.0199 71.7269 30.7831 72.0877 30.7252ZM73.4137 29.5898C73.4137 29.9473 72.9944 30.0053 72.5117 30.0053C72.814 29.5898 73.2333 29.5898 73.3552 29.2903C73.3552 29.4111 73.4137 29.4691 73.4137 29.5898ZM75.3393 27.4449C75.3393 27.8604 74.9201 27.8024 74.9201 28.0391C74.8615 27.9811 74.8615 27.8604 74.8615 27.8024C74.8615 27.5656 75.1638 27.5028 75.3442 27.2661V27.4449H75.3393ZM76.2412 26.3723C76.4216 25.8362 76.6605 25.6574 76.9628 25.4159C76.9628 25.8942 76.6605 26.01 76.2412 26.3723ZM78.045 24.0487C78.045 23.87 78.2887 23.8071 78.5276 23.8071C78.4058 23.9278 78.2887 24.1067 78.1084 24.2854C78.045 24.2274 78.045 24.1067 78.045 24.0487ZM78.5862 23.5704C78.5862 23.5124 78.5276 23.4497 78.5276 23.4497C78.5276 23.1501 78.8299 23.0921 79.0103 22.9134C79.0103 23.2129 78.8299 23.3917 78.5862 23.5704ZM83.4613 17.5461C83.0419 17.7249 83.159 18.0244 83.1005 18.2611C83.3393 18.0824 83.4613 17.9037 83.4613 17.5461ZM83.822 16.7683C83.822 16.7103 83.822 16.6476 83.7634 16.5896C83.5197 16.6524 83.4613 16.7683 83.4613 16.9471C83.4613 17.0679 83.5197 17.1838 83.5831 17.3046C83.5831 17.1258 83.822 16.9471 83.822 16.7683Z" fill="#231F20"/>
<path d="M86.5523 37.6722C86.5327 37.4645 86.523 37.2567 86.5084 37.049C86.4888 36.7737 86.4694 36.4983 86.4449 36.2133L86.2743 34.706L86.0111 33.1069H85.9477C85.8892 32.7978 85.8551 32.6045 85.7673 32.503C85.7234 32.2953 85.6894 32.1503 85.6698 32.0489C85.6552 31.9813 85.6455 31.9426 85.6405 31.9426V31.9136L85.5431 31.3726C85.5187 31.2421 85.4943 31.1117 85.4749 30.9813L85.5285 30.8121L85.5139 30.7494C85.4553 30.4691 85.4163 30.3001 85.3871 30.1938C85.3675 30.1117 85.3627 30.0731 85.3627 30.0247C85.3627 29.9378 85.3529 29.8508 85.2798 29.5368L84.8314 27.6382L84.8167 28.3725V28.3629C84.7777 28.2372 84.7485 28.1262 84.7241 28.0151C84.6607 27.759 84.5924 27.4982 84.4316 27.0536L84.4559 27.044C84.2073 26.3387 83.3932 24.3 82.9105 23.5367L82.9593 23.5125C82.7496 23.0584 82.4962 22.556 82.189 21.9859C84.4462 18.5462 85.665 14.9664 85.8112 11.3432C85.8112 9.91323 85.6162 8.78761 85.1872 7.78276C85.0361 7.46391 84.8996 7.1499 84.7679 6.84072C84.4365 6.05808 84.0952 5.2513 83.4711 4.45902C81.0873 1.48795 77.8697 1.08698 75.0373 1.08698C71.5369 1.08698 67.6125 1.97588 63.0544 3.80683L63.0299 3.78752C62.6886 3.5363 61.743 3.116 61.0215 2.85512L60.9386 2.82614L60.7874 2.87928C60.3779 2.68122 59.8466 2.44449 59.2664 2.26092L58.228 1.91791C58.1256 1.88409 58.0281 1.85028 57.9209 1.82129L57.4724 1.70052C57.2188 1.63289 56.9702 1.56524 56.7314 1.50244C56.4145 1.41548 56.1122 1.33336 55.8344 1.26572C55.3078 1.14495 54.9422 1.0435 54.7131 0.956541L54.6643 0.942047C54.5571 0.927554 54.4449 0.903399 54.3329 0.879244C54.1817 0.850258 54.0306 0.821271 53.8745 0.797116C53.738 0.777793 53.6064 0.758468 53.4748 0.739145L53.4992 0.700496L52.2316 0.463777C52.0367 0.425129 51.8514 0.400974 51.6662 0.38165L50.9202 0.285029L49.7551 0.154593V0.115945C49.2432 0.0772961 48.9118 0.101451 48.6046 0.125606C48.473 0.135268 48.3462 0.14493 48.2048 0.149761C48.0635 0.149761 47.9074 0.149761 47.693 0.149761L47.4736 0.0676342L45.8258 0L44.6217 0.014493C44.2901 0.0193241 43.9586 0.0241551 43.6223 0.0434791C43.3297 0.0676342 43.0373 0.0966202 42.7447 0.130438V0.101451C42.7204 0.101451 40.7215 0.159423 40.0099 0.444454C39.8002 0.42996 39.3956 0.487932 38.5766 0.66668L39.0251 0.343002L37.1969 0.961371C36.7582 1.11113 36.607 1.16427 35.7783 1.37201C35.7344 1.38167 35.7002 1.3865 35.6808 1.3865L35.671 1.36235C35.3931 1.42998 35.2566 1.47828 35.1103 1.53143C34.9934 1.57491 34.8666 1.62322 34.6375 1.68602L34.6228 1.64254C33.8916 1.85028 33.8477 1.86477 33.5114 2.01453L33.4089 2.06284C32.9215 2.25125 31.9561 2.53145 31.8245 2.54111H31.7367L31.6686 2.58943C31.6101 2.6329 31.3127 2.78749 30.9373 2.93725L30.9226 2.89861C30.5814 3.01938 30.2889 3.13533 30.0159 3.24643C29.9281 3.28509 29.8453 3.32373 29.7673 3.35755C29.6844 3.35755 29.5869 3.39137 29.4894 3.42035L29.4407 3.33339L27.9147 4.13051C27.5589 4.32376 27.1932 4.52665 26.8958 4.66193C26.8812 4.66676 26.8618 4.67159 26.8471 4.68124L26.8373 4.66193C26.6424 4.75372 26.4717 4.8455 26.3304 4.93246L26.2816 4.95662C26.0622 5.07257 25.911 5.14986 25.7015 5.27063C25.6234 5.29479 25.4821 5.36242 25.1164 5.57015C24.819 5.73441 24.5217 5.91316 24.3365 6.03394L23.9854 6.26582L24.0829 6.31413C24.0683 6.34312 24.0536 6.38176 24.0536 6.41558C23.8099 6.54119 23.5223 6.69095 23.259 6.83588C23.0835 6.92767 22.9275 7.01946 22.8008 7.09192C22.6935 7.15473 22.6156 7.20304 22.5765 7.21753L21.5966 7.91319C21.3772 8.06779 21.1676 8.23687 20.9629 8.40596C20.8654 8.48326 20.7728 8.56538 20.6703 8.64268L20.6216 8.68132C20.3437 8.90839 20.0804 9.12578 19.8416 9.33351C19.593 9.57023 19.4028 9.75864 19.281 9.89391L19.2274 9.84077L18.1158 10.8553C17.6283 11.3336 17.4528 11.522 17.3846 11.633C17.3748 11.6427 17.365 11.6476 17.3601 11.6572C17.3065 11.662 17.2481 11.6862 17.1798 11.749C17.1359 11.7876 17.053 11.8649 16.9165 12.005L16.9019 11.9906C16.4046 12.464 15.9707 12.9036 15.5711 13.3432C15.2346 13.7442 14.9177 14.1355 14.6009 14.5268L14.4839 14.6766C14.3279 14.8795 14.1768 15.0873 14.0207 15.295C13.8306 15.551 13.6356 15.8119 13.4308 16.0776C13.2992 16.2419 13.1725 16.4109 13.0409 16.5897L12.8409 16.8602C12.6753 17.0825 12.5046 17.3046 12.3194 17.5414C12.2852 17.5801 12.2462 17.6332 12.1926 17.7008L12.2072 17.7153C12.1487 17.7975 12.0853 17.8796 12.0268 17.9665L11.5588 18.6767C11.3589 18.9811 11.1591 19.2902 10.9543 19.6091L10.1889 20.9424C10.1158 21.068 10.0475 21.1936 9.97442 21.324L9.45278 22.3482C9.32603 22.5898 9.20416 22.8362 9.08228 23.0826L8.43877 24.4932C8.38027 24.614 8.32664 24.7348 8.27302 24.8604L7.52713 26.6286C7.28337 27.2952 7.22487 27.5368 7.14687 27.8459C7.12249 27.9426 7.09812 28.0489 7.06399 28.1793L6.96162 28.3194L6.92262 28.4064C6.87386 28.6141 6.83 28.8266 6.78612 29.0344L6.71299 29.3774C6.63987 29.6769 6.55211 29.9813 6.43511 30.3387L6.16698 31.2614C6.07435 31.5803 5.98173 31.9136 5.8891 32.2808C5.81597 32.6238 5.7526 33.0152 5.69409 33.5031L5.6161 34.1552L5.45521 33.6528V35.2567C5.45521 35.3098 5.46009 35.3871 5.44547 35.4983L5.39671 35.5176L5.35772 35.9427C5.3431 36.1118 5.32359 36.2809 5.31384 36.4596L5.28459 37.2326C5.26021 37.4886 5.24072 37.6095 5.23097 37.6626C5.15297 37.735 5.12859 37.8462 5.10909 37.9718C5.08959 38.1119 5.05059 38.3679 5.04084 38.8316C5.03109 40.4114 5.09447 40.6771 5.24072 40.7303L5.19684 41.2376C5.19196 41.3148 5.18221 41.3921 5.18221 41.4743L4.86533 40.8704L5.20171 43.0009C5.26509 43.3969 5.31384 43.6626 5.40647 43.8221L5.46985 44.3632V44.4888H5.52347C5.52347 44.5129 5.53322 44.5371 5.53322 44.5612H5.51372C5.51372 44.5612 5.53322 44.6241 5.54297 44.7014C5.55759 44.7641 5.56734 44.8221 5.57709 44.8752L5.56247 44.9864L5.54785 44.9429L5.55759 45.025L5.54785 45.1024C5.51372 45.368 5.57222 45.8077 5.66972 46.3921C5.7136 46.6483 5.7721 46.9187 5.83059 47.1845C5.85985 47.3101 5.8891 47.4357 5.91348 47.5565L5.83059 47.5855L6.03536 48.3729L5.96223 48.3826C6.01097 48.7498 6.05485 48.8995 6.09873 49.0445C6.13285 49.1604 6.16698 49.2715 6.2011 49.5275H6.22061L6.18648 49.5372L6.27911 49.8705H6.24011C6.29373 50.1507 6.34736 50.431 6.42048 50.6821C6.48873 50.914 6.55698 51.1217 6.63011 51.344C6.72761 51.6387 6.80561 51.8803 6.83974 52.0638H6.82512C6.91774 52.3826 7.00062 52.629 7.07375 52.7885C7.07375 52.7885 7.07375 52.7933 7.07375 52.7982L7.3955 53.7305L7.11762 53.4503L7.75139 54.7644C7.82451 54.9092 7.87814 55.0252 7.94639 55.0881C8.07314 55.4504 8.24864 55.9093 8.42902 56.32C8.52652 56.5277 8.75078 57.0156 8.76053 57.1074L8.75078 57.1943L8.79953 57.2668C8.82878 57.3103 8.85803 57.3393 8.88728 57.3634C8.93116 57.518 9.0189 57.7016 9.14078 57.9383L9.24316 58.117C9.26753 58.1606 9.29191 58.2089 9.32116 58.2572C9.30654 58.3586 9.36991 58.4987 9.46741 58.7258L9.50154 58.7838C9.60879 58.9142 9.73554 59.1558 9.85742 59.4069C9.77941 59.4021 9.70141 59.4021 9.61367 59.4021H9.25291C7.85863 59.4021 6.45949 59.3538 5.10909 59.3103C3.7977 59.2668 2.44242 59.2233 1.13102 59.2233C0.799514 59.2233 0.56551 59.3248 0.29738 59.5905L0 59.8852L0.409507 59.9915C0.589886 60.0398 0.765388 60.0881 0.945766 60.1412C1.67215 60.3441 2.35466 60.5374 3.06156 60.5374H4.08532C4.81171 60.5374 5.49909 60.5664 6.16211 60.5954C7.493 60.6534 8.85315 60.6678 10.5058 60.6195L10.5594 60.7114H10.5936C10.6618 60.8031 10.7739 60.9867 10.9299 61.2572C11.1835 61.6775 11.5296 62.1993 11.8026 62.6003L11.8221 62.5906C11.9391 62.8901 12.334 63.5423 13.4796 65.0592L13.6015 64.9675L13.5234 65.1075C13.5479 65.1269 13.6502 65.2089 13.9817 65.6099L14.3523 66.0641C14.3523 66.0641 14.362 66.0785 14.3669 66.0834L14.323 66.1172L14.1962 66.0448L15.1859 67.1656C15.3419 67.3394 15.4979 67.5134 15.6637 67.697L16.1804 68.2042C16.3559 68.3782 16.5363 68.5569 16.7215 68.7502L17.3846 69.4216L17.4918 69.4313C17.6722 69.6196 17.7502 69.6825 17.8184 69.7259L17.7941 69.7549C17.9647 69.9241 18.1548 70.1125 18.3108 70.2767C18.384 70.3588 18.457 70.4265 18.5205 70.4892C18.5838 70.5521 18.6374 70.6004 18.6667 70.6391L19.5588 71.7743L19.3443 71.1608C19.3443 71.1608 19.3589 71.1753 19.3639 71.1801C19.3931 71.2574 19.4516 71.3251 19.627 71.4893C19.6758 71.5231 19.749 71.5811 19.827 71.6438C20.0658 71.8323 20.2268 71.9578 20.3534 72.0014C20.451 72.0835 20.4851 72.1221 20.5241 72.1657L20.6216 72.2671C20.7142 72.3251 20.8507 72.4313 21.0067 72.5521C21.1968 72.697 21.4114 72.8613 21.6063 72.9917C21.9428 73.2189 22.1133 73.3347 22.2304 73.3444C22.4741 73.5087 22.7228 73.6777 22.9713 73.8516C23.1616 73.982 23.3565 74.1077 23.5515 74.2333C23.6977 74.3299 23.8441 74.4218 23.9854 74.5183C24.6046 74.9435 25.2481 75.3203 25.8234 75.6391L25.8135 75.6536L26.0427 75.7841C26.3255 75.9435 26.6375 76.0981 26.9445 76.2478C27.0859 76.3155 27.2225 76.3831 27.3639 76.4555L27.5979 76.5667C27.32 77.3155 27.0616 78.0788 27.0177 78.7116L26.9983 78.9677H27.2566C27.3249 78.9677 27.3833 78.958 27.4321 78.9483C27.4955 79.0305 27.593 79.0885 27.7392 79.0885C27.9489 79.0885 28.1194 78.929 28.1536 78.9L28.2023 78.8517L28.217 78.789C28.3437 78.2913 28.4998 77.7213 28.6899 77.0643C28.8069 77.1271 28.9044 77.1803 28.9287 77.1996L29.0312 77.103L28.9823 77.2575L29.7038 77.557C29.7867 77.5957 29.8745 77.6343 29.9818 77.6778L29.9622 77.7213C30.1865 77.8131 30.3669 77.8904 30.5229 77.958C30.9275 78.132 31.2054 78.2479 31.8002 78.4412C31.9221 78.5377 32.2097 78.6586 32.8483 78.8517L33.4528 79.0836C33.8331 79.2286 34.2036 79.33 34.5643 79.4266L34.9884 79.5378C35.3395 79.6296 35.671 79.7116 36.0025 79.7696C36.3924 79.8421 36.7679 79.9146 37.1238 79.9968L37.6698 80.1272C37.8453 80.1658 38.0159 80.2092 38.1865 80.2576L38.2353 80.2672C38.2791 80.2672 38.3766 80.2769 38.4595 80.2431C38.6789 80.2962 38.8886 80.3494 39.0641 80.3929C39.3371 80.4605 39.5515 80.5185 39.6637 80.5329C40.2779 80.6296 40.5704 80.6392 40.8727 80.6489C41.0044 80.6489 41.1409 80.6585 41.3114 80.6682L42.0329 80.7358V80.6585C42.0574 80.6585 42.111 80.6489 42.2232 80.6489C42.2816 80.7697 42.4474 80.7987 42.5449 80.8131H42.5789L42.696 80.8035C42.8519 80.8228 43.0909 80.8469 43.3249 80.8711L43.8221 80.9146C43.9148 80.9194 43.9879 80.9242 44.022 80.9339L44.0318 80.9049H44.0415V80.9532C44.2316 80.9532 44.373 80.9532 44.4705 80.9242C44.7533 80.9339 45.0116 80.9436 45.2749 80.9484H45.5186C45.6211 80.9581 45.7283 80.9581 45.8355 80.9581C45.8794 80.9581 45.9184 80.9581 45.9623 80.9581L46.7424 80.9484V80.9098C47.4785 80.9049 47.6393 80.8857 47.7563 80.8662L47.8197 80.8566C47.9074 80.8421 48.0196 80.8228 48.4534 80.7794C48.512 80.7794 48.5559 80.7794 48.585 80.7794C48.6631 80.8421 48.7606 80.8325 49.2627 80.7794L49.2725 80.8615C49.5308 80.8277 49.7795 80.8083 50.0281 80.7889C50.267 80.7601 50.4962 80.7358 50.7057 80.7165L51.4272 80.6585L51.3297 80.3687C51.2859 80.2382 51.2517 80.0982 51.2323 79.9629L51.1932 79.731L50.9593 79.7648C50.6814 79.8035 50.4133 79.8421 50.15 79.8856C49.9355 79.9242 49.7209 79.9436 49.5065 79.9678C49.3846 79.9822 49.2578 79.9919 49.1409 80.0064C48.7996 80.0402 48.4534 80.0788 48.0829 80.1078C47.8051 80.1319 47.5028 80.1368 47.1859 80.1368C47.0933 80.0836 46.9422 80.0836 46.7424 80.0836C46.6302 80.0836 46.4352 80.0836 46.3523 80.074L46.3181 80.0451L46.0549 80.0595C45.9574 80.0643 45.8648 80.0692 45.7721 80.0692H45.309V80.1126C45.0945 80.1126 44.8848 80.1126 44.685 80.1126H44.295C44.2122 80.1126 44.1341 80.1126 44.0561 80.1126V80.074C43.827 80.074 43.593 80.0595 43.3152 80.0402L42.5546 79.9919L42.5449 80.1031C42.5156 80.1031 42.4814 80.0982 42.4424 80.0933C42.4035 80.0885 42.3694 80.0836 42.345 80.0788C42.1158 80.0595 41.5114 80.0063 41.2384 79.9291L41.1749 80.1513V79.9194C40.8386 79.9001 40.4924 79.8759 40.0537 79.8179L40.0439 79.7359L39.8392 79.673H39.7953C39.6491 79.6826 39.2883 79.6199 38.9325 79.5619L38.6985 79.5233C38.3962 79.4702 38.089 79.4218 37.8405 79.388L37.7966 79.3686L37.8405 79.3542L36.9336 79.1368C36.6021 79.0595 36.4266 79.016 36.3145 79.0643C36.2901 79.0595 36.2658 79.0499 36.2365 79.045V79.016L35.7344 78.8807C34.9348 78.6682 34.1646 78.4701 33.4333 78.2383C33.3992 78.1803 33.3358 78.1223 33.2237 78.0691C31.7417 77.6199 30.245 77.0547 28.88 76.4314C30.6057 70.6584 33.8867 62.0784 37.2943 54.4552C37.7137 54.3875 38.1865 54.0735 38.4254 53.7788L38.9715 53.6C39.961 53.2812 40.3316 53.1315 40.4194 52.9189C40.4827 52.9576 40.5509 52.9817 40.6241 52.9817C41.5357 52.9817 43.0373 52.0154 44.2462 51.1701C44.3487 51.0976 44.4266 51.0444 44.4753 51.0107H44.7143C45.0604 51.0107 45.2943 50.8174 45.426 50.4261L45.4601 50.3247C45.6162 50.4454 45.777 50.5324 45.855 50.5324C46.3329 50.5324 47.1859 49.7498 47.4346 49.5082C48.1804 49.4454 49.0774 49.2425 49.6917 48.368C49.7892 48.3826 49.8916 48.3826 50.0086 48.3826H50.2523V48.141L50.2865 48.1265C51.1445 47.7642 51.2566 47.7159 51.3346 47.1603L51.4224 46.5564L50.9397 46.9381C50.8666 46.996 50.774 47.0396 50.6765 47.0879C50.4474 47.199 50.1646 47.339 49.9989 47.7207C49.9306 47.6869 49.8526 47.6627 49.7648 47.6627H49.5844L49.1506 47.8946C48.5705 48.2086 48.0683 48.4792 47.4249 48.7159C47.3224 48.6772 47.2493 48.6773 47.1762 48.6773C46.796 48.6773 46.5863 49.0492 46.4352 49.3971C46.4156 49.3971 46.3962 49.3971 46.3718 49.3971L46.4352 49.2763H46.0403C46.0403 49.2763 45.9818 49.2473 45.9574 49.2328C45.8941 49.1942 45.8258 49.1555 45.7331 49.1555C45.6162 49.1555 45.4991 49.2232 45.4504 49.3391C45.431 49.3488 45.4065 49.3681 45.3919 49.3778C45.27 49.4502 45.0702 49.5709 45.0702 49.8125C45.0702 49.8947 45.1238 49.9865 45.2067 50.0831L45.1042 50.1218C44.8215 50.2328 44.5973 50.2908 44.334 50.3537C44.2804 50.373 44.217 50.3971 44.1536 50.4212C44.0757 50.228 43.7831 50.1024 43.5101 50.1024C43.2127 50.1024 42.6618 50.4212 42.6618 50.8802C42.6618 50.9961 42.7154 51.0783 42.7837 51.1314C42.6814 51.2087 42.6327 51.2328 42.618 51.2377C42.5546 51.2184 42.423 51.0444 42.3742 50.9768C42.2816 50.8561 42.2085 50.7594 42.0671 50.7594C41.7551 50.7594 41.7015 51.0783 41.6722 51.257C41.6283 51.2474 41.5796 51.2377 41.5259 51.2377C41.3017 51.2377 41.1165 51.344 40.9654 51.431C40.8825 51.4793 40.7898 51.5324 40.7411 51.5324H40.5021C39.9025 51.5324 39.8392 51.8657 39.8392 52.0107L39.8538 52.088C39.8831 52.1749 39.966 52.3972 40.161 52.4647C40.0829 52.4357 40.0049 52.4262 39.966 52.4262C39.7856 52.4262 39.6686 52.5566 39.5759 52.6629C39.5613 52.6822 39.5418 52.7015 39.5223 52.7209H39.4248C39.4248 52.7209 39.4053 52.7209 39.4004 52.7209C39.4736 52.629 39.5418 52.5227 39.5954 52.3923L39.8002 51.885L39.2834 52.0783C39.1274 52.1363 38.9373 52.228 38.7374 52.3199C38.5181 52.4262 38.2645 52.5469 38.0354 52.6242C38.9032 50.6483 39.8002 48.7352 40.5363 47.1797C41.6625 44.7835 42.1793 43.682 42.1987 43.3196C42.5888 43.0685 42.6375 42.6433 42.6765 42.3196C42.6911 42.2037 42.7008 42.0926 42.7204 42.0153C42.8471 41.7157 43.0275 41.4597 43.2225 41.1891C43.4711 40.8463 43.7247 40.4887 43.8709 40.0298C43.9342 39.8365 43.9586 39.6384 43.983 39.4452C44.0268 39.0635 44.061 38.7641 44.3779 38.5418C45.3919 37.8703 45.9232 36.479 46.3962 35.2471C46.7813 34.2471 47.142 33.305 47.6295 33.1408L47.6832 33.1214L47.7222 33.0828C47.9074 32.8992 48.0927 32.474 48.0927 32.0152V31.6769C48.1219 31.5417 48.5168 31.0344 48.8337 30.6238C49.5796 29.6575 50.5059 28.4595 50.5595 27.6672C51.1932 26.5367 51.6954 25.6575 52.3243 24.759C52.9629 23.8411 53.4943 22.8748 54.011 21.9425C54.8008 20.5124 55.5516 19.1501 56.6582 17.9279C56.6436 17.9906 56.6339 18.0535 56.6339 18.1259C56.6339 18.2081 56.6338 18.4062 56.7654 18.5366L56.9312 18.7008L57.1019 18.5414C57.8721 17.8361 59.2274 15.836 59.2274 15.5027C59.2274 14.58 58.4327 13.8891 57.721 13.8891C56.4534 13.8891 54.6497 15.9327 54.6497 17.0535C54.6497 17.7202 53.3968 19.4883 52.3926 20.9134C51.9928 21.4787 51.6125 22.0149 51.3152 22.4739C51.086 22.8459 50.8569 23.2082 50.6327 23.5705C49.8137 24.8701 49.0433 26.0923 48.473 27.4546V27.4643L48.3657 27.4112L48.2487 27.5996C46.2158 30.9378 44.4949 34.2664 42.6863 37.8026V37.7109L42.2232 38.6481C40.819 41.4839 39.4637 44.3874 37.9477 47.7836L37.6601 48.4357L38.1962 48.1459C37.4943 49.7498 36.8264 51.2764 36.2511 52.7209C36.2268 52.6677 36.2023 52.6097 36.1683 52.5469L35.7587 51.7304L35.7099 52.6387C35.6759 53.2329 35.32 53.4696 34.8666 53.7692C34.6424 53.9189 34.4084 54.0783 34.2036 54.2909C34.0232 54.2619 33.8818 54.2619 33.7892 54.2619C33.3065 54.2619 32.7508 54.6194 32.6924 54.6581L32.585 54.7305V54.8609C32.585 54.8609 32.585 54.8996 32.5899 54.9189H32.1658C31.8732 54.9189 30.2645 55.1267 29.9379 55.6339H29.8794C29.8794 55.6339 29.8453 55.6291 29.8112 55.6147C29.7673 55.5953 29.7137 55.576 29.6405 55.576C29.3285 55.576 29.036 55.7161 28.7435 56.006L28.5631 56.1798L28.4851 56.1411C28.3145 56.0542 28.1487 56.0542 28.0122 56.0542C27.6759 56.0542 27.3151 56.2281 26.9983 56.5421L26.3157 57.2184C25.8184 57.3344 25.2773 57.46 24.6874 57.5905C24.7361 57.5712 24.785 57.547 24.8337 57.5083L25.1846 57.2764L24.8093 57.088C24.6289 56.9963 24.512 56.9431 24.3998 56.9431C24.2097 56.9431 24.0585 57.0639 23.927 57.1896L23.142 57.3634C23.0152 57.3924 22.8836 57.4069 22.7521 57.4263C22.3181 57.4842 21.8257 57.5519 21.4943 57.9915L21.2066 58.3683C21.1042 58.3925 21.0067 58.4166 20.9044 58.4262C20.9483 58.3489 20.9677 58.2523 20.9677 58.1363V57.8466L20.6801 57.8996C20.4998 57.9335 20.2559 57.9576 20.0025 57.9818C19.1298 58.0687 18.3742 58.1412 18.3742 58.6146C18.3742 58.6582 18.384 58.7499 18.4717 58.832C18.1987 58.9239 17.7648 59.0059 17.2871 59.0736C17.2968 59.0639 17.3114 59.0591 17.3211 59.0495L17.6966 58.7741L17.2529 58.6292C17.0335 58.5567 16.8825 58.5567 16.6922 58.5567C16.3949 58.5567 16.0683 58.6919 15.7027 58.9625L15.8538 59.2041C15.727 59.2089 15.6051 59.2138 15.4882 59.2138C15.2249 59.2138 14.8739 59.0978 14.6886 59.0302C14.5717 58.9915 14.5228 58.9722 14.4644 58.9722C14.3717 58.9722 14.2937 58.9915 14.2255 59.0108C14.0597 59.0543 13.9817 59.0253 13.8745 59.0108C13.7721 58.9915 13.6698 58.977 13.5625 58.977C12.8946 58.977 12.2559 59.1654 11.6319 59.3442C11.3297 59.4311 11.0177 59.5229 10.7154 59.5857L10.6423 59.4601L10.6959 59.4842L10.3596 58.7258C10.2816 58.5519 10.1987 58.3683 10.1792 58.3103L10.0232 58.3442L10.1646 58.2523C10.0232 58.0349 9.93055 57.8369 9.82329 57.6002C9.78917 57.5229 9.75504 57.4456 9.72092 57.3586L9.82329 57.4552L9.25778 56.2813C9.16515 56.088 9.0969 55.9528 9.00428 55.9044C8.78002 55.3875 8.56552 54.7837 8.34614 54.1556C8.15114 53.6049 7.95614 53.0349 7.72701 52.4647C7.63438 52.2039 7.56126 51.9817 7.493 51.7884C7.39063 51.4937 7.31262 51.2618 7.22975 51.0348L7.02012 50.4502C6.98112 50.3247 6.94211 50.1894 6.90312 50.0396L6.9665 50.0251C6.89825 49.6725 6.83487 49.3681 6.76662 49.0686C6.74224 48.9575 6.71299 48.8415 6.68374 48.7304C6.64962 48.5855 6.61061 48.4405 6.57649 48.2859C6.58624 48.199 6.57649 48.0879 6.57649 47.9526C6.53261 47.7159 6.49848 47.6144 6.46436 47.5179C6.45462 47.4937 6.44973 47.4695 6.43998 47.4406L6.51799 47.4212L6.3181 46.513L6.26449 46.1893L6.3181 46.1797C6.24498 45.6965 6.14261 45.0298 6.06947 44.5661L6.22548 44.5226L6.20599 44.2859C6.20599 44.2521 6.2011 44.2231 6.19623 44.1892L6.45462 44.7738L5.98173 41.967C5.97685 41.9283 5.97685 41.8462 5.97198 41.7544C5.97198 41.5564 5.96711 41.3341 5.92323 41.1747L5.79647 40.6771C5.91348 40.5515 5.95736 40.2423 6.01585 39.4548L6.00122 38.9959H6.02073C6.0646 38.5756 6.0646 38.2809 6.05973 37.9959V37.8655C6.09386 37.764 6.11823 37.619 6.14748 37.3969L6.13285 36.6626C6.2011 36.5707 6.22061 36.4113 6.25473 36.1843C6.25473 36.0973 6.26449 35.9524 6.1816 35.8654C6.21086 35.7301 6.23523 35.6528 6.25473 35.5853C6.28886 35.4644 6.30836 35.3871 6.32298 35.2132H6.36198C6.38148 34.9862 6.41074 34.6432 6.45462 34.334C6.50823 33.9862 6.54236 33.7591 6.54236 33.6142C6.60574 33.3823 6.66911 33.0441 6.72762 32.7205L6.74711 32.5996C6.76662 32.5079 6.78612 32.4306 6.80074 32.3678L6.89825 32.4596L6.94211 31.9716C6.95187 31.8557 7.02987 31.3629 7.11274 30.933C7.17125 30.8557 7.20538 30.7301 7.25413 30.5658C7.28825 30.4547 7.32725 30.3146 7.37112 30.1648C7.38575 30.1214 7.40038 30.0682 7.415 30.0151L7.52713 30.5464L7.71726 29.1841C7.74163 29.0199 7.77576 28.8169 7.84888 28.5851C7.92201 28.3339 8.01464 28.0489 8.11702 27.7493L8.21939 27.4353C8.28764 27.2325 8.35589 27.0247 8.42415 26.8314C8.50215 26.6333 8.57527 26.4353 8.63865 26.2517H8.64352C8.64352 26.2517 8.66302 26.213 8.67278 26.1889C8.81903 25.8411 8.90677 25.6527 8.99941 25.4643C9.04816 25.3628 9.0969 25.2614 9.1554 25.131L9.19928 25.0343L9.17978 24.986C9.20903 24.8507 9.36016 24.4594 9.46253 24.1985C9.48204 24.1502 9.50154 24.1019 9.51616 24.0536C9.57466 24.0536 9.63804 24.0247 9.70629 23.9521L10.1353 23.4787L9.8623 23.5077C9.88667 23.4449 9.9208 23.3676 9.95492 23.2758C10.0573 23.0439 10.1304 22.8942 10.1548 22.7879C10.2182 22.6865 10.262 22.6139 10.2962 22.5608C10.3986 22.3918 10.4034 22.3821 10.5351 22.2275L10.6277 22.1695L10.5887 22.0439C10.5984 21.9908 10.6862 21.8217 10.7544 21.696C10.8324 21.5512 10.9251 21.382 10.9836 21.242C11.1785 20.9424 11.2371 20.8844 11.2711 20.8458C11.3249 20.7879 11.354 20.754 11.4467 20.5946L11.5004 20.6236C11.7635 20.1694 11.8416 20.0148 11.7928 19.8796C11.9439 19.6428 12.0171 19.5318 12.0561 19.4835C12.1536 19.4545 12.2316 19.3724 12.3095 19.2709C12.4851 18.9811 12.6314 18.7154 12.7679 18.4641L12.7922 18.4206C12.9433 18.1646 13.0848 17.9521 13.2213 17.7588C13.231 17.7492 13.2407 17.7443 13.2504 17.7346L13.2066 17.6766L13.2943 17.7249C13.3918 17.5656 13.5186 17.3723 13.6599 17.1646L14.1523 16.5027C14.5327 16.0196 14.8787 15.5656 15.1225 15.2128C15.1323 15.2031 15.142 15.1984 15.142 15.1936C15.1469 15.1936 15.1566 15.1839 15.1616 15.179L15.1078 15.0873C15.1078 15.0873 15.1274 15.0631 15.1371 15.0534L15.22 15.1211L15.727 14.4978C15.8392 14.4882 15.961 14.3915 16.0878 14.2805L17.0726 13.2128C17.1359 13.1452 17.1993 13.0775 17.2675 13.0051C17.4723 12.7829 17.7015 12.5316 18.111 12.1596C18.1597 12.1016 18.2329 12.0099 18.2329 11.9036C18.5156 11.6186 18.7496 11.3963 18.9494 11.2273C19.1201 11.0872 19.2517 11.0002 19.3687 10.9229L19.4516 10.8698C19.7197 10.6959 19.9538 10.5461 20.4705 10.034C20.4949 10.0099 20.5143 9.9857 20.5388 9.96155L21.3772 9.31419C21.7867 9.00018 21.9622 8.83592 22.0939 8.71997L22.1914 8.63302L22.3863 8.51708C22.8641 8.23204 22.9665 8.12576 23.0884 8.00982C23.1616 7.93735 23.2346 7.86972 23.4247 7.72961C23.454 7.72961 23.4833 7.71996 23.5125 7.71996H23.5759L24.819 6.89869C25.0384 6.75376 25.2578 6.60882 25.4918 6.47355L25.9452 6.20301C26.3644 5.95181 26.7983 5.69093 27.2371 5.45904C27.3395 5.46871 27.4565 5.41556 27.5637 5.36725L28.2365 5.01459L28.9239 4.68124C29.4017 4.46868 29.8842 4.25129 30.3572 4.04838L31.8294 3.50248L33.2675 3.03387L33.9257 2.74885C33.9745 2.73435 34.0135 2.72469 34.0378 2.71986L34.0476 2.75368C34.3352 2.68122 34.4912 2.64256 34.5498 2.54594C34.6277 2.52661 34.6814 2.51213 34.7154 2.5073L34.7301 2.55077C34.7301 2.55077 34.7544 2.54111 34.7691 2.53628C35.8952 2.12564 38.0354 1.62322 39.454 1.42998V1.4638L40.1219 1.35751C40.273 1.32852 40.3998 1.30438 40.5266 1.27539L40.6095 1.25606C40.8679 1.19809 41.1019 1.14978 41.4626 1.11596V1.13529C42.5789 1.03867 43.8465 0.927554 45.0458 0.917892H45.3236C45.5186 0.908231 45.7137 0.903399 45.8989 0.898568L47.4979 0.966202C47.7222 0.975864 47.966 0.995189 48.1853 1.02417H48.2243H48.2633C48.3901 1.00002 48.9507 1.04833 49.3651 1.08215L50.2768 1.16427C50.5107 1.18843 50.6375 1.18843 50.7253 1.1691C51.1835 1.25123 51.4321 1.29471 51.6466 1.33819L52.0268 1.41548C52.3097 1.47828 52.6996 1.56524 53.4748 1.71983C53.6941 1.75849 53.8648 1.77781 54.0403 1.79714C54.2207 1.81646 54.401 1.83578 54.6448 1.87927V1.95656L55.6734 2.10632C55.7905 2.15463 55.9074 2.2126 56.0489 2.28023L56.6679 2.43967L56.6826 2.38652C56.9751 2.46865 57.3017 2.5701 57.6186 2.67155C57.916 2.77783 58.1354 2.86962 58.2378 2.91794L59.4029 3.29958C59.593 3.35755 59.7831 3.42518 59.9684 3.49282L59.9586 3.52181C60.2219 3.60877 60.2755 3.64259 60.2804 3.64259C60.3584 3.71987 60.4266 3.75853 60.9337 3.92278L61.3871 4.06771L61.8551 4.2851C57.9453 5.95664 54.3767 7.96633 51.7441 9.44946L51.2371 9.73448C42.6911 14.4641 33.604 21.498 24.2291 30.6431C19.2761 35.4548 13.0896 42.0636 9.19928 50.5662C9.12128 50.7257 9.11641 50.8174 9.11641 50.914C9.11641 52.1363 12.3633 53.0639 12.7873 53.0639C13.2114 53.0639 13.3382 52.7305 13.3918 52.4069C13.3918 51.7063 12.7971 51.542 12.3633 51.4213C11.8513 51.2811 11.5832 51.1846 11.5832 50.7353C11.5832 50.5468 11.627 50.3488 11.7489 49.9817C12.7191 47.2521 14.401 44.8801 16.0293 42.5806L16.507 41.9042C17.3114 41.1071 17.9696 40.2037 18.6082 39.3244C19.3687 38.2809 20.1536 37.2036 21.1871 36.3099C22.6838 35.0248 24.0683 33.5224 25.4089 32.0683C27.3833 29.933 29.2456 27.9136 31.454 26.4884C31.8099 26.2566 32.0586 25.957 32.3023 25.6671C32.7069 25.1888 33.0531 24.7734 33.7941 24.7396H33.8964L33.9647 24.6575C36.0756 22.2372 38.9715 20.2274 41.7697 18.2854C43.008 17.4255 44.2852 16.5413 45.4846 15.6234C45.6893 15.4593 46.0597 15.2708 46.4156 15.0824C47.1908 14.6814 47.8587 14.3288 47.8587 13.8844C48.1902 13.7732 48.5607 13.6476 48.8435 13.4205C50.2426 12.3674 51.7977 11.5413 53.2945 10.7442C53.9135 10.4157 54.5278 10.0871 55.1323 9.74415C58.3206 7.99049 60.9678 6.6668 63.4785 5.57981C63.654 5.50252 63.8344 5.43005 64.0099 5.36242L64.5314 5.62813C64.6485 5.6861 64.7654 5.74407 64.8776 5.80687L65.8575 6.3576C66.1013 6.49288 66.345 6.62815 66.5839 6.76824L67.7247 7.48806L67.7831 7.4011L67.9148 7.56054L67.515 7.51222L68.6266 8.1161C68.7582 8.18857 69.0458 8.40596 69.3188 8.61852C69.5966 8.83109 69.8795 9.04848 70.0939 9.18375L71.0933 9.97603C71.2639 10.1113 71.4151 10.2417 71.5614 10.3673L72.5315 11.1837C72.6875 11.319 72.8435 11.464 73.0044 11.6186L73.3749 11.9616L73.4139 11.9471C73.4821 12.0002 73.5796 12.0872 73.6625 12.1548C73.799 12.2756 73.9599 12.4109 74.072 12.493L75.2225 13.7491C75.4175 13.9664 75.6125 14.1984 75.8124 14.4302C76.0171 14.6718 76.2268 14.9181 76.4462 15.1646C76.7192 15.4689 76.8215 15.5849 76.924 15.6187C76.9679 15.7056 77.0605 15.836 77.2506 16.0921C77.2749 16.1307 77.3042 16.1646 77.3237 16.1936L77.2945 16.2177C77.3822 16.3289 77.465 16.4352 77.5479 16.5317C77.6844 16.696 77.8015 16.8457 77.9087 16.9955L78.9325 18.382L79.6247 19.4014L79.6686 19.3772C79.7466 19.5077 79.8099 19.6187 79.8295 19.6718L79.8051 19.6912C79.9514 19.9086 80.0976 20.1405 80.239 20.382C80.1512 20.4834 80.1025 20.6236 80.1025 20.7589V20.8748C79.7563 20.899 79.6833 21.1116 79.6833 21.2951C79.6833 21.4256 79.7222 21.5319 79.8002 21.6043C79.8977 21.696 80.0196 21.7009 80.1025 21.696C80.0829 21.9038 79.9026 22.0826 79.693 22.2855C79.5369 22.44 79.3761 22.6092 79.2688 22.8121V22.3193L78.8544 22.7348C78.8154 22.7734 78.7618 22.8072 78.7034 22.8459C78.5424 22.9473 78.3036 23.1068 78.3036 23.4401V23.5415L78.3329 23.5705C77.8648 23.6381 77.8209 23.9377 77.8209 24.0342C77.8209 24.1164 77.8209 24.3145 77.9526 24.4449L78.1232 24.614L78.1476 24.5898L78.1768 24.6334H77.938C77.938 24.6334 77.938 24.6527 77.938 24.6623V24.817L77.9624 24.8265C77.9624 24.8411 77.9721 24.8604 77.9721 24.8748C77.977 24.899 77.9867 24.9231 77.9867 24.9474C77.8405 25.1986 77.6943 25.2373 77.5578 25.271C77.4602 25.2951 77.2945 25.3387 77.2067 25.4884C77.2067 25.4594 77.2164 25.4401 77.2164 25.4111L77.192 24.928L76.7972 25.242C76.4998 25.4787 76.2171 25.701 76.0221 26.2903L75.7831 26.9957C75.7101 27.102 75.6466 27.2083 75.593 27.3V26.5319L75.1542 27.1165C75.1055 27.184 75.0324 27.2372 74.9544 27.2903C74.813 27.3919 74.6229 27.5319 74.6229 27.7976C74.6229 27.8798 74.6229 28.0778 74.7545 28.2082L74.9886 28.4402C73.7795 29.8991 72.3414 31.2711 70.7911 32.6093C70.8447 32.4789 70.8447 32.3195 70.8399 32.16C70.9861 32.1503 71.303 32.1262 71.3761 31.7156V31.6769C71.3761 31.6431 71.3663 31.6093 71.3566 31.5707L71.4346 31.5513C71.9563 31.4209 72.2536 31.2566 72.3365 30.759L72.3901 30.4257L72.0538 30.4788C71.6588 30.5417 71.4785 30.7784 71.2884 31.0247L71.1177 31.2373L71.0202 31.2566C70.6741 31.3243 70.5376 31.5707 70.4449 31.73C70.4352 31.7494 70.4206 31.7687 70.4108 31.788C70.2987 31.846 70.1768 31.9136 70.0549 32.0345C69.9721 32.1166 69.8015 32.2808 69.8015 32.503C69.8015 32.5369 69.8015 32.5949 69.8306 32.6576L69.704 32.8412L69.8697 32.7301C69.9184 32.8026 70.011 32.8605 70.1671 32.8605H70.4108C70.4449 32.8605 70.4742 32.8509 70.5034 32.8412C69.7331 33.4982 68.9434 34.1456 68.1439 34.793C68.1439 34.7784 68.1439 34.764 68.1536 34.7495C68.1683 34.6915 68.1878 34.6384 68.1878 34.5804C68.1878 34.1794 67.8855 34.1601 67.8222 34.1601C67.4468 34.1601 67.0519 34.6964 66.8959 34.9234L66.7886 35.0828C66.4717 35.1843 65.8575 35.5853 65.4772 35.9861V35.9041L65.0629 36.3196C64.9946 36.3872 64.9215 36.45 64.8435 36.5176C64.6924 36.648 64.5607 36.7689 64.4778 36.8944L64.4584 36.8557L64.0293 37.2809V37.3823C64.0293 37.8509 64.3559 37.8655 64.395 37.8655C64.4486 37.8655 64.4924 37.8606 64.5314 37.8509C64.4097 37.9572 64.3023 38.078 64.2293 38.2471L64.1367 38.4596L64.3462 38.5611C64.5169 38.6432 64.7314 38.6432 64.8728 38.6432C65.4042 38.6432 67.0032 37.7689 67.2517 37.0829C68.2171 36.6384 68.9337 35.8123 69.5723 35.0828C70.2207 34.3388 70.7764 33.6963 71.3761 33.6963H71.5078L71.5808 33.5901C71.9563 33.0345 72.5071 32.648 73.0921 32.2373C73.3943 32.0247 73.7112 31.8026 74.0038 31.5562C74.4426 31.1939 75.1445 30.3581 75.6613 29.7494C75.827 29.5513 76.0074 29.3387 76.1293 29.1987L76.3779 29.445V28.8605C76.3779 28.7638 76.334 28.6624 76.2658 28.5851C76.3633 28.6479 76.4901 28.6865 76.6168 28.6865C77.1238 28.6865 78.05 27.5706 80.0586 24.9087C80.4145 24.4401 80.746 24.0005 81.0238 23.6429C81.2091 23.4014 81.3943 23.1551 81.5699 22.9038C81.7308 23.2275 81.8721 23.5561 82.0086 23.8748C82.0867 24.0536 82.1597 24.2324 82.2378 24.4014C82.35 24.6575 82.462 24.899 82.5644 25.1164C82.6473 25.3193 82.7302 25.5077 82.8131 25.6864L83.1738 26.5126L83.4371 27.1552C83.4127 27.2517 83.4468 27.3773 83.4761 27.4885C83.6565 27.9426 83.8076 28.3532 83.9392 28.7252C84.0513 29.0972 84.1488 29.445 84.2512 29.8267L84.5291 30.8701C84.612 31.2277 84.7046 31.5949 84.8021 31.9475C84.8167 32.1069 84.846 32.3002 84.885 32.503C84.9142 32.7156 84.9483 32.9475 84.9873 33.1988L85.1384 34.0538C85.1823 34.3002 85.231 34.5514 85.2652 34.8171L85.3384 35.3437C85.392 35.7447 85.4504 36.1456 85.4943 36.5224C85.5431 37.1409 85.5675 37.6239 85.5723 38.0008L85.5967 39.5225L85.6162 39.4645V39.6288L85.7088 39.4742C85.7333 40.0877 85.7479 40.7157 85.7137 41.339C85.7088 41.4984 85.704 41.6626 85.6991 41.822C85.6894 42.1313 85.6844 42.4453 85.6552 42.7545L85.5967 43.4356L85.8941 43.4018C85.9964 43.3922 86.0989 43.3825 86.2012 43.3825H86.4255L86.4498 43.025C86.4498 42.9622 86.4596 42.8946 86.4645 42.8317C86.5571 42.6965 86.5815 42.3486 86.6156 41.2761C86.6351 40.8897 86.64 40.4742 86.64 40.1071C86.64 39.7109 86.64 39.3341 86.6692 39.1408V39.1167L86.5766 37.6577L86.5523 37.6722ZM76.1926 28.5561C76.1245 28.4981 76.0367 28.4546 75.9343 28.4546C75.9343 28.4353 75.9343 28.4161 75.9343 28.3966C75.9343 28.3291 75.9295 28.2711 75.9148 28.2082C75.9441 28.2131 75.9684 28.2179 75.9928 28.2179C76.0123 28.2179 76.0367 28.2179 76.0561 28.2179C76.0561 28.2372 76.0513 28.2566 76.0513 28.2759C76.0513 28.3918 76.1099 28.4836 76.1926 28.5512V28.5561ZM66.1842 36.45V36.508C66.1842 36.5417 66.1842 36.5949 66.1939 36.6577C66.111 36.6916 66.0184 36.7109 65.916 36.7302C65.7892 36.7543 65.643 36.7833 65.5065 36.8461C65.5162 36.8123 65.5211 36.7689 65.526 36.7302C65.8575 36.6529 66.0525 36.5611 66.189 36.45H66.1842ZM67.2664 35.3775C67.2664 35.3775 67.2664 35.3727 67.2664 35.3678C67.2713 35.3678 67.2761 35.3678 67.281 35.3678C67.2761 35.3678 67.2713 35.3727 67.2664 35.3775ZM67.6564 35.1311C67.6564 35.1311 67.7002 35.0924 67.7198 35.0877H67.7247C67.7247 35.0877 67.6808 35.1214 67.6564 35.1311ZM64.9264 37.4693L65.019 37.4596C64.9557 37.5322 64.8728 37.5998 64.7801 37.6673C64.8045 37.6046 64.8093 37.5466 64.8093 37.5273V37.4693H64.9264ZM79.2055 23.5271C79.1616 23.5174 79.1177 23.5077 79.069 23.5077C79.0495 23.5077 79.03 23.5077 79.0056 23.5174C79.0544 23.4642 79.0983 23.4014 79.1373 23.3386C79.147 23.4062 79.1665 23.4739 79.2055 23.5271ZM79.6344 23.928C79.615 23.8748 79.5907 23.8265 79.5614 23.7831C79.6296 23.8072 79.6979 23.8121 79.7612 23.8121C79.7173 23.8604 79.6734 23.899 79.6394 23.928H79.6344ZM78.1135 15.6428C77.8648 15.3384 77.6308 15.0631 77.392 14.7926L75.9635 13.2805C75.9245 13.1742 75.7929 12.9954 75.4029 12.5558C75.281 12.4205 75.1689 12.2949 75.0665 12.179L75.1787 12.2128L74.4376 11.5075C74.033 11.1259 73.6576 10.7683 73.2823 10.435L72.1805 9.53159C71.9221 9.30936 71.6443 9.11129 71.3761 8.91322L71.0494 8.6765C70.9325 8.59437 70.8154 8.50741 70.6985 8.42045C70.4255 8.21755 70.1476 8.00982 69.8599 7.82624C69.6308 7.63783 69.3091 7.39145 68.8508 7.05328C68.5631 6.84554 68.2365 6.63781 67.8905 6.41558L67.0665 5.88418C66.9787 5.83103 66.891 5.78272 66.8033 5.72957L65.8867 5.19817C65.7356 5.10638 65.5845 5.01942 65.4333 4.93729C65.6772 4.86966 65.9209 4.80686 66.1694 4.74406C67.1641 4.48801 68.1926 4.22713 69.1871 3.74886C69.5236 3.58461 69.8795 3.52181 70.2597 3.45417C70.757 3.36722 71.2737 3.27542 71.7466 2.94208H72.8679C73.4285 2.94208 73.9892 2.89378 74.5303 2.85029C75.0616 2.80682 75.5637 2.76333 76.061 2.76333C81.1799 2.76333 84.0025 5.41073 84.0025 10.2128C84.0025 13.3481 82.9203 16.8843 81.0287 19.9763C80.6973 19.4304 80.3755 18.9231 80.1074 18.4882L80.1318 18.4689C80.0586 18.3627 79.9855 18.2661 79.9173 18.1742C79.8148 18.0389 79.7173 17.9038 79.6004 17.7298C79.5857 17.6429 79.5321 17.5656 79.498 17.5125C79.2494 17.2032 79.0397 16.9375 78.8789 16.7202L78.9081 16.696C78.64 16.2902 78.3669 15.9569 78.1135 15.6428ZM35.905 1.56524C35.905 1.56524 35.905 1.57491 35.905 1.57974C35.8757 1.58457 35.8563 1.5894 35.827 1.59906C35.7928 1.60873 35.7685 1.60873 35.7441 1.61356V1.59906L35.905 1.56524ZM43.1249 38.5756V38.5611C43.1445 38.5322 43.1591 38.5032 43.1786 38.4742C43.1591 38.5079 43.1445 38.5418 43.1249 38.5756ZM48.9361 27.6913C48.98 27.6623 49.0238 27.6333 49.0677 27.6043C49.0483 27.643 49.0238 27.6865 49.0044 27.7252L48.9361 27.6913ZM49.2871 27.445C49.2871 27.445 49.3017 27.4353 49.3066 27.4305L49.3797 27.4933L49.2871 27.445ZM21.6112 59.1992C22.3669 59.0012 23.0787 58.8128 23.8245 58.8128C24.234 58.8128 24.5656 58.6775 24.8873 58.547C25.1262 58.4505 25.3553 58.3586 25.6088 58.3345C26.8325 58.1364 28.0367 57.7644 29.2017 57.402C29.8257 57.2089 30.4741 57.006 31.0981 56.8417C31.4394 56.7644 31.727 56.5421 31.9561 56.3634C32.0732 56.2716 32.2438 56.1364 32.3072 56.1315C32.8678 56.1315 33.37 56.0107 33.8574 55.89C34.0232 55.8513 34.189 55.8078 34.3498 55.774C34.3206 55.861 34.2913 55.9576 34.2913 56.0687C34.2913 56.1508 34.3059 56.2233 34.3352 56.2861C34.1207 56.3827 33.9939 56.5614 33.9939 56.7837C33.9939 56.9528 34.1354 57.204 34.3595 57.204C34.3791 57.204 34.3937 57.1943 34.4132 57.1943C34.3401 57.3779 34.2621 57.5663 34.189 57.7499L34.1597 57.7209C34.1403 57.6823 34.111 57.6243 34.0525 57.5663L33.8428 57.3586L33.677 57.6002C33.6479 57.6436 33.6186 57.6726 33.5844 57.7064C33.5114 57.774 33.3992 57.8803 33.3992 58.0929C33.3992 58.3055 33.6479 58.4552 33.8818 58.4552H33.8964C33.8282 58.6195 33.7599 58.7741 33.6966 58.9142C33.6332 58.7886 33.5259 58.6775 33.365 58.5567L32.9751 58.2669V58.7499C32.9751 58.8513 32.9994 58.9239 33.019 58.977C33.0336 59.0156 33.0384 59.0302 33.0384 59.0495C33.0384 59.1606 33.0043 59.2669 32.9605 59.3925C32.9116 59.5374 32.858 59.6968 32.858 59.8852V59.9045C32.4632 60.3152 32.3413 60.9964 32.3218 61.5761C32.1219 61.6581 31.9854 61.9336 31.8441 62.2621L31.8148 62.3346L32.0196 62.4504H31.7806V62.6534L31.8441 62.6679C31.8977 62.75 31.9757 62.808 32.0781 62.8466L31.8635 63.378C31.5954 64.0543 31.3371 64.6921 31.0835 65.3105C30.9177 65.3684 30.6984 65.4941 30.6984 65.7935C30.6984 65.8854 30.7325 65.9771 30.7959 66.1027C30.7374 66.2477 30.6789 66.3925 30.6302 66.5375C30.5668 66.7114 30.5034 66.8757 30.4352 67.0303C30.245 67.1366 30.0403 67.3346 30.0403 67.7017C30.0403 67.7597 30.0403 67.8757 30.0842 68.0062C28.3437 73.0207 28.1877 74.0063 28.0268 75.0498L28.0171 75.1078C27.8513 75.2092 27.7538 75.3734 27.7538 75.5715C27.7538 75.6971 27.7977 75.8034 27.8709 75.8758C27.8611 75.9048 27.8513 75.9338 27.8416 75.958C27.7831 75.9242 27.7198 75.8904 27.6563 75.8517C27.4321 75.7212 27.1884 75.5812 26.9348 75.4508L26.9105 75.3686L26.7935 75.3396C26.2913 75.0449 25.7697 74.7551 25.1896 74.441C25.0092 74.3396 24.8289 74.2285 24.6386 74.1126L23.7466 73.5763C23.6344 73.5135 23.5223 73.441 23.4101 73.3686L23.4247 73.3493C23.1469 73.1367 22.7715 72.8661 22.3913 72.6004L22.1768 72.4459C22.0597 72.3637 21.9477 72.2816 21.8403 72.1994L21.3236 71.7937C21.2603 71.755 21.1823 71.7018 21.114 71.6535C21.036 71.6004 20.9629 71.5473 20.8897 71.5183C20.7776 71.4217 20.6703 71.3251 20.5582 71.2333L20.3681 71.069C20.1585 70.8758 19.9489 70.6874 19.7344 70.5086C19.593 70.3878 19.4516 70.2671 19.3102 70.1511C19.0323 69.9192 18.7593 69.6873 18.5009 69.4458C18.3791 69.3299 18.2523 69.2188 18.1304 69.1076C17.8525 68.8612 17.5941 68.6293 17.3504 68.3782C17.1067 68.1269 16.8922 67.8999 16.7021 67.6824C16.6922 67.5956 16.6338 67.5327 16.5899 67.4844C16.312 67.2187 16.0488 66.924 15.7953 66.639C15.6685 66.4988 15.5418 66.354 15.415 66.2138L14.9177 65.6728C14.8934 65.6389 14.869 65.6003 14.8495 65.5714H14.8397L14.6253 65.3249C14.5618 65.2331 14.5131 65.1799 14.4692 65.1414L13.9378 64.5182L13.6599 64.1848H13.7234L13.4601 63.8176C13.309 63.6099 13.1481 63.407 12.9872 63.2137C12.9433 63.1606 12.8946 63.1026 12.8507 63.0495L12.8702 63.035L12.1975 61.9191L12.0025 61.605C11.8709 61.3877 11.7344 61.1703 11.6076 60.9481L11.5588 60.9722C11.4711 60.8562 11.3882 60.7355 11.3053 60.6051C15.0445 60.4601 18.2475 60.0495 21.0799 59.3489C21.27 59.3006 21.4553 59.2523 21.6405 59.2041L21.6112 59.1992ZM14.6399 65.6582L14.6593 65.6438V65.6534L14.6447 65.6631V65.6534L14.6399 65.6582ZM31.9854 78.4943L32.0342 78.301C32.0683 78.3156 32.1171 78.3349 32.1755 78.359C32.1268 78.4556 32.0342 78.4991 31.9903 78.4991L31.9854 78.4943ZM37.4308 79.4605L37.4211 79.5185H37.3334C37.3334 79.5185 37.3334 79.4943 37.3382 79.4846L37.426 79.4605H37.4308ZM28.919 56.4263C28.9873 56.4117 29.0604 56.4117 29.1384 56.4068C29.3772 56.3973 29.7038 56.3827 29.9867 56.0832C30.0451 56.1218 30.1133 56.146 30.1914 56.1654C29.7331 56.32 29.1335 56.4987 28.3486 56.7113C28.4169 56.6581 28.4802 56.5904 28.5339 56.5035L28.9239 56.4263H28.919ZM27.2371 56.9431C27.32 56.8997 27.4516 56.8997 27.593 56.9044C27.6027 56.9044 27.6076 56.9044 27.6173 56.9044C27.4272 56.9528 27.2274 57.0011 27.0177 57.0543L27.2371 56.9431ZM23.4394 57.6823H24.2438C24.2438 57.6823 24.2779 57.6823 24.2974 57.6823C23.9367 57.7596 23.5564 57.8417 23.1616 57.9239C23.22 57.8803 23.2785 57.8417 23.3321 57.7886L23.4394 57.6823ZM12.9141 17.7636C12.9141 17.7636 12.9093 17.7539 12.9044 17.7539C12.9336 17.7105 12.9629 17.667 12.9921 17.6235L13.0067 17.638L12.9141 17.7636ZM13.0116 17.6332L12.997 17.6235C12.997 17.6235 13.0019 17.6186 13.0067 17.6139L13.0213 17.6235L13.0116 17.6332ZM77.5139 26.3725C77.5139 26.3725 77.4846 26.3629 77.465 26.358C77.3481 26.3242 77.1628 26.2662 76.9629 26.3822C76.8947 26.329 76.8167 26.2952 76.7386 26.2759C76.9142 26.131 77.0654 25.986 77.1384 25.7686C77.158 25.9716 77.2896 26.1454 77.5089 26.3725H77.5139ZM75.1542 28.0778C75.1542 28.0778 75.1884 28.0536 75.203 28.0441C75.281 27.9958 75.3932 27.9185 75.476 27.7879C75.476 27.7976 75.481 27.8073 75.4858 27.8169L75.3785 27.9522C75.3054 28.044 75.2274 28.1358 75.1542 28.2276V28.0778Z" fill="#231F20"/>
<path d="M73.1213 29.2034C73.097 29.2662 73.019 29.3145 72.8825 29.3918C72.707 29.4884 72.4924 29.614 72.3072 29.8701L72.0342 30.2517H72.5071C72.8191 30.2517 73.6527 30.2517 73.6527 29.5947C73.6527 29.4981 73.6284 29.4256 73.6089 29.3724C73.5991 29.3338 73.5894 29.3194 73.5894 29.3V28.0439L73.1213 29.2083V29.2034Z" fill="#231F20"/>
<path d="M53.1629 45.6096C53.1238 45.5999 53.0653 45.5855 53.0409 45.5758L52.9775 45.4502H52.8264C52.5241 45.4502 52.3438 45.6628 52.3438 45.8705C52.3438 46.2569 52.9435 46.7062 53.2505 46.7062C53.4456 46.7062 53.6747 46.5661 53.6747 46.1651C53.6747 45.7304 53.3285 45.6482 53.1629 45.6096Z" fill="#231F20"/>
<path d="M62.4351 39.4693C62.401 39.4838 62.3718 39.5031 62.3377 39.5224C62.3377 39.5031 62.3377 39.4838 62.3377 39.4645C62.4887 39.3051 62.6643 39.2084 62.8398 39.1118C63.1712 38.9331 63.5418 38.7302 63.5418 38.1215V37.6045L63.1421 37.9331C62.8934 38.1408 62.6009 38.3244 62.3231 38.5031C61.7672 38.8606 61.2847 39.1698 61.1433 39.5901L61.0604 39.8365L61.3138 39.8993C61.426 39.9283 61.5284 39.9427 61.621 39.9524C61.4748 40.0635 61.3334 40.1794 61.2066 40.3244C60.2364 41.1167 59.0226 41.9815 57.8623 42.7109C57.448 42.7738 57.1847 43.0346 56.9507 43.2665C56.8094 43.4114 56.6729 43.5419 56.5119 43.6239L55.5906 44.0829H56.6241C56.741 44.0829 56.8581 44.0974 56.9702 44.1119C57.0872 44.1264 57.1944 44.1409 57.287 44.1409C57.7649 44.1409 58.0037 43.8752 58.1938 43.6578C58.3645 43.4645 58.4668 43.3631 58.6667 43.3631C59.2176 43.3631 59.4029 42.9332 59.5345 42.6192C59.5832 42.5032 59.6271 42.4066 59.6759 42.3341C59.7587 42.4403 59.8807 42.4693 59.9879 42.4693H60.0463L60.0999 42.4452C60.8849 42.0587 61.8014 41.5273 62.0013 41.0829C62.0744 41.0443 62.1427 41.0104 62.2157 40.9766C63.0347 40.5611 63.9659 40.0925 63.9659 38.8316V38.1215L63.5271 38.6818C63.2541 39.0345 62.8544 39.2422 62.4351 39.4597V39.4693Z" fill="#231F20"/>
<path d="M54.2743 44.9717C53.9574 44.9717 53.7576 45.1311 53.6747 45.45L53.5967 45.7495H54.0891C54.289 45.7495 54.523 45.6528 54.7765 45.4645L55.147 45.1891L54.7082 45.0442C54.4888 44.9717 54.3426 44.9717 54.2695 44.9717H54.2743Z" fill="#231F20"/>
<path d="M55.654 44.199C55.5711 44.199 55.3712 44.199 55.2396 44.3294L55.1665 44.4018V44.5033C55.1665 44.9961 55.4638 45.1024 55.7125 45.1024C56.2146 45.1024 56.317 44.8753 56.317 44.6821V44.6096L56.278 44.5468C56.1074 44.2908 55.8441 44.199 55.654 44.199Z" fill="#231F20"/>
<path d="M111.757 75.9221C111.596 76.3758 111.556 76.6481 111.51 76.8919L111.052 79.3703C111.276 79.1832 111.533 79.0017 111.785 78.8543C112.059 78.6954 112.329 78.5877 112.637 78.5877C112.947 78.5877 113.318 78.6842 113.628 79.0868C113.948 79.5008 114.022 79.9942 114.022 80.4252C114.022 81.3837 113.68 82.2003 113.17 82.7901C112.392 83.6863 111.465 83.7826 111.041 83.7826C110.583 83.7826 110.005 83.6692 109.461 83.3176L110.709 76.6651L109.782 76.5063V76.234L111.402 75.9165H111.751L111.757 75.9221ZM110.371 82.9319C110.629 83.1985 110.978 83.363 111.299 83.363C111.481 83.363 111.98 83.312 112.461 82.6654C112.895 82.0869 113.13 81.2532 113.13 80.499C113.13 80.1813 113.089 79.824 112.873 79.5461C112.661 79.2795 112.392 79.2399 112.254 79.2399C112.083 79.2399 111.848 79.3023 111.659 79.3874C111.607 79.4213 111.476 79.4724 110.978 79.7787L110.371 82.9263V82.9319Z" fill="#231F20"/>
<path d="M115.705 78.5763C115.745 78.5649 115.803 78.5649 115.843 78.5649C116.078 78.5649 116.312 78.6727 116.473 79.0073C116.57 79.2171 116.662 79.5972 116.907 80.8335L117.256 82.62C117.8 81.2475 118.333 79.9714 118.927 78.6103H119.127L119.97 78.8825V79.1037L119.426 79.4213C118.927 80.0565 118.682 80.5499 118.212 81.5538C117.445 83.1587 116.186 86.0001 114.452 86.0001C113.943 86.0001 113.622 85.6938 113.622 85.3025C113.622 84.9735 113.897 84.7637 114.189 84.724L114.818 85.3478C115.66 85.2004 116.129 84.4914 116.649 83.533L115.969 80.3231C115.831 79.6708 115.694 79.4043 115.563 79.2228L114.658 79.1604V78.8882L115.7 78.5819L115.705 78.5763Z" fill="#231F20"/>
<path d="M126.156 76.6082C126.786 76.6082 127.873 76.6706 128.652 77.3285C129.258 77.8446 129.469 78.5422 129.469 79.3248C129.469 80.8107 128.702 82.3759 127.369 83.1245C126.453 83.6406 125.406 83.6973 124.794 83.6973H122.545V83.2947L123.226 83.2436L123.397 83.0848L124.524 77.2264L124.416 77.0676L123.712 77.0165V76.6139H126.15L126.156 76.6082ZM124.313 83.2039H124.92C125.898 83.2039 126.752 82.8864 127.272 82.393C127.987 81.7181 128.445 80.3683 128.445 79.1943C128.445 78.7406 128.371 78.0771 127.879 77.6234C127.324 77.1186 126.46 77.0959 126.064 77.0959H125.48L124.308 83.2096L124.313 83.2039Z" fill="#231F20"/>
<path d="M132.239 78.6049L131.895 80.051C132.165 79.6597 132.417 79.3875 132.738 79.0983C133.006 78.8657 133.332 78.5935 133.79 78.5935C134.162 78.5935 134.386 78.8147 134.386 79.1719C134.386 79.6143 134.042 79.8355 133.653 79.8355H133.601L133.327 79.2684C133.051 79.3817 132.612 79.6086 132.347 79.8922C131.976 80.2835 131.845 80.7996 131.776 81.2136L131.346 83.692H130.454L131.329 79.3761L130.454 79.2173V78.9451L132.027 78.6049H132.239Z" fill="#231F20"/>
<path d="M136.165 83.1244C136.165 83.4704 135.879 83.7483 135.524 83.7483C135.169 83.7483 134.895 83.476 134.895 83.1244C134.895 82.7728 135.169 82.4893 135.536 82.4893C135.902 82.4893 136.165 82.7728 136.165 83.1244Z" fill="#231F20"/>
<path d="M143.709 76.6082C144.378 76.6082 145.03 76.6422 145.488 76.8748C145.918 77.0959 146.341 77.5269 146.341 78.3549C146.341 79.1263 145.998 79.7898 145.466 80.2549C145.03 80.6235 144.263 81.0375 143.004 81.0375C142.822 81.0375 142.57 81.0261 142.426 81.0148L142.032 83.0848L142.158 83.2436L142.839 83.2947V83.6973H140.24V83.2947L140.921 83.2436L141.093 83.0848L142.221 77.2264L142.111 77.0676L141.431 77.0165V76.6139H143.703L143.709 76.6082ZM142.524 80.5044C142.621 80.5157 142.759 80.5271 142.93 80.5271C143.806 80.5271 144.487 80.2549 144.859 79.8295C145.145 79.5119 145.34 79.0185 145.34 78.4457C145.34 78.1281 145.277 77.6858 144.882 77.3795C144.521 77.1073 143.989 77.0732 143.68 77.0732C143.52 77.0732 143.308 77.0846 143.188 77.0959L142.529 80.5044H142.524Z" fill="#231F20"/>
<path d="M149.106 75.9221L147.903 81.9168C147.784 82.4782 147.784 82.6768 147.784 82.7391C147.784 82.9093 147.806 83.2552 148.362 83.2552C148.499 83.2552 148.722 83.2212 149.128 83.0737V83.3913C148.767 83.5388 148.252 83.7826 147.732 83.7826C147.051 83.7826 146.93 83.3062 146.93 82.9887C146.93 82.6427 147.04 82.206 147.102 81.8601L148.144 76.6141L147.193 76.5063V76.234L148.825 75.9165H149.1L149.106 75.9221Z" fill="#231F20"/>
<path d="M154.766 78.6046C154.553 79.1321 154.479 79.5575 154.359 80.1133L153.975 81.9791C153.912 82.3194 153.867 82.4839 153.867 82.6881C153.867 82.8072 153.878 82.9602 154.004 83.0907C154.119 83.2041 154.279 83.2154 154.376 83.2154C154.497 83.2154 154.674 83.1927 155.034 83.0794V83.3969C154.766 83.5217 154.456 83.6408 154.222 83.7032C153.953 83.777 153.793 83.7882 153.718 83.7882C153.46 83.7882 153.283 83.7146 153.163 83.4593C153.089 83.2892 153.055 83.068 153.066 82.8979C152.842 83.1418 152.63 83.3119 152.482 83.414C152.15 83.6578 151.852 83.7826 151.446 83.7826C150.879 83.7826 150.519 83.516 150.284 83.1361C150.049 82.7561 149.999 82.3024 149.999 81.9337C149.999 81.0263 150.319 80.0565 151.04 79.3702C151.549 78.8826 152.201 78.5876 153.02 78.5876C153.208 78.5876 153.552 78.6104 153.981 78.8315L154.193 78.599H154.748L154.766 78.6046ZM153.22 79.0244C152.568 78.9506 151.955 79.2909 151.589 79.722C151.171 80.221 150.908 81.0717 150.908 81.8543C150.908 82.3535 151.016 82.5916 151.057 82.6654C151.24 83.0226 151.578 83.1304 151.823 83.1304C152.07 83.1304 152.379 83.0056 152.556 82.8865C152.745 82.7617 152.986 82.5463 153.089 82.4442L153.644 79.6596L153.215 79.0244H153.22Z" fill="#231F20"/>
<path d="M157.976 77.584L157.753 78.7863H159.286V79.2514H157.667L157.112 82.0587C157.06 82.331 157.049 82.4728 157.049 82.5464C157.049 82.8413 157.146 83.1816 157.701 83.1816C157.987 83.1816 158.416 83.0852 158.714 82.9831V83.3008C158.256 83.5106 157.661 83.7998 157.044 83.7998C156.534 83.7998 156.179 83.4312 156.179 82.83C156.179 82.5238 156.23 82.2572 156.264 82.1098L156.82 79.2514L156.179 79.3024V78.9848L156.957 78.6445L157.489 77.5897H157.982L157.976 77.584Z" fill="#231F20"/>
<path d="M163.723 79.1152C163.997 79.4102 164.254 79.9149 164.254 80.6465C164.254 81.4291 163.957 82.3365 163.362 82.9717C162.646 83.7317 161.851 83.7941 161.519 83.7941C160.827 83.7941 160.42 83.4764 160.209 83.2439C159.951 82.9604 159.716 82.4727 159.716 81.7637C159.716 80.9925 159.991 80.1247 160.53 79.5065C161.101 78.843 161.828 78.5991 162.435 78.5991C163.105 78.5991 163.51 78.8827 163.723 79.1152ZM161.05 79.9092C160.73 80.4706 160.615 81.1853 160.615 81.7581C160.615 83.0454 161.261 83.3744 161.65 83.3744C161.994 83.3744 162.452 83.193 162.813 82.6655C163.231 82.0756 163.368 81.2589 163.368 80.6295C163.368 79.1209 162.698 79.0245 162.326 79.0245C161.954 79.0245 161.439 79.223 161.056 79.9092H161.05Z" fill="#231F20"/>
<path d="M167.236 78.6049L167.035 79.62C167.654 79.1039 168.295 78.5935 169.09 78.5935C169.783 78.5935 169.994 78.9507 169.994 79.5123C169.994 79.756 169.886 80.2325 169.846 80.4309L169.485 81.9849C169.451 82.121 169.365 82.5124 169.365 82.6938C169.365 82.9888 169.565 83.2213 169.874 83.2213C169.994 83.2213 170.172 83.1986 170.532 83.0851V83.4028C170.075 83.624 169.628 83.7941 169.199 83.7941C168.529 83.7941 168.443 83.3801 168.443 83.1306C168.443 83.0568 168.455 82.8867 168.529 82.5578L168.987 80.6068C169.01 80.5104 169.084 80.1644 169.084 79.9092C169.084 79.5689 168.913 79.257 168.54 79.257C167.883 79.257 167.339 79.7731 166.932 80.1361L166.275 83.7033H165.382L166.257 79.3875L165.382 79.2287V78.9565L166.955 78.6161H167.23L167.236 78.6049Z" fill="#231F20"/>
<path d="M175.426 79.1152C175.7 79.4102 175.958 79.9149 175.958 80.6465C175.958 81.4291 175.661 82.3365 175.066 82.9717C174.35 83.7317 173.555 83.7941 173.222 83.7941C172.53 83.7941 172.124 83.4764 171.913 83.2439C171.655 82.9604 171.42 82.4727 171.42 81.7637C171.42 80.9925 171.695 80.1247 172.233 79.5065C172.805 78.843 173.532 78.5991 174.139 78.5991C174.808 78.5991 175.214 78.8827 175.426 79.1152ZM172.754 79.9092C172.433 80.4706 172.318 81.1853 172.318 81.7581C172.318 83.0454 172.971 83.3744 173.354 83.3744C173.698 83.3744 174.155 83.193 174.517 82.6655C174.934 82.0756 175.071 81.2589 175.071 80.6295C175.071 79.1209 174.402 79.0245 174.024 79.0245C173.647 79.0245 173.143 79.223 172.759 79.9092H172.754Z" fill="#231F20"/>
<path d="M177.755 78.5767H177.795C178.265 78.5767 178.488 78.7468 178.585 79.7677L178.859 82.6714C179.5 81.8887 180.13 80.97 180.491 80.0626L180.291 78.7751C180.451 78.6391 180.64 78.5767 180.834 78.5767C181.166 78.5767 181.389 78.7865 181.389 79.1494C181.389 79.9548 180.125 81.747 179.535 82.4445L178.47 83.7036H177.961C178.058 83.4823 178.11 83.2611 178.11 82.9777C178.11 82.8698 178.099 82.7564 178.087 82.6317L177.818 80.1533C177.784 79.8357 177.755 79.5181 177.498 79.2572L176.68 79.2175V78.9453L177.755 78.5994V78.5767Z" fill="#231F20"/>
<path d="M186.792 78.6046C186.581 79.1321 186.505 79.5575 186.386 80.1133L186.002 81.9791C185.939 82.3194 185.893 82.4839 185.893 82.6881C185.893 82.8072 185.905 82.9602 186.031 83.0907C186.145 83.2041 186.305 83.2154 186.403 83.2154C186.523 83.2154 186.7 83.1927 187.061 83.0794V83.3969C186.792 83.5217 186.483 83.6408 186.248 83.7032C185.979 83.777 185.819 83.7882 185.745 83.7882C185.487 83.7882 185.31 83.7146 185.189 83.4593C185.115 83.2892 185.081 83.068 185.092 82.8979C184.869 83.1418 184.657 83.3119 184.508 83.414C184.177 83.6578 183.879 83.7826 183.473 83.7826C182.906 83.7826 182.545 83.516 182.311 83.1361C182.077 82.7561 182.025 82.3024 182.025 81.9337C182.025 81.0263 182.345 80.0565 183.066 79.3702C183.575 78.8826 184.227 78.5876 185.046 78.5876C185.235 78.5876 185.578 78.6104 186.008 78.8315L186.219 78.599H186.775L186.792 78.6046ZM185.247 79.0244C184.594 78.9506 183.982 79.2909 183.615 79.722C183.197 80.221 182.934 81.0717 182.934 81.8543C182.934 82.3535 183.044 82.5916 183.084 82.6654C183.267 83.0226 183.604 83.1304 183.851 83.1304C184.096 83.1304 184.405 83.0056 184.582 82.8865C184.771 82.7617 185.012 82.5463 185.115 82.4442L185.67 79.6596L185.241 79.0244H185.247Z" fill="#231F20"/>
<path d="M58.0278 50.2991V51.6766L56.0579 51.8461L55.6862 52.3175L62.0642 69.2675L68.2044 52.3175L67.8624 51.8461L65.7587 51.6766V50.2991H72.5158V51.6766L70.4121 52.0449L62.6069 73.0317H60.2653L52.289 52.0449L50.1184 51.6766V50.2991H58.0278Z" fill="#231F20"/>
<path d="M79.5475 56.5163V70.9471L80.1273 71.4848L81.9634 71.6543V72.8624H74.292V71.6543L76.1281 71.4848L76.7079 70.9471V58.7705H74.2994V57.7244L78.2689 56.5163H79.5549H79.5475ZM78.3284 49.0469C79.4138 49.0469 80.2983 49.9234 80.2983 50.999C80.2983 52.0744 79.4138 52.9511 78.3284 52.9511C77.2432 52.9511 76.3585 52.0744 76.3585 50.999C76.3585 49.9234 77.2432 49.0469 78.3284 49.0469Z" fill="#231F20"/>
<path d="M95.6338 60.892H94.0059L93.701 58.5053C92.6158 57.9308 91.6642 57.8645 91.2257 57.8645C89.8653 57.8645 88.3786 58.2696 88.3786 60.1848C88.3786 61.6286 89.501 62.5053 91.4338 63.345C94.489 64.7225 96.1541 65.5992 96.1541 68.1184C96.1541 72.2878 92.2886 73.1644 89.6051 73.1644C87.7393 73.1644 86.379 72.8255 85.3606 72.4573V68.0816H86.9885L87.3974 70.9398C87.9772 71.2418 88.9584 71.6764 90.1776 71.6764C92.4819 71.6764 93.5003 70.5346 93.5003 68.9877C93.5003 66.9324 91.2257 66.1958 89.6646 65.4886C87.4568 64.4794 86.7134 63.7428 86.4384 63.404C85.7918 62.6305 85.6579 61.8202 85.6579 61.0835C85.6579 56.9142 89.9694 56.3765 91.6642 56.3765C93.53 56.3765 94.7491 56.7447 95.6338 57.0836V60.8846V60.892Z" fill="#231F20"/>
<path d="M118.709 72.0889C116.604 72.8255 114.226 73.2675 111.989 73.2675C109.238 73.2675 105.982 72.5972 103.336 69.7685C102.28 68.6562 100.214 65.9674 100.214 61.4297C100.214 57.2898 101.946 54.4022 103.915 52.6858C105.514 51.2716 108.19 49.894 112.33 49.894C115.215 49.894 117.422 50.5644 118.709 51.0359V56.2144H116.805L116.3 53.1573L115.861 52.5533C114.843 52.0524 113.653 51.6767 112.092 51.6767C105.677 51.6767 103.774 56.7889 103.774 61.4666C103.774 64.6267 104.689 67.0134 105.915 68.5309C107 69.879 109 71.4923 112.531 71.4923C113.75 71.4923 114.702 71.2934 115.52 71.0577L116.063 70.5198L116.805 66.7851H118.709V72.0963V72.0889Z" fill="#231F20"/>
<path d="M122.44 71.654L124.439 71.4847L125.02 70.9468V50.3653H122.404V49.3192L126.58 48.1111H127.875V70.9468L128.484 71.4847L130.453 71.654V72.8621H122.448V71.654H122.44Z" fill="#231F20"/>
<path d="M138.839 56.5163V70.9471L139.419 71.4848L141.255 71.6543V72.8624H133.583V71.6543L135.411 71.4848L135.992 70.9471V58.7705H133.583V57.7244L137.552 56.5163H138.847H138.839ZM137.62 49.0469C138.705 49.0469 139.589 49.9234 139.589 50.999C139.589 52.0744 138.705 52.9511 137.62 52.9511C136.534 52.9511 135.65 52.0744 135.65 50.999C135.65 49.9234 136.534 49.0469 137.62 49.0469Z" fill="#231F20"/>
<path d="M144.198 71.6538L146.034 71.4844L146.614 70.9466V58.77H144.206V57.724L148.175 56.5159H149.468V58.3649C150.383 57.8567 153.096 56.3833 155.066 56.3833C156.359 56.3833 159.578 56.7885 159.578 61.4587V70.9392L160.158 71.4771L161.994 71.6464V72.8545H154.53V71.6464L156.158 71.4771L156.739 70.9392V62.026C156.739 60.5822 156.463 58.5933 153.482 58.5933C152.331 58.5933 151.074 58.8658 149.476 59.6687V70.932L150.056 71.4697L151.684 71.639V72.8471H144.22V71.639L144.198 71.6538Z" fill="#231F20"/>
<path d="M170.23 56.5163V70.9471L170.811 71.4848L172.639 71.6543V72.8624H164.967V71.6543L166.803 71.4848L167.383 70.9471V58.7705H164.975V57.7244L168.944 56.5163H170.238H170.23ZM169.011 49.0469C170.097 49.0469 170.981 49.9234 170.981 50.999C170.981 52.0744 170.097 52.9511 169.011 52.9511C167.926 52.9511 167.042 52.0744 167.042 50.999C167.042 49.9234 167.926 49.0469 169.011 49.0469Z" fill="#231F20"/>
<path d="M189 71.4475C186.42 72.9577 184.659 73.1639 183.499 73.1639C179.054 73.1639 175.828 70.1069 175.828 64.7884C175.828 59.4698 179.054 56.3833 184.042 56.3833C187.743 56.3833 188.962 58.2029 188.962 59.5435C188.962 60.6558 188.22 61.3925 187.127 61.3925C186.755 61.3925 186.109 61.2894 185.528 60.921V58.166C185.187 57.9671 184.644 57.7314 183.834 57.7314C183.024 57.7314 181.663 57.9671 180.54 59.2783C179.419 60.5896 178.942 62.6079 178.942 64.4937C178.942 65.606 179.01 71.1529 184.644 71.1529C186.406 71.1529 187.967 70.3795 188.986 69.7091V71.4549L189 71.4475Z" fill="#231F20"/>
</g>
</g>
<defs>
<clipPath id="clip0_2001_534">
<rect width="189" height="86" fill="white"/>
</clipPath>
</defs>
</svg>
