<svg width="14" height="14" viewBox="0 0 14 14" fill="none" xmlns="http://www.w3.org/2000/svg">
<g clip-path="url(#clip0_346_4710)">
<path d="M12.9571 9.94708L11.1987 8.18871C10.5707 7.56073 9.50312 7.81195 9.25193 8.62831C9.06353 9.19352 8.43554 9.50751 7.87035 9.38189C6.61437 9.0679 4.91881 7.43513 4.60481 6.11635C4.41642 5.55114 4.79321 4.92315 5.3584 4.73478C6.17478 4.48358 6.42598 3.416 5.79799 2.78801L4.03962 1.02965C3.53723 0.590053 2.78365 0.590053 2.34405 1.02965L1.15088 2.22282C-0.0423021 3.4788 1.27647 6.80714 4.22802 9.75869C7.17956 12.7102 10.5079 14.0918 11.7639 12.8358L12.9571 11.6427C13.3967 11.1403 13.3967 10.3867 12.9571 9.94708Z" fill="white"/>
</g>
<defs>
<clipPath id="clip0_346_4710">
<rect width="12.6" height="12.6" fill="white" transform="translate(0.699997 0.699951)"/>
</clipPath>
</defs>
</svg>
