<svg width="96" height="96" viewBox="0 0 96 96" fill="none" xmlns="http://www.w3.org/2000/svg">
<circle cx="48" cy="48" r="48" fill="#4C8A89"/>
<g clip-path="url(#clip0_321_3129)">
<path d="M48 72C61.2548 72 72 61.2548 72 48C72 34.7452 61.2548 24 48 24C34.7452 24 24 34.7452 24 48C24 61.2548 34.7452 72 48 72Z" fill="#0D6564"/>
<path d="M55.4516 46.3122L45.3658 39.3962C44.913 39.0669 44.419 38.9022 44.0485 38.9022C43.2663 38.9022 42.8135 39.5197 42.8135 40.5077V55.4511C42.8135 56.4803 43.2663 57.0566 44.0073 57.0566C44.419 57.0566 44.8718 56.8919 45.3246 56.5626L55.4104 49.6466C56.0691 49.1938 56.4395 48.6175 56.4395 47.9588C56.4395 47.3002 56.1102 46.765 55.4516 46.3122Z" fill="white"/>
</g>
<defs>
<clipPath id="clip0_321_3129">
<rect width="48" height="48" fill="white" transform="translate(24 24)"/>
</clipPath>
</defs>
</svg>
