<svg width="135" height="100" viewBox="0 0 135 100" fill="none" xmlns="http://www.w3.org/2000/svg">
<path d="M104.882 99.9822C95.1968 99.745 87.9921 96.3055 83.2677 89.6638C78.7795 82.7848 76.5354 74.7198 76.5354 65.4688C76.5354 55.0317 78.7795 45.4249 83.2677 36.6483C87.7559 27.6345 93.4252 20.0439 100.276 13.8765C107.362 7.47197 114.921 2.84646 122.953 0L135 18.1462C131.693 20.0439 128.15 22.7717 124.37 26.3298C120.591 29.6507 117.165 33.3274 114.094 37.3599C111.024 41.1552 108.898 44.8319 107.717 48.39C112.441 48.6272 116.575 49.8132 120.118 51.948C123.661 54.0829 126.496 57.048 128.622 60.8433C130.748 64.4014 131.811 68.7897 131.811 74.0082C131.811 82.5476 129.094 89.0707 123.661 93.5777C118.465 98.0846 112.205 100.219 104.882 99.9822ZM28.7008 99.9822C18.7795 99.9822 11.4567 96.5427 6.73228 89.6638C2.24409 82.7848 0 74.7198 0 65.4688C0 55.0317 2.24409 45.4249 6.73228 36.6483C11.2205 27.6345 16.8898 20.0439 23.7402 13.8765C30.8268 7.47197 38.2677 2.84646 46.063 0L58.1102 18.1462C55.0394 20.0439 51.6142 22.7717 47.8346 26.3298C44.0551 29.6507 40.6299 33.3274 37.5591 37.3599C34.4882 41.1552 32.3622 44.8319 31.1811 48.39C35.6693 48.6272 39.685 49.8132 43.2283 51.948C47.0079 54.0829 49.9606 57.048 52.0866 60.8433C54.2126 64.4014 55.2756 68.7897 55.2756 74.0082C55.2756 82.5476 52.5591 89.0707 47.126 93.5777C41.6929 97.8474 35.5512 99.9822 28.7008 99.9822Z" fill="#F9F2E1"/>
</svg>
