<svg width="135" height="100" viewBox="0 0 135 100" fill="none" xmlns="http://www.w3.org/2000/svg">
<path d="M30.1181 0.0177826C39.8032 0.254989 47.0079 3.69447 51.7323 10.3362C56.2205 17.2152 58.4646 25.2802 58.4646 34.5312C58.4646 44.9683 56.2205 54.5751 51.7323 63.3517C47.2441 72.3655 41.5748 79.9561 34.7244 86.1235C27.6378 92.528 20.0787 97.1535 12.0472 100L1.58639e-06 81.8537C3.30708 79.9561 6.85039 77.2282 10.6299 73.6702C14.4094 70.3493 17.8346 66.6726 20.9055 62.6401C23.9764 58.8448 26.1024 55.1681 27.2835 51.61C22.5591 51.3728 18.4252 50.1868 14.8819 48.0519C11.3386 45.9171 8.50395 42.952 6.37797 39.1567C4.25199 35.5986 3.18899 31.2103 3.18899 25.9918C3.18899 17.4524 5.90553 10.9292 11.3386 6.42234C16.5354 1.91543 22.7953 -0.219431 30.1181 0.0177826ZM106.299 0.0177892C116.22 0.0177901 123.543 3.45727 128.268 10.3362C132.756 17.2152 135 25.2802 135 34.5312C135 44.9683 132.756 54.5751 128.268 63.3517C123.78 72.3655 118.11 79.9561 111.26 86.1235C104.173 92.528 96.7323 97.1535 88.937 100L76.8898 81.8538C79.9606 79.9561 83.3858 77.2283 87.1654 73.6702C90.9449 70.3493 94.3701 66.6726 97.4409 62.6401C100.512 58.8448 102.638 55.1681 103.819 51.61C99.3307 51.3728 95.315 50.1868 91.7717 48.052C87.9921 45.9171 85.0394 42.952 82.9134 39.1567C80.7874 35.5986 79.7244 31.2103 79.7244 25.9918C79.7244 17.4524 82.441 10.9292 87.874 6.42234C93.3071 2.15265 99.4488 0.0177886 106.299 0.0177892Z" fill="#F9F2E1"/>
</svg>
