<svg width="32" height="32" viewBox="0 0 32 32" fill="none" xmlns="http://www.w3.org/2000/svg">
<g clip-path="url(#clip0_2027_1265)">
<path d="M24.6085 31.35C24.1337 31.35 23.6173 31.212 23.0926 30.9363L15.9998 27.1978L11.6437 29.4953C11.144 29.7597 10.5246 29.567 10.2604 29.0653C9.99699 28.5643 10.1894 27.943 10.6899 27.6797L15.5227 25.1308C15.8213 24.9735 16.1777 24.9735 16.4763 25.1308L24.0443 29.1201C24.3988 29.3057 24.6046 29.3096 24.6496 29.2964C24.6334 29.2891 24.6935 29.0912 24.6256 28.6944L23.1808 20.2536C23.1237 19.92 23.234 19.5809 23.4752 19.3449L29.5952 13.3676C29.8835 13.0858 29.9519 12.8896 29.9529 12.8434C29.9385 12.8568 29.771 12.7385 29.3711 12.68L20.9149 11.4478C20.5816 11.3992 20.293 11.1895 20.1439 10.8867L17.7093 5.94417C17.4593 5.43561 17.6673 4.82113 18.1748 4.56991C18.6817 4.31869 19.2957 4.52759 19.546 5.03566L21.7425 9.49383L29.6662 10.6482C30.8171 10.8167 31.6331 11.3953 31.9055 12.235C32.1773 13.0753 31.8567 14.0234 31.0247 14.8358L25.2902 20.4376L26.6442 28.3471C26.8405 29.4936 26.5439 30.4491 25.8305 30.9686C25.4816 31.2225 25.0651 31.35 24.6085 31.35Z" fill="#9C5766"/>
<path d="M7.39221 31.3501C6.93664 31.3501 6.51964 31.2227 6.17027 30.9687C5.45688 30.4497 5.15951 29.4949 5.35482 28.3484L6.70983 20.4377L0.976094 14.8376C0.144049 14.0253 -0.177733 13.0771 0.0947322 12.2366C0.366953 11.3963 1.1824 10.8178 2.3328 10.6495L10.2587 9.49517L13.8049 2.298C14.3181 1.25471 15.1179 0.657349 15.9998 0.657349H16.0003C16.8823 0.657349 17.6834 1.25642 18.1963 2.30021C18.4461 2.80877 18.2373 3.42349 17.7305 3.67447C17.2229 3.92472 16.6094 3.71508 16.3591 3.20774C16.1812 2.84644 16.0164 2.72095 15.9727 2.70578C15.9819 2.72095 15.8174 2.84595 15.6399 3.20603L11.8557 10.8868C11.7065 11.1896 11.4182 11.3993 11.0847 11.448L2.62797 12.6801C2.22904 12.7381 2.05936 12.8574 2.03104 12.8946C2.04154 12.8932 2.116 13.0854 2.40556 13.3682L8.52528 19.3445C8.76674 19.5805 8.8771 19.9196 8.81997 20.253L7.3739 28.6945C7.30676 29.0903 7.36731 29.2882 7.39392 29.3264C7.39612 29.3097 7.60193 29.3058 7.9574 29.1192C8.45839 28.8557 9.07729 29.0485 9.34024 29.5509C9.60318 30.0524 9.41006 30.673 8.90932 30.936C8.38392 31.2121 7.86756 31.3501 7.39221 31.3501Z" fill="#9C5766"/>
<path d="M18.2757 21.2696C17.9097 21.2696 17.5545 21.125 17.2932 20.8643C17.0381 20.6087 16.8889 20.2476 16.8889 19.8802C16.8889 19.514 17.0388 19.1576 17.2932 18.9019C17.8147 18.3802 18.741 18.3802 19.2569 18.9019C19.5176 19.1576 19.6619 19.514 19.6619 19.8802C19.6619 20.2469 19.5171 20.6087 19.2569 20.8643C18.9969 21.125 18.6419 21.2696 18.2757 21.2696Z" fill="#9C5766"/>
<path d="M13.7216 16.7067C13.3557 16.7067 12.9951 16.5565 12.7399 16.296C12.4792 16.0404 12.3349 15.6791 12.3349 15.3173C12.3349 14.9511 12.4792 14.5893 12.7399 14.3337C13.2558 13.8111 14.1821 13.8111 14.698 14.3337C14.9587 14.5893 15.1084 14.9503 15.1084 15.3173C15.1084 15.6786 14.9587 16.0342 14.698 16.296C14.4428 16.5565 14.0822 16.7067 13.7216 16.7067Z" fill="#9C5766"/>
<path d="M13.3313 21.2979C13.0688 21.2979 12.8071 21.1978 12.6069 20.9978C12.2067 20.5963 12.2067 19.9466 12.6069 19.5467L17.9439 14.2C18.3445 13.7989 18.9922 13.7999 19.3921 14.2C19.7923 14.6015 19.7923 15.2512 19.3917 15.6511L14.0544 20.9978C13.8554 21.1978 13.593 21.2979 13.3313 21.2979Z" fill="#9C5766"/>
</g>
<defs>
<clipPath id="clip0_2027_1265">
<rect width="32" height="32" fill="white"/>
</clipPath>
</defs>
</svg>
