<svg width="24" height="24" viewBox="0 0 24 24" fill="none" xmlns="http://www.w3.org/2000/svg">
<path d="M23 9.69995C23 8.29995 22.7 6.79995 22.1 5.59995C21.7 5.09995 21.1 4.69995 20.4 4.59995C17.6 4.29995 14.8 4.19995 12 4.29995C9.20002 4.29995 6.40002 4.39995 3.70002 4.59995C3.10002 4.69995 2.60002 4.89995 2.20002 5.29995C1.30002 6.09995 1.20002 7.59995 1.10002 8.69995C1.00002 10.9 1.00002 13 1.10002 15.2C1.10002 15.9 1.20002 16.5 1.40002 17.2C1.50002 17.7 1.80002 18.2 2.10002 18.6C2.50002 19 3.00002 19.3 3.60002 19.4C5.80002 19.7 7.90003 19.8 10.1 19.7C13.6 19.7 16.7 19.7 20.3 19.4C20.9 19.3 21.4 19 21.8 18.6C22.1 18.3 22.3 18 22.4 17.6C22.8 16.5 22.9 15.4 22.9 14.2C23 13.7 23 10.3 23 9.69995ZM9.70002 14.9V8.69995L15.6 11.8C14 12.7 11.8 13.7 9.70002 14.9Z" fill="#A66674"/>
</svg>
