<svg width="19" height="16" viewBox="0 0 19 16" fill="none" xmlns="http://www.w3.org/2000/svg">
<g clip-path="url(#clip0_321_3172)">
<path d="M17.6196 0.178143L0.744024 6.62976C0.744024 6.62976 -0.0565729 6.89397 0.00646623 7.38552C0.0695054 7.87707 0.718809 8.10441 0.718809 8.10441L4.96134 9.49919L4.96765 9.50533V9.49919L15.1548 3.1889C15.1548 3.1889 15.741 2.83867 15.7221 3.1889C15.7221 3.1889 15.8293 3.25034 15.5141 3.53913C15.1989 3.82791 7.50813 10.5622 7.50813 10.5622L7.49552 10.6912L14.4172 15.8648C15.5708 16.3563 15.9932 15.3302 15.9932 15.3302L19.0002 0.56524C19.0002 -0.417863 17.6133 0.178143 17.6196 0.178143Z" fill="#1393E2"/>
<path d="M10.1429 12.6697L7.4007 15.1091C7.4007 15.1091 7.18637 15.2688 6.95312 15.1705L7.47635 10.6421" fill="#1393E2"/>
</g>
<defs>
<clipPath id="clip0_321_3172">
<rect width="19" height="16" fill="white"/>
</clipPath>
</defs>
</svg>
