<svg width="28" height="28" viewBox="0 0 28 28" fill="none" xmlns="http://www.w3.org/2000/svg">
<path d="M18.8463 22.9722C18.6856 22.9722 18.526 22.9246 18.3891 22.8318L13.2167 19.3232L10.4424 21.3194C10.2248 21.4758 9.9444 21.5153 9.69175 21.4249C9.43943 21.3344 9.2478 21.1254 9.1794 20.8662L7.78642 15.5872L2.80915 13.6841C2.49581 13.5642 2.288 13.2644 2.28572 12.9289C2.28344 12.5935 2.48713 12.2909 2.79894 12.1668L21.7244 4.6362C21.8102 4.59972 21.9011 4.57866 21.9928 4.57301C22.0255 4.57106 22.0584 4.57106 22.0911 4.5729C22.2809 4.5842 22.4673 4.6615 22.6128 4.80416C22.6279 4.81893 22.6422 4.83402 22.6558 4.84976C22.7763 4.98743 22.8426 5.15528 22.855 5.32629C22.8581 5.36928 22.8579 5.41282 22.8541 5.45636C22.8515 5.48741 22.847 5.51835 22.8407 5.54908L19.6462 22.3103C19.5948 22.5796 19.4116 22.805 19.1584 22.91C19.0579 22.9517 18.9519 22.9722 18.8463 22.9722ZM13.6708 17.6633L18.2783 20.7886L20.7639 7.74647L11.7864 16.3851L13.6491 17.6487C13.6566 17.6533 13.6638 17.6583 13.6708 17.6633ZM9.83529 16.9684L10.4522 19.3059L11.7813 18.3495L10.0409 17.1689C9.96004 17.1142 9.89077 17.046 9.83529 16.9684ZM5.34051 12.9082L8.75814 14.2149C9.00297 14.3085 9.18776 14.5143 9.25464 14.7677L9.68806 16.4103C9.70793 16.2208 9.79381 16.0426 9.93333 15.9083L18.4876 7.67698L5.34051 12.9082Z" fill="#434242"/>
</svg>
