<svg width="25" height="14" viewBox="0 0 25 14" fill="none" xmlns="http://www.w3.org/2000/svg">
<g clip-path="url(#clip0_321_3168)">
<path d="M0.236839 2.11731C0.0285481 1.58213 -0.237601 1.02418 0.393057 0.722429C1.67173 0.705349 2.9504 0.688269 4.23486 0.671189C4.7903 0.688269 5.04488 1.0925 5.33996 1.65614C6.20205 3.29014 7.09886 4.91844 8.18081 6.4158C8.53375 6.90543 9.12969 7.09331 9.59835 6.31332C9.65042 5.26005 9.70249 4.20677 9.75457 3.1535C9.58099 1.92942 9.14705 1.20637 8.3891 1.13235C7.95516 0.716736 8.2676 0.375133 9.23962 0.192945C10.7844 -0.131577 12.1326 0.0164509 13.3186 0.164479C14.3196 0.227106 14.4642 0.89323 14.4469 1.65614C14.4122 3.05102 14.3832 4.45159 14.3832 5.84646C14.6783 7.26411 15.4652 6.69478 15.9859 6.07989C16.9174 4.77611 17.7275 3.50649 18.4044 2.07745C19.1045 0.608562 19.2954 0.716736 19.7872 0.711042C20.9618 0.705349 22.2578 0.648415 23.1951 0.682575C25.1507 0.568708 24.9251 1.42271 24.3754 2.32796C23.4265 3.90502 22.2057 5.32837 21.118 6.83142C20.4584 7.71389 20.47 8.26615 21.17 8.74439C22.2057 9.86599 23.3282 10.9136 24.2713 12.1092C25.2954 13.413 24.5432 13.7716 23.5885 13.8684C22.4487 13.8684 21.3089 13.8684 20.1691 13.8684C19.1971 13.8855 18.3176 13.6464 17.6985 12.6273C16.2694 10.7655 15.2048 10.2531 14.7767 11.3007C14.5915 11.7619 14.4353 12.3825 14.4411 12.986C14.4469 13.8286 13.9319 13.8969 13.2319 13.9197C12.4797 13.9197 11.6986 14.1019 10.9696 13.9197C8.3891 13.2763 5.91276 12.0921 3.50006 8.02133C2.41232 6.26208 1.32458 4.33772 0.236839 2.11731Z" fill="#416794"/>
</g>
<defs>
<clipPath id="clip0_321_3168">
<rect width="24.7692" height="14" fill="white"/>
</clipPath>
</defs>
</svg>
