<svg width="28" height="28" viewBox="0 0 28 28" fill="none" xmlns="http://www.w3.org/2000/svg">
<path d="M20.9602 6.41581C19.0258 4.49053 16.4525 3.42957 13.7138 3.42847C10.9813 3.42847 8.4039 4.48849 6.45682 6.4133C4.50629 8.3414 3.4311 10.9037 3.42859 13.6189V13.6239C3.4289 15.2673 3.86108 16.9252 4.68145 18.4385L3.45671 23.9999L9.08759 22.7203C10.5137 23.4383 12.105 23.8169 13.7099 23.8175H13.714C16.4461 23.8175 19.0234 22.7573 20.9708 20.8324C22.9231 18.9027 23.9988 16.3437 24 13.6268C24.0008 10.929 22.9214 8.36808 20.9602 6.41581ZM13.7138 22.2119H13.7102C12.2692 22.2113 10.8413 21.8499 9.5812 21.1664L9.31491 21.022L5.57063 21.8728L6.38393 18.1801L6.22714 17.91C5.44762 16.567 5.03571 15.0845 5.03571 13.6222C5.03869 8.88914 8.93128 5.03404 13.7135 5.03404C16.0238 5.03498 18.1946 5.92974 19.8259 7.55321C21.4819 9.20178 22.3935 11.3586 22.3927 13.6263C22.3909 18.3605 18.4975 22.2119 13.7138 22.2119Z" fill="#434242"/>
<path d="M10.9151 9.12833H10.4642C10.3073 9.12833 10.0525 9.18703 9.83695 9.42135C9.62126 9.65583 9.01344 10.2226 9.01344 11.3752C9.01344 12.5278 9.85659 13.6415 9.9741 13.798C10.0918 13.9543 11.6016 16.3952 13.993 17.3342C15.9804 18.1145 16.385 17.9593 16.8162 17.9202C17.2476 17.8813 18.2083 17.3536 18.4043 16.8067C18.6004 16.2597 18.6004 15.7908 18.5416 15.6928C18.4827 15.5952 18.3258 15.5367 18.0906 15.4196C17.8553 15.3023 16.7022 14.726 16.4865 14.6477C16.2708 14.5697 16.114 14.5306 15.957 14.7653C15.8001 14.9994 15.3381 15.5412 15.2008 15.6975C15.0636 15.854 14.9263 15.8736 14.691 15.7564C14.4557 15.6388 13.7057 15.3871 12.8069 14.5892C12.1073 13.9681 11.6219 13.1762 11.4846 12.9417C11.3475 12.7074 11.47 12.5805 11.588 12.4636C11.6937 12.3588 11.8365 12.2153 11.9542 12.0786C12.0717 11.9418 12.1051 11.8442 12.1837 11.6878C12.2621 11.5315 12.2228 11.3947 12.1641 11.2776C12.1051 11.1603 11.6536 10.0019 11.4444 9.53859C11.2681 9.14842 11.0827 9.13524 10.9151 9.12833Z" fill="#434242"/>
</svg>
