<svg width="24" height="24" viewBox="0 0 24 24" fill="none" xmlns="http://www.w3.org/2000/svg">
<path d="M23.0004 9.69995C23.0004 8.29995 22.7004 6.79995 22.1004 5.59995C21.7004 5.09995 21.1004 4.69995 20.4004 4.59995C17.6004 4.29995 14.8004 4.19995 12.0004 4.29995C9.20039 4.29995 6.40039 4.39995 3.70039 4.59995C3.10039 4.69995 2.60039 4.89995 2.20039 5.29995C1.30039 6.09995 1.20039 7.59995 1.10039 8.69995C1.00039 10.9 1.00039 13 1.10039 15.2C1.10039 15.9 1.20039 16.5 1.40039 17.2C1.50039 17.7 1.80039 18.2 2.10039 18.6C2.50039 19 3.00039 19.3 3.60039 19.4C5.80039 19.7 7.90039 19.8 10.1004 19.7C13.6004 19.7 16.7004 19.7 20.3004 19.4C20.9004 19.3 21.4004 19 21.8004 18.6C22.1004 18.3 22.3004 18 22.4004 17.6C22.8004 16.5 22.9004 15.4 22.9004 14.2C23.0004 13.7 23.0004 10.3 23.0004 9.69995ZM9.70039 14.9V8.69995L15.6004 11.8C14.0004 12.7 11.8004 13.7 9.70039 14.9Z" fill="#FE3737"/>
</svg>
