<svg width="54" height="54" viewBox="0 0 54 54" fill="none" xmlns="http://www.w3.org/2000/svg">
<path d="M38.6582 6.16428C37.2104 4.80084 35.3566 4.146 33.4884 4.146C31.3854 4.146 29.2631 4.97575 27.6801 6.55942L27 7.23958L26.3198 6.55916C24.7368 4.97614 22.6145 4.146 20.5115 4.146C18.643 4.146 16.79 4.80084 15.3417 6.16428C12.1569 9.16308 12.1 14.1776 15.1712 17.2488L27.0001 29.0775L38.8288 17.2488C41.9 14.1774 41.8432 9.16295 38.6582 6.16428Z" fill="#C5A780"/>
<path d="M22.8539 49.8539L22.8448 38.1337C22.8448 32.4735 19.9455 29.155 16.1052 27.905C15.0335 27.5807 14.0732 26.7284 13.1801 25.8349C11.5575 24.145 9.82276 21.8338 7.57568 21.8625L7.5736 21.8539C6.84059 21.8636 6.1077 22.1285 5.47221 22.7639C3.9819 24.2543 4.58402 26.5312 5.8693 27.8165L10.0443 31.9911C10.4338 32.3806 10.6529 32.9091 10.6529 33.4601C10.6529 34.0112 10.4338 34.5395 10.0443 34.9292L4.40028 29.2855C3.41938 28.3047 2.75286 26.9788 2.57119 25.6481C2.34499 23.9903 2.85323 22.4444 4.00255 21.2951C4.86334 20.4343 5.91942 19.9484 7.07133 19.8255L6.22834 16.4207C6.16445 3.78508 0.000519407 5.32876 0.000519407 8.30119L0 30.4836C0 31.8614 0.533691 33.1599 1.50342 34.1397C11.8246 44.5564 10.3881 41.2006 10.3881 49.8539H22.8539Z" fill="#C5A780"/>
<path d="M53.9994 8.30162C53.9994 5.32931 47.8354 3.78551 47.7716 16.4212L46.9286 19.8261C48.0805 19.9489 49.1366 20.4347 49.9973 21.2956C51.1467 22.4449 51.655 23.9908 51.4287 25.6486C51.2472 26.9794 50.5806 28.3053 49.5996 29.286L43.9556 34.9298C43.5661 34.54 43.347 34.0117 43.347 33.4606C43.347 32.9098 43.5661 32.3812 43.9556 31.9916L48.1306 27.817C49.4159 26.5318 50.018 24.2547 48.5277 22.7645C47.8922 22.129 47.1592 21.8641 46.4263 21.8545L46.4242 21.8631C44.1771 21.8344 42.4424 24.1456 40.8198 25.8355C39.9266 26.729 38.9663 27.5811 37.8946 27.9056C34.0544 29.1554 31.1551 32.474 31.1551 38.1341L31.146 49.8543H43.6118C43.6118 41.2012 42.1753 44.557 52.4965 34.1402C53.4663 33.1602 53.9999 31.8617 53.9999 30.4841L53.9994 8.30162Z" fill="#C5A780"/>
</svg>
