<svg width="54" height="54" viewBox="0 0 54 54" fill="none" xmlns="http://www.w3.org/2000/svg">
<g clip-path="url(#clip0_145_399)">
<path d="M30.7001 15.2774L28.4629 17.5146L32.9374 21.9891L35.1746 19.7519L30.7001 15.2774Z" fill="#C5A780"/>
<path d="M35.1741 10.8022L32.9368 13.0396L37.4113 17.5141L39.6486 15.2768L35.1741 10.8022Z" fill="#C5A780"/>
<path d="M41.8856 4.09195L37.4111 8.56641L41.8857 13.0409L46.3601 8.56648L41.8856 4.09195Z" fill="#C5A780"/>
<path d="M26.2245 19.7515L21.75 24.2261L26.2245 28.7006L30.6991 24.2261L26.2245 19.7515Z" fill="#C5A780"/>
<path d="M53.0732 10.8026L51.9546 9.68408C51.3366 9.06624 50.3351 9.06624 49.7171 9.68408L31.6138 27.7874C30.2884 29.1129 28.6006 30.016 26.7629 30.3838L21.2125 31.4938C19.3751 31.8613 17.6877 32.7644 16.3627 34.0893L0.925091 48.6003C-0.308364 49.8335 -0.308364 51.8413 0.925091 53.0748C2.15855 54.3082 4.16635 54.3082 5.3997 53.0748L18.3531 41.0481C19.63 39.7712 21.2447 38.8848 23.0077 38.4927L30.0138 36.9354C31.1907 36.6737 32.2686 36.082 33.1207 35.2297L53.0732 15.2773C54.3089 14.0415 54.3089 12.0383 53.0732 10.8026Z" fill="#C5A780"/>
<path d="M30.6999 1.85335C30.5754 1.9778 31.5151 1.03828 22.8693 9.68417C21.0123 11.5412 18.0142 11.5412 16.1573 9.68417C15.5308 9.05769 14.5464 9.05769 13.9199 9.68417L12.8012 10.8027C10.3467 13.2575 10.3301 17.2809 12.8012 19.752C15.3162 22.267 19.3399 22.1627 21.7506 19.752C25.8731 15.6294 36.0827 5.42008 39.5374 1.96535L39.6492 1.85335C37.1779 -0.617782 33.171 -0.617782 30.6999 1.85335Z" fill="#C5A780"/>
</g>
<defs>
<clipPath id="clip0_145_399">
<rect width="54" height="54" fill="white"/>
</clipPath>
</defs>
</svg>
