<svg width="54" height="54" viewBox="0 0 54 54" fill="none" xmlns="http://www.w3.org/2000/svg">
<g clip-path="url(#clip0_145_394)">
<path d="M22.2336 37.5767H28.5859V42.3409H22.2336V37.5767Z" fill="#C5A780"/>
<path d="M52.9529 36.6607L41.6501 23.2843H36.5261V16.932H39.7023V20.1082H50.8187V10.5798H39.7023V13.7559H36.5261V0.54248L23.9064 4.09593C23.0396 3.19889 21.8254 2.63947 20.4825 2.63947C17.8555 2.63947 15.7183 4.77668 15.7183 7.40366C15.7183 10.0306 17.8555 12.1678 20.4825 12.1678C23.1093 12.1678 25.2467 10.0306 25.2467 7.40366C25.2467 7.27534 25.2401 7.14861 25.23 7.02284L33.35 4.73645V23.2843H16.7612L10.6461 9.15995C9.76642 7.12839 7.76747 5.81559 5.5535 5.81559C1.68328 5.81559 -1.00182 9.68835 0.35767 13.3133L8.26538 34.4007H35.8261L44.0468 43.3956C45.9517 45.7805 49.4347 46.1899 51.8415 44.315C54.2131 42.4679 54.7012 39.1059 52.9529 36.6607Z" fill="#C5A780"/>
<path d="M34.6205 45.5171H16.1989L14.2932 50.2813H9.52905V53.4574H41.2903V50.2813H36.5261L34.6205 45.5171Z" fill="#C5A780"/>
</g>
<defs>
<clipPath id="clip0_145_394">
<rect width="54" height="54" fill="white"/>
</clipPath>
</defs>
</svg>
