<svg width="64" height="64" viewBox="0 0 64 64" fill="none" xmlns="http://www.w3.org/2000/svg">
<path d="M9.13698 20.5842L11.136 24.2402L13.135 20.5842C13.227 20.4172 13.365 20.2782 13.532 20.1872L17.188 18.1882L13.532 16.1892C13.365 16.0972 13.226 15.9592 13.135 15.7922L11.136 12.1362L9.13698 15.7922C9.04498 15.9592 8.90698 16.0982 8.73998 16.1892L5.08398 18.1882L8.73998 20.1872C8.90698 20.2792 9.04598 20.4172 9.13698 20.5842Z" fill="#C5A780"/>
<path d="M46.596 10.2952C42.361 9.72823 38.181 11.0952 35.138 14.0472C34.751 14.4222 34.135 14.4232 33.747 14.0482C30.693 11.0982 26.515 9.72823 22.276 10.2952C19.362 10.6852 16.637 12.0502 14.514 14.1452L14.749 14.5752L19.752 17.3112C20.073 17.4862 20.272 17.8232 20.272 18.1882C20.272 18.5532 20.073 18.8902 19.752 19.0652L14.749 21.8012L12.013 26.8042C11.838 27.1252 11.501 27.3242 11.136 27.3242C11.02 27.3242 10.91 27.2982 10.804 27.2602C11.658 30.6762 13.793 33.6992 16.859 35.6232C17.151 35.8062 17.327 36.1262 17.327 36.4702V48.1982C17.327 51.3032 19.858 53.8292 22.97 53.8292C24.47 53.8292 25.89 53.2422 26.967 52.1762C28.028 51.1152 28.614 49.7012 28.614 48.1982V40.6122C28.614 38.6032 29.656 36.7552 31.4 35.6682C31.423 35.6532 31.452 35.6382 31.481 35.6232C33.281 34.5132 35.591 34.5132 37.39 35.6232C37.417 35.6372 37.443 35.6522 37.469 35.6682C39.223 36.7512 40.27 38.6002 40.27 40.6132V47.9202C40.27 51.0932 42.721 53.7442 45.733 53.8312C47.264 53.8762 48.736 53.3152 49.843 52.2422C50.948 51.1712 51.556 49.7352 51.556 48.2002V44.2932L49.25 40.0762L44.247 37.3402C43.926 37.1652 43.727 36.8282 43.727 36.4632C43.727 36.0982 43.927 35.7612 44.247 35.5862L49.25 32.8502L51.986 27.8472C52.337 27.2052 53.39 27.2052 53.741 27.8472L55.956 31.8982C57.923 29.1432 58.79 25.7962 58.404 22.3322C57.702 16.1802 52.736 11.1182 46.595 10.2982L46.596 10.2952Z" fill="#C5A780"/>
<path d="M54.863 34.0632L52.864 30.4072L50.865 34.0632C50.773 34.2302 50.635 34.3692 50.468 34.4602L46.812 36.4592L50.468 38.4592C50.635 38.5512 50.774 38.6892 50.865 38.8562L52.864 42.5112L54.863 38.8562C54.955 38.6892 55.093 38.5502 55.26 38.4592L58.916 36.4592L55.26 34.4602C55.093 34.3682 54.954 34.2302 54.863 34.0632Z" fill="#C5A780"/>
</svg>
