<svg width="54" height="54" viewBox="0 0 54 54" fill="none" xmlns="http://www.w3.org/2000/svg">
<path fill-rule="evenodd" clip-rule="evenodd" d="M47.8052 24.1501C46.8874 32.6712 44.0939 42.1092 37.2652 49.2318C36.1319 50.4144 35.1016 50.7014 34.27 50.6349C33.1368 50.5443 32.0188 49.6215 31.0983 48.01C30.4142 46.8123 29.7273 45.1887 28.7345 43.8702C28.0114 42.9096 27.1118 42.1016 25.7546 42.1016C24.4017 42.1016 23.509 42.8991 22.7956 43.8491C21.8126 45.157 21.1368 46.7715 20.4554 47.9662C19.546 49.5626 18.4406 50.4914 17.2962 50.5986C16.4591 50.6772 15.426 50.4068 14.2733 49.262C6.759 41.8041 4.11288 31.1957 3.49411 21.9782C3.2021 17.8943 5.15854 13.9781 8.59864 11.7579C12.0387 9.53928 16.4174 9.37013 20.0174 11.3184C21.3579 12.0464 22.6608 12.6581 23.8399 13.01C23.9692 14.1563 24.2126 15.3011 24.6075 16.4475C24.2668 16.896 23.9261 17.3582 23.591 17.8309C22.601 19.2295 20.8392 19.4832 19.6364 19.5406C18.7048 19.5844 17.9845 20.3743 18.029 21.3046C18.0721 22.235 18.8633 22.9554 19.795 22.9116C21.7931 22.818 24.5977 22.1579 26.2747 19.8819C28.1032 22.7349 31.204 25.6815 36.5533 28.5058C38.0327 29.2881 39.8042 29.2881 41.2851 28.5058C43.9924 27.0755 46.1241 25.6151 47.8052 24.1501ZM38.1301 25.5214C32.8642 22.7394 30.0443 19.9061 28.5732 17.1256C27.0422 14.2333 26.924 11.3471 27.2494 8.45488C27.3454 7.60155 28.0684 6.95665 28.9277 6.95665C30.759 6.95665 31.6628 5.49014 31.6628 3.77593C31.6628 2.84407 32.4193 2.0874 33.3523 2.0874H44.4847C45.4177 2.0874 46.1741 2.84407 46.1741 3.77593C46.1741 5.49014 47.0779 6.95665 48.9106 6.95665C49.77 6.95665 50.4916 7.60155 50.5876 8.45488C50.9129 11.3471 50.7948 14.2333 49.2652 17.1256C47.7941 19.9061 44.9727 22.7394 39.7069 25.5214C39.2133 25.7812 38.6237 25.7812 38.1301 25.5214ZM34.3479 15.0957L36.88 17.627C37.2165 17.9623 37.6768 18.142 38.1509 18.1194C38.6251 18.0982 39.0673 17.8792 39.3718 17.5137L43.592 12.4512C44.1885 11.7353 44.0912 10.6705 43.3764 10.0739C42.6603 9.47736 41.5952 9.57402 40.9987 10.2899L37.9604 13.9343L36.7354 12.7094C36.0763 12.0494 35.007 12.0494 34.3479 12.7094C33.6888 13.3679 33.6888 14.4372 34.3479 15.0957Z" fill="#C5A780"/>
</svg>
