<svg width="54" height="54" viewBox="0 0 54 54" fill="none" xmlns="http://www.w3.org/2000/svg">
<path d="M47.25 2.74219H6.75C4.53938 2.74219 2.74219 4.53938 2.74219 6.75V47.25C2.74219 49.4606 4.53938 51.2578 6.75 51.2578H47.25C49.4606 51.2578 51.2578 49.4606 51.2578 47.25V6.75C51.2578 4.53938 49.4606 2.74219 47.25 2.74219ZM16.5122 30.5859C16.2675 29.3794 15.9891 28.1644 15.6009 26.9747C15.1791 25.6838 14.8584 24.5025 14.6475 23.4141H39.3525C39.1416 24.5025 38.8209 25.6838 38.3991 26.9747C38.0194 28.1728 37.7325 29.3794 37.4963 30.5859H16.5122ZM24.6206 31.8516C23.9119 32.8809 23.5997 34.3912 23.3128 35.7919C22.7812 38.3906 22.3509 39.9769 20.8153 39.8588C18.3516 39.8588 17.7272 37.1419 16.9172 32.7037C16.8581 32.4169 16.8075 32.1384 16.7569 31.8516H24.6206ZM15.2128 30.5859H9.07031V23.4141H13.3734C13.5928 24.6459 13.9387 25.9538 14.3944 27.3628C14.7319 28.4175 14.9934 29.4975 15.2128 30.5859ZM37.2431 31.8516C37.1925 32.13 37.1419 32.4169 37.0912 32.6953C36.2728 37.1334 35.6484 39.8588 33.1341 39.8588C31.6238 39.96 31.2188 38.3906 30.6872 35.8003C30.4003 34.3913 30.0881 32.8809 29.3794 31.8516H37.2431ZM44.9297 30.5859H38.7872C39.0066 29.5059 39.2681 28.4175 39.6056 27.3628C40.0612 25.9622 40.4072 24.6459 40.6266 23.4141H44.9297V30.5859ZM39.5466 22.1484H14.4534C14.1075 18.9 15.1031 16.5459 18.5456 14.6981C19.1025 14.4028 19.6594 14.2678 20.25 14.2678C21.6084 14.2678 23.0934 14.985 24.8737 16.0988C26.19 16.9172 27.8269 16.9172 29.1431 16.0988C31.6828 14.5126 33.6234 13.7195 35.4459 14.6981C38.8969 16.5375 39.8925 18.9 39.5466 22.1484ZM35.4375 44.9297H44.9297V35.4375C44.9297 35.0916 45.2166 34.8047 45.5625 34.8047C45.9084 34.8047 46.1953 35.0916 46.1953 35.4375V45.5625C46.1953 45.9084 45.9084 46.1953 45.5625 46.1953H35.4375C35.0916 46.1953 34.8047 45.9084 34.8047 45.5625C34.8047 45.2166 35.0916 44.9297 35.4375 44.9297ZM18.5625 9.07031H9.07031V18.5625C9.07031 18.9084 8.78344 19.1953 8.4375 19.1953C8.09156 19.1953 7.80469 18.9084 7.80469 18.5625V8.4375C7.80469 8.09156 8.09156 7.80469 8.4375 7.80469H18.5625C18.9084 7.80469 19.1953 8.09156 19.1953 8.4375C19.1953 8.78344 18.9084 9.07031 18.5625 9.07031ZM8.4375 34.8047C8.78344 34.8047 9.07031 35.0916 9.07031 35.4375V44.9297H18.5625C18.9084 44.9297 19.1953 45.2166 19.1953 45.5625C19.1953 45.9084 18.9084 46.1953 18.5625 46.1953H8.4375C8.09156 46.1953 7.80469 45.9084 7.80469 45.5625V35.4375C7.80469 35.0916 8.09156 34.8047 8.4375 34.8047Z" fill="#C5A780"/>
</svg>
