<svg width="42" height="42" viewBox="0 0 42 42" fill="none" xmlns="http://www.w3.org/2000/svg">
<path d="M27.9771 20.0001C27.5049 20.0001 27.1232 20.3826 27.1232 20.854V27.685C27.1232 28.1555 26.7407 28.5389 26.2693 28.5389H14.3151C13.8437 28.5389 13.4612 28.1555 13.4612 27.685V15.7307C13.4612 15.2602 13.8437 14.8768 14.3151 14.8768H21.1461C21.6183 14.8768 21.9999 14.4943 21.9999 14.0229C21.9999 13.5516 21.6183 13.1691 21.1461 13.1691H14.3151C12.9027 13.1691 11.7534 14.3184 11.7534 15.7307V27.685C11.7534 29.0973 12.9027 30.2466 14.3151 30.2466H26.2693C27.6816 30.2466 28.831 29.0973 28.831 27.685V20.854C28.831 20.3818 28.4493 20.0001 27.9771 20.0001Z" fill="white"/>
<path d="M19.7595 19.2222C19.6997 19.282 19.6596 19.358 19.6425 19.4399L19.0388 22.4592C19.0107 22.5993 19.0551 22.7436 19.1558 22.8452C19.2369 22.9263 19.3462 22.9699 19.4581 22.9699C19.4854 22.9699 19.5136 22.9673 19.5418 22.9613L22.5602 22.3576C22.6439 22.3405 22.7199 22.3004 22.7788 22.2406L29.5347 15.4848L26.5162 12.4663L19.7595 19.2222Z" fill="white"/>
<path d="M31.6216 10.3785C30.7891 9.54602 29.4348 9.54602 28.6032 10.3785L27.4214 11.5603L30.4398 14.5788L31.6216 13.397C32.0246 12.9948 32.2466 12.4586 32.2466 11.8882C32.2466 11.3178 32.0246 10.7816 31.6216 10.3785Z" fill="white"/>
<circle cx="21" cy="21" r="20.5" stroke="white"/>
</svg>
