<svg width="44" height="44" viewBox="0 0 44 44" fill="none" xmlns="http://www.w3.org/2000/svg">
<path d="M30.3428 16.6959C31.3457 18.266 31.8828 20.0922 31.8828 22C31.8828 24.64 30.855 27.1219 28.9884 28.9884C27.1219 30.855 24.64 31.8828 22 31.8828C20.0922 31.8828 18.266 31.3457 16.6959 30.3428L30.3428 16.6959ZM44 31.1094C44 38.2284 38.2284 44 31.1094 44H12.8906C5.77156 44 0 38.2284 0 31.1094V12.8906C0 5.77156 5.77156 0 12.8906 0H31.1094C38.2284 0 44 5.77156 44 12.8906V31.1094ZM32.0263 11.9737C29.2574 9.20477 25.6283 7.82031 22 7.82031C18.3717 7.82031 14.7426 9.20477 11.9737 11.9737C6.43586 17.5115 6.43586 26.4894 11.9737 32.0272C14.7426 34.7961 18.3717 36.1805 22 36.1805C25.6283 36.1805 29.2574 34.7961 32.0263 32.0272C37.5641 26.4894 37.5641 17.5115 32.0263 11.9737ZM22 12.1172C19.36 12.1172 16.8781 13.145 15.0116 15.0116C13.145 16.8781 12.1172 19.36 12.1172 22C12.1172 23.9087 12.6543 25.734 13.6572 27.3041L27.3041 13.6572C25.734 12.6543 23.9078 12.1172 22 12.1172Z" fill="white"/>
</svg>
