<svg width="24" height="17" viewBox="0 0 24 17" fill="none" xmlns="http://www.w3.org/2000/svg">
<path d="M23.1235 5.23909C23.1229 6.14508 23.0341 7.10133 22.8571 8.1456C22.6802 9.17728 22.4026 10.2089 22.0244 11.2153C21.6461 12.2342 21.1421 13.1902 20.5374 14.1083C19.9202 15.0138 19.1772 15.806 18.3211 16.4597L15.0008 14.1168C15.5801 13.4629 15.9958 12.834 16.2731 12.2428C16.5504 11.6516 16.7773 11.0604 16.9288 10.4565C16.3123 10.3554 15.7462 10.1411 15.2053 9.82608C14.6645 9.51111 14.2244 9.1207 13.8346 8.65484C13.4575 8.18898 13.1559 7.67285 12.9298 7.09386C12.7037 6.51487 12.591 5.88563 12.5914 5.23131C12.592 4.51407 12.7309 3.84726 13.0082 3.21831C13.2855 2.58936 13.6634 2.03598 14.1419 1.55817C14.6204 1.08036 15.1869 0.70329 15.8163 0.426926C16.4582 0.15057 17.1126 0.0126412 17.8173 0.0131621C18.5597 0.0137109 19.2517 0.152635 19.8932 0.42994C20.5347 0.707243 21.1007 1.08516 21.5659 1.56366C22.0437 2.04217 22.4082 2.5961 22.6846 3.22546C22.9861 3.85484 23.1241 4.52185 23.1235 5.23909ZM10.5278 5.22978C10.5271 6.13577 10.4383 7.09202 10.2614 8.13629C10.0845 9.18056 9.80689 10.1996 9.42865 11.206C9.0504 12.2249 8.55895 13.1809 7.95428 14.099C7.34962 15.0045 6.61921 15.7967 5.75049 16.4504L2.40511 14.1075C2.98442 13.4536 3.41271 12.8247 3.68997 12.2335C3.97982 11.6423 4.20676 11.0511 4.37078 10.4472C3.75428 10.3461 3.1882 10.1318 2.64736 9.8168C2.1191 9.50183 1.65381 9.11141 1.26408 8.64555C0.874348 8.17968 0.572731 7.66355 0.346663 7.08456C0.120593 6.50557 0.00781352 5.87633 0.00829721 5.222C0.00882741 4.50476 0.147733 3.83796 0.425027 3.20901C0.70232 2.58006 1.08022 2.02667 1.55874 1.54887C2.03725 1.07106 2.60377 0.693988 3.23313 0.417624C3.87508 0.141268 4.5295 0.00333935 5.23416 0.00386025C5.97656 0.00440906 6.66854 0.143333 7.31007 0.420638C7.95161 0.697941 8.51757 1.07585 8.99537 1.55437C9.47318 2.03288 9.85026 2.58682 10.114 3.21617C10.3904 3.84553 10.5283 4.51254 10.5278 5.22978Z" fill="#C5A780"/>
</svg>
