<svg width="43" height="43" viewBox="0 0 43 43" fill="none" xmlns="http://www.w3.org/2000/svg">
<path d="M21.0547 0C9.42649 0 0 9.42649 0 21.0547C0 32.6829 9.42649 42.1094 21.0547 42.1094C32.6829 42.1094 42.1094 32.6829 42.1094 21.0547C42.1094 9.42649 32.6829 0 21.0547 0ZM18.4617 9.25968C18.4617 8.57445 18.7339 7.91729 19.2184 7.43276C19.7029 6.94823 20.3601 6.67602 21.0453 6.67602C21.7306 6.67602 22.3877 6.94823 22.8723 7.43276C23.3568 7.91729 23.629 8.57445 23.629 9.25968V24.2187C23.629 24.904 23.3568 25.5611 22.8723 26.0457C22.3877 26.5302 21.7306 26.8024 21.0453 26.8024C20.3601 26.8024 19.7029 26.5302 19.2184 26.0457C18.7339 25.5611 18.4617 24.904 18.4617 24.2187V9.25968ZM23.3201 34.4879C22.7976 35.0033 22.1127 35.3218 21.3818 35.3892C20.651 35.4566 19.9194 35.2688 19.3114 34.8577C18.7034 34.4466 18.2566 33.8376 18.0469 33.1343C17.8373 32.4309 17.8777 31.6767 18.1614 30.9998C18.4451 30.3229 18.9545 29.7652 19.603 29.4215C20.2514 29.0777 20.9989 28.9693 21.7184 29.1145C22.4378 29.2597 23.0847 29.6496 23.5491 30.2179C24.0135 30.7863 24.2666 31.4979 24.2656 32.2318C24.2691 32.6523 24.1871 33.0692 24.0245 33.457C23.862 33.8448 23.6223 34.1955 23.3201 34.4879Z" fill="white"/>
</svg>
