<svg width="44" height="44" viewBox="0 0 44 44" fill="none" xmlns="http://www.w3.org/2000/svg">
<g clip-path="url(#clip0_1_986)">
<path d="M21.2179 28.8595C21.718 29.3611 22.538 29.3633 23.0405 28.8595C23.1095 28.7843 26.9773 24.9377 26.8662 25.013H17.3922C17.2612 24.9172 21.1624 28.7982 21.2179 28.8595Z" fill="white"/>
<path d="M28.5694 21.5722C28.7106 20.9064 28.7089 20.1426 28.7025 19.46H15.5558C15.5316 20.4535 15.5864 21.4917 15.9114 22.435H28.347C28.4389 22.1532 28.5128 21.8653 28.5694 21.5722Z" fill="white"/>
<path d="M36.7654 24.2571C37.2372 24.7 38.0264 24.699 38.4985 24.2571L41.1585 21.8381C41.6852 21.3593 41.724 20.544 41.2453 20.0172C40.7668 19.4906 39.952 19.4516 39.4253 19.9303L38.9203 20.3896V15.6675C38.9203 14.9556 38.3435 14.3784 37.6319 14.3784C36.9204 14.3784 36.3435 14.9556 36.3435 15.6675V20.3897L35.8385 19.9304C35.3118 19.4515 34.497 19.4906 34.0186 20.0173C33.54 20.5441 33.5788 21.3594 34.1054 21.8382L36.7654 24.2571Z" fill="white"/>
<path d="M5.75979 24.2572C6.23202 24.6992 7.0211 24.7001 7.4929 24.2572L10.1529 21.8382C10.6795 21.3594 10.7184 20.5441 10.2397 20.0173C9.76122 19.4907 8.94627 19.4517 8.41973 19.9304L7.91468 20.3897V15.6675C7.91468 14.9556 7.33786 14.3784 6.6263 14.3784C5.91474 14.3784 5.33793 14.9556 5.33793 15.6675V20.3896L4.83296 19.9304C4.30642 19.4514 3.49156 19.4905 3.01297 20.0172C2.53439 20.544 2.57323 21.3593 3.09977 21.8381L5.75979 24.2572Z" fill="white"/>
<path d="M13.7703 14.3497C13.2223 14.498 12.8183 14.9978 12.8183 15.5927C12.8183 16.3052 13.3955 16.8818 14.1066 16.8818H29.8938C30.605 16.8818 31.1822 16.3052 31.1822 15.5927C31.1822 14.9979 30.7782 14.4982 30.2303 14.3497C31.6752 12.6922 33.3218 10.2761 33.5769 7.66432C33.7599 5.78573 33.2221 4.0748 31.9767 2.57949C30.453 0.750738 28.4663 -0.136051 26.2348 0.0169177C24.888 0.108871 23.4665 0.567777 22.0003 1.38418C20.5341 0.567777 19.1134 0.108871 17.7657 0.0169177C15.5333 -0.135192 13.5474 0.750824 12.0246 2.57949C10.7792 4.0748 10.2407 5.78573 10.4236 7.66432C10.6786 10.2764 12.3252 12.6923 13.7703 14.3497Z" fill="white"/>
<path d="M43.9108 32.5331C44.4827 29.8797 42.2213 27.1695 39.5045 27.2411H30.7399C28.6785 27.2411 26.8928 28.7725 26.587 30.804C26.2443 33.0761 24.2404 34.8275 22.0201 34.7914H21.9995H21.9788C19.7636 34.8301 17.7547 33.0761 17.412 30.804C17.1062 28.7725 15.3205 27.2411 13.259 27.2411H4.49452C1.77512 27.1727 -0.479369 29.8707 0.0882484 32.5339C0.387139 34.1272 0.630256 35.3904 0.810639 36.2867C0.963522 37.0482 0.843295 38.1644 0.463623 39.5162C-0.211502 41.6883 1.60668 44.0629 3.87612 43.9986H40.123C42.3926 44.0629 44.2106 41.6882 43.5355 39.5162C43.1558 38.1653 43.0356 37.049 43.1876 36.2876C43.3688 35.3904 43.6119 34.1272 43.9108 32.5331Z" fill="white"/>
</g>
<defs>
<clipPath id="clip0_1_986">
<rect width="44" height="44" fill="white"/>
</clipPath>
</defs>
</svg>
