<svg width="44" height="44" viewBox="0 0 44 44" fill="none" xmlns="http://www.w3.org/2000/svg">
<path d="M38.8186 9.02344C38.8186 4.04846 34.7701 0 29.7952 0C25.2341 0 23.1535 2.73792 22.0846 5.38016C20.4656 1.80637 17.8663 0 14.3264 0C9.35143 0 5.30296 4.04846 5.30296 9.02344C5.30296 9.28763 5.29155 9.61258 5.28014 9.98251C5.1895 12.702 5.02333 17.8495 7.97676 20.9023C9.50987 22.4857 11.6462 23.2891 14.3264 23.2891H29.7952C32.4236 23.2891 34.5133 22.5297 36.0048 21.0332C38.8512 18.1754 38.8337 13.2481 38.8199 9.71329L38.8186 9.02344Z" fill="white"/>
<path d="M30.1879 25.8672H13.9333L14.1911 28.4453H10.4592V31.0234H14.4489L14.7064 33.6016H11.7483V36.1797H14.9642L15.222 38.7578H13.0374V41.3359H15.4795L15.7373 44H28.3839L28.6417 41.3359H31.0842V38.7578H28.8992L29.157 36.1797H32.3733V33.6016H29.4148L29.6723 31.0234H33.6624V28.4453H29.9301L30.1879 25.8672Z" fill="white"/>
</svg>
