<svg width="234" height="25" viewBox="0 0 234 25" fill="none" xmlns="http://www.w3.org/2000/svg">
<path fill-rule="evenodd" clip-rule="evenodd" d="M190.941 0.240356C192.787 0.240356 194.465 0.588093 195.979 1.2859C197.494 1.9837 198.762 2.92153 199.789 4.0971C200.813 5.27459 201.604 6.60173 202.162 8.07581C202.721 9.54989 202.999 11.0875 202.999 12.6889C202.999 15.0666 202.452 17.1919 201.36 19.0676C200.267 20.9405 198.78 22.4 196.901 23.4379C195.023 24.4788 193.036 25.0001 190.941 25.0001C188.846 25.0001 186.861 24.4788 184.98 23.4379C183.102 22.4 181.617 20.9405 180.524 19.0676C179.429 17.1919 178.883 15.0666 178.883 12.6889C178.883 10.6297 179.368 8.63667 180.334 6.70483C181.302 4.7726 182.714 3.21311 184.57 2.02292C186.426 0.835428 188.551 0.240356 190.941 0.240356ZM190.941 2.05717C189.643 2.05717 188.526 2.31915 187.595 2.84577C186.661 3.37239 185.919 4.41753 185.373 5.98471C184.826 7.54957 184.553 9.78495 184.553 12.6889C184.553 16.5749 185.065 19.2953 186.09 20.8498C187.117 22.4046 188.733 23.1809 190.941 23.1809C192.399 23.1809 193.599 22.8628 194.546 22.2211C195.489 21.5822 196.189 20.4901 196.645 18.9475C197.101 17.405 197.328 15.3185 197.328 12.6889C197.328 9.78495 197.055 7.54957 196.509 5.98471C195.963 4.41753 195.223 3.37239 194.289 2.84577C193.355 2.31915 192.238 2.05717 190.941 2.05717Z" fill="#C5A780"/>
<path fill-rule="evenodd" clip-rule="evenodd" d="M107.939 23.3867C108.895 23.1124 109.726 22.2334 110.434 20.7471L117.333 6.10474C117.606 5.53196 117.743 4.83644 117.743 4.01131C117.743 3.78359 117.589 3.59511 117.282 3.44548C116.975 3.29891 116.592 3.25696 116.136 3.32582V2.09181C118.004 1.95448 119.438 1.33745 120.44 0.240356H121.67L130.621 19.033C131.279 20.4043 131.85 21.3983 132.327 22.0153C132.806 22.6324 133.306 23.0905 133.83 23.3867V24.623H124.062V23.3867C124.652 23.3867 125.113 23.1882 125.445 22.7866C125.774 22.3877 125.94 21.9372 125.94 21.4325C125.94 21.2271 125.838 20.8721 125.633 20.3701L124.574 18.142H113.677L112.79 20.1643C112.585 20.6909 112.453 21.1413 112.397 21.5183C112.341 21.8953 112.47 22.2627 112.79 22.6154C113.109 22.9705 113.724 23.2275 114.634 23.3867V24.623H107.939V23.3867ZM119.041 6.79023L114.702 16.1856V16.3225H123.584V16.2198L119.177 6.79023H119.041Z" fill="#C5A780"/>
<path fill-rule="evenodd" clip-rule="evenodd" d="M75.7283 0.240356C77.5721 0.240356 79.2526 0.588093 80.7673 1.2859C82.2815 1.9837 83.5498 2.92153 84.5743 4.0971C85.6012 5.27459 86.3913 6.60173 86.9495 8.07581C87.5082 9.54989 87.7864 11.0875 87.7864 12.6889C87.7864 15.0666 87.24 17.1919 86.1472 19.0676C85.0548 20.9405 83.567 22.4 81.6891 23.4379C79.8109 24.4788 77.8234 25.0001 75.7283 25.0001C73.6332 25.0001 71.6458 24.4788 69.7675 23.4379C67.8896 22.4 66.4045 20.9405 65.3094 19.0676C64.2167 17.1919 63.6703 15.0666 63.6703 12.6889C63.6703 10.6297 64.1558 8.63667 65.1217 6.70483C66.0899 4.7726 67.5019 3.21311 69.3579 2.02292C71.2139 0.835428 73.3382 0.240356 75.7283 0.240356ZM75.7283 2.05717C74.431 2.05717 73.314 2.31915 72.3822 2.84577C71.4481 3.37239 70.7066 4.41753 70.1602 5.98471C69.6139 7.54957 69.3411 9.78495 69.3411 12.6889C69.3411 16.5749 69.853 19.2953 70.8775 20.8498C71.9017 22.4046 73.5186 23.1809 75.7283 23.1809C77.1866 23.1809 78.3867 22.8628 79.3331 22.2211C80.2768 21.5822 80.9769 20.4901 81.4328 18.9475C81.8892 17.405 82.116 15.3185 82.116 12.6889C82.116 9.78495 81.8428 7.54957 81.2964 5.98471C80.75 4.41753 80.0086 3.37239 79.0771 2.84577C78.143 2.31915 77.0257 2.05717 75.7283 2.05717Z" fill="#C5A780"/>
<path fill-rule="evenodd" clip-rule="evenodd" d="M205.058 0.618286H213.289L219.506 17.731H219.642L225.859 0.618286H233.646V1.85233C232.532 2.01159 231.974 2.66283 231.974 3.80609V21.4677C231.974 22.5645 232.532 23.2061 233.646 23.3873V24.6236H225.142V23.3873C226.281 23.2503 226.85 22.611 226.85 21.4677V3.90919H226.61L219.096 24.6236H216.706L208.984 3.36064H208.848V21.125C208.848 22.6333 209.487 23.3873 210.763 23.3873V24.6236H205.058V23.3873C206.333 23.3873 206.97 22.6233 206.97 21.0904V4.66585C206.97 2.79017 206.333 1.85233 205.058 1.85233V0.618286Z" fill="#C5A780"/>
<path fill-rule="evenodd" clip-rule="evenodd" d="M154.323 0H155.691C156.305 0.318512 157.035 0.480053 157.876 0.480053H173.453C174.273 0.480053 175.012 0.318512 175.673 0H177.004V6.1729H175.775C174.658 3.61172 172.895 2.33112 170.48 2.33112L168.227 2.2969V21.4322C168.227 21.9808 168.339 22.392 168.568 22.6663C168.795 22.9405 169.251 23.1806 169.934 23.386V24.6227H161.429V23.386C162.113 23.1806 162.561 22.9529 162.778 22.7005C162.993 22.4509 163.103 22.0273 163.103 21.4322V2.2969L161.191 2.33112C160.005 2.33112 158.908 2.58809 157.893 3.1024C156.879 3.61671 156.1 4.63996 155.554 6.1729H154.323V0Z" fill="#C5A780"/>
<path fill-rule="evenodd" clip-rule="evenodd" d="M150.841 1.20049V6.79023H149.51C149.1 5.02995 148.341 3.80052 147.237 3.10271C146.134 2.40491 144.92 2.05717 143.6 2.05717C142.371 2.05717 141.442 2.38299 140.815 3.03424C140.188 3.6855 139.876 4.45679 139.876 5.35078C139.876 6.3544 140.281 7.12837 141.088 7.66461C141.898 8.20085 142.803 8.65361 143.805 9.01866C146.742 10.0934 148.917 11.1563 150.329 12.2092C151.741 13.2593 152.446 14.9292 152.446 17.2161C152.446 18.6317 152.092 19.9365 151.387 21.124C150.68 22.3142 149.685 23.2567 148.4 23.9549C147.112 24.65 145.627 25.0001 143.941 25.0001C142.756 25.0001 141.403 24.77 139.876 24.3145C138.942 24.0403 138.293 23.901 137.93 23.901C137.359 23.901 136.996 24.1187 136.837 24.5546C136.837 24.5765 136.83 24.5938 136.82 24.6061C136.808 24.6158 136.803 24.6331 136.803 24.6573H135.745L135.366 18.656H136.701C137.337 19.9808 138.3 21.0679 139.586 21.9126C140.873 22.7597 142.164 23.1809 143.464 23.1809C145.102 23.1809 146.371 22.7254 147.271 21.8099C148.171 20.8963 148.622 19.9023 148.622 18.8275C148.622 17.7989 148.234 17.0326 147.458 16.5283C146.685 16.0263 145.422 15.4435 143.668 14.7799C142.439 14.3222 141.334 13.8371 140.354 13.3232C139.376 12.8089 138.476 12.0376 137.656 11.0094C136.837 9.97844 136.427 8.69784 136.427 7.1676C136.427 5.8647 136.74 4.68719 137.366 3.63433C137.993 2.58378 138.847 1.75367 139.927 1.14896C141.01 0.544245 142.188 0.240356 143.464 0.240356C144.625 0.240356 145.649 0.433837 146.537 0.823129C146.719 0.913913 147.061 1.09278 147.561 1.35475C148.063 1.61671 148.439 1.74866 148.69 1.74866C149.168 1.74866 149.497 1.56517 149.68 1.20049H150.841Z" fill="#C5A780"/>
<path fill-rule="evenodd" clip-rule="evenodd" d="M86.9321 0.618286L96.8023 0.652506V1.9208C96.1195 1.85233 95.5731 1.96733 95.1636 2.26353C94.7536 2.55973 94.5486 2.94942 94.5486 3.42911C94.5486 3.88687 94.6854 4.36695 94.9586 4.87126L101.414 17.9368H101.926L107.836 4.62893C108.063 4.12693 108.177 3.728 108.177 3.42911C108.177 2.81209 107.933 2.39588 107.443 2.17816C106.953 1.96005 106.424 1.85233 105.856 1.85233V0.618286H112.721V1.85233C112.038 1.98928 111.492 2.27586 111.082 2.70939C110.672 3.14523 110.285 3.74995 109.921 4.52853L100.936 24.6236H99.6389L89.7319 4.42311C89.005 2.89287 88.0709 2.03582 86.9321 1.85233V0.618286Z" fill="#C5A780"/>
<path fill-rule="evenodd" clip-rule="evenodd" d="M37.4371 0.618286H43.8927L56.5653 15.8776H56.9408V3.94341C56.9408 2.73129 56.2703 2.03582 54.9265 1.85233V0.618286H60.7674V1.85233C59.4237 2.03582 58.7505 2.73129 58.7505 3.94341V24.6236H56.9408L41.537 6.03684H41.1952V21.2962C41.1952 22.5083 41.8661 23.2061 43.2099 23.3873V24.6236H37.3688V23.3873C38.7127 23.2061 39.3833 22.5083 39.3833 21.2962V3.94341C39.3833 2.45971 38.7346 1.76155 37.4371 1.85233V0.618286Z" fill="#C5A780"/>
<path fill-rule="evenodd" clip-rule="evenodd" d="M11.3069 0.618286H17.7627L30.4352 15.8776H30.8108V3.94341C30.8108 2.73129 30.1401 2.03582 28.7963 1.85233V0.618286H34.6374V1.85233C33.2936 2.03582 32.6205 2.73129 32.6205 3.94341V24.6236H30.8108L15.4067 6.03684H15.0653V21.2962C15.0653 22.5083 15.736 23.2061 17.0798 23.3873V24.6236H11.2386V23.3873C12.5825 23.2061 13.2532 22.5083 13.2532 21.2962V3.94341C13.2532 2.45971 12.6044 1.76155 11.3069 1.85233V0.618286Z" fill="#C5A780"/>
<path fill-rule="evenodd" clip-rule="evenodd" d="M0 0.618286H8.50686V1.85233C7.38987 2.03582 6.83134 2.79016 6.83134 4.1146V21.125C6.83134 22.4521 7.38987 23.2061 8.50686 23.3873V24.6236H0V23.3873C1.13896 23.2746 1.70967 22.5206 1.70967 21.125V4.1146C1.70967 2.74361 1.13896 1.98928 0 1.85233V0.618286Z" fill="#C5A780"/>
</svg>
