<svg width="42" height="42" viewBox="0 0 42 42" fill="none" xmlns="http://www.w3.org/2000/svg">
<path d="M26.625 23.174L29.267 24.75C29.5329 24.9092 29.743 25.1469 29.8683 25.4303C29.9937 25.7138 30.0281 26.0291 29.967 26.333C29.8482 26.941 29.606 27.5181 29.2552 28.0287C28.9044 28.5393 28.4526 28.9725 27.9276 29.3014C27.4027 29.6304 26.8158 29.848 26.2034 29.941C25.5909 30.034 24.9659 30.0003 24.367 29.842C21.4478 29.0416 18.7871 27.4952 16.6467 25.3549C14.5062 23.2146 12.9596 20.5541 12.159 17.635C12.0005 17.0362 11.9666 16.4113 12.0594 15.7989C12.1522 15.1865 12.3697 14.5996 12.6984 14.0747C13.0272 13.5497 13.4602 13.0978 13.9706 12.747C14.4811 12.3962 15.0581 12.1538 15.666 12.035H15.682C15.9873 11.9737 16.3041 12.0089 16.5884 12.1358C16.8728 12.2626 17.1107 12.4748 17.269 12.743L18.833 15.376C19.1 15.8285 19.1833 16.3662 19.0655 16.8783C18.9477 17.3903 18.6379 17.8377 18.2 18.128L16.543 19.233C17.7159 22.0431 19.9467 24.2793 22.754 25.459L23.869 23.794C24.1615 23.3573 24.6105 23.0496 25.1233 22.9342C25.6361 22.8189 26.1736 22.9047 26.625 23.174ZM26.75 19C26.7486 18.0058 26.3531 17.0528 25.6502 16.3498C24.9472 15.6468 23.9941 15.2513 23 15.25C22.8011 15.25 22.6103 15.329 22.4696 15.4696C22.329 15.6103 22.25 15.8011 22.25 16C22.25 16.1989 22.329 16.3897 22.4696 16.5303C22.6103 16.671 22.8011 16.75 23 16.75C23.5965 16.7508 24.1683 16.9881 24.5901 17.4099C25.0119 17.8317 25.2492 18.4035 25.25 19C25.25 19.1989 25.329 19.3897 25.4696 19.5303C25.6103 19.671 25.8011 19.75 26 19.75C26.1989 19.75 26.3896 19.671 26.5303 19.5303C26.671 19.3897 26.75 19.1989 26.75 19ZM29 19.75C28.8011 19.75 28.6103 19.671 28.4696 19.5303C28.329 19.3897 28.25 19.1989 28.25 19C28.2484 17.6081 27.6947 16.2736 26.7105 15.2894C25.7263 14.3052 24.3919 13.7516 23 13.75C22.8011 13.75 22.6103 13.671 22.4696 13.5303C22.329 13.3897 22.25 13.1989 22.25 13C22.25 12.8011 22.329 12.6103 22.4696 12.4696C22.6103 12.329 22.8011 12.25 23 12.25C24.7895 12.2521 26.5052 12.9639 27.7706 14.2293C29.036 15.4948 29.7479 17.2104 29.75 19C29.75 19.1989 29.671 19.3897 29.5303 19.5303C29.3896 19.671 29.1989 19.75 29 19.75Z" fill="white"/>
<circle cx="21" cy="21" r="20.5" stroke="white"/>
</svg>
