<svg width="64" height="64" viewBox="0 0 64 64" fill="none" xmlns="http://www.w3.org/2000/svg">
<g clip-path="url(#clip0_355_7889)">
<path d="M32 64C49.6731 64 64 49.6731 64 32C64 14.3269 49.6731 0 32 0C14.3269 0 0 14.3269 0 32C0 49.6731 14.3269 64 32 64Z" fill="#313638"/>
<path d="M41.9348 29.7496L28.4871 20.5283C27.8833 20.0892 27.2246 19.8696 26.7306 19.8696C25.6878 19.8696 25.084 20.693 25.084 22.0103V41.9348C25.084 43.307 25.6878 44.0755 26.6757 44.0755C27.2246 44.0755 27.8284 43.8559 28.4322 43.4168L41.8799 34.1955C42.7581 33.5918 43.2521 32.8233 43.2521 31.9451C43.2521 31.0669 42.813 30.3533 41.9348 29.7496Z" fill="white"/>
</g>
<defs>
<clipPath id="clip0_355_7889">
<rect width="64" height="64" fill="white"/>
</clipPath>
</defs>
</svg>
