<svg width="21" height="24" viewBox="0 0 21 24" fill="none" xmlns="http://www.w3.org/2000/svg">
<path d="M19.7332 2.85389L10.3193 0.0296719C10.1875 -0.00989062 10.047 -0.00989062 9.91514 0.0296719L0.501047 2.85389C0.203672 2.94309 0 3.21684 0 3.52734V13.8828C0 15.2297 0.545297 16.6085 1.62066 17.9808C2.44195 19.029 3.57825 20.0814 4.99786 21.1091C7.38272 22.8354 9.73111 23.8944 9.82992 23.9386C9.92128 23.9795 10.0192 24 10.1172 24C10.2152 24 10.3132 23.9796 10.4045 23.9386C10.5033 23.8944 12.8516 22.8354 15.2365 21.1091C16.6561 20.0814 17.7923 19.029 18.6137 17.9808C19.689 16.6085 20.2342 15.2297 20.2342 13.8828V3.52734C20.2342 3.21684 20.0307 2.94309 19.7332 2.85389Z" fill="#C5A780"/>
</svg>
