<svg width="56" height="56" viewBox="0 0 56 56" fill="none" xmlns="http://www.w3.org/2000/svg">
<g clip-path="url(#clip0_0_28)">
<path d="M36.2485 19.4821C34.0524 17.2321 31.1504 16 28.0393 16C21.6602 16 16.4576 21.3304 16.4576 27.8929C16.4576 29.9821 16.9805 32.0179 18.0001 33.8393L16.353 40L22.4968 38.3661C24.1962 39.3304 26.1047 39.8125 28.0393 39.8125C34.4184 39.8125 39.6471 34.4821 39.6471 27.9196C39.6471 24.7054 38.4445 21.7321 36.2485 19.4821ZM34.3922 32.6875C34.1308 33.4643 32.8236 34.1607 32.1962 34.2679C31.6471 34.3482 30.9413 34.375 30.1569 34.1339C29.6864 33.9732 29.0851 33.7857 28.3007 33.4375C25.0328 31.9911 22.889 28.6161 22.7321 28.4018C22.5752 28.1607 21.3988 26.5804 21.3988 24.9464C21.3988 23.3125 22.2615 22.4821 22.5491 22.1607C22.8367 21.8125 23.2027 21.7321 23.4119 21.7321C23.621 21.7321 23.8563 21.7321 24.0393 21.7321C24.2485 21.7321 24.5099 21.6518 24.7713 22.2946C25.0328 22.9643 25.6864 24.5982 25.7648 24.7589C25.8432 24.9196 25.8955 25.1339 25.7909 25.3482C25.6864 25.5893 25.6341 25.7232 25.4772 25.9107C25.2942 26.0982 25.1373 26.3393 24.9805 26.5C24.8236 26.6607 24.6668 26.8482 24.8498 27.1696C25.0328 27.4911 25.6864 28.5893 26.6537 29.4732C27.8824 30.625 28.9543 30.9732 29.2681 31.1339C29.5818 31.2946 29.7909 31.2679 29.9739 31.0536C30.1569 30.8125 30.7844 30.0625 30.9935 29.7411C31.2027 29.4196 31.438 29.4732 31.7256 29.5804C32.0132 29.6875 33.6341 30.4911 33.9478 30.6518C34.2877 30.8125 34.4968 30.8929 34.5752 31.1071C34.6537 31.2411 34.6537 31.9107 34.3922 32.6875Z" fill="white"/>
</g>
<circle cx="28" cy="28" r="27.5" stroke="white"/>
<defs>
<clipPath id="clip0_0_28">
<rect width="23.2941" height="24" fill="white" transform="translate(16.353 16)"/>
</clipPath>
</defs>
</svg>
