<svg width="56" height="56" viewBox="0 0 56 56" fill="none" xmlns="http://www.w3.org/2000/svg">
<circle cx="28" cy="28" r="27.5" stroke="white"/>
<g clip-path="url(#clip0_0_23)">
<path d="M36.2049 19.7871L19.1517 26.5613C19.1517 26.5613 18.3427 26.8387 18.4064 27.3548C18.4701 27.8709 19.1262 28.1096 19.1262 28.1096L23.4134 29.5742L23.4198 29.5806V29.5742L33.7142 22.9484C33.7142 22.9484 34.3066 22.5806 34.2875 22.9484C34.2875 22.9484 34.3958 23.0129 34.0773 23.3161C33.7588 23.6193 25.987 30.6903 25.987 30.6903L25.9743 30.8258L32.9688 36.258C34.1346 36.7742 34.5614 35.6967 34.5614 35.6967L37.6 20.1935C37.6 19.1613 36.1986 19.7871 36.2049 19.7871Z" fill="white"/>
<path d="M28.6496 32.9032L25.8786 35.4645C25.8786 35.4645 25.662 35.6322 25.4263 35.529L25.955 30.7742" fill="white"/>
</g>
<defs>
<clipPath id="clip0_0_23">
<rect width="19.2" height="16.8" fill="white" transform="translate(18.3999 19.6)"/>
</clipPath>
</defs>
</svg>
