<svg width="35" height="35" viewBox="0 0 35 35" fill="none" xmlns="http://www.w3.org/2000/svg">
<circle cx="17.5" cy="17.5" r="17.5" fill="white"/>
<g clip-path="url(#clip0_324_599)">
<path d="M22.8375 11.1559L8.62652 16.8011C8.62652 16.8011 7.95233 17.0322 8.00542 17.4623C8.05851 17.8925 8.60529 18.0914 8.60529 18.0914L12.1779 19.3118L12.1833 19.3172V19.3118L20.7619 13.7903C20.7619 13.7903 21.2556 13.4838 21.2397 13.7903C21.2397 13.7903 21.3299 13.8441 21.0645 14.0968C20.799 14.3494 14.3226 20.2419 14.3226 20.2419L14.312 20.3548L20.1408 24.8817C21.1123 25.3118 21.4679 24.414 21.4679 24.414L24.0001 11.4946C24.0001 10.6344 22.8322 11.1559 22.8375 11.1559Z" fill="#313638"/>
<path d="M16.5414 22.086L14.2321 24.2204C14.2321 24.2204 14.0516 24.3602 13.8552 24.2741L14.2958 20.3118" fill="#313638"/>
</g>
<defs>
<clipPath id="clip0_324_599">
<rect width="16" height="14" fill="white" transform="translate(8 11)"/>
</clipPath>
</defs>
</svg>
