<svg width="20" height="20" viewBox="0 0 20 20" fill="none" xmlns="http://www.w3.org/2000/svg">
<path d="M10 2C5.589 2 2 5.589 2 10C2 14.411 5.589 18 10 18C14.411 18 18 14.411 18 10C18 5.589 14.411 2 10 2ZM13.926 7.29L12.739 13.239C12.657 13.624 12.427 13.713 12.109 13.536L10.371 12.242L9.539 13.042C9.447 13.134 9.371 13.21 9.199 13.21L9.316 11.433L12.544 8.508C12.679 8.387 12.515 8.319 12.339 8.44L8.293 10.981L6.581 10.458C6.209 10.343 6.201 10.089 6.663 9.912L13.39 7.088C13.703 6.973 13.98 7.166 13.926 7.29Z" fill="#FFFFFF"/>
</svg>

