<svg width="24" height="24" viewBox="0 0 24 24" fill="none" xmlns="http://www.w3.org/2000/svg">
<path d="M4 13C2.89 13 2 13.89 2 15V19C2 20.1 2.89 21 4 21H20C21.1 21 22 20.1 22 19V15C22 13.89 21.1 13 20 13H4ZM21 19C21 19.55 20.55 20 20 20H4C3.45 20 3 19.55 3 19V15C3 14.45 3.45 14 4 14H20C20.55 14 21 14.45 21 15V19ZM18 4V7H13V4H18ZM20 7C20 5.89 19.1 5 18 5V4C18 2.89 17.1 2 16 2H12C10.9 2 10 2.89 10 4V5C8.9 5 8 5.89 8 7V11C8 12.1 8.9 13 10 13H20C21.1 13 22 12.1 22 11V7C22 5.89 21.1 5 20 5ZM20 11C20 11.55 19.55 12 19 12H11C10.45 12 10 11.55 10 11V7C10 6.45 10.45 6 11 6H19C19.55 6 20 6.45 20 7V11Z" fill="#1D1D1B"/>
</svg>

