<svg width="24" height="24" viewBox="0 0 24 24" fill="none" xmlns="http://www.w3.org/2000/svg">
<path d="M17.472 14.382C17.235 14.263 16.048 13.678 15.83 13.603C15.613 13.528 15.453 13.489 15.293 13.726C15.133 13.963 14.671 14.503 14.531 14.663C14.391 14.823 14.251 14.842 14.014 14.723C13.777 14.604 13.003 14.345 12.086 13.531C11.375 12.896 10.897 12.113 10.757 11.876C10.617 11.639 10.742 11.509 10.861 11.39C10.969 11.282 11.098 11.107 11.217 10.967C11.336 10.827 11.375 10.725 11.45 10.565C11.525 10.405 11.487 10.265 11.428 10.146C11.369 10.027 10.892 8.839 10.693 8.365C10.5 7.903 10.303 7.966 10.157 7.959C10.017 7.952 9.857 7.951 9.697 7.951C9.537 7.951 9.281 8.01 9.064 8.247C8.847 8.484 8.223 9.069 8.223 10.257C8.223 11.445 9.083 12.594 9.202 12.754C9.321 12.914 10.891 15.319 13.313 16.364C13.899 16.625 14.358 16.784 14.716 16.902C15.303 17.091 15.836 17.064 16.257 17.005C16.727 16.938 17.692 16.421 17.891 15.855C18.09 15.289 18.09 14.798 18.031 14.704C17.972 14.61 17.812 14.551 17.575 14.432L17.472 14.382ZM12.04 21.814H12.037C10.279 21.814 8.558 21.321 7.058 20.393L6.715 20.187L3.362 21.093L4.283 17.826L4.058 17.47C3.04 15.918 2.498 14.117 2.499 12.272C2.501 6.925 6.693 2.733 12.043 2.733C14.649 2.734 17.1 3.748 18.925 5.575C20.75 7.402 21.762 9.854 21.761 12.459C21.759 17.806 17.567 21.998 12.217 21.998L12.04 21.814Z" fill="#FFFFFF"/>
</svg>

